<?xml version="1.0" encoding="utf-8"?>
<!-- Generator: Adobe Illustrator 25.0.0, SVG Export Plug-In . SVG Version: 6.00 Build 0)  -->
<svg version="1.1" xmlns="http://www.w3.org/2000/svg" xmlns:xlink="http://www.w3.org/1999/xlink" x="0px" y="0px"
	 viewBox="0 0 512 512" style="enable-background:new 0 0 512 512;" xml:space="preserve">
<style type="text/css">
	.st0{fill:#3D2A3D;}
	.st1{fill:#D5872A;}
	.st2{fill:#C9E874;}
	.st3{fill:#277A6B;}
	.st4{fill:#FFDE69;}
	.st5{fill:#698250;}
	.st6{fill:#C8C947;}
	.st7{fill:#A6DEA9;}
	.st8{fill:#376C7E;}
	.st9{fill:#8BA83C;}
	.st10{fill:#2FABAF;}
	.st11{fill:#216964;}
	.st12{fill:#605560;}
	.st13{fill:#C45742;}
	.st14{fill:#79D7F2;}
	.st15{fill:#769938;}
	.st16{fill:#9EC853;}
	.st17{fill:#E7AD84;}
	.st18{fill:#76B079;}
	.st19{clip-path:url(#SVGID_2_);}
	.st20{fill:#594335;}
	.st21{fill:#F7F7F8;}
	.st22{fill:#7D5737;}
	.st23{fill:#D68F6A;}
	.st24{clip-path:url(#SVGID_4_);fill:#C45742;}
	.st25{clip-path:url(#SVGID_4_);fill:#E88D38;}
	.st26{clip-path:url(#SVGID_4_);}
	.st27{fill:#E1902B;}
	.st28{fill:#FFC671;}
	.st29{fill:#E1E1E1;}
	.st30{clip-path:url(#SVGID_6_);}
	.st31{fill:#D1741D;}
	.st32{fill:#C93A3A;}
	.st33{clip-path:url(#SVGID_8_);}
	.st34{fill:#919191;}
	.st35{fill:#CE722F;}
	.st36{fill:#C4C4C4;}
	.st37{clip-path:url(#SVGID_10_);}
	.st38{fill:#665348;}
	.st39{fill:#877365;}
	.st40{fill:#E3A584;}
	.st41{fill:#733D28;}
	.st42{clip-path:url(#SVGID_12_);}
	.st43{fill:#8C8C8C;}
	.st44{fill:#BFBFBF;}
	.st45{clip-path:url(#SVGID_14_);}
	.st46{clip-path:url(#SVGID_16_);}
	.st47{fill:#FFFFFF;}
	.st48{fill:#4A414A;}
	.st49{clip-path:url(#SVGID_18_);}
	.st50{fill:#BE7632;}
	.st51{clip-path:url(#SVGID_20_);}
	.st52{fill:#E3A445;}
	.st53{fill:#FFF0BA;}
	.st54{fill:#BF7128;}
	.st55{clip-path:url(#XMLID_82_);}
	.st56{fill:#AC6322;}
	.st57{clip-path:url(#SVGID_22_);}
	.st58{fill:#DBCCA6;}
	.st59{fill:#C2A579;}
	.st60{fill:#CFB582;}
	.st61{fill:#EBE2B2;}
	.st62{fill:#B8B399;}
	.st63{fill:#918E79;}
	.st64{fill:#665F52;}
	.st65{clip-path:url(#XMLID_83_);}
	.st66{fill:#BD4A4A;}
	.st67{fill:#D4811C;}
	.st68{fill:#CF6F15;}
	.st69{clip-path:url(#SVGID_24_);}
	.st70{fill:#FFF8E3;}
	.st71{fill:#7A6D7A;}
	.st72{fill:#2C1512;}
	.st73{fill:#D6CBA9;}
	.st74{clip-path:url(#XMLID_84_);}
	.st75{fill:#FFEA9E;}
	.st76{fill:#FFDBC5;}
	.st77{clip-path:url(#XMLID_85_);}
	.st78{fill:#B55716;}
	.st79{fill:#C47325;}
	.st80{clip-path:url(#XMLID_86_);}
	.st81{fill:#ADA798;}
	.st82{fill:#C4BDAC;}
	.st83{fill:#8F8266;}
	.st84{fill:#D6CEBC;}
	.st85{fill:#FFFAE6;}
	.st86{fill:#595140;}
	.st87{clip-path:url(#XMLID_88_);}
	.st88{fill:#B84028;}
	.st89{fill:#E6B75A;}
	.st90{fill:#DB614A;}
	.st91{clip-path:url(#XMLID_92_);}
	.st92{fill:#615661;}
	.st93{fill:#635963;}
	.st94{fill:#4F414F;}
	.st95{fill:#7D6F7D;}
	.st96{fill:#B5A0B5;}
	.st97{fill:#574D57;}
	.st98{clip-path:url(#XMLID_95_);}
	.st99{fill:#C2C2C2;}
	.st100{fill:#9E9E9E;}
	.st101{fill:#949494;}
	.st102{fill:#E8E8E8;}
	.st103{fill:#A1A1A1;}
	.st104{fill:#D66270;}
	.st105{clip-path:url(#XMLID_99_);}
	.st106{fill:#CFCFCF;}
	.st107{fill:#BDA18D;}
	.st108{fill:#82A385;}
	.st109{clip-path:url(#XMLID_100_);}
	.st110{fill:#D1986E;}
	.st111{fill:#C2733E;}
	.st112{fill:#E6AC83;}
	.st113{fill:#C28155;}
	.st114{fill:#6E482E;}
	.st115{fill:#594435;}
	.st116{clip-path:url(#XMLID_102_);}
	.st117{fill:#6B5545;}
	.st118{fill:#261526;}
	.st119{fill:#9E8776;}
	.st120{fill:#807180;}
	.st121{fill:#A693A6;}
	.st122{fill:#614C61;}
	.st123{clip-path:url(#XMLID_107_);}
	.st124{fill:#D9D9D9;}
	.st125{clip-path:url(#XMLID_110_);}
	.st126{fill:#4D404D;}
	.st127{clip-path:url(#XMLID_110_);fill:#4D404D;}
	.st128{clip-path:url(#XMLID_111_);}
	.st129{clip-path:url(#XMLID_120_);}
	.st130{fill:#FFC682;}
	.st131{clip-path:url(#XMLID_121_);}
	.st132{fill:#753427;}
	.st133{clip-path:url(#XMLID_121_);fill:#753427;}
	.st134{clip-path:url(#SVGID_26_);}
	.st135{fill:#694334;}
	.st136{fill:#FF826E;}
	.st137{fill:#875F44;}
	.st138{fill:#4F3327;}
	.st139{fill:#D68256;}
	.st140{clip-path:url(#SVGID_28_);}
	.st141{fill:#6E6E6E;}
	.st142{fill:#B8B8B8;}
	.st143{clip-path:url(#SVGID_28_);fill:#B8B8B8;}
	.st144{clip-path:url(#SVGID_30_);}
	.st145{clip-path:url(#SVGID_32_);}
	.st146{fill:#D16658;}
	.st147{fill:#E6786A;}
	.st148{fill:#F79E92;}
	.st149{clip-path:url(#SVGID_34_);}
	.st150{fill:#E6CA56;}
	.st151{fill:#F2EBCB;}
	.st152{fill:#F08C7F;}
	.st153{clip-path:url(#SVGID_36_);}
	.st154{fill:#9E6842;}
	.st155{fill:#BA835E;}
	.st156{fill:#8C5937;}
	.st157{fill:#E3AD88;}
	.st158{fill:#A86B42;}
	.st159{clip-path:url(#SVGID_38_);}
	.st160{fill:#877987;}
	.st161{fill:#C7BCB2;}
	.st162{clip-path:url(#SVGID_40_);}
	.st163{fill:#6E4D37;}
	.st164{fill:#A8562A;}
	.st165{clip-path:url(#SVGID_42_);}
	.st166{fill:#A37352;}
	.st167{clip-path:url(#SVGID_44_);}
	.st168{fill:#8A8A8A;}
	.st169{fill:#F0F0F0;}
	.st170{clip-path:url(#XMLID_126_);}
	.st171{clip-path:url(#SVGID_46_);fill:none;}
	.st172{clip-path:url(#SVGID_46_);}
	.st173{fill:#78553C;}
	.st174{fill:#F29C5E;}
	.st175{fill:#D4D4D4;}
	.st176{clip-path:url(#SVGID_48_);}
	.st177{fill:#DB959A;}
	.st178{clip-path:url(#SVGID_50_);}
	.st179{fill:#A1341E;}
	.st180{fill:#EB9F2E;}
	.st181{clip-path:url(#SVGID_52_);}
	.st182{clip-path:url(#SVGID_54_);}
	.st183{fill:#855433;}
	.st184{fill:#AD6D42;}
	.st185{clip-path:url(#SVGID_56_);}
	.st186{fill:#D5A060;}
	.st187{clip-path:url(#SVGID_58_);}
	.st188{fill:#4A3C4A;}
	.st189{fill:#524352;}
	.st190{clip-path:url(#SVGID_60_);}
	.st191{fill:#524252;}
	.st192{clip-path:url(#SVGID_62_);fill:#C7781C;}
	.st193{clip-path:url(#SVGID_62_);}
	.st194{fill:#DEDEDE;}
	.st195{fill:#C7781C;}
	.st196{clip-path:url(#SVGID_62_);fill:#D5872A;}
	.st197{clip-path:url(#SVGID_62_);fill:#877365;}
	.st198{clip-path:url(#SVGID_62_);fill:#E3AD88;}
	.st199{clip-path:url(#SVGID_62_);fill:#F7F7F8;}
	.st200{clip-path:url(#SVGID_64_);}
	.st201{fill:#A63A25;}
	.st202{clip-path:url(#SVGID_66_);}
	.st203{clip-path:url(#SVGID_68_);}
	.st204{fill:#CF97A1;}
	.st205{fill:#CF7686;}
	.st206{clip-path:url(#SVGID_70_);}
	.st207{fill:#4F464F;}
	.st208{fill:#9C8A9C;}
	.st209{clip-path:url(#SVGID_72_);}
</style>
<g id="ICON">
	
		<ellipse id="XMLID_3002_" transform="matrix(0.7071 -0.7071 0.7071 0.7071 -106.038 256.0004)" class="st12" cx="256" cy="256" rx="256" ry="256"/>
</g>
<g id="Layer_7">
	<g id="XMLID_1615_">
		<defs>
			<path id="XMLID_1679_" d="M512,256c0,141.4-114.6,256-256,256C114.6,512,0,397.4,0,256C0,114.6,114.6,0,256,0
				C397.4,0,512,114.6,512,256z"/>
		</defs>
		<clipPath id="XMLID_82_">
			<use xlink:href="#XMLID_1679_"  style="overflow:visible;"/>
		</clipPath>
		<g id="XMLID_1616_" class="st55">
			<g id="XMLID_1617_">
				<rect id="XMLID_1618_" x="192.1" y="243.2" class="st1" width="127.8" height="131.1"/>
				<g id="XMLID_1619_">
					<path id="XMLID_1620_" class="st1" d="M487,514.4l-0.1-1c0-63.7-23.9-125.5-53-137.2l-124.1-50c-29.1-11.7-76.8-11.8-106-0.1
						L78.1,376.2c-29.2,11.7-53,73.4-53,137.1l-0.1,1H487z"/>
					<path id="XMLID_1621_" class="st13" d="M487,513.3c0-63.7-23.9-125.5-53-137.2l-93.6-37.7c0,0-17.9,64.6-84.3,64.6
						c-66.4,0-83.9-64.3-83.9-64.3l-94,37.6c-29.2,11.7-53,73.4-53,137.1l-0.1,1h462L487,513.3z"/>
				</g>
			</g>
			<g id="XMLID_1622_">
				<g id="XMLID_1623_">
					<g id="XMLID_1624_">
						<g id="XMLID_1625_">
							<path id="XMLID_1628_" class="st1" d="M164.4,140.6c16.8,14.8,37.7,9.3,49.7-9.5c12-18.9,10.6-44-6.2-58.9
								c-16.8-14.8-61.5-30.3-73.5-11.4C122.5,79.7,147.6,125.8,164.4,140.6z"/>
						</g>
						<g id="XMLID_1629_">
							<path id="XMLID_1632_" class="st13" d="M170.7,130.1c11.8,10.4,26.4,6.5,34.8-6.7c8.4-13.2,7.4-30.8-4.3-41.2
								c-11.8-10.4-43-21.2-51.4-8C141.3,87.4,158.9,119.7,170.7,130.1z"/>
						</g>
					</g>
					<g id="XMLID_1633_">
						<g id="XMLID_1634_">
							<path id="XMLID_1637_" class="st1" d="M348.1,140.6c-16.8,14.8-37.7,9.3-49.7-9.5c-12-18.9-10.6-44,6.2-58.9
								c16.8-14.8,61.5-30.3,73.5-11.4C390.1,79.7,364.9,125.8,348.1,140.6z"/>
						</g>
						<g id="XMLID_1638_">
							<path id="XMLID_1641_" class="st13" d="M341.9,130.1c-11.8,10.4-26.4,6.5-34.8-6.7c-8.4-13.2-7.4-30.8,4.3-41.2
								c11.8-10.4,43-21.2,51.4-8C371.3,87.4,353.7,119.7,341.9,130.1z"/>
						</g>
					</g>
				</g>
				<g id="XMLID_1642_">
					<ellipse id="XMLID_1643_" class="st1" cx="256" cy="257.8" rx="146.2" ry="67.3"/>
					<path id="XMLID_1644_" class="st1" d="M372.6,283.6v-99.8c0-57.7-52.2-104.5-116.6-104.5s-116.6,46.8-116.6,104.5v99.8H372.6z"
						/>
				</g>
				<g id="XMLID_1645_">
					<circle id="XMLID_1646_" class="st0" cx="217.3" cy="186.1" r="12.3"/>
					<circle id="XMLID_1647_" class="st0" cx="294.7" cy="186.1" r="12.3"/>
				</g>
				<g id="XMLID_1648_">
					<path id="XMLID_1649_" class="st130" d="M320.5,271.3c0-31.6-28.9-57.2-64.5-57.2c-35.6,0-64.5,25.6-64.5,57.2v16.8
						c0,11,3.5,21.3,9.6,30c17.2,4.5,35.6,7,54.9,7c19.3,0,37.7-2.5,54.9-7c6.1-8.7,9.6-19,9.6-30V271.3z"/>
					<g id="XMLID_1650_">
						<g id="XMLID_1651_">
							<path id="XMLID_1652_" class="st0" d="M281.4,222.9c0,7.3-25.9,21.4-25.9,21.4s-25.9-14.1-25.9-21.4c0-7.3,11.6-9.1,25.9-9.1
								C269.8,213.8,281.4,215.6,281.4,222.9z"/>
							<path id="XMLID_1653_" class="st0" d="M263,269.6c0,3.4-2.8,6.2-6.2,6.2l0,0c-3.4,0-6.2-2.8-6.2-6.2v-32.5
								c0-3.4,2.8-6.2,6.2-6.2l0,0c3.4,0,6.2,2.8,6.2,6.2V269.6z"/>
						</g>
					</g>
				</g>
				<g id="XMLID_1654_">
					<defs>
						<path id="XMLID_1675_" d="M372.6,226.9v-43c0-57.7-52.2-104.5-116.6-104.5s-116.6,46.8-116.6,104.5v43
							c-12,9.1-22,19.5-29.7,30.9c26.6,39.8,82.1,67.3,146.2,67.3c64.2,0,119.7-27.4,146.2-67.3
							C394.6,246.3,384.5,235.9,372.6,226.9z"/>
					</defs>
					<clipPath id="XMLID_83_">
						<use xlink:href="#XMLID_1675_"  style="overflow:visible;"/>
					</clipPath>
					<g id="XMLID_1655_" class="st65">
						<path class="st132" d="M273.9,109.5c0.9,2.3-0.9,4.8-3.2,4.6c-4.1-0.2-7.9,2.1-8.5,6.4c-0.5,3.8,2.3,8.3,6.4,8.5
							c13.6,0.7,24.5-11.8,19.3-25.1C284.4,94.8,270.4,100.4,273.9,109.5L273.9,109.5z"/>
					</g>
					<g id="XMLID_1656_" class="st65">
						<path class="st132" d="M358.9,142c-1.6,2.7-5.5,2.9-7.2,0.4c-3-4.3-8.4-6.3-13.2-3.4c-4.3,2.5-6.5,8.9-3.4,13.2
							c10.1,14.2,31.4,15.3,40.7-0.5C381.9,140.9,365.2,131.3,358.9,142L358.9,142z"/>
					</g>
					<g id="XMLID_1657_" class="st65">
						<path class="st132" d="M158.5,131.2c-3,0.8-5.8-1.6-5.4-4.6c0.8-5.1-1.7-10.1-7-11.3c-4.7-1.1-10.6,1.9-11.3,7
							c-2.5,16.8,11.7,31.9,28.9,27.1C175.4,146,170.1,127.9,158.5,131.2L158.5,131.2z"/>
					</g>
					<circle id="XMLID_1658_" style="clip-path:url(#XMLID_83_);fill:#753427;" cx="252.7" cy="89.1" r="7.3"/>
					<g id="XMLID_1659_" class="st65">
						<path id="XMLID_1660_" class="st132" d="M157.3,207.2c-0.8,3-4.4,4.1-6.7,2.2c-3.9-3.3-9.5-3.9-13.3,0c-3.4,3.4-3.9,10,0,13.3
							c13,10.9,33.3,6.7,38.2-10.5C178.8,200.5,160.6,195.5,157.3,207.2L157.3,207.2z"/>
					</g>
					<g id="XMLID_1661_" class="st65">
						<path id="XMLID_1662_" class="st132" d="M366.9,196.1c-0.8,3-4.4,4.1-6.7,2.2c-3.9-3.3-9.5-3.9-13.3,0c-3.4,3.4-3.9,10,0,13.3
							c13,10.9,33.3,6.7,38.2-10.5C388.4,189.4,370.2,184.4,366.9,196.1L366.9,196.1z"/>
					</g>
					<circle id="XMLID_1663_" style="clip-path:url(#XMLID_83_);fill:#753427;" cx="159.1" cy="179.4" r="10.1"/>
					<circle id="XMLID_1664_" style="clip-path:url(#XMLID_83_);fill:#753427;" cx="196.6" cy="112.7" r="9.5"/>
					<circle id="XMLID_1665_" style="clip-path:url(#XMLID_83_);fill:#753427;" cx="316" cy="119.9" r="7.8"/>
					<circle id="XMLID_1666_" style="clip-path:url(#XMLID_83_);fill:#753427;" cx="149" cy="255.6" r="10.1"/>
					<circle id="XMLID_1667_" style="clip-path:url(#XMLID_83_);fill:#753427;" cx="351.9" cy="245.5" r="10.1"/>
					<circle id="XMLID_1668_" style="clip-path:url(#XMLID_83_);fill:#753427;" cx="302" cy="156.4" r="7.3"/>
					<g id="XMLID_1669_" class="st65">
						<path id="XMLID_1670_" class="st132" d="M205.3,141c-0.7,2.5-3.8,3.5-5.7,1.8c-3.3-2.8-8-3.3-11.3,0c-2.9,2.9-3.3,8.5,0,11.3
							c11,9.3,28.2,5.7,32.4-8.9C223.5,135.3,208.1,131.1,205.3,141L205.3,141z"/>
					</g>
					<g id="XMLID_1671_" class="st65">
						<path id="XMLID_1672_" class="st132" d="M342.6,173.7c-0.6,2-3,2.8-4.6,1.5c-2.7-2.3-6.4-2.6-9.1,0c-2.3,2.3-2.7,6.8,0,9.1
							c8.8,7.4,22.7,4.5,26-7.1C357.2,169.1,344.8,165.7,342.6,173.7L342.6,173.7z"/>
					</g>
					<circle id="XMLID_1673_" style="clip-path:url(#XMLID_83_);fill:#753427;" cx="252.1" cy="158.1" r="10.1"/>
					<circle id="XMLID_1674_" style="clip-path:url(#XMLID_83_);fill:#753427;" cx="235.3" cy="121.1" r="10.1"/>
				</g>
			</g>
			<g id="XMLID_1676_">
				<g id="XMLID_1677_">
					<path id="XMLID_1678_" class="st21" d="M283.6,268.5c-14.9,14-40.4,14-55.2,0c-10.5-9.9-26.3,5.9-15.8,15.8
						c23.9,22.5,63,22.5,86.8,0C309.9,274.5,294.1,258.7,283.6,268.5L283.6,268.5z"/>
				</g>
			</g>
		</g>
	</g>
</g>
</svg>
