<?xml version="1.0" encoding="utf-8"?>
<!-- Generator: Adobe Illustrator 25.0.0, SVG Export Plug-In . SVG Version: 6.00 Build 0)  -->
<svg version="1.1" xmlns="http://www.w3.org/2000/svg" xmlns:xlink="http://www.w3.org/1999/xlink" x="0px" y="0px"
	 viewBox="0 0 512 512" style="enable-background:new 0 0 512 512;" xml:space="preserve">
<style type="text/css">
	.st0{fill:#3D2A3D;}
	.st1{fill:#D5872A;}
	.st2{fill:#C9E874;}
	.st3{fill:#277A6B;}
	.st4{fill:#FFDE69;}
	.st5{fill:#698250;}
	.st6{fill:#C8C947;}
	.st7{fill:#A6DEA9;}
	.st8{fill:#376C7E;}
	.st9{fill:#8BA83C;}
	.st10{fill:#2FABAF;}
	.st11{fill:#216964;}
	.st12{fill:#605560;}
	.st13{fill:#C45742;}
	.st14{fill:#79D7F2;}
	.st15{fill:#769938;}
	.st16{fill:#9EC853;}
	.st17{fill:#E7AD84;}
	.st18{fill:#76B079;}
	.st19{clip-path:url(#SVGID_2_);}
	.st20{fill:#594335;}
	.st21{fill:#F7F7F8;}
	.st22{fill:#7D5737;}
	.st23{fill:#D68F6A;}
	.st24{clip-path:url(#SVGID_4_);fill:#C45742;}
	.st25{clip-path:url(#SVGID_4_);fill:#E88D38;}
	.st26{clip-path:url(#SVGID_4_);}
	.st27{fill:#E1902B;}
	.st28{fill:#FFC671;}
	.st29{fill:#E1E1E1;}
	.st30{clip-path:url(#SVGID_6_);}
	.st31{fill:#D1741D;}
	.st32{fill:#C93A3A;}
	.st33{clip-path:url(#SVGID_8_);}
	.st34{fill:#919191;}
	.st35{fill:#CE722F;}
	.st36{fill:#C4C4C4;}
	.st37{clip-path:url(#SVGID_10_);}
	.st38{fill:#665348;}
	.st39{fill:#877365;}
	.st40{fill:#E3A584;}
	.st41{fill:#733D28;}
	.st42{clip-path:url(#SVGID_12_);}
	.st43{fill:#8C8C8C;}
	.st44{fill:#BFBFBF;}
	.st45{clip-path:url(#SVGID_14_);}
	.st46{clip-path:url(#SVGID_16_);}
	.st47{fill:#FFFFFF;}
	.st48{fill:#4A414A;}
	.st49{clip-path:url(#SVGID_18_);}
	.st50{fill:#BE7632;}
	.st51{clip-path:url(#SVGID_20_);}
	.st52{fill:#E3A445;}
	.st53{fill:#FFF0BA;}
	.st54{fill:#BF7128;}
	.st55{clip-path:url(#XMLID_82_);}
	.st56{fill:#AC6322;}
	.st57{clip-path:url(#SVGID_22_);}
	.st58{fill:#DBCCA6;}
	.st59{fill:#C2A579;}
	.st60{fill:#CFB582;}
	.st61{fill:#EBE2B2;}
	.st62{fill:#B8B399;}
	.st63{fill:#918E79;}
	.st64{fill:#665F52;}
	.st65{clip-path:url(#XMLID_83_);}
	.st66{fill:#BD4A4A;}
	.st67{fill:#D4811C;}
	.st68{fill:#CF6F15;}
	.st69{clip-path:url(#SVGID_24_);}
	.st70{fill:#FFF8E3;}
	.st71{fill:#7A6D7A;}
	.st72{fill:#2C1512;}
	.st73{fill:#D6CBA9;}
	.st74{clip-path:url(#XMLID_84_);}
	.st75{fill:#FFEA9E;}
	.st76{fill:#FFDBC5;}
	.st77{clip-path:url(#XMLID_85_);}
	.st78{fill:#B55716;}
	.st79{fill:#C47325;}
	.st80{clip-path:url(#XMLID_86_);}
	.st81{fill:#ADA798;}
	.st82{fill:#C4BDAC;}
	.st83{fill:#8F8266;}
	.st84{fill:#D6CEBC;}
	.st85{fill:#FFFAE6;}
	.st86{fill:#595140;}
	.st87{clip-path:url(#XMLID_88_);}
	.st88{fill:#B84028;}
	.st89{fill:#E6B75A;}
	.st90{fill:#DB614A;}
	.st91{clip-path:url(#XMLID_92_);}
	.st92{fill:#615661;}
	.st93{fill:#635963;}
	.st94{fill:#4F414F;}
	.st95{fill:#7D6F7D;}
	.st96{fill:#B5A0B5;}
	.st97{fill:#574D57;}
	.st98{clip-path:url(#XMLID_95_);}
	.st99{fill:#C2C2C2;}
	.st100{fill:#9E9E9E;}
	.st101{fill:#949494;}
	.st102{fill:#E8E8E8;}
	.st103{fill:#A1A1A1;}
	.st104{fill:#D66270;}
	.st105{clip-path:url(#XMLID_99_);}
	.st106{fill:#CFCFCF;}
	.st107{fill:#BDA18D;}
	.st108{fill:#82A385;}
	.st109{clip-path:url(#XMLID_100_);}
	.st110{fill:#D1986E;}
	.st111{fill:#C2733E;}
	.st112{fill:#E6AC83;}
	.st113{fill:#C28155;}
	.st114{fill:#6E482E;}
	.st115{fill:#594435;}
	.st116{clip-path:url(#XMLID_102_);}
	.st117{fill:#6B5545;}
	.st118{fill:#261526;}
	.st119{fill:#9E8776;}
	.st120{fill:#807180;}
	.st121{fill:#A693A6;}
	.st122{fill:#614C61;}
	.st123{clip-path:url(#XMLID_107_);}
	.st124{fill:#D9D9D9;}
	.st125{clip-path:url(#XMLID_110_);}
	.st126{fill:#4D404D;}
	.st127{clip-path:url(#XMLID_110_);fill:#4D404D;}
	.st128{clip-path:url(#XMLID_111_);}
	.st129{clip-path:url(#XMLID_120_);}
	.st130{fill:#FFC682;}
	.st131{clip-path:url(#XMLID_121_);}
	.st132{fill:#753427;}
	.st133{clip-path:url(#XMLID_121_);fill:#753427;}
	.st134{clip-path:url(#SVGID_26_);}
	.st135{fill:#694334;}
	.st136{fill:#FF826E;}
	.st137{fill:#875F44;}
	.st138{fill:#4F3327;}
	.st139{fill:#D68256;}
	.st140{clip-path:url(#SVGID_28_);}
	.st141{fill:#6E6E6E;}
	.st142{fill:#B8B8B8;}
	.st143{clip-path:url(#SVGID_28_);fill:#B8B8B8;}
	.st144{clip-path:url(#SVGID_30_);}
	.st145{clip-path:url(#SVGID_32_);}
	.st146{fill:#D16658;}
	.st147{fill:#E6786A;}
	.st148{fill:#F79E92;}
	.st149{clip-path:url(#SVGID_34_);}
	.st150{fill:#E6CA56;}
	.st151{fill:#F2EBCB;}
	.st152{fill:#F08C7F;}
	.st153{clip-path:url(#SVGID_36_);}
	.st154{fill:#9E6842;}
	.st155{fill:#BA835E;}
	.st156{fill:#8C5937;}
	.st157{fill:#E3AD88;}
	.st158{fill:#A86B42;}
	.st159{clip-path:url(#SVGID_38_);}
	.st160{fill:#877987;}
	.st161{fill:#C7BCB2;}
	.st162{clip-path:url(#SVGID_40_);}
	.st163{fill:#6E4D37;}
	.st164{fill:#A8562A;}
	.st165{clip-path:url(#SVGID_42_);}
	.st166{fill:#A37352;}
	.st167{clip-path:url(#SVGID_44_);}
	.st168{fill:#8A8A8A;}
	.st169{fill:#F0F0F0;}
	.st170{clip-path:url(#XMLID_126_);}
	.st171{clip-path:url(#SVGID_46_);fill:none;}
	.st172{clip-path:url(#SVGID_46_);}
	.st173{fill:#78553C;}
	.st174{fill:#F29C5E;}
	.st175{fill:#D4D4D4;}
	.st176{clip-path:url(#SVGID_48_);}
	.st177{fill:#DB959A;}
	.st178{clip-path:url(#SVGID_50_);}
	.st179{fill:#A1341E;}
	.st180{fill:#EB9F2E;}
	.st181{clip-path:url(#SVGID_52_);}
	.st182{clip-path:url(#SVGID_54_);}
	.st183{fill:#855433;}
	.st184{fill:#AD6D42;}
	.st185{clip-path:url(#SVGID_56_);}
	.st186{fill:#D5A060;}
	.st187{clip-path:url(#SVGID_58_);}
	.st188{fill:#4A3C4A;}
	.st189{fill:#524352;}
	.st190{clip-path:url(#SVGID_60_);}
	.st191{fill:#524252;}
	.st192{clip-path:url(#SVGID_62_);fill:#C7781C;}
	.st193{clip-path:url(#SVGID_62_);}
	.st194{fill:#DEDEDE;}
	.st195{fill:#C7781C;}
	.st196{clip-path:url(#SVGID_62_);fill:#D5872A;}
	.st197{clip-path:url(#SVGID_62_);fill:#877365;}
	.st198{clip-path:url(#SVGID_62_);fill:#E3AD88;}
	.st199{clip-path:url(#SVGID_62_);fill:#F7F7F8;}
	.st200{clip-path:url(#SVGID_64_);}
	.st201{fill:#A63A25;}
	.st202{clip-path:url(#SVGID_66_);}
	.st203{clip-path:url(#SVGID_68_);}
	.st204{fill:#CF97A1;}
	.st205{fill:#CF7686;}
	.st206{clip-path:url(#SVGID_70_);}
	.st207{fill:#4F464F;}
	.st208{fill:#9C8A9C;}
	.st209{clip-path:url(#SVGID_72_);}
</style>
<g id="ICON">
	<path id="XMLID_29_" class="st8" d="M512,256c0,141.4-114.6,256-256,256C114.6,512,0,397.4,0,256C0,114.6,114.6,0,256,0
		C397.4,0,512,114.6,512,256z"/>
</g>
<g id="Layer_7">
	<g id="XMLID_1171_">
		<defs>
			<path id="XMLID_1200_" d="M512,256c0,141.4-114.6,256-256,256C114.6,512,0,397.4,0,256C0,114.6,114.6,0,256,0
				C397.4,0,512,114.6,512,256z"/>
		</defs>
		<clipPath id="XMLID_82_">
			<use xlink:href="#XMLID_1200_"  style="overflow:visible;"/>
		</clipPath>
		<g id="XMLID_1172_" class="st55">
			<path id="XMLID_1173_" class="st78" d="M365.4,81.9c-9.2-12.5-29.7-22.8-45.6-22.8h-15.6c-15.9,0-37.8,0-48.7,0
				c-10.9,0-32.8,0-48.7,0h-15.6c-15.9,0-36.4,10.3-45.6,22.8l-39,53.2c-9.2,12.5-11.8,34.3-5.9,48.5l68.9,164.7
				c5.9,14.2,23.2,25.8,38.5,25.8c15.2,0,36.6,0,47.5,0c10.9,0,32.2,0,47.5,0c15.2,0,32.5-11.6,38.5-25.8l68.9-164.7
				c5.9-14.2,3.3-36-5.9-48.5L365.4,81.9z"/>
			<rect id="XMLID_1174_" x="199.9" y="328.1" class="st79" width="112.2" height="103.5"/>
			<g id="XMLID_1175_">
				<path id="XMLID_1176_" class="st21" d="M436.3,545.6v-47.2c0-40.1-34.8-72-77-72H151.7c-42.2,0-76,31.9-76,72v47.2H436.3z"/>
				<polygon id="XMLID_1177_" class="st0" points="234.4,536 279.5,536 268.1,467.5 293.1,438.5 275.9,403.3 239.3,403.3 
					221.2,438.5 245.5,467.2 				"/>
				<g id="XMLID_1178_">
					<polygon id="XMLID_1179_" class="st29" points="294.8,451 362.7,424 339.3,389.5 256.6,402.7 					"/>
					<polygon id="XMLID_1180_" class="st29" points="220.1,451 152.2,424 171.3,389.5 258.3,402.7 					"/>
				</g>
			</g>
			<g id="XMLID_1181_">
				<path id="XMLID_1182_" class="st27" d="M302.1,334.6c0,24.3-19.7,44-44,44h-4c-24.3,0-44-19.7-44-44v-21.9c0-24.3,19.7-44,44-44
					h4c24.3,0,44,19.7,44,44V334.6z"/>
				<g id="XMLID_1183_">
					<g id="XMLID_1184_">
						<path id="XMLID_1185_" class="st27" d="M299.2,185c-0.6-0.5-0.9-1-1.2-1.5l-86,0.5c-11.4,12.7-22.4,25.7-32.3,39.4
							c0,0.1-0.1,0.1-0.1,0.1l13.6,92.3c0.1,13.1,13.5,23.7,29.8,23.6l70-0.4c16.4-0.1,29.5-10.8,29.4-23.9l10.5-93.4
							C322.7,208.7,312.1,196,299.2,185z"/>
					</g>
					<ellipse id="XMLID_1186_" class="st27" cx="256.3" cy="218" rx="76.7" ry="65.8"/>
				</g>
				<g id="XMLID_1187_">
					<path id="XMLID_1188_" class="st0" d="M232.4,220.9c0,5.5-4.5,10-10,10c-5.5,0-10-4.5-10-10c0-5.5,4.5-10,10-10
						C227.9,210.9,232.4,215.4,232.4,220.9z"/>
					<path id="XMLID_1189_" class="st0" d="M299.4,220.9c0,5.5-4.5,10-10,10c-5.5,0-10-4.5-10-10c0-5.5,4.5-10,10-10
						C294.9,210.9,299.4,215.4,299.4,220.9z"/>
				</g>
				<polygon id="XMLID_1190_" class="st28" points="309.3,302.4 202.4,302.4 255.9,208.4 255.9,208.4 				"/>
				<g id="XMLID_1191_">
					<path class="st27" d="M169.4,144.5c12.1,0.7,16.6,9.5,10.1,19.7l-14.8,23c-6.5,10.2-16.5,9.7-22.1-1l-13-24.9
						c-5.6-10.7-0.3-18.9,11.8-18.3L169.4,144.5z"/>
					<path class="st27" d="M342.3,144.5c-12.1,0.7-16.6,9.5-10.1,19.7l14.8,23c6.5,10.2,16.5,9.7,22.1-1l13-24.9
						c5.6-10.7,0.3-18.9-11.8-18.3L342.3,144.5z"/>
				</g>
				<g id="XMLID_1192_">
					<path id="XMLID_1193_" class="st0" d="M271.7,324.7c-5.3,14.9-26.3,14.9-31.6,0c-2.6-7.3-14.3-4.2-11.7,3.2
						c4.3,12.1,14.6,19.9,27.5,20.4c12.7,0.5,23.5-9,27.5-20.4C286,320.5,274.3,317.4,271.7,324.7L271.7,324.7z"/>
				</g>
				<g id="XMLID_1194_">
					<path id="XMLID_1195_" class="st0" d="M289.8,288.9v-23.1c0-6.1-5.8-10.6-11.9-10.6h-44c-6.1,0-10.2,4.5-10.2,10.6v23.1H289.8z
						"/>
					<g id="XMLID_1196_">
						<path id="XMLID_1197_" class="st28" d="M250.5,302.7c0,19-15.4,34.5-34.5,34.5h-0.5c-19,0-34.5-15.4-34.5-34.5V301
							c0-19,15.4-34.5,34.5-34.5h0.5c19,0,34.5,15.4,34.5,34.5V302.7z"/>
						<path id="XMLID_1198_" class="st28" d="M331.2,302.7c0,19-15.4,34.5-34.5,34.5h-0.5c-19,0-34.5-15.4-34.5-34.5V301
							c0-19,15.4-34.5,34.5-34.5h0.5c19,0,34.5,15.4,34.5,34.5V302.7z"/>
					</g>
					<path id="XMLID_1199_" class="st0" d="M266.2,299.6c0,5.2-4.3,9.5-9.5,9.5h0c-5.2,0-9.5-4.3-9.5-9.5v-33.7
						c0-5.2,4.3-9.5,9.5-9.5h0c5.2,0,9.5,4.3,9.5,9.5V299.6z"/>
				</g>
			</g>
		</g>
	</g>
</g>
</svg>
