<?xml version="1.0" encoding="utf-8"?>
<!-- Generator: Adobe Illustrator 25.0.0, SVG Export Plug-In . SVG Version: 6.00 Build 0)  -->
<svg version="1.1" xmlns="http://www.w3.org/2000/svg" xmlns:xlink="http://www.w3.org/1999/xlink" x="0px" y="0px"
	 viewBox="0 0 512 512" style="enable-background:new 0 0 512 512;" xml:space="preserve">
<style type="text/css">
	.st0{fill:#3D2A3D;}
	.st1{fill:#D5872A;}
	.st2{fill:#C9E874;}
	.st3{fill:#277A6B;}
	.st4{fill:#FFDE69;}
	.st5{fill:#698250;}
	.st6{fill:#C8C947;}
	.st7{fill:#A6DEA9;}
	.st8{fill:#376C7E;}
	.st9{fill:#8BA83C;}
	.st10{fill:#2FABAF;}
	.st11{fill:#216964;}
	.st12{fill:#605560;}
	.st13{fill:#C45742;}
	.st14{fill:#79D7F2;}
	.st15{fill:#769938;}
	.st16{fill:#9EC853;}
	.st17{fill:#E7AD84;}
	.st18{fill:#76B079;}
	.st19{clip-path:url(#SVGID_2_);}
	.st20{fill:#594335;}
	.st21{fill:#F7F7F8;}
	.st22{fill:#7D5737;}
	.st23{fill:#D68F6A;}
	.st24{clip-path:url(#SVGID_4_);fill:#C45742;}
	.st25{clip-path:url(#SVGID_4_);fill:#E88D38;}
	.st26{clip-path:url(#SVGID_4_);}
	.st27{fill:#E1902B;}
	.st28{fill:#FFC671;}
	.st29{fill:#E1E1E1;}
	.st30{clip-path:url(#SVGID_6_);}
	.st31{fill:#D1741D;}
	.st32{fill:#C93A3A;}
	.st33{clip-path:url(#SVGID_8_);}
	.st34{fill:#919191;}
	.st35{fill:#CE722F;}
	.st36{fill:#C4C4C4;}
	.st37{clip-path:url(#SVGID_10_);}
	.st38{fill:#665348;}
	.st39{fill:#877365;}
	.st40{fill:#E3A584;}
	.st41{fill:#733D28;}
	.st42{clip-path:url(#SVGID_12_);}
	.st43{fill:#8C8C8C;}
	.st44{fill:#BFBFBF;}
	.st45{clip-path:url(#SVGID_14_);}
	.st46{clip-path:url(#SVGID_16_);}
	.st47{fill:#FFFFFF;}
	.st48{fill:#4A414A;}
	.st49{clip-path:url(#SVGID_18_);}
	.st50{fill:#BE7632;}
	.st51{clip-path:url(#SVGID_20_);}
	.st52{fill:#E3A445;}
	.st53{fill:#FFF0BA;}
	.st54{fill:#BF7128;}
	.st55{clip-path:url(#XMLID_82_);}
	.st56{fill:#AC6322;}
	.st57{clip-path:url(#SVGID_22_);}
	.st58{fill:#DBCCA6;}
	.st59{fill:#C2A579;}
	.st60{fill:#CFB582;}
	.st61{fill:#EBE2B2;}
	.st62{fill:#B8B399;}
	.st63{fill:#918E79;}
	.st64{fill:#665F52;}
	.st65{clip-path:url(#XMLID_83_);}
	.st66{fill:#BD4A4A;}
	.st67{fill:#D4811C;}
	.st68{fill:#CF6F15;}
	.st69{clip-path:url(#SVGID_24_);}
	.st70{fill:#FFF8E3;}
	.st71{fill:#7A6D7A;}
	.st72{fill:#2C1512;}
	.st73{fill:#D6CBA9;}
	.st74{clip-path:url(#XMLID_84_);}
	.st75{fill:#FFEA9E;}
	.st76{fill:#FFDBC5;}
	.st77{clip-path:url(#XMLID_85_);}
	.st78{fill:#B55716;}
	.st79{fill:#C47325;}
	.st80{clip-path:url(#XMLID_86_);}
	.st81{fill:#ADA798;}
	.st82{fill:#C4BDAC;}
	.st83{fill:#8F8266;}
	.st84{fill:#D6CEBC;}
	.st85{fill:#FFFAE6;}
	.st86{fill:#595140;}
	.st87{clip-path:url(#XMLID_88_);}
	.st88{fill:#B84028;}
	.st89{fill:#E6B75A;}
	.st90{fill:#DB614A;}
	.st91{clip-path:url(#XMLID_92_);}
	.st92{fill:#615661;}
	.st93{fill:#635963;}
	.st94{fill:#4F414F;}
	.st95{fill:#7D6F7D;}
	.st96{fill:#B5A0B5;}
	.st97{fill:#574D57;}
	.st98{clip-path:url(#XMLID_95_);}
	.st99{fill:#C2C2C2;}
	.st100{fill:#9E9E9E;}
	.st101{fill:#949494;}
	.st102{fill:#E8E8E8;}
	.st103{fill:#A1A1A1;}
	.st104{fill:#D66270;}
	.st105{clip-path:url(#XMLID_99_);}
	.st106{fill:#CFCFCF;}
	.st107{fill:#BDA18D;}
	.st108{fill:#82A385;}
	.st109{clip-path:url(#XMLID_100_);}
	.st110{fill:#D1986E;}
	.st111{fill:#C2733E;}
	.st112{fill:#E6AC83;}
	.st113{fill:#C28155;}
	.st114{fill:#6E482E;}
	.st115{fill:#594435;}
	.st116{clip-path:url(#XMLID_102_);}
	.st117{fill:#6B5545;}
	.st118{fill:#261526;}
	.st119{fill:#9E8776;}
	.st120{fill:#807180;}
	.st121{fill:#A693A6;}
	.st122{fill:#614C61;}
	.st123{clip-path:url(#XMLID_107_);}
	.st124{fill:#D9D9D9;}
	.st125{clip-path:url(#XMLID_110_);}
	.st126{fill:#4D404D;}
	.st127{clip-path:url(#XMLID_110_);fill:#4D404D;}
	.st128{clip-path:url(#XMLID_111_);}
	.st129{clip-path:url(#XMLID_120_);}
	.st130{fill:#FFC682;}
	.st131{clip-path:url(#XMLID_121_);}
	.st132{fill:#753427;}
	.st133{clip-path:url(#XMLID_121_);fill:#753427;}
	.st134{clip-path:url(#SVGID_26_);}
	.st135{fill:#694334;}
	.st136{fill:#FF826E;}
	.st137{fill:#875F44;}
	.st138{fill:#4F3327;}
	.st139{fill:#D68256;}
	.st140{clip-path:url(#SVGID_28_);}
	.st141{fill:#6E6E6E;}
	.st142{fill:#B8B8B8;}
	.st143{clip-path:url(#SVGID_28_);fill:#B8B8B8;}
	.st144{clip-path:url(#SVGID_30_);}
	.st145{clip-path:url(#SVGID_32_);}
	.st146{fill:#D16658;}
	.st147{fill:#E6786A;}
	.st148{fill:#F79E92;}
	.st149{clip-path:url(#SVGID_34_);}
	.st150{fill:#E6CA56;}
	.st151{fill:#F2EBCB;}
	.st152{fill:#F08C7F;}
	.st153{clip-path:url(#SVGID_36_);}
	.st154{fill:#9E6842;}
	.st155{fill:#BA835E;}
	.st156{fill:#8C5937;}
	.st157{fill:#E3AD88;}
	.st158{fill:#A86B42;}
	.st159{clip-path:url(#SVGID_38_);}
	.st160{fill:#877987;}
	.st161{fill:#C7BCB2;}
	.st162{clip-path:url(#SVGID_40_);}
	.st163{fill:#6E4D37;}
	.st164{fill:#A8562A;}
	.st165{clip-path:url(#SVGID_42_);}
	.st166{fill:#A37352;}
	.st167{clip-path:url(#SVGID_44_);}
	.st168{fill:#8A8A8A;}
	.st169{fill:#F0F0F0;}
	.st170{clip-path:url(#XMLID_126_);}
	.st171{clip-path:url(#SVGID_46_);fill:none;}
	.st172{clip-path:url(#SVGID_46_);}
	.st173{fill:#78553C;}
	.st174{fill:#F29C5E;}
	.st175{fill:#D4D4D4;}
	.st176{clip-path:url(#SVGID_48_);}
	.st177{fill:#DB959A;}
	.st178{clip-path:url(#SVGID_50_);}
	.st179{fill:#A1341E;}
	.st180{fill:#EB9F2E;}
	.st181{clip-path:url(#SVGID_52_);}
	.st182{clip-path:url(#SVGID_54_);}
	.st183{fill:#855433;}
	.st184{fill:#AD6D42;}
	.st185{clip-path:url(#SVGID_56_);}
	.st186{fill:#D5A060;}
	.st187{clip-path:url(#SVGID_58_);}
	.st188{fill:#4A3C4A;}
	.st189{fill:#524352;}
	.st190{clip-path:url(#SVGID_60_);}
	.st191{fill:#524252;}
	.st192{clip-path:url(#SVGID_62_);fill:#C7781C;}
	.st193{clip-path:url(#SVGID_62_);}
	.st194{fill:#DEDEDE;}
	.st195{fill:#C7781C;}
	.st196{clip-path:url(#SVGID_62_);fill:#D5872A;}
	.st197{clip-path:url(#SVGID_62_);fill:#877365;}
	.st198{clip-path:url(#SVGID_62_);fill:#E3AD88;}
	.st199{clip-path:url(#SVGID_62_);fill:#F7F7F8;}
	.st200{clip-path:url(#SVGID_64_);}
	.st201{fill:#A63A25;}
	.st202{clip-path:url(#SVGID_66_);}
	.st203{clip-path:url(#SVGID_68_);}
	.st204{fill:#CF97A1;}
	.st205{fill:#CF7686;}
	.st206{clip-path:url(#SVGID_70_);}
	.st207{fill:#4F464F;}
	.st208{fill:#9C8A9C;}
	.st209{clip-path:url(#SVGID_72_);}
</style>
<g id="ICON">
	<path id="XMLID_7_" class="st2" d="M512,256c0,141.4-114.6,256-256,256C114.6,512,0,397.4,0,256C0,114.6,114.6,0,256,0
		C397.4,0,512,114.6,512,256z"/>
</g>
<g id="Layer_7">
	<g id="XMLID_460_">
		<defs>
			<path id="SVGID_3_" d="M512,256c0,141.4-114.6,256-256,256C114.6,512,0,397.4,0,256C0,114.6,114.6,0,256,0
				C397.4,0,512,114.6,512,256z"/>
		</defs>
		<clipPath id="SVGID_2_">
			<use xlink:href="#SVGID_3_"  style="overflow:visible;"/>
		</clipPath>
		<path id="XMLID_461_" style="clip-path:url(#SVGID_2_);fill:#C45742;" d="M245.6,44.8c-50.2,0-104.7,43.6-121.2,97.1L84.1,272.7
			c-16.5,53.5,11.1,97.2,61.3,97.2h221.3c50.2,0,77.8-43.8,61.3-97.3l-40.3-130.6c-16.5-53.5-71-97.1-121.2-97.1H245.6z"/>
		<path id="XMLID_464_" style="clip-path:url(#SVGID_2_);fill:#C45742;" d="M429,317.6c0,86.5-173,144.2-173,144.2
			S83,404.1,83,317.6C83,231.1,160.5,161,256,161C351.5,161,429,231.1,429,317.6z"/>
		<rect id="XMLID_466_" x="197.7" y="282.5" style="clip-path:url(#SVGID_2_);fill:#E88D38;" width="116.6" height="121.1"/>
		<g id="XMLID_467_" class="st19">
			<g id="XMLID_468_">
				<path id="XMLID_469_" class="st27" d="M235,112.1c-16.9,0-35.2,12.9-40.8,28.8l-30.4,87.7c-5.5,15.9,3.7,29.2,20.6,29.2h142.3
					c16.9,0,26.1-13.4,20.6-29.3L317,141.1c-5.5-15.9-23.9-29-40.8-29H235z"/>
				<ellipse id="XMLID_470_" class="st27" cx="255.6" cy="238.7" rx="108.8" ry="85.5"/>
				<path id="XMLID_472_" class="st27" d="M298.8,300.2c0,22.4-18.2,40.5-40.5,40.5h-3c-22.4,0-40.5-18.2-40.5-40.5v-20.9
					c0-22.4,18.2-40.5,40.5-40.5h3c22.4,0,40.5,18.2,40.5,40.5V300.2z"/>
				<g id="XMLID_473_">
					<path class="st27" d="M176.3,115.1c11.1,0.6,15.3,8.8,9.3,18.1L172,154.4c-6,9.4-15.2,9-20.3-0.9l-12-22.9
						c-5.2-9.9-0.3-17.5,10.8-16.9L176.3,115.1z"/>
					<path class="st27" d="M335.7,115.1c-11.1,0.6-15.3,8.8-9.3,18.1l13.6,21.2c6,9.4,15.2,9,20.3-0.9l12-22.9
						c5.2-9.9,0.3-17.5-10.8-16.9L335.7,115.1z"/>
				</g>
				<g id="XMLID_474_">
					<path id="XMLID_475_" class="st0" d="M225.5,190.8c0,6.5-5.3,11.8-11.8,11.8c-6.5,0-11.8-5.3-11.8-11.8
						c0-6.5,5.3-11.8,11.8-11.8C220.2,179,225.5,184.3,225.5,190.8z"/>
					<path id="XMLID_476_" class="st0" d="M310.1,190.8c0,6.5-5.3,11.8-11.8,11.8c-6.5,0-11.8-5.3-11.8-11.8
						c0-6.5,5.3-11.8,11.8-11.8C304.8,179,310.1,184.3,310.1,190.8z"/>
				</g>
				<g id="XMLID_477_">
					<g id="XMLID_478_">
						<path id="XMLID_479_" class="st28" d="M303.3,307.2c0,20.4-16.5,36.9-36.9,36.9H246c-20.4,0-36.9-16.5-36.9-36.9v-13.6
							c0-20.4,16.5-36.9,36.9-36.9h20.4c20.4,0,36.9,16.5,36.9,36.9V307.2z"/>
						<path id="XMLID_481_" class="st28" d="M284.2,251.1v-52.5c0-15.2-11.7-27.5-26.9-27.5c-15.2,0-26.9,12.3-26.9,27.5v52.5H284.2
							z"/>
						<g id="XMLID_482_">
							<path id="XMLID_483_" class="st28" d="M254,274.2c0,12.6-10.3,22.9-22.9,22.9h-13.6c-12.6,0-22.9-10.3-22.9-22.9v-14.7
								c0-12.6,10.3-22.9,22.9-22.9h13.6c12.6,0,22.9,10.3,22.9,22.9V274.2z"/>
							<path id="XMLID_484_" class="st28" d="M316.7,274.2c0,12.6-10.3,22.9-22.9,22.9h-13.6c-12.6,0-22.9-10.3-22.9-22.9v-14.7
								c0-12.6,10.3-22.9,22.9-22.9h13.6c12.6,0,22.9,10.3,22.9,22.9V274.2z"/>
						</g>
						<path id="XMLID_486_" class="st0" d="M236.5,232c-11.4,0-14.4,7.2-6.9,15.6l13.1,14.8c7.6,8.5,20,8.5,27.6,0.1l13.1-14.9
							c7.6-8.5,4.5-15.6-6.9-15.6H236.5z"/>
					</g>
				</g>
			</g>
			<g id="XMLID_487_">
				<g id="XMLID_488_">
					<path id="XMLID_489_" class="st21" d="M217.8,273.3c0.7,24.1,17.7,43.4,38.7,43.4c20.9,0,38-19.3,38.7-43.4
						c-10.8,5.6-24.2,9-38.7,9C242,282.3,228.6,278.9,217.8,273.3z"/>
				</g>
			</g>
		</g>
		<g id="XMLID_490_" class="st19">
			<path id="XMLID_491_" class="st21" d="M455,527.4v-54.8c0-46.5-38.4-83.6-85-83.6H140.9C94.3,389,57,426.1,57,472.6v54.8H455z"/>
			<polygon id="XMLID_495_" class="st3" points="232.1,516.2 281.9,516.2 269.4,436.6 296.9,402.9 277.9,362.1 237.6,362.1 
				217.6,402.9 244.4,436.3 			"/>
			<g id="XMLID_496_">
				<polygon id="XMLID_497_" class="st29" points="298.5,417.4 373.5,386.1 347.6,346 256.3,361.3 				"/>
				<polygon id="XMLID_498_" class="st29" points="216.1,417.4 141.1,386.1 162.2,346 258.2,361.3 				"/>
			</g>
		</g>
	</g>
</g>
</svg>
