<?xml version="1.0" encoding="utf-8"?>
<!-- Generator: Adobe Illustrator 25.0.0, SVG Export Plug-In . SVG Version: 6.00 Build 0)  -->
<svg version="1.1" xmlns="http://www.w3.org/2000/svg" xmlns:xlink="http://www.w3.org/1999/xlink" x="0px" y="0px"
	 viewBox="0 0 512 512" style="enable-background:new 0 0 512 512;" xml:space="preserve">
<style type="text/css">
	.st0{fill:#3D2A3D;}
	.st1{fill:#D5872A;}
	.st2{fill:#C9E874;}
	.st3{fill:#277A6B;}
	.st4{fill:#FFDE69;}
	.st5{fill:#698250;}
	.st6{fill:#C8C947;}
	.st7{fill:#A6DEA9;}
	.st8{fill:#376C7E;}
	.st9{fill:#8BA83C;}
	.st10{fill:#2FABAF;}
	.st11{fill:#216964;}
	.st12{fill:#605560;}
	.st13{fill:#C45742;}
	.st14{fill:#79D7F2;}
	.st15{fill:#769938;}
	.st16{fill:#9EC853;}
	.st17{fill:#E7AD84;}
	.st18{fill:#76B079;}
	.st19{clip-path:url(#SVGID_2_);}
	.st20{fill:#594335;}
	.st21{fill:#F7F7F8;}
	.st22{fill:#7D5737;}
	.st23{fill:#D68F6A;}
	.st24{clip-path:url(#SVGID_4_);fill:#C45742;}
	.st25{clip-path:url(#SVGID_4_);fill:#E88D38;}
	.st26{clip-path:url(#SVGID_4_);}
	.st27{fill:#E1902B;}
	.st28{fill:#FFC671;}
	.st29{fill:#E1E1E1;}
	.st30{clip-path:url(#SVGID_6_);}
	.st31{fill:#D1741D;}
	.st32{fill:#C93A3A;}
	.st33{clip-path:url(#SVGID_8_);}
	.st34{fill:#919191;}
	.st35{fill:#CE722F;}
	.st36{fill:#C4C4C4;}
	.st37{clip-path:url(#SVGID_10_);}
	.st38{fill:#665348;}
	.st39{fill:#877365;}
	.st40{fill:#E3A584;}
	.st41{fill:#733D28;}
	.st42{clip-path:url(#SVGID_12_);}
	.st43{fill:#8C8C8C;}
	.st44{fill:#BFBFBF;}
	.st45{clip-path:url(#SVGID_14_);}
	.st46{clip-path:url(#SVGID_16_);}
	.st47{fill:#FFFFFF;}
	.st48{fill:#4A414A;}
	.st49{clip-path:url(#SVGID_18_);}
	.st50{fill:#BE7632;}
	.st51{clip-path:url(#SVGID_20_);}
	.st52{fill:#E3A445;}
	.st53{fill:#FFF0BA;}
	.st54{fill:#BF7128;}
	.st55{clip-path:url(#XMLID_82_);}
	.st56{fill:#AC6322;}
	.st57{clip-path:url(#SVGID_22_);}
	.st58{fill:#DBCCA6;}
	.st59{fill:#C2A579;}
	.st60{fill:#CFB582;}
	.st61{fill:#EBE2B2;}
	.st62{fill:#B8B399;}
	.st63{fill:#918E79;}
	.st64{fill:#665F52;}
	.st65{clip-path:url(#XMLID_83_);}
	.st66{fill:#BD4A4A;}
	.st67{fill:#D4811C;}
	.st68{fill:#CF6F15;}
	.st69{clip-path:url(#SVGID_24_);}
	.st70{fill:#FFF8E3;}
	.st71{fill:#7A6D7A;}
	.st72{fill:#2C1512;}
	.st73{fill:#D6CBA9;}
	.st74{clip-path:url(#XMLID_84_);}
	.st75{fill:#FFEA9E;}
	.st76{fill:#FFDBC5;}
	.st77{clip-path:url(#XMLID_85_);}
	.st78{fill:#B55716;}
	.st79{fill:#C47325;}
	.st80{clip-path:url(#XMLID_86_);}
	.st81{fill:#ADA798;}
	.st82{fill:#C4BDAC;}
	.st83{fill:#8F8266;}
	.st84{fill:#D6CEBC;}
	.st85{fill:#FFFAE6;}
	.st86{fill:#595140;}
	.st87{clip-path:url(#XMLID_88_);}
	.st88{fill:#B84028;}
	.st89{fill:#E6B75A;}
	.st90{fill:#DB614A;}
	.st91{clip-path:url(#XMLID_92_);}
	.st92{fill:#615661;}
	.st93{fill:#635963;}
	.st94{fill:#4F414F;}
	.st95{fill:#7D6F7D;}
	.st96{fill:#B5A0B5;}
	.st97{fill:#574D57;}
	.st98{clip-path:url(#XMLID_95_);}
	.st99{fill:#C2C2C2;}
	.st100{fill:#9E9E9E;}
	.st101{fill:#949494;}
	.st102{fill:#E8E8E8;}
	.st103{fill:#A1A1A1;}
	.st104{fill:#D66270;}
	.st105{clip-path:url(#XMLID_99_);}
	.st106{fill:#CFCFCF;}
	.st107{fill:#BDA18D;}
	.st108{fill:#82A385;}
	.st109{clip-path:url(#XMLID_100_);}
	.st110{fill:#D1986E;}
	.st111{fill:#C2733E;}
	.st112{fill:#E6AC83;}
	.st113{fill:#C28155;}
	.st114{fill:#6E482E;}
	.st115{fill:#594435;}
	.st116{clip-path:url(#XMLID_102_);}
	.st117{fill:#6B5545;}
	.st118{fill:#261526;}
	.st119{fill:#9E8776;}
	.st120{fill:#807180;}
	.st121{fill:#A693A6;}
	.st122{fill:#614C61;}
	.st123{clip-path:url(#XMLID_107_);}
	.st124{fill:#D9D9D9;}
	.st125{clip-path:url(#XMLID_110_);}
	.st126{fill:#4D404D;}
	.st127{clip-path:url(#XMLID_110_);fill:#4D404D;}
	.st128{clip-path:url(#XMLID_111_);}
	.st129{clip-path:url(#XMLID_120_);}
	.st130{fill:#FFC682;}
	.st131{clip-path:url(#XMLID_121_);}
	.st132{fill:#753427;}
	.st133{clip-path:url(#XMLID_121_);fill:#753427;}
	.st134{clip-path:url(#SVGID_26_);}
	.st135{fill:#694334;}
	.st136{fill:#FF826E;}
	.st137{fill:#875F44;}
	.st138{fill:#4F3327;}
	.st139{fill:#D68256;}
	.st140{clip-path:url(#SVGID_28_);}
	.st141{fill:#6E6E6E;}
	.st142{fill:#B8B8B8;}
	.st143{clip-path:url(#SVGID_28_);fill:#B8B8B8;}
	.st144{clip-path:url(#SVGID_30_);}
	.st145{clip-path:url(#SVGID_32_);}
	.st146{fill:#D16658;}
	.st147{fill:#E6786A;}
	.st148{fill:#F79E92;}
	.st149{clip-path:url(#SVGID_34_);}
	.st150{fill:#E6CA56;}
	.st151{fill:#F2EBCB;}
	.st152{fill:#F08C7F;}
	.st153{clip-path:url(#SVGID_36_);}
	.st154{fill:#9E6842;}
	.st155{fill:#BA835E;}
	.st156{fill:#8C5937;}
	.st157{fill:#E3AD88;}
	.st158{fill:#A86B42;}
	.st159{clip-path:url(#SVGID_38_);}
	.st160{fill:#877987;}
	.st161{fill:#C7BCB2;}
	.st162{clip-path:url(#SVGID_40_);}
	.st163{fill:#6E4D37;}
	.st164{fill:#A8562A;}
	.st165{clip-path:url(#SVGID_42_);}
	.st166{fill:#A37352;}
	.st167{clip-path:url(#SVGID_44_);}
	.st168{fill:#8A8A8A;}
	.st169{fill:#F0F0F0;}
	.st170{clip-path:url(#XMLID_126_);}
	.st171{clip-path:url(#SVGID_46_);fill:none;}
	.st172{clip-path:url(#SVGID_46_);}
	.st173{fill:#78553C;}
	.st174{fill:#F29C5E;}
	.st175{fill:#D4D4D4;}
	.st176{clip-path:url(#SVGID_48_);}
	.st177{fill:#DB959A;}
	.st178{clip-path:url(#SVGID_50_);}
	.st179{fill:#A1341E;}
	.st180{fill:#EB9F2E;}
	.st181{clip-path:url(#SVGID_52_);}
	.st182{clip-path:url(#SVGID_54_);}
	.st183{fill:#855433;}
	.st184{fill:#AD6D42;}
	.st185{clip-path:url(#SVGID_56_);}
	.st186{fill:#D5A060;}
	.st187{clip-path:url(#SVGID_58_);}
	.st188{fill:#4A3C4A;}
	.st189{fill:#524352;}
	.st190{clip-path:url(#SVGID_60_);}
	.st191{fill:#524252;}
	.st192{clip-path:url(#SVGID_62_);fill:#C7781C;}
	.st193{clip-path:url(#SVGID_62_);}
	.st194{fill:#DEDEDE;}
	.st195{fill:#C7781C;}
	.st196{clip-path:url(#SVGID_62_);fill:#D5872A;}
	.st197{clip-path:url(#SVGID_62_);fill:#877365;}
	.st198{clip-path:url(#SVGID_62_);fill:#E3AD88;}
	.st199{clip-path:url(#SVGID_62_);fill:#F7F7F8;}
	.st200{clip-path:url(#SVGID_64_);}
	.st201{fill:#A63A25;}
	.st202{clip-path:url(#SVGID_66_);}
	.st203{clip-path:url(#SVGID_68_);}
	.st204{fill:#CF97A1;}
	.st205{fill:#CF7686;}
	.st206{clip-path:url(#SVGID_70_);}
	.st207{fill:#4F464F;}
	.st208{fill:#9C8A9C;}
	.st209{clip-path:url(#SVGID_72_);}
</style>
<g id="ICON">
	<path id="XMLID_2987_" class="st6" d="M0,255.6C0.2,114.2,115-0.2,256.4,0C397.8,0.2,512.2,115,512,256.4
		C511.8,397.8,397,512.2,255.6,512C114.2,511.8-0.2,397,0,255.6z"/>
</g>
<g id="Layer_7">
	<g>
		<g id="XMLID_1501_">
			<defs>
				<path id="XMLID_1531_" d="M512-324c0,141.4-114.6,256-256,256C114.6-68,0-182.6,0-324c0-141.4,114.6-256,256-256
					C397.4-580,512-465.4,512-324z"/>
			</defs>
			<clipPath id="XMLID_82_">
				<use xlink:href="#XMLID_1531_"  style="overflow:visible;"/>
			</clipPath>
			<g id="XMLID_1502_" class="st55">
				<g id="XMLID_1503_">
					<path id="XMLID_1504_" class="st0" d="M499.8,16.6v-67.2c0-57-47.1-102.5-104.1-102.5H114.9c-57,0-102.7,45.5-102.7,102.5v67.2
						H499.8z"/>
					<polygon id="XMLID_1507_" class="st11" points="226.8,2.9 287.8,2.9 272.4,-94.6 306.1,-135.9 282.9,-186 233.4,-186 
						209,-135.9 241.7,-95 					"/>
				</g>
			</g>
		</g>
	</g>
	<g id="XMLID_1680_">
		<g id="XMLID_1681_">
			<defs>
				<path id="SVGID_25_" d="M0,256C0,114.6,114.6,0,256,0c141.4,0,256,114.6,256,256c0,141.4-114.6,256-256,256
					C114.6,512,0,397.4,0,256z"/>
			</defs>
			<clipPath id="SVGID_2_">
				<use xlink:href="#SVGID_25_"  style="overflow:visible;"/>
			</clipPath>
			<g id="XMLID_1682_" class="st19">
				<rect id="XMLID_1683_" x="192.1" y="287.8" class="st135" width="127.8" height="131.1"/>
				<g id="XMLID_1684_">
					<path id="XMLID_1685_" class="st135" d="M487,558.9l-0.1-1c0-63.7-23.9-125.5-53-137.2l-124.1-50c-29.1-11.7-76.8-11.8-106-0.1
						L78.1,420.8c-29.2,11.7-53,73.4-53,137.1l-0.1,1H487z"/>
					<path id="XMLID_1688_" class="st136" d="M487,557.9c0-63.7-23.9-125.5-53-137.2l-93.6-37.7c0,0-17.9,64.6-84.3,64.6
						c-66.4,0-83.9-64.3-83.9-64.3l-94,37.6c-29.2,11.7-53,73.4-53,137.1l-0.1,1h462L487,557.9z"/>
					<g id="XMLID_1689_">
						<path id="XMLID_1690_" class="st21" d="M171.2,378.4c-12.6,27.1-7.6,57.8,13.8,73.6c21.4,15.8,52.2,11.7,74.4-8.2
							c-16.1,1.8-36.6-4.4-54.9-18.1C186,412.2,174.2,394.3,171.2,378.4z"/>
						<path id="XMLID_1691_" class="st21" d="M340.8,378.4c12.6,27.1,7.6,57.8-13.8,73.6c-21.4,15.8-52.2,11.7-74.4-8.2
							c16.1,1.8,36.6-4.4,55-18.1C326,412.2,337.8,394.3,340.8,378.4z"/>
					</g>
				</g>
			</g>
			<g id="XMLID_1692_" class="st19">
				<g id="XMLID_1693_">
					<g id="XMLID_1694_">
						<path id="XMLID_1695_" class="st137" d="M205.8,144.9c5.3,21.3-7.6,42.8-28.9,48.1l0,0c-21.3,5.3-42.8-7.6-48.1-28.9
							l-9.6-38.5c-5.3-21.3,7.6-42.8,28.9-48.1l0,0c21.3-5.3,42.8,7.6,48.1,28.9L205.8,144.9z"/>
						<path id="XMLID_1696_" class="st138" d="M191.8,138.4c3.5,14.2-5.1,28.6-19.3,32.2l0,0c-14.2,3.5-28.6-5.1-32.2-19.3
							l-6.4-25.8c-3.5-14.2,5.1-28.6,19.3-32.2l0,0c14.2-3.5,28.6,5.1,32.2,19.3L191.8,138.4z"/>
					</g>
					<g id="XMLID_1697_">
						<path id="XMLID_1698_" class="st137" d="M306.2,144.9c-5.3,21.3,7.6,42.8,28.9,48.1l0,0c21.3,5.3,42.8-7.6,48.1-28.9l9.6-38.5
							c5.3-21.3-7.6-42.8-28.9-48.1l0,0c-21.3-5.3-42.8,7.6-48.1,28.9L306.2,144.9z"/>
						<path id="XMLID_1699_" class="st138" d="M320.2,138.4c-3.5,14.2,5.1,28.6,19.3,32.2l0,0c14.2,3.5,28.6-5.1,32.2-19.3l6.4-25.8
							c3.5-14.2-5.1-28.6-19.3-32.2l0,0c-14.2-3.5-28.6,5.1-32.2,19.3L320.2,138.4z"/>
					</g>
				</g>
				<path id="XMLID_1700_" class="st137" d="M390.7,229.4c0,74.4-60.3,134.7-134.7,134.7c-74.4,0-134.7-60.3-134.7-134.7
					c0-74.4,60.3-134.7,134.7-134.7C330.4,94.7,390.7,155,390.7,229.4z"/>
				<g id="XMLID_1701_">
					<path id="XMLID_1702_" class="st0" d="M215.5,208.6c0,6.5-5.4,11.9-12.2,11.9c-6.7,0-12.2-5.3-12.2-11.9
						c0-6.5,5.4-11.8,12.2-11.8C210.1,196.7,215.5,202,215.5,208.6z"/>
					<path id="XMLID_1703_" class="st0" d="M320,208.6c0,6.5-5.4,11.9-12.2,11.9c-6.7,0-12.2-5.3-12.2-11.9
						c0-6.5,5.5-11.8,12.2-11.8C314.5,196.7,320,202,320,208.6z"/>
				</g>
				<g id="XMLID_1704_">
					<path id="XMLID_1705_" class="st23" d="M298.6,253.8c0,21.9-18.2,39.6-40.7,39.6h-2.7c-22.5,0-40.7-17.7-40.7-39.6v-20.6
						c0-21.9,18.2-39.6,40.7-39.6h2.7c22.5,0,40.7,17.7,40.7,39.6V253.8z"/>
					<path id="XMLID_1706_" class="st139" d="M295.9,314.1c0,22.3-18.1,40.4-40.4,40.4c-22.3,0-40.4-18.1-40.4-40.4
						s18.1-40.4,40.4-40.4C277.8,273.7,295.9,291.8,295.9,314.1z"/>
					<g id="XMLID_1707_">
						<path id="XMLID_1708_" class="st139" d="M261.9,282.2c0,25.6-20.8,46.4-46.4,46.4c-25.6,0-46.4-20.8-46.4-46.4
							c0-25.6,20.8-46.4,46.4-46.4C241.1,235.8,261.9,256.6,261.9,282.2z"/>
						<path id="XMLID_1709_" class="st139" d="M342.1,282.2c0,25.6-20.8,46.4-46.4,46.4c-25.6,0-46.4-20.8-46.4-46.4
							c0-25.6,20.8-46.4,46.4-46.4C321.3,235.8,342.1,256.6,342.1,282.2z"/>
					</g>
				</g>
				<g id="XMLID_1710_">
					<path id="XMLID_1711_" class="st0" d="M281.9,231.6c0,7.3-25.9,21.4-25.9,21.4s-25.9-14.1-25.9-21.4c0-7.3,11.6-9.1,25.9-9.1
						C270.3,222.5,281.9,224.3,281.9,231.6z"/>
					<path id="XMLID_1712_" class="st0" d="M262.5,278.3c0,3.4-2.8,6.2-6.2,6.2l0,0c-3.4,0-6.2-2.8-6.2-6.2v-32.5
						c0-3.4,2.8-6.2,6.2-6.2l0,0c3.4,0,6.2,2.8,6.2,6.2V278.3z"/>
				</g>
				<g id="XMLID_1713_">
					<path id="XMLID_1716_" class="st13" d="M278.3,297.3c0,9.6-10.1,17.5-22.5,17.5c-12.4,0-22.5-7.8-22.5-17.5
						c0-9.6,10.1-17.5,22.5-17.5C268.2,279.9,278.3,287.7,278.3,297.3z"/>
					<path id="XMLID_1719_" class="st13" d="M289.6,314.8c0,12.4-15.1,22.5-33.8,22.5c-18.7,0-33.8-10.1-33.8-22.5
						c0-12.4,15.1-22.5,33.8-22.5C274.5,292.2,289.6,302.3,289.6,314.8z"/>
					<g id="XMLID_1720_">
						<path id="XMLID_1721_" class="st21" d="M279.2,290.4c-12.6,11.8-34.2,11.8-46.8,0c-8.9-8.4-22.3,5-13.4,13.4
							c20.2,19,53.3,19,73.5,0C301.5,295.4,288.1,282,279.2,290.4L279.2,290.4z"/>
					</g>
				</g>
			</g>
		</g>
	</g>
</g>
</svg>
