<?xml version="1.0" encoding="utf-8"?>
<!-- Generator: Adobe Illustrator 25.0.0, SVG Export Plug-In . SVG Version: 6.00 Build 0)  -->
<svg version="1.1" xmlns="http://www.w3.org/2000/svg" xmlns:xlink="http://www.w3.org/1999/xlink" x="0px" y="0px"
	 viewBox="0 0 512 512" style="enable-background:new 0 0 512 512;" xml:space="preserve">
<style type="text/css">
	.st0{fill:#3D2A3D;}
	.st1{fill:#D5872A;}
	.st2{fill:#C9E874;}
	.st3{fill:#277A6B;}
	.st4{fill:#FFDE69;}
	.st5{fill:#698250;}
	.st6{fill:#C8C947;}
	.st7{fill:#A6DEA9;}
	.st8{fill:#376C7E;}
	.st9{fill:#8BA83C;}
	.st10{fill:#2FABAF;}
	.st11{fill:#216964;}
	.st12{fill:#605560;}
	.st13{fill:#C45742;}
	.st14{fill:#79D7F2;}
	.st15{fill:#769938;}
	.st16{fill:#9EC853;}
	.st17{fill:#E7AD84;}
	.st18{fill:#76B079;}
	.st19{clip-path:url(#SVGID_2_);}
	.st20{fill:#594335;}
	.st21{fill:#F7F7F8;}
	.st22{fill:#7D5737;}
	.st23{fill:#D68F6A;}
	.st24{clip-path:url(#SVGID_4_);fill:#C45742;}
	.st25{clip-path:url(#SVGID_4_);fill:#E88D38;}
	.st26{clip-path:url(#SVGID_4_);}
	.st27{fill:#E1902B;}
	.st28{fill:#FFC671;}
	.st29{fill:#E1E1E1;}
	.st30{clip-path:url(#SVGID_6_);}
	.st31{fill:#D1741D;}
	.st32{fill:#C93A3A;}
	.st33{clip-path:url(#SVGID_8_);}
	.st34{fill:#919191;}
	.st35{fill:#CE722F;}
	.st36{fill:#C4C4C4;}
	.st37{clip-path:url(#SVGID_10_);}
	.st38{fill:#665348;}
	.st39{fill:#877365;}
	.st40{fill:#E3A584;}
	.st41{fill:#733D28;}
	.st42{clip-path:url(#SVGID_12_);}
	.st43{fill:#8C8C8C;}
	.st44{fill:#BFBFBF;}
	.st45{clip-path:url(#SVGID_14_);}
	.st46{clip-path:url(#SVGID_16_);}
	.st47{fill:#FFFFFF;}
	.st48{fill:#4A414A;}
	.st49{clip-path:url(#SVGID_18_);}
	.st50{fill:#BE7632;}
	.st51{clip-path:url(#SVGID_20_);}
	.st52{fill:#E3A445;}
	.st53{fill:#FFF0BA;}
	.st54{fill:#BF7128;}
	.st55{clip-path:url(#XMLID_82_);}
	.st56{fill:#AC6322;}
	.st57{clip-path:url(#SVGID_22_);}
	.st58{fill:#DBCCA6;}
	.st59{fill:#C2A579;}
	.st60{fill:#CFB582;}
	.st61{fill:#EBE2B2;}
	.st62{fill:#B8B399;}
	.st63{fill:#918E79;}
	.st64{fill:#665F52;}
	.st65{clip-path:url(#XMLID_83_);}
	.st66{fill:#BD4A4A;}
	.st67{fill:#D4811C;}
	.st68{fill:#CF6F15;}
	.st69{clip-path:url(#SVGID_24_);}
	.st70{fill:#FFF8E3;}
	.st71{fill:#7A6D7A;}
	.st72{fill:#2C1512;}
	.st73{fill:#D6CBA9;}
	.st74{clip-path:url(#XMLID_84_);}
	.st75{fill:#FFEA9E;}
	.st76{fill:#FFDBC5;}
	.st77{clip-path:url(#XMLID_85_);}
	.st78{fill:#B55716;}
	.st79{fill:#C47325;}
	.st80{clip-path:url(#XMLID_86_);}
	.st81{fill:#ADA798;}
	.st82{fill:#C4BDAC;}
	.st83{fill:#8F8266;}
	.st84{fill:#D6CEBC;}
	.st85{fill:#FFFAE6;}
	.st86{fill:#595140;}
	.st87{clip-path:url(#XMLID_88_);}
	.st88{fill:#B84028;}
	.st89{fill:#E6B75A;}
	.st90{fill:#DB614A;}
	.st91{clip-path:url(#XMLID_92_);}
	.st92{fill:#615661;}
	.st93{fill:#635963;}
	.st94{fill:#4F414F;}
	.st95{fill:#7D6F7D;}
	.st96{fill:#B5A0B5;}
	.st97{fill:#574D57;}
	.st98{clip-path:url(#XMLID_95_);}
	.st99{fill:#C2C2C2;}
	.st100{fill:#9E9E9E;}
	.st101{fill:#949494;}
	.st102{fill:#E8E8E8;}
	.st103{fill:#A1A1A1;}
	.st104{fill:#D66270;}
	.st105{clip-path:url(#XMLID_99_);}
	.st106{fill:#CFCFCF;}
	.st107{fill:#BDA18D;}
	.st108{fill:#82A385;}
	.st109{clip-path:url(#XMLID_100_);}
	.st110{fill:#D1986E;}
	.st111{fill:#C2733E;}
	.st112{fill:#E6AC83;}
	.st113{fill:#C28155;}
	.st114{fill:#6E482E;}
	.st115{fill:#594435;}
	.st116{clip-path:url(#XMLID_102_);}
	.st117{fill:#6B5545;}
	.st118{fill:#261526;}
	.st119{fill:#9E8776;}
	.st120{fill:#807180;}
	.st121{fill:#A693A6;}
	.st122{fill:#614C61;}
	.st123{clip-path:url(#XMLID_107_);}
	.st124{fill:#D9D9D9;}
	.st125{clip-path:url(#XMLID_110_);}
	.st126{fill:#4D404D;}
	.st127{clip-path:url(#XMLID_110_);fill:#4D404D;}
	.st128{clip-path:url(#XMLID_111_);}
	.st129{clip-path:url(#XMLID_120_);}
	.st130{fill:#FFC682;}
	.st131{clip-path:url(#XMLID_121_);}
	.st132{fill:#753427;}
	.st133{clip-path:url(#XMLID_121_);fill:#753427;}
	.st134{clip-path:url(#SVGID_26_);}
	.st135{fill:#694334;}
	.st136{fill:#FF826E;}
	.st137{fill:#875F44;}
	.st138{fill:#4F3327;}
	.st139{fill:#D68256;}
	.st140{clip-path:url(#SVGID_28_);}
	.st141{fill:#6E6E6E;}
	.st142{fill:#B8B8B8;}
	.st143{clip-path:url(#SVGID_28_);fill:#B8B8B8;}
	.st144{clip-path:url(#SVGID_30_);}
	.st145{clip-path:url(#SVGID_32_);}
	.st146{fill:#D16658;}
	.st147{fill:#E6786A;}
	.st148{fill:#F79E92;}
	.st149{clip-path:url(#SVGID_34_);}
	.st150{fill:#E6CA56;}
	.st151{fill:#F2EBCB;}
	.st152{fill:#F08C7F;}
	.st153{clip-path:url(#SVGID_36_);}
	.st154{fill:#9E6842;}
	.st155{fill:#BA835E;}
	.st156{fill:#8C5937;}
	.st157{fill:#E3AD88;}
	.st158{fill:#A86B42;}
	.st159{clip-path:url(#SVGID_38_);}
	.st160{fill:#877987;}
	.st161{fill:#C7BCB2;}
	.st162{clip-path:url(#SVGID_40_);}
	.st163{fill:#6E4D37;}
	.st164{fill:#A8562A;}
	.st165{clip-path:url(#SVGID_42_);}
	.st166{fill:#A37352;}
	.st167{clip-path:url(#SVGID_44_);}
	.st168{fill:#8A8A8A;}
	.st169{fill:#F0F0F0;}
	.st170{clip-path:url(#XMLID_126_);}
	.st171{clip-path:url(#SVGID_46_);fill:none;}
	.st172{clip-path:url(#SVGID_46_);}
	.st173{fill:#78553C;}
	.st174{fill:#F29C5E;}
	.st175{fill:#D4D4D4;}
	.st176{clip-path:url(#SVGID_48_);}
	.st177{fill:#DB959A;}
	.st178{clip-path:url(#SVGID_50_);}
	.st179{fill:#A1341E;}
	.st180{fill:#EB9F2E;}
	.st181{clip-path:url(#SVGID_52_);}
	.st182{clip-path:url(#SVGID_54_);}
	.st183{fill:#855433;}
	.st184{fill:#AD6D42;}
	.st185{clip-path:url(#SVGID_56_);}
	.st186{fill:#D5A060;}
	.st187{clip-path:url(#SVGID_58_);}
	.st188{fill:#4A3C4A;}
	.st189{fill:#524352;}
	.st190{clip-path:url(#SVGID_60_);}
	.st191{fill:#524252;}
	.st192{clip-path:url(#SVGID_62_);fill:#C7781C;}
	.st193{clip-path:url(#SVGID_62_);}
	.st194{fill:#DEDEDE;}
	.st195{fill:#C7781C;}
	.st196{clip-path:url(#SVGID_62_);fill:#D5872A;}
	.st197{clip-path:url(#SVGID_62_);fill:#877365;}
	.st198{clip-path:url(#SVGID_62_);fill:#E3AD88;}
	.st199{clip-path:url(#SVGID_62_);fill:#F7F7F8;}
	.st200{clip-path:url(#SVGID_64_);}
	.st201{fill:#A63A25;}
	.st202{clip-path:url(#SVGID_66_);}
	.st203{clip-path:url(#SVGID_68_);}
	.st204{fill:#CF97A1;}
	.st205{fill:#CF7686;}
	.st206{clip-path:url(#SVGID_70_);}
	.st207{fill:#4F464F;}
	.st208{fill:#9C8A9C;}
	.st209{clip-path:url(#SVGID_72_);}
</style>
<g id="ICON">
	<path id="XMLID_226_" class="st16" d="M512,256c0,141.4-114.6,256-256,256C114.6,512,0,397.4,0,256S114.6,0,256,0
		C397.4,0,512,114.6,512,256z"/>
</g>
<g id="Layer_7">
	<g>
		<rect id="XMLID_1500_" x="155.1" y="327" class="st115" width="201.8" height="109.9"/>
		<g id="XMLID_1501_">
			<defs>
				<path id="XMLID_1531_" d="M512,256c0,141.4-114.6,256-256,256C114.6,512,0,397.4,0,256C0,114.6,114.6,0,256,0
					C397.4,0,512,114.6,512,256z"/>
			</defs>
			<clipPath id="XMLID_82_">
				<use xlink:href="#XMLID_1531_"  style="overflow:visible;"/>
			</clipPath>
			<g id="XMLID_1502_" class="st55">
				<g id="XMLID_1503_">
					<path id="XMLID_1504_" class="st0" d="M499.8,596.6v-67.2c0-57-47.1-102.5-104.1-102.5H114.9c-57,0-102.7,45.5-102.7,102.5
						v67.2H499.8z"/>
					<polygon id="XMLID_1507_" class="st11" points="226.8,582.9 287.8,582.9 272.4,485.4 306.1,444.1 282.9,394 233.4,394 
						209,444.1 241.7,485 					"/>
					<g id="XMLID_1508_">
						<polygon id="XMLID_1509_" class="st12" points="308,461.8 399.9,423.5 368.2,374.3 256.3,393.1 						"/>
						<polygon id="XMLID_1510_" class="st12" points="207,461.8 115.2,423.5 141,374.3 258.7,393.1 						"/>
					</g>
				</g>
				<g id="XMLID_1511_">
					<g id="XMLID_1512_">
						<g id="XMLID_1513_">
							<path id="XMLID_1514_" class="st117" d="M216.7,143.3c0,25-20.3,45.2-45.2,45.2c-25,0-45.2-20.2-45.2-45.2
								c0-25,20.3-45.2,45.2-45.2C196.4,98.1,216.7,118.3,216.7,143.3z"/>
							<path id="XMLID_1515_" class="st117" d="M385.8,143.6c0,25-20.2,45.2-45.2,45.2c-25,0-45.2-20.2-45.2-45.2
								c0-25,20.2-45.2,45.2-45.2C365.5,98.3,385.8,118.6,385.8,143.6z"/>
						</g>
						<g id="XMLID_1516_">
							<path id="XMLID_1517_" class="st0" d="M205,149.7c0,17.6-14.2,31.8-31.8,31.8c-17.6,0-31.8-14.2-31.8-31.8
								c0-17.6,14.2-31.8,31.8-31.8C190.7,117.8,205,132.1,205,149.7z"/>
							<path id="XMLID_1518_" class="st0" d="M370.6,149.7c0,17.6-14.2,31.8-31.8,31.8c-17.6,0-31.8-14.2-31.8-31.8
								c0-17.6,14.2-31.8,31.8-31.8C356.4,117.8,370.6,132.1,370.6,149.7z"/>
						</g>
					</g>
					<path id="XMLID_1519_" class="st117" d="M387.2,239.6h0.7l-48-90.8H172.2l-48,90.8h0.7c-4.8,12.3-7.4,24.4-7.4,37.6
						c0,64.3,62,116.5,138.6,116.5c76.5,0,138.6-52.2,138.6-116.5C394.6,264,392,251.9,387.2,239.6z"/>
					<g id="XMLID_1520_">
						<path id="XMLID_1521_" class="st118" d="M189.9,220.6c0.9,9,8.4,15.9,17.5,15.9c9.1,0,16.6-6.9,17.5-15.9H189.9z"/>
						<path id="XMLID_1522_" class="st118" d="M287.1,220.6c0.9,9,8.4,15.9,17.5,15.9c9.1,0,16.6-6.9,17.5-15.9H287.1z"/>
					</g>
					<path id="XMLID_1523_" class="st119" d="M314.2,362.9c0,31.6-25.6,57.2-57.2,57.2l0,0c-31.6,0-57.2-25.6-57.2-57.2v-79.6
						c0-31.6,25.6-57.2,57.2-57.2l0,0c31.6,0,57.2,25.6,57.2,57.2V362.9z"/>
					<g id="XMLID_1524_">
						<path id="XMLID_1525_" class="st21" d="M287.6,318.7l5.4-3.4c0,0-10.3-38.2-10.3-39.7c0-1.2-3.8,28.9-5.6,43.1H287.6z"/>
						<path id="XMLID_1526_" class="st21" d="M236,318.7c-1.8-14.2-5.6-44.3-5.6-43.1c0,1.5-10.3,39.7-10.3,39.7l5.4,3.4H236z"/>
					</g>
					<path id="XMLID_1527_" class="st0" d="M298.6,319.2c0,3.7-3,6.7-6.7,6.7h-70.6c-3.7,0-6.7-3-6.7-6.7l0,0c0-3.7,3-6.7,6.7-6.7
						h70.6C295.6,312.5,298.6,315.5,298.6,319.2L298.6,319.2z"/>
					<g id="XMLID_1528_">
						<path id="XMLID_1529_" class="st0" d="M281.9,254c0,7.3-25.9,21.4-25.9,21.4s-25.9-14.1-25.9-21.4c0-7.3,11.6-9.1,25.9-9.1
							C270.3,244.9,281.9,246.7,281.9,254z"/>
						<path id="XMLID_1530_" class="st0" d="M262.7,300.7c0,3.4-2.8,6.2-6.2,6.2l0,0c-3.4,0-6.2-2.8-6.2-6.2v-32.5
							c0-3.4,2.8-6.2,6.2-6.2l0,0c3.4,0,6.2,2.8,6.2,6.2V300.7z"/>
					</g>
				</g>
			</g>
		</g>
	</g>
</g>
</svg>
