<?xml version="1.0" encoding="utf-8"?>
<!-- Generator: Adobe Illustrator 25.0.0, SVG Export Plug-In . SVG Version: 6.00 Build 0)  -->
<svg version="1.1" xmlns="http://www.w3.org/2000/svg" xmlns:xlink="http://www.w3.org/1999/xlink" x="0px" y="0px"
	 viewBox="0 0 512 512" style="enable-background:new 0 0 512 512;" xml:space="preserve">
<style type="text/css">
	.st0{fill:#3D2A3D;}
	.st1{fill:#D5872A;}
	.st2{fill:#C9E874;}
	.st3{fill:#277A6B;}
	.st4{fill:#FFDE69;}
	.st5{fill:#698250;}
	.st6{fill:#C8C947;}
	.st7{fill:#A6DEA9;}
	.st8{fill:#376C7E;}
	.st9{fill:#8BA83C;}
	.st10{fill:#2FABAF;}
	.st11{fill:#216964;}
	.st12{fill:#605560;}
	.st13{fill:#C45742;}
	.st14{fill:#79D7F2;}
	.st15{fill:#769938;}
	.st16{fill:#9EC853;}
	.st17{fill:#E7AD84;}
	.st18{fill:#76B079;}
	.st19{clip-path:url(#SVGID_2_);}
	.st20{fill:#594335;}
	.st21{fill:#F7F7F8;}
	.st22{fill:#7D5737;}
	.st23{fill:#D68F6A;}
	.st24{clip-path:url(#SVGID_4_);fill:#C45742;}
	.st25{clip-path:url(#SVGID_4_);fill:#E88D38;}
	.st26{clip-path:url(#SVGID_4_);}
	.st27{fill:#E1902B;}
	.st28{fill:#FFC671;}
	.st29{fill:#E1E1E1;}
	.st30{clip-path:url(#SVGID_6_);}
	.st31{fill:#D1741D;}
	.st32{fill:#C93A3A;}
	.st33{clip-path:url(#SVGID_8_);}
	.st34{fill:#919191;}
	.st35{fill:#CE722F;}
	.st36{fill:#C4C4C4;}
	.st37{clip-path:url(#SVGID_10_);}
	.st38{fill:#665348;}
	.st39{fill:#877365;}
	.st40{fill:#E3A584;}
	.st41{fill:#733D28;}
	.st42{clip-path:url(#SVGID_12_);}
	.st43{fill:#8C8C8C;}
	.st44{fill:#BFBFBF;}
	.st45{clip-path:url(#SVGID_14_);}
	.st46{clip-path:url(#SVGID_16_);}
	.st47{fill:#FFFFFF;}
	.st48{fill:#4A414A;}
	.st49{clip-path:url(#SVGID_18_);}
	.st50{fill:#BE7632;}
	.st51{clip-path:url(#SVGID_20_);}
	.st52{fill:#E3A445;}
	.st53{fill:#FFF0BA;}
	.st54{fill:#BF7128;}
	.st55{clip-path:url(#XMLID_82_);}
	.st56{fill:#AC6322;}
	.st57{clip-path:url(#SVGID_22_);}
	.st58{fill:#DBCCA6;}
	.st59{fill:#C2A579;}
	.st60{fill:#CFB582;}
	.st61{fill:#EBE2B2;}
	.st62{fill:#B8B399;}
	.st63{fill:#918E79;}
	.st64{fill:#665F52;}
	.st65{clip-path:url(#XMLID_83_);}
	.st66{fill:#BD4A4A;}
	.st67{fill:#D4811C;}
	.st68{fill:#CF6F15;}
	.st69{clip-path:url(#SVGID_24_);}
	.st70{fill:#FFF8E3;}
	.st71{fill:#7A6D7A;}
	.st72{fill:#2C1512;}
	.st73{fill:#D6CBA9;}
	.st74{clip-path:url(#XMLID_84_);}
	.st75{fill:#FFEA9E;}
	.st76{fill:#FFDBC5;}
	.st77{clip-path:url(#XMLID_85_);}
	.st78{fill:#B55716;}
	.st79{fill:#C47325;}
	.st80{clip-path:url(#XMLID_86_);}
	.st81{fill:#ADA798;}
	.st82{fill:#C4BDAC;}
	.st83{fill:#8F8266;}
	.st84{fill:#D6CEBC;}
	.st85{fill:#FFFAE6;}
	.st86{fill:#595140;}
	.st87{clip-path:url(#XMLID_88_);}
	.st88{fill:#B84028;}
	.st89{fill:#E6B75A;}
	.st90{fill:#DB614A;}
	.st91{clip-path:url(#XMLID_92_);}
	.st92{fill:#615661;}
	.st93{fill:#635963;}
	.st94{fill:#4F414F;}
	.st95{fill:#7D6F7D;}
	.st96{fill:#B5A0B5;}
	.st97{fill:#574D57;}
	.st98{clip-path:url(#XMLID_95_);}
	.st99{fill:#C2C2C2;}
	.st100{fill:#9E9E9E;}
	.st101{fill:#949494;}
	.st102{fill:#E8E8E8;}
	.st103{fill:#A1A1A1;}
	.st104{fill:#D66270;}
	.st105{clip-path:url(#XMLID_99_);}
	.st106{fill:#CFCFCF;}
	.st107{fill:#BDA18D;}
	.st108{fill:#82A385;}
	.st109{clip-path:url(#XMLID_100_);}
	.st110{fill:#D1986E;}
	.st111{fill:#C2733E;}
	.st112{fill:#E6AC83;}
	.st113{fill:#C28155;}
	.st114{fill:#6E482E;}
	.st115{fill:#594435;}
	.st116{clip-path:url(#XMLID_102_);}
	.st117{fill:#6B5545;}
	.st118{fill:#261526;}
	.st119{fill:#9E8776;}
	.st120{fill:#807180;}
	.st121{fill:#A693A6;}
	.st122{fill:#614C61;}
	.st123{clip-path:url(#XMLID_107_);}
	.st124{fill:#D9D9D9;}
	.st125{clip-path:url(#XMLID_110_);}
	.st126{fill:#4D404D;}
	.st127{clip-path:url(#XMLID_110_);fill:#4D404D;}
	.st128{clip-path:url(#XMLID_111_);}
	.st129{clip-path:url(#XMLID_120_);}
	.st130{fill:#FFC682;}
	.st131{clip-path:url(#XMLID_121_);}
	.st132{fill:#753427;}
	.st133{clip-path:url(#XMLID_121_);fill:#753427;}
	.st134{clip-path:url(#SVGID_26_);}
	.st135{fill:#694334;}
	.st136{fill:#FF826E;}
	.st137{fill:#875F44;}
	.st138{fill:#4F3327;}
	.st139{fill:#D68256;}
	.st140{clip-path:url(#SVGID_28_);}
	.st141{fill:#6E6E6E;}
	.st142{fill:#B8B8B8;}
	.st143{clip-path:url(#SVGID_28_);fill:#B8B8B8;}
	.st144{clip-path:url(#SVGID_30_);}
	.st145{clip-path:url(#SVGID_32_);}
	.st146{fill:#D16658;}
	.st147{fill:#E6786A;}
	.st148{fill:#F79E92;}
	.st149{clip-path:url(#SVGID_34_);}
	.st150{fill:#E6CA56;}
	.st151{fill:#F2EBCB;}
	.st152{fill:#F08C7F;}
	.st153{clip-path:url(#SVGID_36_);}
	.st154{fill:#9E6842;}
	.st155{fill:#BA835E;}
	.st156{fill:#8C5937;}
	.st157{fill:#E3AD88;}
	.st158{fill:#A86B42;}
	.st159{clip-path:url(#SVGID_38_);}
	.st160{fill:#877987;}
	.st161{fill:#C7BCB2;}
	.st162{clip-path:url(#SVGID_40_);}
	.st163{fill:#6E4D37;}
	.st164{fill:#A8562A;}
	.st165{clip-path:url(#SVGID_42_);}
	.st166{fill:#A37352;}
	.st167{clip-path:url(#SVGID_44_);}
	.st168{fill:#8A8A8A;}
	.st169{fill:#F0F0F0;}
	.st170{clip-path:url(#XMLID_126_);}
	.st171{clip-path:url(#SVGID_46_);fill:none;}
	.st172{clip-path:url(#SVGID_46_);}
	.st173{fill:#78553C;}
	.st174{fill:#F29C5E;}
	.st175{fill:#D4D4D4;}
	.st176{clip-path:url(#SVGID_48_);}
	.st177{fill:#DB959A;}
	.st178{clip-path:url(#SVGID_50_);}
	.st179{fill:#A1341E;}
	.st180{fill:#EB9F2E;}
	.st181{clip-path:url(#SVGID_52_);}
	.st182{clip-path:url(#SVGID_54_);}
	.st183{fill:#855433;}
	.st184{fill:#AD6D42;}
	.st185{clip-path:url(#SVGID_56_);}
	.st186{fill:#D5A060;}
	.st187{clip-path:url(#SVGID_58_);}
	.st188{fill:#4A3C4A;}
	.st189{fill:#524352;}
	.st190{clip-path:url(#SVGID_60_);}
	.st191{fill:#524252;}
	.st192{clip-path:url(#SVGID_62_);fill:#C7781C;}
	.st193{clip-path:url(#SVGID_62_);}
	.st194{fill:#DEDEDE;}
	.st195{fill:#C7781C;}
	.st196{clip-path:url(#SVGID_62_);fill:#D5872A;}
	.st197{clip-path:url(#SVGID_62_);fill:#877365;}
	.st198{clip-path:url(#SVGID_62_);fill:#E3AD88;}
	.st199{clip-path:url(#SVGID_62_);fill:#F7F7F8;}
	.st200{clip-path:url(#SVGID_64_);}
	.st201{fill:#A63A25;}
	.st202{clip-path:url(#SVGID_66_);}
	.st203{clip-path:url(#SVGID_68_);}
	.st204{fill:#CF97A1;}
	.st205{fill:#CF7686;}
	.st206{clip-path:url(#SVGID_70_);}
	.st207{fill:#4F464F;}
	.st208{fill:#9C8A9C;}
	.st209{clip-path:url(#SVGID_72_);}
</style>
<g id="ICON">
	<path id="XMLID_10_" class="st3" d="M512,256c0,141.4-114.6,256-256,256C114.6,512,0,397.4,0,256C0,114.6,114.6,0,256,0
		C397.4,0,512,114.6,512,256z"/>
</g>
<g id="Layer_7">
	<g id="XMLID_535_">
		<defs>
			<path id="SVGID_7_" d="M512,256c0,141.4-114.6,256-256,256C114.6,512,0,397.4,0,256C0,114.6,114.6,0,256,0
				C397.4,0,512,114.6,512,256z"/>
		</defs>
		<clipPath id="SVGID_2_">
			<use xlink:href="#SVGID_7_"  style="overflow:visible;"/>
		</clipPath>
		<g id="XMLID_536_" class="st19">
			<path class="st0" d="M517.6,560.9l-0.1-1.2c-0.5-72.3-28-142.1-61.1-155.2l-140.9-55.7c-33.1-13.1-87.1-12.8-120,0.7l-142.1,58
				C20.5,420.9-6,491-5.5,563.3l-0.1,1.2L517.6,560.9z"/>
			
				<rect x="164.5" y="279.5" transform="matrix(1 -6.831205e-03 6.831205e-03 1 -2.2223 1.7564)" class="st34" width="183" height="93.4"/>
			<g id="XMLID_782_">
				<polygon class="st21" points="205.7,429.9 133.3,391.3 155.5,347.7 255.8,371.3 				"/>
				<g id="XMLID_783_">
					<polygon class="st21" points="306.9,429.2 378.7,389.7 355.9,346.4 256,371.3 					"/>
				</g>
			</g>
		</g>
		<g id="XMLID_784_" class="st19">
			<g id="XMLID_785_">
				<path id="XMLID_786_" class="st35" d="M180.9,87.4c14.6,0.8,20.1,11.5,12.2,23.8l-17.9,27.8c-7.9,12.3-19.9,11.8-26.7-1.2
					l-15.7-30.1c-6.8-13-0.4-22.9,14.2-22.1L180.9,87.4z"/>
				<path id="XMLID_787_" class="st35" d="M331.1,87.4c-14.6,0.8-20.1,11.5-12.2,23.8l17.9,27.8c7.9,12.3,19.9,11.8,26.7-1.2
					l15.7-30.1c6.8-13,0.4-22.9-14.2-22.1L331.1,87.4z"/>
			</g>
			<g id="XMLID_790_">
				<path class="st27" d="M196.3,89.7c-12.1,0-25.2,9.4-29,20.9l-27.6,82c-3.9,11.5,2.9,20.9,15,20.9h203.6c12.1,0,18.8-9.4,15-20.9
					l-27.6-82c-3.9-11.5-16.9-20.9-29-20.9H196.3z"/>
			</g>
			<ellipse id="XMLID_791_" class="st27" cx="256" cy="234.9" rx="127.6" ry="93.2"/>
			<path id="XMLID_792_" class="st27" d="M300.4,297.2c0,23.9-19.4,43.3-43.3,43.3H253c-23.9,0-43.3-19.4-43.3-43.3v-22.1
				c0-23.9,19.4-43.3,43.3-43.3h4.1c23.9,0,43.3,19.4,43.3,43.3V297.2z"/>
			<g id="XMLID_793_">
				<path id="XMLID_794_" class="st0" d="M217.5,179.5c0,7-5.6,12.6-12.6,12.6c-7,0-12.6-5.6-12.6-12.6c0-7,5.6-12.6,12.6-12.6
					C211.8,166.9,217.5,172.6,217.5,179.5z"/>
				<path id="XMLID_795_" class="st0" d="M319.8,179.5c0,7-5.6,12.6-12.6,12.6s-12.6-5.6-12.6-12.6c0-7,5.6-12.6,12.6-12.6
					S319.8,172.6,319.8,179.5z"/>
			</g>
			<g id="XMLID_796_">
				<path class="st36" d="M252.2,288c-9.8,26.1-42.6,38-73.3,26.5c-30.7-11.5-47.6-42-37.8-68.1c9.8-26.1,42.6-38,73.3-26.5
					C245,231.4,261.9,261.8,252.2,288z"/>
				<path class="st36" d="M268.5,286.3c9.4,25,39.9,36.7,68.2,26.1c28.3-10.6,43.6-39.5,34.2-64.5c-9.4-25-39.9-36.7-68.2-26.1
					C274.4,232.4,259.1,261.3,268.5,286.3z"/>
			</g>
			<g id="XMLID_797_">
				<g id="XMLID_798_">
					<path class="st12" d="M149.7,205.3c-13.9,20.5-15.4,48.4-1.7,71.6c13.7,23.2,38.9,35.3,63.6,33c-19.7-5.2-38.6-19.3-51.1-40.4
						C148.1,248.5,144.8,225.1,149.7,205.3z"/>
					<path class="st12" d="M183.6,164.6c-20.3,19.1-28.8,48.9-19.3,77c9.5,28.1,34.3,46.6,62,49.5c-20.4-9.9-37.9-29.3-46.5-54.8
						C171.3,210.9,173.4,184.9,183.6,164.6z"/>
				</g>
				<g id="XMLID_799_">
					<path class="st12" d="M362.3,205.3c13.9,20.5,15.4,48.4,1.7,71.6c-13.7,23.2-38.9,35.3-63.6,33c19.7-5.2,38.6-19.3,51.1-40.4
						C363.9,248.5,367.2,225.1,362.3,205.3z"/>
					<path class="st12" d="M328.4,164.6c20.3,19.1,28.8,48.9,19.3,77c-9.5,28.1-34.3,46.6-62,49.5c20.4-9.9,37.9-29.3,46.5-54.8
						C340.7,210.9,338.6,184.9,328.4,164.6z"/>
				</g>
			</g>
			<path id="XMLID_800_" class="st36" d="M313.9,318.5c0,24.5-19.9,44.4-44.4,44.4H244c-24.5,0-44.4-19.9-44.4-44.4v-15.4
				c0-24.5,19.9-44.4,44.4-44.4h25.5c24.5,0,44.4,19.9,44.4,44.4V318.5z"/>
			<path id="XMLID_801_" class="st28" d="M293.7,272.1v-85.8c0-19.9-17.1-36.1-37-36.1c-19.9,0-37,16.1-37,36.1v85.8H293.7z"/>
			<g id="XMLID_802_">
				<path id="XMLID_803_" class="st36" d="M253.4,299.5c0,12.7-10.3,23-23,23H217c-12.7,0-23-10.3-23-23v-14.4c0-12.7,10.3-23,23-23
					h13.3c12.7,0,23,10.3,23,23V299.5z"/>
				<path id="XMLID_804_" class="st36" d="M318.4,299.5c0,12.7-10.3,23-23,23H282c-12.7,0-23-10.3-23-23v-14.4c0-12.7,10.3-23,23-23
					h13.3c12.7,0,23,10.3,23,23V299.5z"/>
			</g>
			<path id="XMLID_805_" class="st0" d="M230.3,251.9c-14.9,0-19,9.2-9,20.3l17.2,19.3c9.9,11.1,26.2,11.1,36.1,0l17.2-19.4
				c9.9-11.1,5.9-20.3-9-20.3H230.3z"/>
			<path id="XMLID_806_" class="st12" d="M301.7,152.4c-5.7-15-24-25.9-45.7-25.9s-40,10.9-45.7,25.9c11.7-7,27.9-11.3,45.7-11.3
				C273.8,141.1,290,145.4,301.7,152.4z"/>
			<path id="XMLID_807_" class="st12" d="M256,93.9c-4.3,8.3-6.8,18.8-6.8,30.2c0,11.4,2.5,21.9,6.8,30.2c4.3-8.3,6.8-18.8,6.8-30.2
				C262.8,112.7,260.3,102.2,256,93.9z"/>
			<path id="XMLID_808_" class="st12" d="M321.4,124.6c-8.2-16.3-34.4-28.3-65.4-28.3s-57.2,12-65.4,28.3
				c16.8-7.7,39.9-12.4,65.4-12.4C281.5,112.2,304.7,116.9,321.4,124.6z"/>
			<g id="XMLID_809_">
				<path id="XMLID_810_" class="st21" d="M283,309.1c-14.4,13.6-39.2,13.6-53.6,0c-10.2-9.6-25.6,5.7-15.3,15.3
					c23.2,21.8,61.2,21.8,84.3,0C308.6,314.8,293.2,299.5,283,309.1L283,309.1z"/>
			</g>
		</g>
	</g>
</g>
</svg>
