<?xml version="1.0" encoding="utf-8"?>
<!-- Generator: Adobe Illustrator 25.0.0, SVG Export Plug-In . SVG Version: 6.00 Build 0)  -->
<svg version="1.1" xmlns="http://www.w3.org/2000/svg" xmlns:xlink="http://www.w3.org/1999/xlink" x="0px" y="0px"
	 viewBox="0 0 512 512" style="enable-background:new 0 0 512 512;" xml:space="preserve">
<style type="text/css">
	.st0{fill:#3D2A3D;}
	.st1{fill:#D5872A;}
	.st2{fill:#C9E874;}
	.st3{fill:#277A6B;}
	.st4{fill:#FFDE69;}
	.st5{fill:#698250;}
	.st6{fill:#C8C947;}
	.st7{fill:#A6DEA9;}
	.st8{fill:#376C7E;}
	.st9{fill:#8BA83C;}
	.st10{fill:#2FABAF;}
	.st11{fill:#216964;}
	.st12{fill:#605560;}
	.st13{fill:#C45742;}
	.st14{fill:#79D7F2;}
	.st15{fill:#769938;}
	.st16{fill:#9EC853;}
	.st17{fill:#E7AD84;}
	.st18{fill:#76B079;}
	.st19{clip-path:url(#SVGID_2_);}
	.st20{fill:#594335;}
	.st21{fill:#F7F7F8;}
	.st22{fill:#7D5737;}
	.st23{fill:#D68F6A;}
	.st24{clip-path:url(#SVGID_4_);fill:#C45742;}
	.st25{clip-path:url(#SVGID_4_);fill:#E88D38;}
	.st26{clip-path:url(#SVGID_4_);}
	.st27{fill:#E1902B;}
	.st28{fill:#FFC671;}
	.st29{fill:#E1E1E1;}
	.st30{clip-path:url(#SVGID_6_);}
	.st31{fill:#D1741D;}
	.st32{fill:#C93A3A;}
	.st33{clip-path:url(#SVGID_8_);}
	.st34{fill:#919191;}
	.st35{fill:#CE722F;}
	.st36{fill:#C4C4C4;}
	.st37{clip-path:url(#SVGID_10_);}
	.st38{fill:#665348;}
	.st39{fill:#877365;}
	.st40{fill:#E3A584;}
	.st41{fill:#733D28;}
	.st42{clip-path:url(#SVGID_12_);}
	.st43{fill:#8C8C8C;}
	.st44{fill:#BFBFBF;}
	.st45{clip-path:url(#SVGID_14_);}
	.st46{clip-path:url(#SVGID_16_);}
	.st47{fill:#FFFFFF;}
	.st48{fill:#4A414A;}
	.st49{clip-path:url(#SVGID_18_);}
	.st50{fill:#BE7632;}
	.st51{clip-path:url(#SVGID_20_);}
	.st52{fill:#E3A445;}
	.st53{fill:#FFF0BA;}
	.st54{fill:#BF7128;}
	.st55{clip-path:url(#XMLID_82_);}
	.st56{fill:#AC6322;}
	.st57{clip-path:url(#SVGID_22_);}
	.st58{fill:#DBCCA6;}
	.st59{fill:#C2A579;}
	.st60{fill:#CFB582;}
	.st61{fill:#EBE2B2;}
	.st62{fill:#B8B399;}
	.st63{fill:#918E79;}
	.st64{fill:#665F52;}
	.st65{clip-path:url(#XMLID_83_);}
	.st66{fill:#BD4A4A;}
	.st67{fill:#D4811C;}
	.st68{fill:#CF6F15;}
	.st69{clip-path:url(#SVGID_24_);}
	.st70{fill:#FFF8E3;}
	.st71{fill:#7A6D7A;}
	.st72{fill:#2C1512;}
	.st73{fill:#D6CBA9;}
	.st74{clip-path:url(#XMLID_84_);}
	.st75{fill:#FFEA9E;}
	.st76{fill:#FFDBC5;}
	.st77{clip-path:url(#XMLID_85_);}
	.st78{fill:#B55716;}
	.st79{fill:#C47325;}
	.st80{clip-path:url(#XMLID_86_);}
	.st81{fill:#ADA798;}
	.st82{fill:#C4BDAC;}
	.st83{fill:#8F8266;}
	.st84{fill:#D6CEBC;}
	.st85{fill:#FFFAE6;}
	.st86{fill:#595140;}
	.st87{clip-path:url(#XMLID_88_);}
	.st88{fill:#B84028;}
	.st89{fill:#E6B75A;}
	.st90{fill:#DB614A;}
	.st91{clip-path:url(#XMLID_92_);}
	.st92{fill:#615661;}
	.st93{fill:#635963;}
	.st94{fill:#4F414F;}
	.st95{fill:#7D6F7D;}
	.st96{fill:#B5A0B5;}
	.st97{fill:#574D57;}
	.st98{clip-path:url(#XMLID_95_);}
	.st99{fill:#C2C2C2;}
	.st100{fill:#9E9E9E;}
	.st101{fill:#949494;}
	.st102{fill:#E8E8E8;}
	.st103{fill:#A1A1A1;}
	.st104{fill:#D66270;}
	.st105{clip-path:url(#XMLID_99_);}
	.st106{fill:#CFCFCF;}
	.st107{fill:#BDA18D;}
	.st108{fill:#82A385;}
	.st109{clip-path:url(#XMLID_100_);}
	.st110{fill:#D1986E;}
	.st111{fill:#C2733E;}
	.st112{fill:#E6AC83;}
	.st113{fill:#C28155;}
	.st114{fill:#6E482E;}
	.st115{fill:#594435;}
	.st116{clip-path:url(#XMLID_102_);}
	.st117{fill:#6B5545;}
	.st118{fill:#261526;}
	.st119{fill:#9E8776;}
	.st120{fill:#807180;}
	.st121{fill:#A693A6;}
	.st122{fill:#614C61;}
	.st123{clip-path:url(#XMLID_107_);}
	.st124{fill:#D9D9D9;}
	.st125{clip-path:url(#XMLID_110_);}
	.st126{fill:#4D404D;}
	.st127{clip-path:url(#XMLID_110_);fill:#4D404D;}
	.st128{clip-path:url(#XMLID_111_);}
	.st129{clip-path:url(#XMLID_120_);}
	.st130{fill:#FFC682;}
	.st131{clip-path:url(#XMLID_121_);}
	.st132{fill:#753427;}
	.st133{clip-path:url(#XMLID_121_);fill:#753427;}
	.st134{clip-path:url(#SVGID_26_);}
	.st135{fill:#694334;}
	.st136{fill:#FF826E;}
	.st137{fill:#875F44;}
	.st138{fill:#4F3327;}
	.st139{fill:#D68256;}
	.st140{clip-path:url(#SVGID_28_);}
	.st141{fill:#6E6E6E;}
	.st142{fill:#B8B8B8;}
	.st143{clip-path:url(#SVGID_28_);fill:#B8B8B8;}
	.st144{clip-path:url(#SVGID_30_);}
	.st145{clip-path:url(#SVGID_32_);}
	.st146{fill:#D16658;}
	.st147{fill:#E6786A;}
	.st148{fill:#F79E92;}
	.st149{clip-path:url(#SVGID_34_);}
	.st150{fill:#E6CA56;}
	.st151{fill:#F2EBCB;}
	.st152{fill:#F08C7F;}
	.st153{clip-path:url(#SVGID_36_);}
	.st154{fill:#9E6842;}
	.st155{fill:#BA835E;}
	.st156{fill:#8C5937;}
	.st157{fill:#E3AD88;}
	.st158{fill:#A86B42;}
	.st159{clip-path:url(#SVGID_38_);}
	.st160{fill:#877987;}
	.st161{fill:#C7BCB2;}
	.st162{clip-path:url(#SVGID_40_);}
	.st163{fill:#6E4D37;}
	.st164{fill:#A8562A;}
	.st165{clip-path:url(#SVGID_42_);}
	.st166{fill:#A37352;}
	.st167{clip-path:url(#SVGID_44_);}
	.st168{fill:#8A8A8A;}
	.st169{fill:#F0F0F0;}
	.st170{clip-path:url(#XMLID_126_);}
	.st171{clip-path:url(#SVGID_46_);fill:none;}
	.st172{clip-path:url(#SVGID_46_);}
	.st173{fill:#78553C;}
	.st174{fill:#F29C5E;}
	.st175{fill:#D4D4D4;}
	.st176{clip-path:url(#SVGID_48_);}
	.st177{fill:#DB959A;}
	.st178{clip-path:url(#SVGID_50_);}
	.st179{fill:#A1341E;}
	.st180{fill:#EB9F2E;}
	.st181{clip-path:url(#SVGID_52_);}
	.st182{clip-path:url(#SVGID_54_);}
	.st183{fill:#855433;}
	.st184{fill:#AD6D42;}
	.st185{clip-path:url(#SVGID_56_);}
	.st186{fill:#D5A060;}
	.st187{clip-path:url(#SVGID_58_);}
	.st188{fill:#4A3C4A;}
	.st189{fill:#524352;}
	.st190{clip-path:url(#SVGID_60_);}
	.st191{fill:#524252;}
	.st192{clip-path:url(#SVGID_62_);fill:#C7781C;}
	.st193{clip-path:url(#SVGID_62_);}
	.st194{fill:#DEDEDE;}
	.st195{fill:#C7781C;}
	.st196{clip-path:url(#SVGID_62_);fill:#D5872A;}
	.st197{clip-path:url(#SVGID_62_);fill:#877365;}
	.st198{clip-path:url(#SVGID_62_);fill:#E3AD88;}
	.st199{clip-path:url(#SVGID_62_);fill:#F7F7F8;}
	.st200{clip-path:url(#SVGID_64_);}
	.st201{fill:#A63A25;}
	.st202{clip-path:url(#SVGID_66_);}
	.st203{clip-path:url(#SVGID_68_);}
	.st204{fill:#CF97A1;}
	.st205{fill:#CF7686;}
	.st206{clip-path:url(#SVGID_70_);}
	.st207{fill:#4F464F;}
	.st208{fill:#9C8A9C;}
	.st209{clip-path:url(#SVGID_72_);}
</style>
<g id="ICON">
	<path id="XMLID_71_" class="st9" d="M512,256c0,141.4-114.6,256-256,256C114.6,512,0,397.4,0,256C0,114.6,114.6,0,256,0
		C397.4,0,512,114.6,512,256z"/>
</g>
<g id="Layer_7">
	<g id="XMLID_1112_">
		<defs>
			<path id="SVGID_23_" d="M512,256c0,141.4-114.6,256-256,256C114.6,512,0,397.4,0,256C0,114.6,114.6,0,256,0
				C397.4,0,512,114.6,512,256z"/>
		</defs>
		<clipPath id="SVGID_2_">
			<use xlink:href="#SVGID_23_"  style="overflow:visible;"/>
		</clipPath>
		<g id="XMLID_1113_" class="st19">
			<g id="XMLID_1114_">
				<path id="XMLID_1115_" class="st0" d="M447.8,517.7l-0.1-1c0-61.1-19.9-120.3-44.2-131.5l-103.4-47.9
					c-24.3-11.3-64-11.3-88.3-0.1L107,385.3c-24.3,11.2-44.2,70.3-44.2,131.4l-0.1,1H447.8z"/>
				<path id="XMLID_1116_" class="st0" d="M299.1,338.7c0,22.8-18.5,41.3-41.3,41.3h-5c-22.8,0-41.3-18.5-41.3-41.3v-78.8
					c0-22.8,18.5-41.3,41.3-41.3h5c22.8,0,41.3,18.5,41.3,41.3V338.7z"/>
				<path id="XMLID_1119_" class="st70" d="M452.2,516.7c0-61.1-20.5-120.3-45.4-131.5L326.5,349c0,0-16.5,62-72.3,62
					c-55.8,0-72-61.7-72-61.7l-80.6,36c-25,11.2-45.5,70.3-45.5,131.4l-0.1,1h396.2L452.2,516.7z"/>
			</g>
			<g id="XMLID_1120_">
				<g id="XMLID_1121_">
					<path id="XMLID_1122_" class="st12" d="M266.8,189.4c0,0-48.2,0-48.2,0c0,0,0,62.8,0.1,67.1c0.2,23.2,0.1,66.6-20.8,81.9
						c-13.8,10.1-33.4,7.8-45.6-3.6c-11.1-10.4-21.3-24.3-38.4-14.3c-11.8,6.9-14.3,20.9-8.5,32.6c13.9,28.2,43.9,45.6,75.1,45.6
						c60.2,0,102.3-59.8,100.7-116c-0.6-19.7-6.3-37.1-12.3-55.3C267.7,224.2,265.6,189.4,266.8,189.4z M158.6,344.5
						C160.3,345.7,159.6,345.2,158.6,344.5L158.6,344.5z M218.5,320.1C218.9,315.7,218.7,318.3,218.5,320.1L218.5,320.1z"/>
				</g>
				<g id="XMLID_1126_">
					<g id="XMLID_1127_">
						<path class="st71" d="M311.6,130.1l24.6-16.2c23-15,53.8-8.7,69,14l32.4,48.6c15.2,22.7,8.8,53.3-14.2,68.2l-80.2,52.4
							c-9.8,6.4-21.5,8.9-31.6,7.9V130.1z"/>
						<path id="XMLID_1128_" class="st71" d="M191.7,130.1l-25-16.2c-23-15-54.1-8.7-69.2,14l-32.5,48.6
							C49.7,199.2,56,229.7,79,244.7l80.6,52.4c9.8,6.4,20.8,8.9,32.1,7.9V130.1z"/>
					</g>
					<g id="XMLID_1129_">
						<path id="XMLID_1130_" class="st12" d="M330.8,172.2c0-35.8-31.9-64.7-79.6-64.7c-47.7,0-79.7,29-79.7,64.7
							c0,3.3,0.3,6.6,1,9.8l7.1,98.2c0,17.8,14.9,32.5,33.3,32.5h78.7c18.4,0,33.3-14.7,33.3-32.5l5-97.8
							C330.5,179.1,330.8,175.7,330.8,172.2z"/>
					</g>
					<g id="XMLID_1131_">
						<path id="XMLID_1132_" class="st72" d="M231.3,227.8c0,6.3-5,11.5-11.1,11.5c-6.1,0-11.1-5.1-11.1-11.5
							c0-6.3,5-11.5,11.1-11.5C226.3,216.3,231.3,221.5,231.3,227.8z"/>
						<path id="XMLID_1133_" class="st72" d="M293.2,227.8c0,6.3-5,11.5-11.1,11.5c-6.1,0-11.1-5.1-11.1-11.5
							c0-6.3,5-11.5,11.1-11.5C288.3,216.3,293.2,221.5,293.2,227.8z"/>
					</g>
				</g>
				<g id="XMLID_1134_">
					<g id="XMLID_1135_">
						<path id="XMLID_1136_" class="st21" d="M341.9,297.1c-21.1,0-39.6-11-50.3-27.6c-0.8,0.6-1.8,1.1-2.8,1.5
							c-0.1,0-0.2,0.1-0.3,0.1c-0.2,0.1-0.4,0.2-0.7,0.3c-3.5,6.6-6.8,13.2-10.1,19.9c10.7,16.3,29.1,27.1,50,27.1
							c25.3,0,46.9-15.8,55.7-38.1C372.6,290.6,358,297.1,341.9,297.1z"/>
						<path class="st21" d="M292.5,284c-3,6.6-9.2,10.3-13.9,8.2c-4.7-2.1-6.1-9.2-3.2-15.8c3-6.6,9.2-10.3,13.9-8.2
							C294.1,270.3,295.5,277.4,292.5,284z"/>
					</g>
					<g id="XMLID_1137_">
						<path class="st21" d="M161.1,297.1c21.1,0,39.6-11,50.3-27.6c0.8,0.6,1.8,1.1,2.8,1.5c0.1,0,0.2,0.1,0.3,0.1
							c0.2,0.1,0.4,0.2,0.7,0.3c3.5,6.6,6.8,13.2,10.1,19.9c-10.7,16.3-29.1,27.1-50,27.1c-25.3,0-46.9-15.8-55.7-38.1
							C130.4,290.6,145,297.1,161.1,297.1z"/>
						<path class="st21" d="M210.5,284c3,6.6,9.2,10.3,13.9,8.2c4.7-2.1,6.1-9.2,3.2-15.8c-3-6.6-9.2-10.3-13.9-8.2
							C208.9,270.3,207.5,277.4,210.5,284z"/>
					</g>
				</g>
			</g>
			<g id="XMLID_1138_">
				<path class="st73" d="M264.8,76.5c-2.3,0.7-4.9,0.7-7.7-0.3c-8.9,0.2-17.9,2.1-26.5,5.9l-29.7,12.3
					c-35.1,15.5-51,56.6-35.5,91.7l0.6,1.4c0.1,0.2,0.2,0.5,0.3,0.7l156.9-68.5c-0.1-0.2-0.2-0.5-0.3-0.7l-0.6-1.4
					C311.7,93.6,289.2,78.6,264.8,76.5z"/>
				<path class="st70" d="M248.4,67.9c2.2,1,4.7,1.3,7.6,0.7c8.8,1.4,17.5,4.4,25.5,9.3l27.9,16.1c32.8,20,43.2,62.7,23.3,95.5
					l-0.8,1.3c-0.1,0.2-0.3,0.4-0.4,0.7l-146.6-88.3c0.1-0.2,0.3-0.5,0.4-0.7l0.8-1.4C199.6,78.8,223.9,66.9,248.4,67.9z"/>
			</g>
		</g>
	</g>
</g>
</svg>
