<?xml version="1.0" encoding="utf-8"?>
<!-- Generator: Adobe Illustrator 25.0.0, SVG Export Plug-In . SVG Version: 6.00 Build 0)  -->
<svg version="1.1" xmlns="http://www.w3.org/2000/svg" xmlns:xlink="http://www.w3.org/1999/xlink" x="0px" y="0px"
	 viewBox="0 0 512 512" style="enable-background:new 0 0 512 512;" xml:space="preserve">
<style type="text/css">
	.st0{fill:#3D2A3D;}
	.st1{fill:#D5872A;}
	.st2{fill:#C9E874;}
	.st3{fill:#277A6B;}
	.st4{fill:#FFDE69;}
	.st5{fill:#698250;}
	.st6{fill:#C8C947;}
	.st7{fill:#A6DEA9;}
	.st8{fill:#376C7E;}
	.st9{fill:#8BA83C;}
	.st10{fill:#2FABAF;}
	.st11{fill:#216964;}
	.st12{fill:#605560;}
	.st13{fill:#C45742;}
	.st14{fill:#79D7F2;}
	.st15{fill:#769938;}
	.st16{fill:#9EC853;}
	.st17{fill:#E7AD84;}
	.st18{fill:#76B079;}
	.st19{clip-path:url(#SVGID_2_);}
	.st20{fill:#594335;}
	.st21{fill:#F7F7F8;}
	.st22{fill:#7D5737;}
	.st23{fill:#D68F6A;}
	.st24{clip-path:url(#SVGID_4_);fill:#C45742;}
	.st25{clip-path:url(#SVGID_4_);fill:#E88D38;}
	.st26{clip-path:url(#SVGID_4_);}
	.st27{fill:#E1902B;}
	.st28{fill:#FFC671;}
	.st29{fill:#E1E1E1;}
	.st30{clip-path:url(#SVGID_6_);}
	.st31{fill:#D1741D;}
	.st32{fill:#C93A3A;}
	.st33{clip-path:url(#SVGID_8_);}
	.st34{fill:#919191;}
	.st35{fill:#CE722F;}
	.st36{fill:#C4C4C4;}
	.st37{clip-path:url(#SVGID_10_);}
	.st38{fill:#665348;}
	.st39{fill:#877365;}
	.st40{fill:#E3A584;}
	.st41{fill:#733D28;}
	.st42{clip-path:url(#SVGID_12_);}
	.st43{fill:#8C8C8C;}
	.st44{fill:#BFBFBF;}
	.st45{clip-path:url(#SVGID_14_);}
	.st46{clip-path:url(#SVGID_16_);}
	.st47{fill:#FFFFFF;}
	.st48{fill:#4A414A;}
	.st49{clip-path:url(#SVGID_18_);}
	.st50{fill:#BE7632;}
	.st51{clip-path:url(#SVGID_20_);}
	.st52{fill:#E3A445;}
	.st53{fill:#FFF0BA;}
	.st54{fill:#BF7128;}
	.st55{clip-path:url(#XMLID_82_);}
	.st56{fill:#AC6322;}
	.st57{clip-path:url(#SVGID_22_);}
	.st58{fill:#DBCCA6;}
	.st59{fill:#C2A579;}
	.st60{fill:#CFB582;}
	.st61{fill:#EBE2B2;}
	.st62{fill:#B8B399;}
	.st63{fill:#918E79;}
	.st64{fill:#665F52;}
	.st65{clip-path:url(#XMLID_83_);}
	.st66{fill:#BD4A4A;}
	.st67{fill:#D4811C;}
	.st68{fill:#CF6F15;}
	.st69{clip-path:url(#SVGID_24_);}
	.st70{fill:#FFF8E3;}
	.st71{fill:#7A6D7A;}
	.st72{fill:#2C1512;}
	.st73{fill:#D6CBA9;}
	.st74{clip-path:url(#XMLID_84_);}
	.st75{fill:#FFEA9E;}
	.st76{fill:#FFDBC5;}
	.st77{clip-path:url(#XMLID_85_);}
	.st78{fill:#B55716;}
	.st79{fill:#C47325;}
	.st80{clip-path:url(#XMLID_86_);}
	.st81{fill:#ADA798;}
	.st82{fill:#C4BDAC;}
	.st83{fill:#8F8266;}
	.st84{fill:#D6CEBC;}
	.st85{fill:#FFFAE6;}
	.st86{fill:#595140;}
	.st87{clip-path:url(#XMLID_88_);}
	.st88{fill:#B84028;}
	.st89{fill:#E6B75A;}
	.st90{fill:#DB614A;}
	.st91{clip-path:url(#XMLID_92_);}
	.st92{fill:#615661;}
	.st93{fill:#635963;}
	.st94{fill:#4F414F;}
	.st95{fill:#7D6F7D;}
	.st96{fill:#B5A0B5;}
	.st97{fill:#574D57;}
	.st98{clip-path:url(#XMLID_95_);}
	.st99{fill:#C2C2C2;}
	.st100{fill:#9E9E9E;}
	.st101{fill:#949494;}
	.st102{fill:#E8E8E8;}
	.st103{fill:#A1A1A1;}
	.st104{fill:#D66270;}
	.st105{clip-path:url(#XMLID_99_);}
	.st106{fill:#CFCFCF;}
	.st107{fill:#BDA18D;}
	.st108{fill:#82A385;}
	.st109{clip-path:url(#XMLID_100_);}
	.st110{fill:#D1986E;}
	.st111{fill:#C2733E;}
	.st112{fill:#E6AC83;}
	.st113{fill:#C28155;}
	.st114{fill:#6E482E;}
	.st115{fill:#594435;}
	.st116{clip-path:url(#XMLID_102_);}
	.st117{fill:#6B5545;}
	.st118{fill:#261526;}
	.st119{fill:#9E8776;}
	.st120{fill:#807180;}
	.st121{fill:#A693A6;}
	.st122{fill:#614C61;}
	.st123{clip-path:url(#XMLID_107_);}
	.st124{fill:#D9D9D9;}
	.st125{clip-path:url(#XMLID_110_);}
	.st126{fill:#4D404D;}
	.st127{clip-path:url(#XMLID_110_);fill:#4D404D;}
	.st128{clip-path:url(#XMLID_111_);}
	.st129{clip-path:url(#XMLID_120_);}
	.st130{fill:#FFC682;}
	.st131{clip-path:url(#XMLID_121_);}
	.st132{fill:#753427;}
	.st133{clip-path:url(#XMLID_121_);fill:#753427;}
	.st134{clip-path:url(#SVGID_26_);}
	.st135{fill:#694334;}
	.st136{fill:#FF826E;}
	.st137{fill:#875F44;}
	.st138{fill:#4F3327;}
	.st139{fill:#D68256;}
	.st140{clip-path:url(#SVGID_28_);}
	.st141{fill:#6E6E6E;}
	.st142{fill:#B8B8B8;}
	.st143{clip-path:url(#SVGID_28_);fill:#B8B8B8;}
	.st144{clip-path:url(#SVGID_30_);}
	.st145{clip-path:url(#SVGID_32_);}
	.st146{fill:#D16658;}
	.st147{fill:#E6786A;}
	.st148{fill:#F79E92;}
	.st149{clip-path:url(#SVGID_34_);}
	.st150{fill:#E6CA56;}
	.st151{fill:#F2EBCB;}
	.st152{fill:#F08C7F;}
	.st153{clip-path:url(#SVGID_36_);}
	.st154{fill:#9E6842;}
	.st155{fill:#BA835E;}
	.st156{fill:#8C5937;}
	.st157{fill:#E3AD88;}
	.st158{fill:#A86B42;}
	.st159{clip-path:url(#SVGID_38_);}
	.st160{fill:#877987;}
	.st161{fill:#C7BCB2;}
	.st162{clip-path:url(#SVGID_40_);}
	.st163{fill:#6E4D37;}
	.st164{fill:#A8562A;}
	.st165{clip-path:url(#SVGID_42_);}
	.st166{fill:#A37352;}
	.st167{clip-path:url(#SVGID_44_);}
	.st168{fill:#8A8A8A;}
	.st169{fill:#F0F0F0;}
	.st170{clip-path:url(#XMLID_126_);}
	.st171{clip-path:url(#SVGID_46_);fill:none;}
	.st172{clip-path:url(#SVGID_46_);}
	.st173{fill:#78553C;}
	.st174{fill:#F29C5E;}
	.st175{fill:#D4D4D4;}
	.st176{clip-path:url(#SVGID_48_);}
	.st177{fill:#DB959A;}
	.st178{clip-path:url(#SVGID_50_);}
	.st179{fill:#A1341E;}
	.st180{fill:#EB9F2E;}
	.st181{clip-path:url(#SVGID_52_);}
	.st182{clip-path:url(#SVGID_54_);}
	.st183{fill:#855433;}
	.st184{fill:#AD6D42;}
	.st185{clip-path:url(#SVGID_56_);}
	.st186{fill:#D5A060;}
	.st187{clip-path:url(#SVGID_58_);}
	.st188{fill:#4A3C4A;}
	.st189{fill:#524352;}
	.st190{clip-path:url(#SVGID_60_);}
	.st191{fill:#524252;}
	.st192{clip-path:url(#SVGID_62_);fill:#C7781C;}
	.st193{clip-path:url(#SVGID_62_);}
	.st194{fill:#DEDEDE;}
	.st195{fill:#C7781C;}
	.st196{clip-path:url(#SVGID_62_);fill:#D5872A;}
	.st197{clip-path:url(#SVGID_62_);fill:#877365;}
	.st198{clip-path:url(#SVGID_62_);fill:#E3AD88;}
	.st199{clip-path:url(#SVGID_62_);fill:#F7F7F8;}
	.st200{clip-path:url(#SVGID_64_);}
	.st201{fill:#A63A25;}
	.st202{clip-path:url(#SVGID_66_);}
	.st203{clip-path:url(#SVGID_68_);}
	.st204{fill:#CF97A1;}
	.st205{fill:#CF7686;}
	.st206{clip-path:url(#SVGID_70_);}
	.st207{fill:#4F464F;}
	.st208{fill:#9C8A9C;}
	.st209{clip-path:url(#SVGID_72_);}
</style>
<g id="ICON">
	<path id="XMLID_91_" class="st1" d="M512,256c0,141.4-114.6,256-256,256C114.6,512,0,397.4,0,256C0,114.6,114.6,0,256,0
		C397.4,0,512,114.6,512,256z"/>
</g>
<g id="Layer_7">
	<g id="XMLID_974_">
		<defs>
			<path id="SVGID_19_" d="M511.8-324c0,141.4-114.6,256-256,256c-141.4,0-256-114.6-256-256c0-141.4,114.6-256,256-256
				C397.2-580,511.8-465.4,511.8-324z"/>
		</defs>
		<clipPath id="SVGID_2_">
			<use xlink:href="#SVGID_19_"  style="overflow:visible;"/>
		</clipPath>
		<g id="XMLID_975_" class="st19">
			<g id="XMLID_976_">
				<path id="XMLID_977_" class="st52" d="M483.4,10.7l-0.1-1c0-62.8-23.5-123.7-52.2-135.3l-122.3-49.3
					c-28.7-11.6-75.7-11.6-104.4-0.1l-124,49.6C51.7-113.9,28.2-53.1,28.2,9.7l-0.1,1H483.4z"/>
				<path id="XMLID_978_" class="st13" d="M483.4,9.7c0-62.8-23.5-123.7-52.2-135.3l-92.3-37.2c0,0-17.6,63.7-83.1,63.7
					c-65.5,0-82.7-63.4-82.7-63.4l-92.7,37C51.7-113.9,28.2-53.1,28.2,9.7l-0.1,1h455.3L483.4,9.7z"/>
			</g>
		</g>
	</g>
	<g id="XMLID_1139_">
		<defs>
			<path id="XMLID_1170_" d="M512,256c0,141.4-114.6,256-256,256C114.6,512,0,397.4,0,256C0,114.6,114.6,0,256,0
				C397.4,0,512,114.6,512,256z"/>
		</defs>
		<clipPath id="XMLID_82_">
			<use xlink:href="#XMLID_1170_"  style="overflow:visible;"/>
		</clipPath>
		<g id="XMLID_1142_" class="st55">
			<rect id="XMLID_1143_" x="199.9" y="292.5" class="st0" width="112.2" height="103.5"/>
			<g id="XMLID_1144_">
				<path id="XMLID_1145_" class="st4" d="M436.3,510v-47.2c0-40.1-34.8-72-77-72H151.7c-42.2,0-76,31.9-76,72V510H436.3z"/>
				<polygon id="XMLID_1146_" class="st1" points="234.4,521.9 279.5,521.9 268.1,442.3 293.1,408.6 275.9,367.7 239.3,367.7 
					221.2,408.6 245.5,442 				"/>
				<g id="XMLID_1147_">
					<polygon id="XMLID_1148_" class="st75" points="294.5,415.4 362.4,388.4 339,353.9 256.3,367.1 					"/>
					<polygon id="XMLID_1149_" class="st75" points="219.8,415.4 151.9,388.4 171,353.9 258,367.1 					"/>
				</g>
			</g>
			<g id="XMLID_1150_">
				<g id="XMLID_1151_">
					<g id="XMLID_1152_">
						<g id="XMLID_1153_">
							<path id="XMLID_1154_" class="st76" d="M165.1,177.1c0,24.7-20,44.7-44.7,44.7c-24.7,0-44.7-20-44.7-44.7
								c0-24.7,20-44.7,44.7-44.7C145,132.4,165.1,152.4,165.1,177.1z"/>
							<path id="XMLID_1155_" class="st76" d="M436.4,177.1c0,24.7-20,44.7-44.7,44.7c-24.7,0-44.7-20-44.7-44.7
								c0-24.7,20-44.7,44.7-44.7C416.4,132.4,436.4,152.4,436.4,177.1z"/>
						</g>
						<path id="XMLID_1156_" class="st12" d="M386.5,178.6c0,62.9-59.6,113.9-133.1,113.9c-73.5,0-133.1-51-133.1-113.9
							c0-62.9,59.6-113.9,133.1-113.9C326.9,64.7,386.5,115.7,386.5,178.6z"/>
						<path id="XMLID_1157_" class="st12" d="M184.7,108.7V277c0,38.3,31.7,69.4,70.1,69.4c38.3,0,70.1-31.1,70.1-69.4V108.7H184.7z
							"/>
						<g id="XMLID_1158_">
							<path id="XMLID_1159_" class="st76" d="M267.5,175.6c0,33.5-27.1,60.6-60.6,60.6c-33.5,0-60.6-27.1-60.6-60.6
								c0-33.5,27.1-60.6,60.6-60.6C240.3,115,267.5,142.1,267.5,175.6z"/>
							<path id="XMLID_1160_" class="st76" d="M360.6,175.6c0,33.5-27.1,60.6-60.6,60.6c-33.5,0-60.6-27.1-60.6-60.6
								c0-33.5,27.1-60.6,60.6-60.6C333.5,115,360.6,142.1,360.6,175.6z"/>
						</g>
						<path id="XMLID_1161_" class="st76" d="M207.1,163.7v103.6c0,26.5,21.1,48.1,47.6,48.1c26.5,0,47.6-21.5,47.6-48.1V163.7
							H207.1z"/>
					</g>
					<g id="XMLID_1162_">
						<path id="XMLID_1163_" class="st0" d="M269.4,270.6c-0.2,7.5-5.9,13.2-13.4,13.4c-7.5,0.2-13.2-6.2-13.4-13.4
							c-0.2-8-12.6-8-12.4,0c0.4,14.3,11.5,25.4,25.8,25.8c14.3,0.4,25.5-12,25.8-25.8C282,262.6,269.6,262.6,269.4,270.6
							L269.4,270.6z"/>
					</g>
					<g id="XMLID_1164_">
						
							<ellipse id="XMLID_1165_" transform="matrix(0.9998 -1.851309e-02 1.851309e-02 0.9998 -4.0515 4.5035)" class="st0" cx="241.2" cy="221.1" rx="9.2" ry="9.2"/>
						<path id="XMLID_1166_" class="st0" d="M280,221.1c0,5.1-4.1,9.2-9.2,9.2c-5.1,0-9.2-4.1-9.2-9.2c0-5.1,4.1-9.2,9.2-9.2
							C275.9,211.8,280,216,280,221.1z"/>
					</g>
				</g>
				<g id="XMLID_1167_">
					<path id="XMLID_1168_" class="st0" d="M219.9,172.8c0,7.5-6.2,13.6-14,13.6c-7.7,0-14-6.1-14-13.6c0-7.5,6.3-13.6,14-13.6
						C213.6,159.2,219.9,165.3,219.9,172.8z"/>
					<path id="XMLID_1169_" class="st0" d="M320.1,172.8c0,7.5-6.2,13.6-14,13.6c-7.7,0-14-6.1-14-13.6c0-7.5,6.3-13.6,14-13.6
						C313.8,159.2,320.1,165.3,320.1,172.8z"/>
				</g>
			</g>
		</g>
	</g>
</g>
</svg>
