<?xml version="1.0" encoding="utf-8"?>
<!-- Generator: Adobe Illustrator 25.0.0, SVG Export Plug-In . SVG Version: 6.00 Build 0)  -->
<svg version="1.1" xmlns="http://www.w3.org/2000/svg" xmlns:xlink="http://www.w3.org/1999/xlink" x="0px" y="0px"
	 viewBox="0 0 512 512" style="enable-background:new 0 0 512 512;" xml:space="preserve">
<style type="text/css">
	.st0{fill:#3D2A3D;}
	.st1{fill:#D5872A;}
	.st2{fill:#C9E874;}
	.st3{fill:#277A6B;}
	.st4{fill:#FFDE69;}
	.st5{fill:#698250;}
	.st6{fill:#C8C947;}
	.st7{fill:#A6DEA9;}
	.st8{fill:#376C7E;}
	.st9{fill:#8BA83C;}
	.st10{fill:#2FABAF;}
	.st11{fill:#216964;}
	.st12{fill:#605560;}
	.st13{fill:#C45742;}
	.st14{fill:#79D7F2;}
	.st15{fill:#769938;}
	.st16{fill:#9EC853;}
	.st17{fill:#E7AD84;}
	.st18{fill:#76B079;}
	.st19{clip-path:url(#SVGID_2_);}
	.st20{fill:#594335;}
	.st21{fill:#F7F7F8;}
	.st22{fill:#7D5737;}
	.st23{fill:#D68F6A;}
	.st24{clip-path:url(#SVGID_4_);fill:#C45742;}
	.st25{clip-path:url(#SVGID_4_);fill:#E88D38;}
	.st26{clip-path:url(#SVGID_4_);}
	.st27{fill:#E1902B;}
	.st28{fill:#FFC671;}
	.st29{fill:#E1E1E1;}
	.st30{clip-path:url(#SVGID_6_);}
	.st31{fill:#D1741D;}
	.st32{fill:#C93A3A;}
	.st33{clip-path:url(#SVGID_8_);}
	.st34{fill:#919191;}
	.st35{fill:#CE722F;}
	.st36{fill:#C4C4C4;}
	.st37{clip-path:url(#SVGID_10_);}
	.st38{fill:#665348;}
	.st39{fill:#877365;}
	.st40{fill:#E3A584;}
	.st41{fill:#733D28;}
	.st42{clip-path:url(#SVGID_12_);}
	.st43{fill:#8C8C8C;}
	.st44{fill:#BFBFBF;}
	.st45{clip-path:url(#SVGID_14_);}
	.st46{clip-path:url(#SVGID_16_);}
	.st47{fill:#FFFFFF;}
	.st48{fill:#4A414A;}
	.st49{clip-path:url(#SVGID_18_);}
	.st50{fill:#BE7632;}
	.st51{clip-path:url(#SVGID_20_);}
	.st52{fill:#E3A445;}
	.st53{fill:#FFF0BA;}
	.st54{fill:#BF7128;}
	.st55{clip-path:url(#XMLID_82_);}
	.st56{fill:#AC6322;}
	.st57{clip-path:url(#SVGID_22_);}
	.st58{fill:#DBCCA6;}
	.st59{fill:#C2A579;}
	.st60{fill:#CFB582;}
	.st61{fill:#EBE2B2;}
	.st62{fill:#B8B399;}
	.st63{fill:#918E79;}
	.st64{fill:#665F52;}
	.st65{clip-path:url(#XMLID_83_);}
	.st66{fill:#BD4A4A;}
	.st67{fill:#D4811C;}
	.st68{fill:#CF6F15;}
	.st69{clip-path:url(#SVGID_24_);}
	.st70{fill:#FFF8E3;}
	.st71{fill:#7A6D7A;}
	.st72{fill:#2C1512;}
	.st73{fill:#D6CBA9;}
	.st74{clip-path:url(#XMLID_84_);}
	.st75{fill:#FFEA9E;}
	.st76{fill:#FFDBC5;}
	.st77{clip-path:url(#XMLID_85_);}
	.st78{fill:#B55716;}
	.st79{fill:#C47325;}
	.st80{clip-path:url(#XMLID_86_);}
	.st81{fill:#ADA798;}
	.st82{fill:#C4BDAC;}
	.st83{fill:#8F8266;}
	.st84{fill:#D6CEBC;}
	.st85{fill:#FFFAE6;}
	.st86{fill:#595140;}
	.st87{clip-path:url(#XMLID_88_);}
	.st88{fill:#B84028;}
	.st89{fill:#E6B75A;}
	.st90{fill:#DB614A;}
	.st91{clip-path:url(#XMLID_92_);}
	.st92{fill:#615661;}
	.st93{fill:#635963;}
	.st94{fill:#4F414F;}
	.st95{fill:#7D6F7D;}
	.st96{fill:#B5A0B5;}
	.st97{fill:#574D57;}
	.st98{clip-path:url(#XMLID_95_);}
	.st99{fill:#C2C2C2;}
	.st100{fill:#9E9E9E;}
	.st101{fill:#949494;}
	.st102{fill:#E8E8E8;}
	.st103{fill:#A1A1A1;}
	.st104{fill:#D66270;}
	.st105{clip-path:url(#XMLID_99_);}
	.st106{fill:#CFCFCF;}
	.st107{fill:#BDA18D;}
	.st108{fill:#82A385;}
	.st109{clip-path:url(#XMLID_100_);}
	.st110{fill:#D1986E;}
	.st111{fill:#C2733E;}
	.st112{fill:#E6AC83;}
	.st113{fill:#C28155;}
	.st114{fill:#6E482E;}
	.st115{fill:#594435;}
	.st116{clip-path:url(#XMLID_102_);}
	.st117{fill:#6B5545;}
	.st118{fill:#261526;}
	.st119{fill:#9E8776;}
	.st120{fill:#807180;}
	.st121{fill:#A693A6;}
	.st122{fill:#614C61;}
	.st123{clip-path:url(#XMLID_107_);}
	.st124{fill:#D9D9D9;}
	.st125{clip-path:url(#XMLID_110_);}
	.st126{fill:#4D404D;}
	.st127{clip-path:url(#XMLID_110_);fill:#4D404D;}
	.st128{clip-path:url(#XMLID_111_);}
	.st129{clip-path:url(#XMLID_120_);}
	.st130{fill:#FFC682;}
	.st131{clip-path:url(#XMLID_121_);}
	.st132{fill:#753427;}
	.st133{clip-path:url(#XMLID_121_);fill:#753427;}
	.st134{clip-path:url(#SVGID_26_);}
	.st135{fill:#694334;}
	.st136{fill:#FF826E;}
	.st137{fill:#875F44;}
	.st138{fill:#4F3327;}
	.st139{fill:#D68256;}
	.st140{clip-path:url(#SVGID_28_);}
	.st141{fill:#6E6E6E;}
	.st142{fill:#B8B8B8;}
	.st143{clip-path:url(#SVGID_28_);fill:#B8B8B8;}
	.st144{clip-path:url(#SVGID_30_);}
	.st145{clip-path:url(#SVGID_32_);}
	.st146{fill:#D16658;}
	.st147{fill:#E6786A;}
	.st148{fill:#F79E92;}
	.st149{clip-path:url(#SVGID_34_);}
	.st150{fill:#E6CA56;}
	.st151{fill:#F2EBCB;}
	.st152{fill:#F08C7F;}
	.st153{clip-path:url(#SVGID_36_);}
	.st154{fill:#9E6842;}
	.st155{fill:#BA835E;}
	.st156{fill:#8C5937;}
	.st157{fill:#E3AD88;}
	.st158{fill:#A86B42;}
	.st159{clip-path:url(#SVGID_38_);}
	.st160{fill:#877987;}
	.st161{fill:#C7BCB2;}
	.st162{clip-path:url(#SVGID_40_);}
	.st163{fill:#6E4D37;}
	.st164{fill:#A8562A;}
	.st165{clip-path:url(#SVGID_42_);}
	.st166{fill:#A37352;}
	.st167{clip-path:url(#SVGID_44_);}
	.st168{fill:#8A8A8A;}
	.st169{fill:#F0F0F0;}
	.st170{clip-path:url(#XMLID_126_);}
	.st171{clip-path:url(#SVGID_46_);fill:none;}
	.st172{clip-path:url(#SVGID_46_);}
	.st173{fill:#78553C;}
	.st174{fill:#F29C5E;}
	.st175{fill:#D4D4D4;}
	.st176{clip-path:url(#SVGID_48_);}
	.st177{fill:#DB959A;}
	.st178{clip-path:url(#SVGID_50_);}
	.st179{fill:#A1341E;}
	.st180{fill:#EB9F2E;}
	.st181{clip-path:url(#SVGID_52_);}
	.st182{clip-path:url(#SVGID_54_);}
	.st183{fill:#855433;}
	.st184{fill:#AD6D42;}
	.st185{clip-path:url(#SVGID_56_);}
	.st186{fill:#D5A060;}
	.st187{clip-path:url(#SVGID_58_);}
	.st188{fill:#4A3C4A;}
	.st189{fill:#524352;}
	.st190{clip-path:url(#SVGID_60_);}
	.st191{fill:#524252;}
	.st192{clip-path:url(#SVGID_62_);fill:#C7781C;}
	.st193{clip-path:url(#SVGID_62_);}
	.st194{fill:#DEDEDE;}
	.st195{fill:#C7781C;}
	.st196{clip-path:url(#SVGID_62_);fill:#D5872A;}
	.st197{clip-path:url(#SVGID_62_);fill:#877365;}
	.st198{clip-path:url(#SVGID_62_);fill:#E3AD88;}
	.st199{clip-path:url(#SVGID_62_);fill:#F7F7F8;}
	.st200{clip-path:url(#SVGID_64_);}
	.st201{fill:#A63A25;}
	.st202{clip-path:url(#SVGID_66_);}
	.st203{clip-path:url(#SVGID_68_);}
	.st204{fill:#CF97A1;}
	.st205{fill:#CF7686;}
	.st206{clip-path:url(#SVGID_70_);}
	.st207{fill:#4F464F;}
	.st208{fill:#9C8A9C;}
	.st209{clip-path:url(#SVGID_72_);}
</style>
<g id="ICON">
	<path id="XMLID_227_" class="st12" d="M512,256c0,141.4-114.6,256-256,256C114.6,512,0,397.4,0,256C0,114.6,114.6,0,256,0
		C397.4,0,512,114.6,512,256z"/>
</g>
<g id="Layer_7">
	<g id="XMLID_1460_">
		<defs>
			<path id="XMLID_1498_" d="M512,256c0,141.4-114.6,256-256,256C114.6,512,0,397.4,0,256C0,114.6,114.6,0,256,0
				C397.4,0,512,114.6,512,256z"/>
		</defs>
		<clipPath id="XMLID_82_">
			<use xlink:href="#XMLID_1498_"  style="overflow:visible;"/>
		</clipPath>
		<g id="XMLID_1461_" class="st55">
			<g id="XMLID_1462_">
				<g id="XMLID_1463_">
					<path id="XMLID_1464_" class="st110" d="M347.8,76.1c-2.4,1.4-4.8,2.8-7.1,4.3c-31.2,20.4-49.1,46.7-47.7,66.7
						c23.9,5.2,59.6-3.3,90.8-23.7c8.7-5.7,17.1-12.6,24.3-19.9L347.8,76.1z"/>
					<path id="XMLID_1465_" class="st111" d="M309.1,136.6c4.8-13.6,18.1-31,41.6-46.3c0.2-0.1,0.4-0.3,0.6-0.4l33.8,15.4
						c-3.7,3-7.5,5.8-11.2,8.2C350.4,128.8,326.6,135.7,309.1,136.6z"/>
					<path id="XMLID_1466_" class="st112" d="M408.5,103.5c-1.5,29.8-10.6,57.6-20.9,57.3c-12.9-0.4-36.6-48.2-40.1-84.8
						C347.5,75.6,408.5,103.5,408.5,103.5z"/>
				</g>
				<g id="XMLID_1467_">
					<path id="XMLID_1468_" class="st110" d="M164.2,76.1c2.4,1.4,4.8,2.8,7.1,4.3c31.2,20.4,49.1,46.7,47.7,66.7
						c-23.9,5.2-59.6-3.3-90.8-23.7c-8.7-5.7-17.1-12.6-24.3-19.9L164.2,76.1z"/>
					<path id="XMLID_1469_" class="st111" d="M202.9,136.6c-4.8-13.6-18.1-31-41.6-46.3c-0.2-0.1-0.4-0.3-0.6-0.4l-33.8,15.4
						c3.7,3,7.5,5.8,11.2,8.2C161.6,128.8,185.4,135.7,202.9,136.6z"/>
					<path id="XMLID_1470_" class="st112" d="M103.5,103.5c1.5,29.8,10.6,57.6,20.9,57.3c12.9-0.4,36.6-48.2,40.1-84.8
						C164.5,75.6,103.5,103.5,103.5,103.5z"/>
				</g>
			</g>
			<g id="XMLID_1471_">
				<path id="XMLID_1472_" class="st110" d="M448.5,522.1l-0.1-0.9c0-53.1-19.9-104.6-44.2-114.4l-103.4-41.7
					c-24.3-9.8-64-9.8-88.3-0.1L107.7,407c-24.3,9.7-44.2,61.1-44.2,114.2l-0.1,0.9H448.5z"/>
				<path id="XMLID_1473_" class="st110" d="M299.8,367.7c0,22.8-18.5,41.3-41.3,41.3h-5c-22.8,0-41.3-18.5-41.3-41.3v-42.9
					c0-22.8,18.5-41.3,41.3-41.3h5c22.8,0,41.3,18.5,41.3,41.3V367.7z"/>
				<path id="XMLID_1476_" class="st7" d="M448.5,521.2c0-53.1-19.9-104.6-44.2-114.4l-78-31.4c0,0-16,53.9-70.3,53.9
					s-69.9-53.6-69.9-53.6L107.7,407c-24.3,9.7-44.2,61.1-44.2,114.2l-0.1,0.9h385L448.5,521.2z"/>
			</g>
			<g id="XMLID_1477_">
				<path class="st112" d="M308,119.6c-0.7-0.7-1.1-1.4-1.4-2.2l-104.2,0.7c-13.8,18-27.1,36.3-39.2,55.6c0,0.1-0.1,0.1-0.1,0.2
					l16.5,130.3c0.1,18.5,16.3,33.4,36.1,33.3h84.8c19.8-0.1,35.8-15.8,35.6-34.3l12.7-131.9C336.5,153.1,323.7,135.2,308,119.6z"/>
			</g>
			<ellipse id="XMLID_1478_" class="st112" cx="256" cy="162.7" rx="93.9" ry="59.1"/>
			<path id="XMLID_1479_" class="st17" d="M272.4,253.3c0,5-4,9-9,9h-14.7c-5,0-9-4-9-9v-48.1c0-5,4-9,9-9h14.7c5,0,9,4,9,9V253.3z"
				/>
			<g id="XMLID_1480_">
				<g id="XMLID_1481_">
					<g id="XMLID_1482_">
						<path class="st112" d="M162.1,263.3c11.5-11.4,26.1-15.2,32.7-8.6c6.6,6.6,2.6,21.2-8.9,32.6c-11.5,11.4-51.6,20.3-51.6,20.3
							S150.6,274.7,162.1,263.3z"/>
						<path class="st112" d="M165.3,273.7c4.7-17.2,16.6-29,26.5-26.3c9.9,2.7,14.2,18.9,9.5,36.1c-4.7,17.2-38.2,48-38.2,48
							S160.6,290.9,165.3,273.7z"/>
					</g>
					<path class="st112" d="M179.8,239.9c14.7-0.7,26.2,5.8,25.6,14.6c-0.6,8.8-13,16.5-27.7,17.2c-14.7,0.7-45.1-18.4-45.1-18.4
						S165.1,240.6,179.8,239.9z"/>
				</g>
				<g id="XMLID_1483_">
					<g id="XMLID_1484_">
						<path class="st112" d="M349.9,263.3c-11.5-11.4-26.1-15.2-32.7-8.6c-6.6,6.6-2.6,21.2,8.9,32.6c11.5,11.4,51.6,20.3,51.6,20.3
							S361.4,274.7,349.9,263.3z"/>
						<path class="st112" d="M346.7,273.7c-4.7-17.2-16.6-29-26.5-26.3c-9.9,2.7-14.2,18.9-9.5,36.1c4.7,17.2,38.2,48,38.2,48
							S351.4,290.9,346.7,273.7z"/>
					</g>
					<path class="st112" d="M332.2,239.9c-14.7-0.7-26.2,5.8-25.6,14.6c0.6,8.8,13,16.5,27.7,17.2c14.7,0.7,45.1-18.4,45.1-18.4
						S346.9,240.6,332.2,239.9z"/>
				</g>
			</g>
			<ellipse id="XMLID_1485_" class="st112" cx="256" cy="301.8" rx="93" ry="51"/>
			<g id="XMLID_1486_">
				<path id="XMLID_1487_" class="st21" d="M283,298.5c-14.5,13.7-39.5,13.7-54,0c-10.3-9.7-25.7,5.8-15.5,15.5
					c23.3,22,61.6,22,84.9,0C308.8,304.2,293.3,288.8,283,298.5L283,298.5z"/>
			</g>
			<g id="XMLID_1488_">
				<path id="XMLID_1489_" class="st113" d="M327,220.5c0,13.8-11.2,25.1-25.1,25.1H210c-13.8,0-25.1-11.2-25.1-25.1l0,0
					c0-13.8,11.2-25.1,25.1-25.1H302C315.8,195.4,327,206.7,327,220.5L327,220.5z"/>
				<g id="XMLID_1490_">
					<path id="XMLID_1491_" class="st0" d="M276.9,227.5c0,6.9,5.6,12.5,12.5,12.5c6.9,0,12.5-5.6,12.5-12.5
						c0-6.9-5.6-12.5-12.5-12.5C282.5,215,276.9,220.6,276.9,227.5z"/>
					<path id="XMLID_1492_" class="st0" d="M210,227.5c0,6.9,5.6,12.5,12.5,12.5c6.9,0,12.5-5.6,12.5-12.5c0-6.9-5.6-12.5-12.5-12.5
						C215.7,215,210,220.6,210,227.5z"/>
				</g>
				<g id="XMLID_1493_">
					<g id="XMLID_1494_">
						<path class="st111" d="M251,272.8c1.9,8.2,2.9,17.4,10.1,22.9c8.5,6.4,17.7,3.5,27,1.3c7.4-1.7,4.7-13.2-2.7-11.4
							c-5.5,1.3-11.9,4.2-17.1,1c-4.4-2.8-4.8-11.8-5.9-16.4C260.7,262.8,249.3,265.4,251,272.8L251,272.8z"/>
					</g>
					<g id="XMLID_1495_">
						<g id="XMLID_1496_">
							<path class="st111" d="M261,272.8c-1.9,8.2-2.9,17.4-10.1,22.9c-8.5,6.4-17.7,3.5-27,1.3c-7.4-1.7-4.7-13.2,2.7-11.4
								c5.5,1.3,11.9,4.2,17.1,1c4.4-2.8,4.8-11.8,5.9-16.4C251.3,262.8,262.7,265.4,261,272.8L261,272.8z"/>
						</g>
					</g>
				</g>
				<path id="XMLID_1497_" class="st114" d="M256,273.4c6.1,0,13.9-4.5,17.2-10l6.2-10.1c3.4-5.5,0.8-10-5.6-10h-35.5
					c-6.4,0-9,4.5-5.6,10l6.2,10.1C242.1,268.9,249.9,273.4,256,273.4z"/>
			</g>
		</g>
	</g>
</g>
</svg>
