<?xml version="1.0" encoding="utf-8"?>
<!-- Generator: Adobe Illustrator 25.0.0, SVG Export Plug-In . SVG Version: 6.00 Build 0)  -->
<svg version="1.1" xmlns="http://www.w3.org/2000/svg" xmlns:xlink="http://www.w3.org/1999/xlink" x="0px" y="0px"
	 viewBox="0 0 512 512" style="enable-background:new 0 0 512 512;" xml:space="preserve">
<style type="text/css">
	.st0{fill:#3D2A3D;}
	.st1{fill:#D5872A;}
	.st2{fill:#C9E874;}
	.st3{fill:#277A6B;}
	.st4{fill:#FFDE69;}
	.st5{fill:#698250;}
	.st6{fill:#C8C947;}
	.st7{fill:#A6DEA9;}
	.st8{fill:#376C7E;}
	.st9{fill:#8BA83C;}
	.st10{fill:#2FABAF;}
	.st11{fill:#216964;}
	.st12{fill:#605560;}
	.st13{fill:#C45742;}
	.st14{fill:#79D7F2;}
	.st15{fill:#769938;}
	.st16{fill:#9EC853;}
	.st17{fill:#E7AD84;}
	.st18{fill:#76B079;}
	.st19{clip-path:url(#SVGID_2_);}
	.st20{fill:#594335;}
	.st21{fill:#F7F7F8;}
	.st22{fill:#7D5737;}
	.st23{fill:#D68F6A;}
	.st24{clip-path:url(#SVGID_4_);fill:#C45742;}
	.st25{clip-path:url(#SVGID_4_);fill:#E88D38;}
	.st26{clip-path:url(#SVGID_4_);}
	.st27{fill:#E1902B;}
	.st28{fill:#FFC671;}
	.st29{fill:#E1E1E1;}
	.st30{clip-path:url(#SVGID_6_);}
	.st31{fill:#D1741D;}
	.st32{fill:#C93A3A;}
	.st33{clip-path:url(#SVGID_8_);}
	.st34{fill:#919191;}
	.st35{fill:#CE722F;}
	.st36{fill:#C4C4C4;}
	.st37{clip-path:url(#SVGID_10_);}
	.st38{fill:#665348;}
	.st39{fill:#877365;}
	.st40{fill:#E3A584;}
	.st41{fill:#733D28;}
	.st42{clip-path:url(#SVGID_12_);}
	.st43{fill:#8C8C8C;}
	.st44{fill:#BFBFBF;}
	.st45{clip-path:url(#SVGID_14_);}
	.st46{clip-path:url(#SVGID_16_);}
	.st47{fill:#FFFFFF;}
	.st48{fill:#4A414A;}
	.st49{clip-path:url(#SVGID_18_);}
	.st50{fill:#BE7632;}
	.st51{clip-path:url(#SVGID_20_);}
	.st52{fill:#E3A445;}
	.st53{fill:#FFF0BA;}
	.st54{fill:#BF7128;}
	.st55{clip-path:url(#XMLID_82_);}
	.st56{fill:#AC6322;}
	.st57{clip-path:url(#SVGID_22_);}
	.st58{fill:#DBCCA6;}
	.st59{fill:#C2A579;}
	.st60{fill:#CFB582;}
	.st61{fill:#EBE2B2;}
	.st62{fill:#B8B399;}
	.st63{fill:#918E79;}
	.st64{fill:#665F52;}
	.st65{clip-path:url(#XMLID_83_);}
	.st66{fill:#BD4A4A;}
	.st67{fill:#D4811C;}
	.st68{fill:#CF6F15;}
	.st69{clip-path:url(#SVGID_24_);}
	.st70{fill:#FFF8E3;}
	.st71{fill:#7A6D7A;}
	.st72{fill:#2C1512;}
	.st73{fill:#D6CBA9;}
	.st74{clip-path:url(#XMLID_84_);}
	.st75{fill:#FFEA9E;}
	.st76{fill:#FFDBC5;}
	.st77{clip-path:url(#XMLID_85_);}
	.st78{fill:#B55716;}
	.st79{fill:#C47325;}
	.st80{clip-path:url(#XMLID_86_);}
	.st81{fill:#ADA798;}
	.st82{fill:#C4BDAC;}
	.st83{fill:#8F8266;}
	.st84{fill:#D6CEBC;}
	.st85{fill:#FFFAE6;}
	.st86{fill:#595140;}
	.st87{clip-path:url(#XMLID_88_);}
	.st88{fill:#B84028;}
	.st89{fill:#E6B75A;}
	.st90{fill:#DB614A;}
	.st91{clip-path:url(#XMLID_92_);}
	.st92{fill:#615661;}
	.st93{fill:#635963;}
	.st94{fill:#4F414F;}
	.st95{fill:#7D6F7D;}
	.st96{fill:#B5A0B5;}
	.st97{fill:#574D57;}
	.st98{clip-path:url(#XMLID_95_);}
	.st99{fill:#C2C2C2;}
	.st100{fill:#9E9E9E;}
	.st101{fill:#949494;}
	.st102{fill:#E8E8E8;}
	.st103{fill:#A1A1A1;}
	.st104{fill:#D66270;}
	.st105{clip-path:url(#XMLID_99_);}
	.st106{fill:#CFCFCF;}
	.st107{fill:#BDA18D;}
	.st108{fill:#82A385;}
	.st109{clip-path:url(#XMLID_100_);}
	.st110{fill:#D1986E;}
	.st111{fill:#C2733E;}
	.st112{fill:#E6AC83;}
	.st113{fill:#C28155;}
	.st114{fill:#6E482E;}
	.st115{fill:#594435;}
	.st116{clip-path:url(#XMLID_102_);}
	.st117{fill:#6B5545;}
	.st118{fill:#261526;}
	.st119{fill:#9E8776;}
	.st120{fill:#807180;}
	.st121{fill:#A693A6;}
	.st122{fill:#614C61;}
	.st123{clip-path:url(#XMLID_107_);}
	.st124{fill:#D9D9D9;}
	.st125{clip-path:url(#XMLID_110_);}
	.st126{fill:#4D404D;}
	.st127{clip-path:url(#XMLID_110_);fill:#4D404D;}
	.st128{clip-path:url(#XMLID_111_);}
	.st129{clip-path:url(#XMLID_120_);}
	.st130{fill:#FFC682;}
	.st131{clip-path:url(#XMLID_121_);}
	.st132{fill:#753427;}
	.st133{clip-path:url(#XMLID_121_);fill:#753427;}
	.st134{clip-path:url(#SVGID_26_);}
	.st135{fill:#694334;}
	.st136{fill:#FF826E;}
	.st137{fill:#875F44;}
	.st138{fill:#4F3327;}
	.st139{fill:#D68256;}
	.st140{clip-path:url(#SVGID_28_);}
	.st141{fill:#6E6E6E;}
	.st142{fill:#B8B8B8;}
	.st143{clip-path:url(#SVGID_28_);fill:#B8B8B8;}
	.st144{clip-path:url(#SVGID_30_);}
	.st145{clip-path:url(#SVGID_32_);}
	.st146{fill:#D16658;}
	.st147{fill:#E6786A;}
	.st148{fill:#F79E92;}
	.st149{clip-path:url(#SVGID_34_);}
	.st150{fill:#E6CA56;}
	.st151{fill:#F2EBCB;}
	.st152{fill:#F08C7F;}
	.st153{clip-path:url(#SVGID_36_);}
	.st154{fill:#9E6842;}
	.st155{fill:#BA835E;}
	.st156{fill:#8C5937;}
	.st157{fill:#E3AD88;}
	.st158{fill:#A86B42;}
	.st159{clip-path:url(#SVGID_38_);}
	.st160{fill:#877987;}
	.st161{fill:#C7BCB2;}
	.st162{clip-path:url(#SVGID_40_);}
	.st163{fill:#6E4D37;}
	.st164{fill:#A8562A;}
	.st165{clip-path:url(#SVGID_42_);}
	.st166{fill:#A37352;}
	.st167{clip-path:url(#SVGID_44_);}
	.st168{fill:#8A8A8A;}
	.st169{fill:#F0F0F0;}
	.st170{clip-path:url(#XMLID_126_);}
	.st171{clip-path:url(#SVGID_46_);fill:none;}
	.st172{clip-path:url(#SVGID_46_);}
	.st173{fill:#78553C;}
	.st174{fill:#F29C5E;}
	.st175{fill:#D4D4D4;}
	.st176{clip-path:url(#SVGID_48_);}
	.st177{fill:#DB959A;}
	.st178{clip-path:url(#SVGID_50_);}
	.st179{fill:#A1341E;}
	.st180{fill:#EB9F2E;}
	.st181{clip-path:url(#SVGID_52_);}
	.st182{clip-path:url(#SVGID_54_);}
	.st183{fill:#855433;}
	.st184{fill:#AD6D42;}
	.st185{clip-path:url(#SVGID_56_);}
	.st186{fill:#D5A060;}
	.st187{clip-path:url(#SVGID_58_);}
	.st188{fill:#4A3C4A;}
	.st189{fill:#524352;}
	.st190{clip-path:url(#SVGID_60_);}
	.st191{fill:#524252;}
	.st192{clip-path:url(#SVGID_62_);fill:#C7781C;}
	.st193{clip-path:url(#SVGID_62_);}
	.st194{fill:#DEDEDE;}
	.st195{fill:#C7781C;}
	.st196{clip-path:url(#SVGID_62_);fill:#D5872A;}
	.st197{clip-path:url(#SVGID_62_);fill:#877365;}
	.st198{clip-path:url(#SVGID_62_);fill:#E3AD88;}
	.st199{clip-path:url(#SVGID_62_);fill:#F7F7F8;}
	.st200{clip-path:url(#SVGID_64_);}
	.st201{fill:#A63A25;}
	.st202{clip-path:url(#SVGID_66_);}
	.st203{clip-path:url(#SVGID_68_);}
	.st204{fill:#CF97A1;}
	.st205{fill:#CF7686;}
	.st206{clip-path:url(#SVGID_70_);}
	.st207{fill:#4F464F;}
	.st208{fill:#9C8A9C;}
	.st209{clip-path:url(#SVGID_72_);}
</style>
<g id="ICON">
	<path id="XMLID_2958_" class="st0" d="M0,256C0,114.6,114.6,0,256,0c141.4,0,256,114.6,256,256c0,141.4-114.6,256-256,256
		C114.6,512,0,397.4,0,256z"/>
</g>
<g id="Layer_7">
	<g id="XMLID_1722_">
		<defs>
			<path id="SVGID_27_" d="M0,256C0,114.6,114.6,0,256,0c141.4,0,256,114.6,256,256c0,141.4-114.6,256-256,256
				C114.6,512,0,397.4,0,256z"/>
		</defs>
		<clipPath id="SVGID_2_">
			<use xlink:href="#SVGID_27_"  style="overflow:visible;"/>
		</clipPath>
		<g id="XMLID_1723_" class="st19">
			<path id="XMLID_1724_" class="st4" d="M457.1,528l-0.1-0.9c0-56.8-20.8-111.8-46.1-122.3l-108-44.5
				c-25.4-10.5-66.9-10.5-92.3-0.1l-109.6,44.8C75.7,415.3,54.9,470.2,54.9,527l-0.1,0.9H457.1z"/>
			<path id="XMLID_1725_" class="st34" d="M312.2,356.1c0,29.3-23.7,53-53,53h-6.4c-29.3,0-53-23.7-53-53V219.7
				c0-29.3,23.7-53,53-53h6.4c29.3,0,53,23.7,53,53V356.1z"/>
		</g>
		<g id="XMLID_1726_" class="st19">
			<g id="XMLID_1727_">
				<path class="st34" d="M141.4,167.7c24.2,24.2,57.6,30.1,74.6,13.2c17-17,11.1-50.4-13.2-74.6c-24.2-24.2-83.5-22.1-83.5-22.1
					S117.2,143.5,141.4,167.7z"/>
				<path class="st141" d="M150.3,160c17.7,17.7,42.1,22,54.5,9.6c12.4-12.4,8.1-36.8-9.6-54.5c-17.7-17.7-61-16.1-61-16.1
					S132.6,142.3,150.3,160z"/>
			</g>
			<g id="XMLID_1728_">
				<path class="st34" d="M370.6,167.7c-24.2,24.2-57.6,30.1-74.6,13.2c-17-17-11.1-50.4,13.2-74.6c24.2-24.2,83.5-22.1,83.5-22.1
					S394.8,143.5,370.6,167.7z"/>
				<path class="st141" d="M361.7,160c-17.7,17.7-42.1,22-54.5,9.6c-12.4-12.4-8.1-36.8,9.6-54.5c17.7-17.7,61-16.1,61-16.1
					S379.4,142.3,361.7,160z"/>
			</g>
		</g>
		<g id="XMLID_1729_" class="st19">
			<path id="XMLID_1730_" class="st142" d="M256,318.3c64.2,0,119.7-27.4,146.2-67.3c-26.6-39.8-82.1-67.3-146.2-67.3
				c-64.2,0-119.7,27.4-146.2,67.3C136.3,290.9,191.8,318.3,256,318.3z"/>
			<path id="XMLID_1731_" class="st142" d="M373.9,297v-99.8c0-57.7-52.2-104.5-116.6-104.5s-116.6,46.8-116.6,104.5V297H373.9z"/>
		</g>
		<g id="XMLID_1732_" class="st19">
			<circle id="XMLID_1733_" class="st0" cx="217.3" cy="199.5" r="12.3"/>
			<circle id="XMLID_1734_" class="st0" cx="294.7" cy="199.5" r="12.3"/>
		</g>
		<g id="XMLID_1735_" class="st19">
			<path id="XMLID_1736_" class="st141" d="M265.4,150.1c0-19,0-38.1,0-57.1c-3.1-0.2-6.2-0.3-9.4-0.3c-3.2,0-6.3,0.1-9.4,0.3
				c0,19,0,38.1,0,57.1C246.6,162.2,265.4,162.2,265.4,150.1z"/>
			<path id="XMLID_1737_" class="st141" d="M206.1,151.6c3,11.8,21.2,6.8,18.2-5c-4.4-17.2-2.4-35.4,5.3-51.3
				c-7.9,1.6-15.5,4-22.7,7C202.3,118.3,201.9,135.3,206.1,151.6z"/>
			<path id="XMLID_1738_" class="st141" d="M287.7,146.6c-3,11.8,15.1,16.8,18.2,5c4.2-16.3,3.8-33.3-0.8-49.3
				c-7.2-3-14.8-5.4-22.7-7C290.1,111.2,292.2,129.4,287.7,146.6z"/>
		</g>
		<path id="XMLID_1739_" style="clip-path:url(#SVGID_2_);fill:#B8B8B8;" d="M256,337.4c60.7,0,113.3-19.6,138.4-48.2
			C369.3,260.7,316.7,241,256,241c-60.7,0-113.3,19.6-138.4,48.2C142.7,317.8,195.3,337.4,256,337.4z"/>
		<g id="XMLID_1740_" class="st19">
			<path id="XMLID_1741_" class="st21" d="M309.8,272.9c0,15.8-12.8,28.6-28.6,28.6h-50.4c-15.8,0-28.6-12.8-28.6-28.6l0,0
				c0-15.8,12.8-28.6,28.6-28.6h50.4C297,244.4,309.8,257.2,309.8,272.9L309.8,272.9z"/>
			<ellipse id="XMLID_1742_" class="st21" cx="256" cy="247.7" rx="37.6" ry="30.3"/>
			<g id="XMLID_1743_">
				<g id="XMLID_1744_">
					<g id="XMLID_1745_">
						<path id="XMLID_1746_" class="st0" d="M282,236.3c0,7.3-25.9,21.4-25.9,21.4s-25.9-14.1-25.9-21.4c0-7.3,11.6-9.1,25.9-9.1
							C270.4,227.2,282,229,282,236.3z"/>
						<path id="XMLID_1747_" class="st0" d="M263.1,283c0,3.4-2.8,6.2-6.2,6.2l0,0c-3.4,0-6.2-2.8-6.2-6.2v-32.5
							c0-3.4,2.8-6.2,6.2-6.2l0,0c3.4,0,6.2,2.8,6.2,6.2V283z"/>
					</g>
				</g>
			</g>
			<g id="XMLID_1748_">
				<path id="XMLID_1749_" class="st0" d="M276.8,272.1c-0.3,11.5-9.2,20.4-20.7,20.7c-11.5,0.3-20.5-9.6-20.7-20.7
					c-0.2-7.2-11.3-7.2-11.1,0c0.4,17.6,14.2,31.4,31.8,31.8c17.6,0.4,31.4-14.8,31.8-31.8C288.1,264.9,277,264.9,276.8,272.1
					L276.8,272.1z"/>
			</g>
		</g>
	</g>
</g>
</svg>
