<?xml version="1.0" encoding="utf-8"?>
<!-- Generator: Adobe Illustrator 25.0.0, SVG Export Plug-In . SVG Version: 6.00 Build 0)  -->
<svg version="1.1" xmlns="http://www.w3.org/2000/svg" xmlns:xlink="http://www.w3.org/1999/xlink" x="0px" y="0px"
	 viewBox="0 0 512 512" style="enable-background:new 0 0 512 512;" xml:space="preserve">
<style type="text/css">
	.st0{fill:#3D2A3D;}
	.st1{fill:#D5872A;}
	.st2{fill:#C9E874;}
	.st3{fill:#277A6B;}
	.st4{fill:#FFDE69;}
	.st5{fill:#698250;}
	.st6{fill:#C8C947;}
	.st7{fill:#A6DEA9;}
	.st8{fill:#376C7E;}
	.st9{fill:#8BA83C;}
	.st10{fill:#2FABAF;}
	.st11{fill:#216964;}
	.st12{fill:#605560;}
	.st13{fill:#C45742;}
	.st14{fill:#79D7F2;}
	.st15{fill:#769938;}
	.st16{fill:#9EC853;}
	.st17{fill:#E7AD84;}
	.st18{fill:#76B079;}
	.st19{clip-path:url(#SVGID_2_);}
	.st20{fill:#594335;}
	.st21{fill:#F7F7F8;}
	.st22{fill:#7D5737;}
	.st23{fill:#D68F6A;}
	.st24{clip-path:url(#SVGID_4_);fill:#C45742;}
	.st25{clip-path:url(#SVGID_4_);fill:#E88D38;}
	.st26{clip-path:url(#SVGID_4_);}
	.st27{fill:#E1902B;}
	.st28{fill:#FFC671;}
	.st29{fill:#E1E1E1;}
	.st30{clip-path:url(#SVGID_6_);}
	.st31{fill:#D1741D;}
	.st32{fill:#C93A3A;}
	.st33{clip-path:url(#SVGID_8_);}
	.st34{fill:#919191;}
	.st35{fill:#CE722F;}
	.st36{fill:#C4C4C4;}
	.st37{clip-path:url(#SVGID_10_);}
	.st38{fill:#665348;}
	.st39{fill:#877365;}
	.st40{fill:#E3A584;}
	.st41{fill:#733D28;}
	.st42{clip-path:url(#SVGID_12_);}
	.st43{fill:#8C8C8C;}
	.st44{fill:#BFBFBF;}
	.st45{clip-path:url(#SVGID_14_);}
	.st46{clip-path:url(#SVGID_16_);}
	.st47{fill:#FFFFFF;}
	.st48{fill:#4A414A;}
	.st49{clip-path:url(#SVGID_18_);}
	.st50{fill:#BE7632;}
	.st51{clip-path:url(#SVGID_20_);}
	.st52{fill:#E3A445;}
	.st53{fill:#FFF0BA;}
	.st54{fill:#BF7128;}
	.st55{clip-path:url(#XMLID_82_);}
	.st56{fill:#AC6322;}
	.st57{clip-path:url(#SVGID_22_);}
	.st58{fill:#DBCCA6;}
	.st59{fill:#C2A579;}
	.st60{fill:#CFB582;}
	.st61{fill:#EBE2B2;}
	.st62{fill:#B8B399;}
	.st63{fill:#918E79;}
	.st64{fill:#665F52;}
	.st65{clip-path:url(#XMLID_83_);}
	.st66{fill:#BD4A4A;}
	.st67{fill:#D4811C;}
	.st68{fill:#CF6F15;}
	.st69{clip-path:url(#SVGID_24_);}
	.st70{fill:#FFF8E3;}
	.st71{fill:#7A6D7A;}
	.st72{fill:#2C1512;}
	.st73{fill:#D6CBA9;}
	.st74{clip-path:url(#XMLID_84_);}
	.st75{fill:#FFEA9E;}
	.st76{fill:#FFDBC5;}
	.st77{clip-path:url(#XMLID_85_);}
	.st78{fill:#B55716;}
	.st79{fill:#C47325;}
	.st80{clip-path:url(#XMLID_86_);}
	.st81{fill:#ADA798;}
	.st82{fill:#C4BDAC;}
	.st83{fill:#8F8266;}
	.st84{fill:#D6CEBC;}
	.st85{fill:#FFFAE6;}
	.st86{fill:#595140;}
	.st87{clip-path:url(#XMLID_88_);}
	.st88{fill:#B84028;}
	.st89{fill:#E6B75A;}
	.st90{fill:#DB614A;}
	.st91{clip-path:url(#XMLID_92_);}
	.st92{fill:#615661;}
	.st93{fill:#635963;}
	.st94{fill:#4F414F;}
	.st95{fill:#7D6F7D;}
	.st96{fill:#B5A0B5;}
	.st97{fill:#574D57;}
	.st98{clip-path:url(#XMLID_95_);}
	.st99{fill:#C2C2C2;}
	.st100{fill:#9E9E9E;}
	.st101{fill:#949494;}
	.st102{fill:#E8E8E8;}
	.st103{fill:#A1A1A1;}
	.st104{fill:#D66270;}
	.st105{clip-path:url(#XMLID_99_);}
	.st106{fill:#CFCFCF;}
	.st107{fill:#BDA18D;}
	.st108{fill:#82A385;}
	.st109{clip-path:url(#XMLID_100_);}
	.st110{fill:#D1986E;}
	.st111{fill:#C2733E;}
	.st112{fill:#E6AC83;}
	.st113{fill:#C28155;}
	.st114{fill:#6E482E;}
	.st115{fill:#594435;}
	.st116{clip-path:url(#XMLID_102_);}
	.st117{fill:#6B5545;}
	.st118{fill:#261526;}
	.st119{fill:#9E8776;}
	.st120{fill:#807180;}
	.st121{fill:#A693A6;}
	.st122{fill:#614C61;}
	.st123{clip-path:url(#XMLID_107_);}
	.st124{fill:#D9D9D9;}
	.st125{clip-path:url(#XMLID_110_);}
	.st126{fill:#4D404D;}
	.st127{clip-path:url(#XMLID_110_);fill:#4D404D;}
	.st128{clip-path:url(#XMLID_111_);}
	.st129{clip-path:url(#XMLID_120_);}
	.st130{fill:#FFC682;}
	.st131{clip-path:url(#XMLID_121_);}
	.st132{fill:#753427;}
	.st133{clip-path:url(#XMLID_121_);fill:#753427;}
	.st134{clip-path:url(#SVGID_26_);}
	.st135{fill:#694334;}
	.st136{fill:#FF826E;}
	.st137{fill:#875F44;}
	.st138{fill:#4F3327;}
	.st139{fill:#D68256;}
	.st140{clip-path:url(#SVGID_28_);}
	.st141{fill:#6E6E6E;}
	.st142{fill:#B8B8B8;}
	.st143{clip-path:url(#SVGID_28_);fill:#B8B8B8;}
	.st144{clip-path:url(#SVGID_30_);}
	.st145{clip-path:url(#SVGID_32_);}
	.st146{fill:#D16658;}
	.st147{fill:#E6786A;}
	.st148{fill:#F79E92;}
	.st149{clip-path:url(#SVGID_34_);}
	.st150{fill:#E6CA56;}
	.st151{fill:#F2EBCB;}
	.st152{fill:#F08C7F;}
	.st153{clip-path:url(#SVGID_36_);}
	.st154{fill:#9E6842;}
	.st155{fill:#BA835E;}
	.st156{fill:#8C5937;}
	.st157{fill:#E3AD88;}
	.st158{fill:#A86B42;}
	.st159{clip-path:url(#SVGID_38_);}
	.st160{fill:#877987;}
	.st161{fill:#C7BCB2;}
	.st162{clip-path:url(#SVGID_40_);}
	.st163{fill:#6E4D37;}
	.st164{fill:#A8562A;}
	.st165{clip-path:url(#SVGID_42_);}
	.st166{fill:#A37352;}
	.st167{clip-path:url(#SVGID_44_);}
	.st168{fill:#8A8A8A;}
	.st169{fill:#F0F0F0;}
	.st170{clip-path:url(#XMLID_126_);}
	.st171{clip-path:url(#SVGID_46_);fill:none;}
	.st172{clip-path:url(#SVGID_46_);}
	.st173{fill:#78553C;}
	.st174{fill:#F29C5E;}
	.st175{fill:#D4D4D4;}
	.st176{clip-path:url(#SVGID_48_);}
	.st177{fill:#DB959A;}
	.st178{clip-path:url(#SVGID_50_);}
	.st179{fill:#A1341E;}
	.st180{fill:#EB9F2E;}
	.st181{clip-path:url(#SVGID_52_);}
	.st182{clip-path:url(#SVGID_54_);}
	.st183{fill:#855433;}
	.st184{fill:#AD6D42;}
	.st185{clip-path:url(#SVGID_56_);}
	.st186{fill:#D5A060;}
	.st187{clip-path:url(#SVGID_58_);}
	.st188{fill:#4A3C4A;}
	.st189{fill:#524352;}
	.st190{clip-path:url(#SVGID_60_);}
	.st191{fill:#524252;}
	.st192{clip-path:url(#SVGID_62_);fill:#C7781C;}
	.st193{clip-path:url(#SVGID_62_);}
	.st194{fill:#DEDEDE;}
	.st195{fill:#C7781C;}
	.st196{clip-path:url(#SVGID_62_);fill:#D5872A;}
	.st197{clip-path:url(#SVGID_62_);fill:#877365;}
	.st198{clip-path:url(#SVGID_62_);fill:#E3AD88;}
	.st199{clip-path:url(#SVGID_62_);fill:#F7F7F8;}
	.st200{clip-path:url(#SVGID_64_);}
	.st201{fill:#A63A25;}
	.st202{clip-path:url(#SVGID_66_);}
	.st203{clip-path:url(#SVGID_68_);}
	.st204{fill:#CF97A1;}
	.st205{fill:#CF7686;}
	.st206{clip-path:url(#SVGID_70_);}
	.st207{fill:#4F464F;}
	.st208{fill:#9C8A9C;}
	.st209{clip-path:url(#SVGID_72_);}
</style>
<g id="ICON">
	<path id="XMLID_16_" class="st2" d="M512,254.5c0,141.4-114.6,256-256,256c-141.4,0-256-114.6-256-256c0-141.4,114.6-256,256-256
		C397.4-1.5,512,113.1,512,254.5z"/>
</g>
<g id="Layer_7">
	<g id="XMLID_311_">
		<defs>
			<path id="SVGID_1_" d="M512-324c0,141.4-114.6,256-256,256C114.6-68,0-182.6,0-324c0-141.4,114.6-256,256-256
				C397.4-580,512-465.4,512-324z"/>
		</defs>
		<clipPath id="SVGID_2_">
			<use xlink:href="#SVGID_1_"  style="overflow:visible;"/>
		</clipPath>
		<g id="XMLID_337_" class="st19">
			<path class="st3" d="M512.5,19.6l-0.1-1.2C511.9-52.1,485-120.2,452.5-133l-138.1-54.3c-32.4-12.8-85.4-12.5-117.7,0.6
				L57.4-130.1C25.1-117-0.9-48.6-0.4,21.9l-0.1,1.2L512.5,19.6z"/>
		</g>
	</g>
	<g id="XMLID_923_">
		<defs>
			<path id="SVGID_15_" d="M512,256c0,141.4-114.6,256-256,256C114.6,512,0,397.4,0,256C0,114.6,114.6,0,256,0
				C397.4,0,512,114.6,512,256z"/>
		</defs>
		<clipPath id="SVGID_4_">
			<use xlink:href="#SVGID_15_"  style="overflow:visible;"/>
		</clipPath>
		<g id="XMLID_924_" class="st26">
			<g id="XMLID_925_">
				<path id="XMLID_926_" class="st0" d="M498.8,568.8l-0.1-1.1c0-67-25.1-131.9-55.7-144.2l-130.4-52.5
					c-30.6-12.3-80.8-12.4-111.4-0.1L69,423.6c-30.6,12.3-55.7,77.1-55.7,144.1l-0.1,1.1H498.8z"/>
				<path id="XMLID_929_" class="st10" d="M498.7,527.7c0-69.8-25.1-137.5-55.7-150.4L344.6,336c0,0-18.8,70.8-88.6,70.8
					c-69.8,0-88.2-70.5-88.2-70.5L69,377.5c-30.6,12.8-55.7,80.4-55.7,150.2l-0.1,1.1h485.6L498.7,527.7z"/>
				<g id="XMLID_930_">
					<path id="XMLID_931_" class="st47" d="M166.8,379.1c-13.2,28.4-8,60.7,14.5,77.4c22.4,16.6,54.8,12.3,78.2-8.6
						c-16.9,1.8-38.5-4.7-57.7-19C182.5,414.5,170,395.8,166.8,379.1z"/>
					<path id="XMLID_932_" class="st47" d="M345.2,379.1c13.2,28.4,8,60.7-14.5,77.4c-22.4,16.6-54.8,12.3-78.2-8.6
						c16.9,1.8,38.5-4.7,57.8-19C329.5,414.5,342,395.8,345.2,379.1z"/>
				</g>
				<path id="XMLID_933_" class="st48" d="M210.1,116.4l-64.4,267.2c0,62.9,47,113.8,105.1,113.8h12.7c58,0,105.1-50.9,105.1-113.8
					l-64.4-267.2H210.1z"/>
			</g>
			<g id="XMLID_934_">
				<g id="XMLID_935_">
					<polygon id="XMLID_936_" class="st12" points="228.6,205.6 158.6,200.6 121.2,82.7 253.2,108.7 					"/>
					<polygon id="XMLID_937_" class="st12" points="284,205.6 354,200.6 391.5,82.7 259.4,108.7 					"/>
				</g>
				<path id="XMLID_938_" class="st12" d="M318.9,97.3H194.1c-43.5,22.4-73.2,67.6-73.2,120c0,74.8,60.7,135.3,135.6,135.3
					c74.9,0,135.6-60.4,135.6-135.2C392.1,165,362.4,119.7,318.9,97.3z"/>
				<g id="XMLID_939_">
					<path id="XMLID_940_" class="st12" d="M273.6,187.2c0,43.3-34.6,78.5-77.4,78.5c-42.7,0-77.4-35.1-77.4-78.5
						c0-43.3,34.7-78.5,77.4-78.5C239,108.7,273.6,143.8,273.6,187.2z"/>
					<path id="XMLID_941_" class="st12" d="M393.2,187.2c0,43.3-34.6,78.5-77.4,78.5c-42.7,0-77.4-35.1-77.4-78.5
						c0-43.3,34.7-78.5,77.4-78.5C358.5,108.7,393.2,143.8,393.2,187.2z"/>
				</g>
				<g id="XMLID_944_">
					<path class="st27" d="M242.8,212.7c-8.8,0-13.8,6.8-11,15.2l20.4,62.4c2.7,8.4,7.2,8.4,9.9,0l20.4-62.4
						c2.7-8.4-2.2-15.2-11-15.2H242.8z"/>
				</g>
				<g id="XMLID_945_">
					<g id="XMLID_946_">
						<g id="XMLID_947_">
							<path id="XMLID_948_" class="st4" d="M249,181.1c0,34.8-28.2,62.9-63,62.9c-34.8,0-62.9-28.2-62.9-62.9
								c0-34.8,28.2-63,62.9-63C220.8,118.1,249,146.3,249,181.1z"/>
							<path id="XMLID_949_" class="st21" d="M236.4,181.1c0,27.8-22.5,50.4-50.4,50.4c-27.8,0-50.4-22.5-50.4-50.4
								c0-27.8,22.5-50.4,50.4-50.4C213.8,130.7,236.4,153.2,236.4,181.1z"/>
						</g>
						<g id="XMLID_950_">
							<path id="XMLID_951_" class="st4" d="M389.6,181.1c0,34.8-28.2,62.9-62.9,62.9s-62.9-28.2-62.9-62.9c0-34.8,28.2-63,62.9-63
								S389.6,146.3,389.6,181.1z"/>
							<path id="XMLID_952_" class="st21" d="M377,181.1c0,27.8-22.5,50.4-50.4,50.4c-27.8,0-50.4-22.5-50.4-50.4
								c0-27.8,22.5-50.4,50.4-50.4C354.4,130.7,377,153.2,377,181.1z"/>
						</g>
					</g>
					<g id="XMLID_953_">
						<path id="XMLID_954_" class="st0" d="M206.4,183c0,9.6-7.8,17.4-17.4,17.4c-9.6,0-17.4-7.8-17.4-17.4
							c0-9.6,7.8-17.4,17.4-17.4C198.6,165.6,206.4,173.4,206.4,183z"/>
						<path id="XMLID_955_" class="st0" d="M341,181.7c0,9.6-7.8,17.4-17.4,17.4c-9.6,0-17.4-7.8-17.4-17.4
							c0-9.6,7.8-17.4,17.4-17.4C333.2,164.3,341,172.1,341,181.7z"/>
					</g>
				</g>
			</g>
		</g>
	</g>
</g>
</svg>
