<?xml version="1.0" encoding="utf-8"?>
<!-- Generator: Adobe Illustrator 25.0.0, SVG Export Plug-In . SVG Version: 6.00 Build 0)  -->
<svg version="1.1" xmlns="http://www.w3.org/2000/svg" xmlns:xlink="http://www.w3.org/1999/xlink" x="0px" y="0px"
	 viewBox="0 0 512 512" style="enable-background:new 0 0 512 512;" xml:space="preserve">
<style type="text/css">
	.st0{fill:#3D2A3D;}
	.st1{fill:#D5872A;}
	.st2{fill:#C9E874;}
	.st3{fill:#277A6B;}
	.st4{fill:#FFDE69;}
	.st5{fill:#698250;}
	.st6{fill:#C8C947;}
	.st7{fill:#A6DEA9;}
	.st8{fill:#376C7E;}
	.st9{fill:#8BA83C;}
	.st10{fill:#2FABAF;}
	.st11{fill:#216964;}
	.st12{fill:#605560;}
	.st13{fill:#C45742;}
	.st14{fill:#79D7F2;}
	.st15{fill:#769938;}
	.st16{fill:#9EC853;}
	.st17{fill:#E7AD84;}
	.st18{fill:#76B079;}
	.st19{clip-path:url(#SVGID_2_);}
	.st20{fill:#594335;}
	.st21{fill:#F7F7F8;}
	.st22{fill:#7D5737;}
	.st23{fill:#D68F6A;}
	.st24{clip-path:url(#SVGID_4_);fill:#C45742;}
	.st25{clip-path:url(#SVGID_4_);fill:#E88D38;}
	.st26{clip-path:url(#SVGID_4_);}
	.st27{fill:#E1902B;}
	.st28{fill:#FFC671;}
	.st29{fill:#E1E1E1;}
	.st30{clip-path:url(#SVGID_6_);}
	.st31{fill:#D1741D;}
	.st32{fill:#C93A3A;}
	.st33{clip-path:url(#SVGID_8_);}
	.st34{fill:#919191;}
	.st35{fill:#CE722F;}
	.st36{fill:#C4C4C4;}
	.st37{clip-path:url(#SVGID_10_);}
	.st38{fill:#665348;}
	.st39{fill:#877365;}
	.st40{fill:#E3A584;}
	.st41{fill:#733D28;}
	.st42{clip-path:url(#SVGID_12_);}
	.st43{fill:#8C8C8C;}
	.st44{fill:#BFBFBF;}
	.st45{clip-path:url(#SVGID_14_);}
	.st46{clip-path:url(#SVGID_16_);}
	.st47{fill:#FFFFFF;}
	.st48{fill:#4A414A;}
	.st49{clip-path:url(#SVGID_18_);}
	.st50{fill:#BE7632;}
	.st51{clip-path:url(#SVGID_20_);}
	.st52{fill:#E3A445;}
	.st53{fill:#FFF0BA;}
	.st54{fill:#BF7128;}
	.st55{clip-path:url(#XMLID_82_);}
	.st56{fill:#AC6322;}
	.st57{clip-path:url(#SVGID_22_);}
	.st58{fill:#DBCCA6;}
	.st59{fill:#C2A579;}
	.st60{fill:#CFB582;}
	.st61{fill:#EBE2B2;}
	.st62{fill:#B8B399;}
	.st63{fill:#918E79;}
	.st64{fill:#665F52;}
	.st65{clip-path:url(#XMLID_83_);}
	.st66{fill:#BD4A4A;}
	.st67{fill:#D4811C;}
	.st68{fill:#CF6F15;}
	.st69{clip-path:url(#SVGID_24_);}
	.st70{fill:#FFF8E3;}
	.st71{fill:#7A6D7A;}
	.st72{fill:#2C1512;}
	.st73{fill:#D6CBA9;}
	.st74{clip-path:url(#XMLID_84_);}
	.st75{fill:#FFEA9E;}
	.st76{fill:#FFDBC5;}
	.st77{clip-path:url(#XMLID_85_);}
	.st78{fill:#B55716;}
	.st79{fill:#C47325;}
	.st80{clip-path:url(#XMLID_86_);}
	.st81{fill:#ADA798;}
	.st82{fill:#C4BDAC;}
	.st83{fill:#8F8266;}
	.st84{fill:#D6CEBC;}
	.st85{fill:#FFFAE6;}
	.st86{fill:#595140;}
	.st87{clip-path:url(#XMLID_88_);}
	.st88{fill:#B84028;}
	.st89{fill:#E6B75A;}
	.st90{fill:#DB614A;}
	.st91{clip-path:url(#XMLID_92_);}
	.st92{fill:#615661;}
	.st93{fill:#635963;}
	.st94{fill:#4F414F;}
	.st95{fill:#7D6F7D;}
	.st96{fill:#B5A0B5;}
	.st97{fill:#574D57;}
	.st98{clip-path:url(#XMLID_95_);}
	.st99{fill:#C2C2C2;}
	.st100{fill:#9E9E9E;}
	.st101{fill:#949494;}
	.st102{fill:#E8E8E8;}
	.st103{fill:#A1A1A1;}
	.st104{fill:#D66270;}
	.st105{clip-path:url(#XMLID_99_);}
	.st106{fill:#CFCFCF;}
	.st107{fill:#BDA18D;}
	.st108{fill:#82A385;}
	.st109{clip-path:url(#XMLID_100_);}
	.st110{fill:#D1986E;}
	.st111{fill:#C2733E;}
	.st112{fill:#E6AC83;}
	.st113{fill:#C28155;}
	.st114{fill:#6E482E;}
	.st115{fill:#594435;}
	.st116{clip-path:url(#XMLID_102_);}
	.st117{fill:#6B5545;}
	.st118{fill:#261526;}
	.st119{fill:#9E8776;}
	.st120{fill:#807180;}
	.st121{fill:#A693A6;}
	.st122{fill:#614C61;}
	.st123{clip-path:url(#XMLID_107_);}
	.st124{fill:#D9D9D9;}
	.st125{clip-path:url(#XMLID_110_);}
	.st126{fill:#4D404D;}
	.st127{clip-path:url(#XMLID_110_);fill:#4D404D;}
	.st128{clip-path:url(#XMLID_111_);}
	.st129{clip-path:url(#XMLID_120_);}
	.st130{fill:#FFC682;}
	.st131{clip-path:url(#XMLID_121_);}
	.st132{fill:#753427;}
	.st133{clip-path:url(#XMLID_121_);fill:#753427;}
	.st134{clip-path:url(#SVGID_26_);}
	.st135{fill:#694334;}
	.st136{fill:#FF826E;}
	.st137{fill:#875F44;}
	.st138{fill:#4F3327;}
	.st139{fill:#D68256;}
	.st140{clip-path:url(#SVGID_28_);}
	.st141{fill:#6E6E6E;}
	.st142{fill:#B8B8B8;}
	.st143{clip-path:url(#SVGID_28_);fill:#B8B8B8;}
	.st144{clip-path:url(#SVGID_30_);}
	.st145{clip-path:url(#SVGID_32_);}
	.st146{fill:#D16658;}
	.st147{fill:#E6786A;}
	.st148{fill:#F79E92;}
	.st149{clip-path:url(#SVGID_34_);}
	.st150{fill:#E6CA56;}
	.st151{fill:#F2EBCB;}
	.st152{fill:#F08C7F;}
	.st153{clip-path:url(#SVGID_36_);}
	.st154{fill:#9E6842;}
	.st155{fill:#BA835E;}
	.st156{fill:#8C5937;}
	.st157{fill:#E3AD88;}
	.st158{fill:#A86B42;}
	.st159{clip-path:url(#SVGID_38_);}
	.st160{fill:#877987;}
	.st161{fill:#C7BCB2;}
	.st162{clip-path:url(#SVGID_40_);}
	.st163{fill:#6E4D37;}
	.st164{fill:#A8562A;}
	.st165{clip-path:url(#SVGID_42_);}
	.st166{fill:#A37352;}
	.st167{clip-path:url(#SVGID_44_);}
	.st168{fill:#8A8A8A;}
	.st169{fill:#F0F0F0;}
	.st170{clip-path:url(#XMLID_126_);}
	.st171{clip-path:url(#SVGID_46_);fill:none;}
	.st172{clip-path:url(#SVGID_46_);}
	.st173{fill:#78553C;}
	.st174{fill:#F29C5E;}
	.st175{fill:#D4D4D4;}
	.st176{clip-path:url(#SVGID_48_);}
	.st177{fill:#DB959A;}
	.st178{clip-path:url(#SVGID_50_);}
	.st179{fill:#A1341E;}
	.st180{fill:#EB9F2E;}
	.st181{clip-path:url(#SVGID_52_);}
	.st182{clip-path:url(#SVGID_54_);}
	.st183{fill:#855433;}
	.st184{fill:#AD6D42;}
	.st185{clip-path:url(#SVGID_56_);}
	.st186{fill:#D5A060;}
	.st187{clip-path:url(#SVGID_58_);}
	.st188{fill:#4A3C4A;}
	.st189{fill:#524352;}
	.st190{clip-path:url(#SVGID_60_);}
	.st191{fill:#524252;}
	.st192{clip-path:url(#SVGID_62_);fill:#C7781C;}
	.st193{clip-path:url(#SVGID_62_);}
	.st194{fill:#DEDEDE;}
	.st195{fill:#C7781C;}
	.st196{clip-path:url(#SVGID_62_);fill:#D5872A;}
	.st197{clip-path:url(#SVGID_62_);fill:#877365;}
	.st198{clip-path:url(#SVGID_62_);fill:#E3AD88;}
	.st199{clip-path:url(#SVGID_62_);fill:#F7F7F8;}
	.st200{clip-path:url(#SVGID_64_);}
	.st201{fill:#A63A25;}
	.st202{clip-path:url(#SVGID_66_);}
	.st203{clip-path:url(#SVGID_68_);}
	.st204{fill:#CF97A1;}
	.st205{fill:#CF7686;}
	.st206{clip-path:url(#SVGID_70_);}
	.st207{fill:#4F464F;}
	.st208{fill:#9C8A9C;}
	.st209{clip-path:url(#SVGID_72_);}
</style>
<g id="ICON">
	<path id="XMLID_2583_" class="st4" d="M512,256c0,141.4-114.6,256-256,256C114.6,512,0,397.4,0,256C0,114.6,114.6,0,256,0
		C397.4,0,512,114.6,512,256z"/>
</g>
<g id="Layer_7">
	<g id="XMLID_500_">
		<defs>
			<path id="SVGID_5_" d="M512,256c0,141.4-114.6,256-256,256C114.6,512,0,397.4,0,256C0,114.6,114.6,0,256,0
				C397.4,0,512,114.6,512,256z"/>
		</defs>
		<clipPath id="SVGID_2_">
			<use xlink:href="#SVGID_5_"  style="overflow:visible;"/>
		</clipPath>
		<g id="XMLID_501_" class="st19">
			<path id="XMLID_502_" class="st31" d="M483.7,541.4l-0.1-1c0-62.8-23.5-123.7-52.2-135.3l-122.3-49.3
				c-28.7-11.6-75.7-11.6-104.4-0.1l-124,49.6c-28.7,11.5-52.2,72.3-52.2,135.1l-0.1,1H483.7z"/>
			<path id="XMLID_503_" class="st31" d="M307.8,358.9c0,27-21.9,48.8-48.8,48.8H253c-27,0-48.8-21.9-48.8-48.8V233.1
				c0-27,21.9-48.8,48.8-48.8h5.9c27,0,48.8,21.9,48.8,48.8V358.9z"/>
			<path id="XMLID_504_" class="st13" d="M483.6,540.4c0-62.8-23.5-123.7-52.2-135.3L339.1,368c0,0-17.6,63.7-83.1,63.7
				c-65.5,0-82.7-63.4-82.7-63.4l-92.7,37c-28.7,11.5-52.2,72.3-52.2,135.1l-0.1,1h455.3L483.6,540.4z"/>
			<g id="XMLID_505_">
				<path id="XMLID_506_" class="st21" d="M172.4,363.6c-12.4,26.7-7.5,56.9,13.6,72.5c21,15.6,51.4,11.5,73.3-8.1
					c-15.9,1.7-36.1-4.4-54.2-17.8C187.1,396.8,175.4,379.2,172.4,363.6z"/>
				<path id="XMLID_507_" class="st21" d="M339.6,363.6c12.4,26.7,7.5,56.9-13.6,72.5c-21,15.6-51.4,11.5-73.3-8.1
					c15.9,1.7,36.1-4.4,54.2-17.8C324.9,396.8,336.6,379.2,339.6,363.6z"/>
			</g>
		</g>
		<g id="XMLID_508_" class="st19">
			<path id="XMLID_509_" class="st27" d="M230.5,89.7c-21.2,0-44.2,12.9-51.1,28.4l-38.1,85.4c-6.9,15.5,4.7,28.5,25.8,28.5h178.5
				c21.2,0,32.8-12.9,25.8-28.4l-38.1-85.4c-6.9-15.5-29.9-28.5-51.1-28.5H230.5z"/>
			<ellipse id="XMLID_510_" class="st27" cx="256.1" cy="233.9" rx="119.8" ry="94.2"/>
			<path id="XMLID_511_" class="st27" d="M302.6,299.5c0,24.7-20,44.7-44.7,44.7h-3.7c-24.7,0-44.7-20-44.7-44.7v-21.6
				c0-24.7,20-44.7,44.7-44.7h3.7c24.7,0,44.7,20,44.7,44.7V299.5z"/>
			<g id="XMLID_512_">
				<path id="XMLID_515_" class="st27" d="M182.4,97.5c14.8,0.8,20.3,11.6,12.3,24l-18.1,28.1c-8,12.4-20.1,11.9-27-1.2L133.8,118
					c-6.8-13.1-0.4-23.1,14.4-22.4L182.4,97.5z"/>
				<path id="XMLID_516_" class="st27" d="M329.7,97.5c-14.7,0.8-20.3,11.6-12.3,24l18,28.1c8,12.4,20.1,11.9,27-1.2l15.9-30.4
					c6.8-13.1,0.4-23.1-14.4-22.4L329.7,97.5z"/>
			</g>
			<g id="XMLID_517_">
				<path id="XMLID_518_" class="st0" d="M222.1,181.1c0,7.2-5.8,13-13,13c-7.2,0-13-5.8-13-13c0-7.2,5.8-13,13-13
					C216.3,168.2,222.1,174,222.1,181.1z"/>
				<path id="XMLID_519_" class="st0" d="M315.3,181.1c0,7.2-5.8,13-13,13s-13-5.8-13-13c0-7.2,5.8-13,13-13S315.3,174,315.3,181.1z
					"/>
			</g>
			<g id="XMLID_520_">
				<g id="XMLID_521_">
					<path id="XMLID_522_" class="st28" d="M310.5,309.1c0,22.4-18.2,40.6-40.6,40.6h-23c-22.4,0-40.6-18.2-40.6-40.6V294
						c0-22.4,18.2-40.6,40.6-40.6h23c22.4,0,40.6,18.2,40.6,40.6V309.1z"/>
					<path id="XMLID_523_" class="st28" d="M288,246.6v-56.9c0-16.7-13-30.3-29.7-30.3c-16.7,0-29.7,13.6-29.7,30.3v56.9H288z"/>
					<g id="XMLID_524_">
						<path id="XMLID_525_" class="st28" d="M255.5,272.9c0,13.9-11.3,25.2-25.2,25.2h-15.7c-13.9,0-25.2-11.3-25.2-25.2v-15.7
							c0-13.9,11.3-25.2,25.2-25.2h15.7c13.9,0,25.2,11.3,25.2,25.2V272.9z"/>
						<path id="XMLID_526_" class="st28" d="M323.9,272.9c0,13.9-11.3,25.2-25.2,25.2H283c-13.9,0-25.2-11.3-25.2-25.2v-15.7
							c0-13.9,11.3-25.2,25.2-25.2h15.7c13.9,0,25.2,11.3,25.2,25.2V272.9z"/>
					</g>
					<path id="XMLID_527_" class="st0" d="M235.2,226.4c-12.5,0-15.9,8-7.6,17.3l14.5,16.3c8.3,9.3,22,9.4,30.4,0.1l14.5-16.5
						c8.3-9.3,4.9-17.2-7.6-17.2H235.2z"/>
				</g>
			</g>
			<g id="XMLID_530_">
				<path id="XMLID_531_" class="st32" d="M280.2,290.2c0,10.3-10.8,18.6-24.1,18.6c-13.3,0-24.1-8.3-24.1-18.6
					c0-10.3,10.8-18.6,24.1-18.6C269.5,271.6,280.2,279.9,280.2,290.2z"/>
				<path id="XMLID_532_" class="st32" d="M292.3,308.8c0,13.3-16.2,24.1-36.1,24.1c-19.9,0-36.1-10.8-36.1-24.1
					c0-13.3,16.2-24.1,36.1-24.1C276.1,284.8,292.3,295.6,292.3,308.8z"/>
				<g id="XMLID_533_">
					<path id="XMLID_534_" class="st21" d="M281.2,282.8c-13.4,12.7-36.5,12.7-49.9,0c-9.5-8.9-23.8,5.3-14.3,14.3
						c21.6,20.3,56.9,20.3,78.5,0C304.9,288.1,290.6,273.9,281.2,282.8L281.2,282.8z"/>
				</g>
			</g>
		</g>
	</g>
</g>
</svg>
