<?xml version="1.0" encoding="utf-8"?>
<!-- Generator: Adobe Illustrator 25.0.0, SVG Export Plug-In . SVG Version: 6.00 Build 0)  -->
<svg version="1.1" xmlns="http://www.w3.org/2000/svg" xmlns:xlink="http://www.w3.org/1999/xlink" x="0px" y="0px"
	 viewBox="0 0 512 512" style="enable-background:new 0 0 512 512;" xml:space="preserve">
<style type="text/css">
	.st0{fill:#3D2A3D;}
	.st1{fill:#D5872A;}
	.st2{fill:#C9E874;}
	.st3{fill:#277A6B;}
	.st4{fill:#FFDE69;}
	.st5{fill:#698250;}
	.st6{fill:#C8C947;}
	.st7{fill:#A6DEA9;}
	.st8{fill:#376C7E;}
	.st9{fill:#8BA83C;}
	.st10{fill:#2FABAF;}
	.st11{fill:#216964;}
	.st12{fill:#605560;}
	.st13{fill:#C45742;}
	.st14{fill:#79D7F2;}
	.st15{fill:#769938;}
	.st16{fill:#9EC853;}
	.st17{fill:#E7AD84;}
	.st18{fill:#76B079;}
	.st19{clip-path:url(#SVGID_2_);}
	.st20{fill:#594335;}
	.st21{fill:#F7F7F8;}
	.st22{fill:#7D5737;}
	.st23{fill:#D68F6A;}
	.st24{clip-path:url(#SVGID_4_);fill:#C45742;}
	.st25{clip-path:url(#SVGID_4_);fill:#E88D38;}
	.st26{clip-path:url(#SVGID_4_);}
	.st27{fill:#E1902B;}
	.st28{fill:#FFC671;}
	.st29{fill:#E1E1E1;}
	.st30{clip-path:url(#SVGID_6_);}
	.st31{fill:#D1741D;}
	.st32{fill:#C93A3A;}
	.st33{clip-path:url(#SVGID_8_);}
	.st34{fill:#919191;}
	.st35{fill:#CE722F;}
	.st36{fill:#C4C4C4;}
	.st37{clip-path:url(#SVGID_10_);}
	.st38{fill:#665348;}
	.st39{fill:#877365;}
	.st40{fill:#E3A584;}
	.st41{fill:#733D28;}
	.st42{clip-path:url(#SVGID_12_);}
	.st43{fill:#8C8C8C;}
	.st44{fill:#BFBFBF;}
	.st45{clip-path:url(#SVGID_14_);}
	.st46{clip-path:url(#SVGID_16_);}
	.st47{fill:#FFFFFF;}
	.st48{fill:#4A414A;}
	.st49{clip-path:url(#SVGID_18_);}
	.st50{fill:#BE7632;}
	.st51{clip-path:url(#SVGID_20_);}
	.st52{fill:#E3A445;}
	.st53{fill:#FFF0BA;}
	.st54{fill:#BF7128;}
	.st55{clip-path:url(#XMLID_82_);}
	.st56{fill:#AC6322;}
	.st57{clip-path:url(#SVGID_22_);}
	.st58{fill:#DBCCA6;}
	.st59{fill:#C2A579;}
	.st60{fill:#CFB582;}
	.st61{fill:#EBE2B2;}
	.st62{fill:#B8B399;}
	.st63{fill:#918E79;}
	.st64{fill:#665F52;}
	.st65{clip-path:url(#XMLID_83_);}
	.st66{fill:#BD4A4A;}
	.st67{fill:#D4811C;}
	.st68{fill:#CF6F15;}
	.st69{clip-path:url(#SVGID_24_);}
	.st70{fill:#FFF8E3;}
	.st71{fill:#7A6D7A;}
	.st72{fill:#2C1512;}
	.st73{fill:#D6CBA9;}
	.st74{clip-path:url(#XMLID_84_);}
	.st75{fill:#FFEA9E;}
	.st76{fill:#FFDBC5;}
	.st77{clip-path:url(#XMLID_85_);}
	.st78{fill:#B55716;}
	.st79{fill:#C47325;}
	.st80{clip-path:url(#XMLID_86_);}
	.st81{fill:#ADA798;}
	.st82{fill:#C4BDAC;}
	.st83{fill:#8F8266;}
	.st84{fill:#D6CEBC;}
	.st85{fill:#FFFAE6;}
	.st86{fill:#595140;}
	.st87{clip-path:url(#XMLID_88_);}
	.st88{fill:#B84028;}
	.st89{fill:#E6B75A;}
	.st90{fill:#DB614A;}
	.st91{clip-path:url(#XMLID_92_);}
	.st92{fill:#615661;}
	.st93{fill:#635963;}
	.st94{fill:#4F414F;}
	.st95{fill:#7D6F7D;}
	.st96{fill:#B5A0B5;}
	.st97{fill:#574D57;}
	.st98{clip-path:url(#XMLID_95_);}
	.st99{fill:#C2C2C2;}
	.st100{fill:#9E9E9E;}
	.st101{fill:#949494;}
	.st102{fill:#E8E8E8;}
	.st103{fill:#A1A1A1;}
	.st104{fill:#D66270;}
	.st105{clip-path:url(#XMLID_99_);}
	.st106{fill:#CFCFCF;}
	.st107{fill:#BDA18D;}
	.st108{fill:#82A385;}
	.st109{clip-path:url(#XMLID_100_);}
	.st110{fill:#D1986E;}
	.st111{fill:#C2733E;}
	.st112{fill:#E6AC83;}
	.st113{fill:#C28155;}
	.st114{fill:#6E482E;}
	.st115{fill:#594435;}
	.st116{clip-path:url(#XMLID_102_);}
	.st117{fill:#6B5545;}
	.st118{fill:#261526;}
	.st119{fill:#9E8776;}
	.st120{fill:#807180;}
	.st121{fill:#A693A6;}
	.st122{fill:#614C61;}
	.st123{clip-path:url(#XMLID_107_);}
	.st124{fill:#D9D9D9;}
	.st125{clip-path:url(#XMLID_110_);}
	.st126{fill:#4D404D;}
	.st127{clip-path:url(#XMLID_110_);fill:#4D404D;}
	.st128{clip-path:url(#XMLID_111_);}
	.st129{clip-path:url(#XMLID_120_);}
	.st130{fill:#FFC682;}
	.st131{clip-path:url(#XMLID_121_);}
	.st132{fill:#753427;}
	.st133{clip-path:url(#XMLID_121_);fill:#753427;}
	.st134{clip-path:url(#SVGID_26_);}
	.st135{fill:#694334;}
	.st136{fill:#FF826E;}
	.st137{fill:#875F44;}
	.st138{fill:#4F3327;}
	.st139{fill:#D68256;}
	.st140{clip-path:url(#SVGID_28_);}
	.st141{fill:#6E6E6E;}
	.st142{fill:#B8B8B8;}
	.st143{clip-path:url(#SVGID_28_);fill:#B8B8B8;}
	.st144{clip-path:url(#SVGID_30_);}
	.st145{clip-path:url(#SVGID_32_);}
	.st146{fill:#D16658;}
	.st147{fill:#E6786A;}
	.st148{fill:#F79E92;}
	.st149{clip-path:url(#SVGID_34_);}
	.st150{fill:#E6CA56;}
	.st151{fill:#F2EBCB;}
	.st152{fill:#F08C7F;}
	.st153{clip-path:url(#SVGID_36_);}
	.st154{fill:#9E6842;}
	.st155{fill:#BA835E;}
	.st156{fill:#8C5937;}
	.st157{fill:#E3AD88;}
	.st158{fill:#A86B42;}
	.st159{clip-path:url(#SVGID_38_);}
	.st160{fill:#877987;}
	.st161{fill:#C7BCB2;}
	.st162{clip-path:url(#SVGID_40_);}
	.st163{fill:#6E4D37;}
	.st164{fill:#A8562A;}
	.st165{clip-path:url(#SVGID_42_);}
	.st166{fill:#A37352;}
	.st167{clip-path:url(#SVGID_44_);}
	.st168{fill:#8A8A8A;}
	.st169{fill:#F0F0F0;}
	.st170{clip-path:url(#XMLID_126_);}
	.st171{clip-path:url(#SVGID_46_);fill:none;}
	.st172{clip-path:url(#SVGID_46_);}
	.st173{fill:#78553C;}
	.st174{fill:#F29C5E;}
	.st175{fill:#D4D4D4;}
	.st176{clip-path:url(#SVGID_48_);}
	.st177{fill:#DB959A;}
	.st178{clip-path:url(#SVGID_50_);}
	.st179{fill:#A1341E;}
	.st180{fill:#EB9F2E;}
	.st181{clip-path:url(#SVGID_52_);}
	.st182{clip-path:url(#SVGID_54_);}
	.st183{fill:#855433;}
	.st184{fill:#AD6D42;}
	.st185{clip-path:url(#SVGID_56_);}
	.st186{fill:#D5A060;}
	.st187{clip-path:url(#SVGID_58_);}
	.st188{fill:#4A3C4A;}
	.st189{fill:#524352;}
	.st190{clip-path:url(#SVGID_60_);}
	.st191{fill:#524252;}
	.st192{clip-path:url(#SVGID_62_);fill:#C7781C;}
	.st193{clip-path:url(#SVGID_62_);}
	.st194{fill:#DEDEDE;}
	.st195{fill:#C7781C;}
	.st196{clip-path:url(#SVGID_62_);fill:#D5872A;}
	.st197{clip-path:url(#SVGID_62_);fill:#877365;}
	.st198{clip-path:url(#SVGID_62_);fill:#E3AD88;}
	.st199{clip-path:url(#SVGID_62_);fill:#F7F7F8;}
	.st200{clip-path:url(#SVGID_64_);}
	.st201{fill:#A63A25;}
	.st202{clip-path:url(#SVGID_66_);}
	.st203{clip-path:url(#SVGID_68_);}
	.st204{fill:#CF97A1;}
	.st205{fill:#CF7686;}
	.st206{clip-path:url(#SVGID_70_);}
	.st207{fill:#4F464F;}
	.st208{fill:#9C8A9C;}
	.st209{clip-path:url(#SVGID_72_);}
</style>
<g id="ICON">
	<path id="XMLID_87_" class="st2" d="M512,256c0,141.4-114.6,256-256,256C114.6,512,0,397.4,0,256C0,114.6,114.6,0,256,0
		C397.4,0,512,114.6,512,256z"/>
</g>
<g id="Layer_7">
	<g id="XMLID_1061_">
		<defs>
			<path id="XMLID_1111_" d="M512,256c0,141.4-114.6,256-256,256C114.6,512,0,397.4,0,256C0,114.6,114.6,0,256,0
				C397.4,0,512,114.6,512,256z"/>
		</defs>
		<clipPath id="XMLID_82_">
			<use xlink:href="#XMLID_1111_"  style="overflow:visible;"/>
		</clipPath>
		<g id="XMLID_1062_" class="st55">
			<path id="XMLID_1063_" class="st66" d="M426.4,224.7c0,88.8-170.4,206.9-170.4,206.9S85.6,313.4,85.6,224.7
				c0-88.8,76.3-160.7,170.4-160.7C350.1,63.9,426.4,135.9,426.4,224.7z"/>
			<g id="XMLID_1064_">
				<path id="XMLID_1067_" class="st10" d="M464.5,575l-0.1-1c0-58.9-21.5-115.9-47.8-126.8l-112-46.2
					c-26.3-10.9-69.4-10.9-95.7-0.1L95.4,447.4C69,458.2,47.5,515.2,47.5,574.1l-0.1,1H464.5z"/>
				<path id="XMLID_1068_" class="st67" d="M305.9,404.7c0,26-21.1,47-47,47h-5.7c-26,0-47-21.1-47-47V283.6c0-26,21.1-47,47-47h5.7
					c26,0,47,21.1,47,47V404.7z"/>
			</g>
			<g id="XMLID_1069_">
				<g id="XMLID_1070_">
					<path class="st27" d="M301.1,166c-0.6-0.6-1-1.2-1.2-1.9l-90.3,0.6c-12,15.6-23.5,31.5-33.9,48.2c0,0.1-0.1,0.1-0.1,0.2
						l14.3,113.2c0.1,16,14.1,29.1,31.3,29.1h73.5c17.2-1.2,31-13.9,30.9-30l11-114.5C325.8,195.1,314.7,179.5,301.1,166z"/>
				</g>
				<path id="XMLID_1071_" class="st27" d="M336.8,214.1c0,35.6-36.2,64.5-80.8,64.5c-44.6,0-80.8-28.9-80.8-64.5
					s36.2-64.5,80.8-64.5C300.6,149.7,336.8,178.5,336.8,214.1z"/>
				<path id="XMLID_1072_" class="st17" d="M269.8,281.4c0,4.3-3.5,7.8-7.8,7.8h-12.4c-4.3,0-7.8-3.5-7.8-7.8v-41.5
					c0-4.3,3.5-7.8,7.8-7.8H262c4.3,0,7.8,3.5,7.8,7.8V281.4z"/>
				<path id="XMLID_1073_" class="st68" d="M319.1,252.2c0,11.8-9.5,21.3-21.3,21.3h-80.7c-11.8,0-21.3-9.5-21.3-21.3l0,0
					c0-11.8,9.5-21.3,21.3-21.3h80.7C309.6,230.9,319.1,240.4,319.1,252.2L319.1,252.2z"/>
				<g id="XMLID_1074_">
					<g id="XMLID_1075_">
						<polygon id="XMLID_1076_" class="st21" points="257.3,315 284.4,351.3 284.4,315 						"/>
						<polygon id="XMLID_1077_" class="st21" points="228.3,315 228.3,351.3 254.7,315 						"/>
					</g>
				</g>
				<g id="XMLID_1078_">
					<path id="XMLID_1081_" class="st27" d="M196.6,278.3c-11.5,0.6-36.8,10.5-36.8,10.5s10.1,6.4,20.4,10.6
						c-8.6,10.5-19.2,31.7-19.2,31.7s11.2-2.5,22.2-6.4c-0.3,12.6,0.4,25.1,0.4,25.1s26.1-24,29.8-37.5c1.7-6.2,1.9-12.3,0.8-17.2
						c1.4-1.7,2.2-3.5,2.4-5.4C217,282.8,208,277.7,196.6,278.3z"/>
					<path id="XMLID_1084_" class="st27" d="M331.9,299.4c10.2-4.2,20.4-10.6,20.4-10.6s-25.3-9.9-36.8-10.5
						c-11.5-0.6-20.4,4.5-20,11.4c0.1,1.9,1,3.7,2.4,5.4c-1.1,4.9-0.9,11,0.8,17.2c3.7,13.5,29.8,37.5,29.8,37.5s0.8-12.5,0.4-25.1
						c10.9,3.9,22.2,6.4,22.2,6.4S340.5,310,331.9,299.4z"/>
				</g>
				<path id="XMLID_1085_" class="st66" d="M344.7,131c0,25.9-88.7,60.5-88.7,60.5S167.3,157,167.3,131c0-25.9,39.7-47,88.7-47
					C305,84,344.7,105.1,344.7,131z"/>
				<g id="XMLID_1086_">
					<g id="XMLID_1087_">
						<path id="XMLID_1088_" class="st0" d="M212.4,258.6c5.1-10.1,19.1-10.1,24.2,0c2.3,4.6,9.1,0.6,6.8-4
							c-7.7-15.2-30.2-15.2-37.9,0C203.3,259.1,210.1,263.1,212.4,258.6L212.4,258.6z"/>
					</g>
					<g id="XMLID_1089_">
						<path id="XMLID_1090_" class="st0" d="M275.4,258.6c5.1-10.1,19.1-10.1,24.2,0c2.3,4.6,9.1,0.6,6.8-4
							c-7.7-15.2-30.2-15.2-37.9,0C266.3,259.1,273.1,263.1,275.4,258.6L275.4,258.6z"/>
					</g>
				</g>
				<g id="XMLID_1095_">
					<g>
						<path id="XMLID_116_" class="st27" d="M175.4,143.8c11.2,0.6,15.5,8.9,9.4,18.3L171,183.5c-6.1,9.5-15.3,9.1-20.6-0.9
							l-12.1-23.2c-5.2-10-0.3-17.7,11-17L175.4,143.8z"/>
						<path id="XMLID_115_" class="st27" d="M336.6,143.8c-11.3,0.6-15.5,8.9-9.4,18.3l13.8,21.4c6.1,9.5,15.3,9.1,20.6-0.9
							l12.1-23.2c5.2-10,0.3-17.7-11-17L336.6,143.8z"/>
					</g>
				</g>
				<g id="XMLID_1102_">
					<g>
						<path id="XMLID_119_" class="st28" d="M250.7,299.9c0,10.8-8.8,19.6-19.6,19.6h-0.1c-10.8,0-19.6-8.8-19.6-19.6v-1.2
							c0-10.8,8.8-19.6,19.6-19.6h0.1c10.8,0,19.6,8.8,19.6,19.6V299.9z"/>
						<path id="XMLID_118_" class="st28" d="M302.3,299.9c0,10.8-8.8,19.6-19.6,19.6h-0.1c-10.8,0-19.6-8.8-19.6-19.6v-1.2
							c0-10.8,8.8-19.6,19.6-19.6h0.1c10.8,0,19.6,8.8,19.6,19.6V299.9z"/>
					</g>
				</g>
				<g id="XMLID_1105_">
					<g id="XMLID_1106_">
						<path id="XMLID_1107_" class="st0" d="M249.8,292.6c0,0,1.2,11.5-1.3,15.9c-3,5.3-11.2,3.9-16.8,3.9c-6.7,0-6.7,11.2,0,11.2
							c9,0,17.3,0.5,24.1-6.4c6.5-6.5,5.2-14.6,5.2-24.7C261,287,249.8,287,249.8,292.6C249.8,292.6,249.8,287,249.8,292.6z"/>
					</g>
					<g id="XMLID_1108_">
						<path id="XMLID_1109_" class="st0" d="M251,292.6c0,0-0.8,17.1,4.8,23.8c6.5,7.8,17.4,7.3,25.2,7.3s7.8-11.2,0-11.2
							c-4.5,0-12.4,1.1-16.5-3.1c-3.5-3.5-2.3-11.2-2.3-16.8S251,287,251,292.6C251,292.6,251,287,251,292.6z"/>
					</g>
				</g>
				<path id="XMLID_1110_" class="st0" d="M256,299.3c5.3,0,12-3.9,14.9-8.7l5.3-8.6c2.9-4.8,0.7-8.5-4.9-8.5h-30.8
					c-5.6,0-7.8,3.8-4.9,8.5l5.3,8.7C244,295.5,250.7,299.3,256,299.3z"/>
			</g>
		</g>
	</g>
</g>
</svg>
