<?xml version="1.0" encoding="utf-8"?>
<!-- Generator: Adobe Illustrator 25.0.0, SVG Export Plug-In . SVG Version: 6.00 Build 0)  -->
<svg version="1.1" xmlns="http://www.w3.org/2000/svg" xmlns:xlink="http://www.w3.org/1999/xlink" x="0px" y="0px"
	 viewBox="0 0 512 512" style="enable-background:new 0 0 512 512;" xml:space="preserve">
<style type="text/css">
	.st0{fill:#3D2A3D;}
	.st1{fill:#D5872A;}
	.st2{fill:#C9E874;}
	.st3{fill:#277A6B;}
	.st4{fill:#FFDE69;}
	.st5{fill:#698250;}
	.st6{fill:#C8C947;}
	.st7{fill:#A6DEA9;}
	.st8{fill:#376C7E;}
	.st9{fill:#8BA83C;}
	.st10{fill:#2FABAF;}
	.st11{fill:#216964;}
	.st12{fill:#605560;}
	.st13{fill:#C45742;}
	.st14{fill:#79D7F2;}
	.st15{fill:#769938;}
	.st16{fill:#9EC853;}
	.st17{fill:#E7AD84;}
	.st18{fill:#76B079;}
	.st19{clip-path:url(#SVGID_2_);}
	.st20{fill:#594335;}
	.st21{fill:#F7F7F8;}
	.st22{fill:#7D5737;}
	.st23{fill:#D68F6A;}
	.st24{clip-path:url(#SVGID_4_);fill:#C45742;}
	.st25{clip-path:url(#SVGID_4_);fill:#E88D38;}
	.st26{clip-path:url(#SVGID_4_);}
	.st27{fill:#E1902B;}
	.st28{fill:#FFC671;}
	.st29{fill:#E1E1E1;}
	.st30{clip-path:url(#SVGID_6_);}
	.st31{fill:#D1741D;}
	.st32{fill:#C93A3A;}
	.st33{clip-path:url(#SVGID_8_);}
	.st34{fill:#919191;}
	.st35{fill:#CE722F;}
	.st36{fill:#C4C4C4;}
	.st37{clip-path:url(#SVGID_10_);}
	.st38{fill:#665348;}
	.st39{fill:#877365;}
	.st40{fill:#E3A584;}
	.st41{fill:#733D28;}
	.st42{clip-path:url(#SVGID_12_);}
	.st43{fill:#8C8C8C;}
	.st44{fill:#BFBFBF;}
	.st45{clip-path:url(#SVGID_14_);}
	.st46{clip-path:url(#SVGID_16_);}
	.st47{fill:#FFFFFF;}
	.st48{fill:#4A414A;}
	.st49{clip-path:url(#SVGID_18_);}
	.st50{fill:#BE7632;}
	.st51{clip-path:url(#SVGID_20_);}
	.st52{fill:#E3A445;}
	.st53{fill:#FFF0BA;}
	.st54{fill:#BF7128;}
	.st55{clip-path:url(#XMLID_82_);}
	.st56{fill:#AC6322;}
	.st57{clip-path:url(#SVGID_22_);}
	.st58{fill:#DBCCA6;}
	.st59{fill:#C2A579;}
	.st60{fill:#CFB582;}
	.st61{fill:#EBE2B2;}
	.st62{fill:#B8B399;}
	.st63{fill:#918E79;}
	.st64{fill:#665F52;}
	.st65{clip-path:url(#XMLID_83_);}
	.st66{fill:#BD4A4A;}
	.st67{fill:#D4811C;}
	.st68{fill:#CF6F15;}
	.st69{clip-path:url(#SVGID_24_);}
	.st70{fill:#FFF8E3;}
	.st71{fill:#7A6D7A;}
	.st72{fill:#2C1512;}
	.st73{fill:#D6CBA9;}
	.st74{clip-path:url(#XMLID_84_);}
	.st75{fill:#FFEA9E;}
	.st76{fill:#FFDBC5;}
	.st77{clip-path:url(#XMLID_85_);}
	.st78{fill:#B55716;}
	.st79{fill:#C47325;}
	.st80{clip-path:url(#XMLID_86_);}
	.st81{fill:#ADA798;}
	.st82{fill:#C4BDAC;}
	.st83{fill:#8F8266;}
	.st84{fill:#D6CEBC;}
	.st85{fill:#FFFAE6;}
	.st86{fill:#595140;}
	.st87{clip-path:url(#XMLID_88_);}
	.st88{fill:#B84028;}
	.st89{fill:#E6B75A;}
	.st90{fill:#DB614A;}
	.st91{clip-path:url(#XMLID_92_);}
	.st92{fill:#615661;}
	.st93{fill:#635963;}
	.st94{fill:#4F414F;}
	.st95{fill:#7D6F7D;}
	.st96{fill:#B5A0B5;}
	.st97{fill:#574D57;}
	.st98{clip-path:url(#XMLID_95_);}
	.st99{fill:#C2C2C2;}
	.st100{fill:#9E9E9E;}
	.st101{fill:#949494;}
	.st102{fill:#E8E8E8;}
	.st103{fill:#A1A1A1;}
	.st104{fill:#D66270;}
	.st105{clip-path:url(#XMLID_99_);}
	.st106{fill:#CFCFCF;}
	.st107{fill:#BDA18D;}
	.st108{fill:#82A385;}
	.st109{clip-path:url(#XMLID_100_);}
	.st110{fill:#D1986E;}
	.st111{fill:#C2733E;}
	.st112{fill:#E6AC83;}
	.st113{fill:#C28155;}
	.st114{fill:#6E482E;}
	.st115{fill:#594435;}
	.st116{clip-path:url(#XMLID_102_);}
	.st117{fill:#6B5545;}
	.st118{fill:#261526;}
	.st119{fill:#9E8776;}
	.st120{fill:#807180;}
	.st121{fill:#A693A6;}
	.st122{fill:#614C61;}
	.st123{clip-path:url(#XMLID_107_);}
	.st124{fill:#D9D9D9;}
	.st125{clip-path:url(#XMLID_110_);}
	.st126{fill:#4D404D;}
	.st127{clip-path:url(#XMLID_110_);fill:#4D404D;}
	.st128{clip-path:url(#XMLID_111_);}
	.st129{clip-path:url(#XMLID_120_);}
	.st130{fill:#FFC682;}
	.st131{clip-path:url(#XMLID_121_);}
	.st132{fill:#753427;}
	.st133{clip-path:url(#XMLID_121_);fill:#753427;}
	.st134{clip-path:url(#SVGID_26_);}
	.st135{fill:#694334;}
	.st136{fill:#FF826E;}
	.st137{fill:#875F44;}
	.st138{fill:#4F3327;}
	.st139{fill:#D68256;}
	.st140{clip-path:url(#SVGID_28_);}
	.st141{fill:#6E6E6E;}
	.st142{fill:#B8B8B8;}
	.st143{clip-path:url(#SVGID_28_);fill:#B8B8B8;}
	.st144{clip-path:url(#SVGID_30_);}
	.st145{clip-path:url(#SVGID_32_);}
	.st146{fill:#D16658;}
	.st147{fill:#E6786A;}
	.st148{fill:#F79E92;}
	.st149{clip-path:url(#SVGID_34_);}
	.st150{fill:#E6CA56;}
	.st151{fill:#F2EBCB;}
	.st152{fill:#F08C7F;}
	.st153{clip-path:url(#SVGID_36_);}
	.st154{fill:#9E6842;}
	.st155{fill:#BA835E;}
	.st156{fill:#8C5937;}
	.st157{fill:#E3AD88;}
	.st158{fill:#A86B42;}
	.st159{clip-path:url(#SVGID_38_);}
	.st160{fill:#877987;}
	.st161{fill:#C7BCB2;}
	.st162{clip-path:url(#SVGID_40_);}
	.st163{fill:#6E4D37;}
	.st164{fill:#A8562A;}
	.st165{clip-path:url(#SVGID_42_);}
	.st166{fill:#A37352;}
	.st167{clip-path:url(#SVGID_44_);}
	.st168{fill:#8A8A8A;}
	.st169{fill:#F0F0F0;}
	.st170{clip-path:url(#XMLID_126_);}
	.st171{clip-path:url(#SVGID_46_);fill:none;}
	.st172{clip-path:url(#SVGID_46_);}
	.st173{fill:#78553C;}
	.st174{fill:#F29C5E;}
	.st175{fill:#D4D4D4;}
	.st176{clip-path:url(#SVGID_48_);}
	.st177{fill:#DB959A;}
	.st178{clip-path:url(#SVGID_50_);}
	.st179{fill:#A1341E;}
	.st180{fill:#EB9F2E;}
	.st181{clip-path:url(#SVGID_52_);}
	.st182{clip-path:url(#SVGID_54_);}
	.st183{fill:#855433;}
	.st184{fill:#AD6D42;}
	.st185{clip-path:url(#SVGID_56_);}
	.st186{fill:#D5A060;}
	.st187{clip-path:url(#SVGID_58_);}
	.st188{fill:#4A3C4A;}
	.st189{fill:#524352;}
	.st190{clip-path:url(#SVGID_60_);}
	.st191{fill:#524252;}
	.st192{clip-path:url(#SVGID_62_);fill:#C7781C;}
	.st193{clip-path:url(#SVGID_62_);}
	.st194{fill:#DEDEDE;}
	.st195{fill:#C7781C;}
	.st196{clip-path:url(#SVGID_62_);fill:#D5872A;}
	.st197{clip-path:url(#SVGID_62_);fill:#877365;}
	.st198{clip-path:url(#SVGID_62_);fill:#E3AD88;}
	.st199{clip-path:url(#SVGID_62_);fill:#F7F7F8;}
	.st200{clip-path:url(#SVGID_64_);}
	.st201{fill:#A63A25;}
	.st202{clip-path:url(#SVGID_66_);}
	.st203{clip-path:url(#SVGID_68_);}
	.st204{fill:#CF97A1;}
	.st205{fill:#CF7686;}
	.st206{clip-path:url(#SVGID_70_);}
	.st207{fill:#4F464F;}
	.st208{fill:#9C8A9C;}
	.st209{clip-path:url(#SVGID_72_);}
</style>
<g id="ICON">
	<path id="XMLID_4_" class="st1" d="M512,256c0,141.4-114.6,256-256,256C114.6,512,0,397.4,0,256C0,114.6,114.6,0,256,0
		C397.4,0,512,114.6,512,256z"/>
</g>
<g id="Layer_7">
	<g id="XMLID_311_">
		<defs>
			<path id="SVGID_1_" d="M512,256c0,141.4-114.6,256-256,256C114.6,512,0,397.4,0,256C0,114.6,114.6,0,256,0
				C397.4,0,512,114.6,512,256z"/>
		</defs>
		<clipPath id="SVGID_2_">
			<use xlink:href="#SVGID_1_"  style="overflow:visible;"/>
		</clipPath>
		<g id="XMLID_337_" class="st19">
			<path class="st3" d="M512.5,599.6l-0.1-1.2c-0.5-70.5-27.4-138.6-59.9-151.4l-138.1-54.3c-32.4-12.8-85.4-12.5-117.7,0.6
				L57.4,449.9C25.1,463-0.9,531.4-0.4,601.9l-0.1,1.2L512.5,599.6z"/>
			
				<rect x="195" y="322.9" transform="matrix(1 -6.828656e-03 6.828656e-03 1 -2.5188 1.7568)" class="st20" width="121.9" height="93.7"/>
			<g id="XMLID_338_">
				<polygon class="st21" points="214.8,471.6 155.5,433.9 173.6,391.4 255.8,414.5 				"/>
				<g id="XMLID_341_">
					<polygon class="st21" points="297.7,471.1 356.5,432.5 337.8,390.3 255.9,414.5 					"/>
				</g>
			</g>
		</g>
		<g id="XMLID_348_" class="st19">
			<g id="XMLID_350_">
				<g id="XMLID_351_">
					<path id="XMLID_352_" class="st22" d="M216.6,140.6c0,30.1-27.7,54.5-61.9,54.5c-34.2,0-61.9-24.4-61.9-54.5
						c0-30.1,27.7-54.5,61.9-54.5C188.9,86.1,216.6,110.4,216.6,140.6z"/>
					<path id="XMLID_439_" class="st20" d="M214.8,148.9c0,23.7-21.8,43-48.7,43c-26.9,0-48.7-19.2-48.7-43
						c0-23.7,21.8-42.9,48.7-42.9C193,105.9,214.8,125.1,214.8,148.9z"/>
				</g>
				<g id="XMLID_440_">
					<path id="XMLID_441_" class="st22" d="M295.4,140.6c0,30.1,27.7,54.5,61.9,54.5c34.2,0,61.9-24.4,61.9-54.5
						c0-30.1-27.7-54.5-61.9-54.5C323.1,86.1,295.4,110.4,295.4,140.6z"/>
					<path id="XMLID_443_" class="st20" d="M297.2,148.9c0,23.7,21.8,43,48.7,43c26.9,0,48.7-19.2,48.7-43
						c0-23.7-21.8-42.9-48.7-42.9C319,105.9,297.2,125.1,297.2,148.9z"/>
				</g>
			</g>
			<g id="XMLID_444_">
				<path id="XMLID_445_" class="st22" d="M390.7,245.2c0,70.7-60,127.9-133.9,127.9c-74,0-133.9-57.3-133.9-127.9
					c0-70.7,60-128,133.9-128C330.8,117.3,390.7,174.6,390.7,245.2z"/>
				<path id="XMLID_446_" class="st23" d="M304,343.8c0,26.8-22.4,48.6-49.9,48.6h-2.1c-27.6,0-49.9-21.7-49.9-48.6v-27.3
					c0-26.8,22.4-48.6,49.9-48.6h2.1c27.6,0,49.9,21.7,49.9,48.6V343.8z"/>
				<g id="XMLID_447_">
					<path id="XMLID_448_" class="st0" d="M219.7,213.3c0,7.8-6.5,14.1-14.5,14.1c-8,0-14.5-6.3-14.5-14.1c0-7.8,6.5-14.1,14.5-14.1
						C213.2,199.2,219.7,205.5,219.7,213.3z"/>
					<path id="XMLID_449_" class="st0" d="M323.8,213.3c0,7.8-6.5,14.1-14.5,14.1c-8,0-14.5-6.3-14.5-14.1c0-7.8,6.5-14.1,14.5-14.1
						C317.4,199.2,323.8,205.5,323.8,213.3z"/>
				</g>
				<g id="XMLID_450_">
					<g id="XMLID_451_">
						<g id="XMLID_452_">
							<path id="XMLID_453_" class="st23" d="M255.8,312.2c0,15.1-12.6,27.4-28.2,27.4h-18.7c-15.6,0-28.2-12.3-28.2-27.4v-16.9
								c0-15.1,12.6-27.4,28.2-27.4h18.7c15.6,0,28.2,12.3,28.2,27.4V312.2z"/>
							<path id="XMLID_454_" class="st23" d="M329.8,312.2c0,15.1-12.6,27.4-28.2,27.4h-18.7c-15.6,0-28.2-12.3-28.2-27.4v-16.9
								c0-15.1,12.6-27.4,28.2-27.4h18.7c15.6,0,28.2,12.3,28.2,27.4V312.2z"/>
						</g>
						<path id="XMLID_455_" class="st0" d="M233.3,262.3c-14,0-17.8,8.8-8.5,18.9l16.2,17.8c9.3,10.1,24.6,10.3,33.9,0.1l16.2-18
							c9.3-10.1,5.5-18.9-8.5-18.9H233.3z"/>
						<g id="XMLID_458_">
							<path id="XMLID_459_" class="st0" d="M275.5,331c-6,16.5-29.9,16.5-35.9,0c-2.9-8.1-16.3-4.6-13.3,3.6
								c4.9,13.4,16.6,22,31.2,22.5c14.5,0.6,26.6-9.9,31.2-22.5C291.7,326.4,278.4,323,275.5,331L275.5,331z"/>
						</g>
					</g>
				</g>
			</g>
		</g>
	</g>
</g>
</svg>
