<?xml version="1.0" encoding="utf-8"?>
<!-- Generator: Adobe Illustrator 25.0.0, SVG Export Plug-In . SVG Version: 6.00 Build 0)  -->
<svg version="1.1" xmlns="http://www.w3.org/2000/svg" xmlns:xlink="http://www.w3.org/1999/xlink" x="0px" y="0px"
	 viewBox="0 0 512 512" style="enable-background:new 0 0 512 512;" xml:space="preserve">
<style type="text/css">
	.st0{fill:#3D2A3D;}
	.st1{fill:#D5872A;}
	.st2{fill:#C9E874;}
	.st3{fill:#277A6B;}
	.st4{fill:#FFDE69;}
	.st5{fill:#698250;}
	.st6{fill:#C8C947;}
	.st7{fill:#A6DEA9;}
	.st8{fill:#376C7E;}
	.st9{fill:#8BA83C;}
	.st10{fill:#2FABAF;}
	.st11{fill:#216964;}
	.st12{fill:#605560;}
	.st13{fill:#C45742;}
	.st14{fill:#79D7F2;}
	.st15{fill:#769938;}
	.st16{fill:#9EC853;}
	.st17{fill:#E7AD84;}
	.st18{fill:#76B079;}
	.st19{clip-path:url(#SVGID_2_);}
	.st20{fill:#594335;}
	.st21{fill:#F7F7F8;}
	.st22{fill:#7D5737;}
	.st23{fill:#D68F6A;}
	.st24{clip-path:url(#SVGID_4_);fill:#C45742;}
	.st25{clip-path:url(#SVGID_4_);fill:#E88D38;}
	.st26{clip-path:url(#SVGID_4_);}
	.st27{fill:#E1902B;}
	.st28{fill:#FFC671;}
	.st29{fill:#E1E1E1;}
	.st30{clip-path:url(#SVGID_6_);}
	.st31{fill:#D1741D;}
	.st32{fill:#C93A3A;}
	.st33{clip-path:url(#SVGID_8_);}
	.st34{fill:#919191;}
	.st35{fill:#CE722F;}
	.st36{fill:#C4C4C4;}
	.st37{clip-path:url(#SVGID_10_);}
	.st38{fill:#665348;}
	.st39{fill:#877365;}
	.st40{fill:#E3A584;}
	.st41{fill:#733D28;}
	.st42{clip-path:url(#SVGID_12_);}
	.st43{fill:#8C8C8C;}
	.st44{fill:#BFBFBF;}
	.st45{clip-path:url(#SVGID_14_);}
	.st46{clip-path:url(#SVGID_16_);}
	.st47{fill:#FFFFFF;}
	.st48{fill:#4A414A;}
	.st49{clip-path:url(#SVGID_18_);}
	.st50{fill:#BE7632;}
	.st51{clip-path:url(#SVGID_20_);}
	.st52{fill:#E3A445;}
	.st53{fill:#FFF0BA;}
	.st54{fill:#BF7128;}
	.st55{clip-path:url(#XMLID_82_);}
	.st56{fill:#AC6322;}
	.st57{clip-path:url(#SVGID_22_);}
	.st58{fill:#DBCCA6;}
	.st59{fill:#C2A579;}
	.st60{fill:#CFB582;}
	.st61{fill:#EBE2B2;}
	.st62{fill:#B8B399;}
	.st63{fill:#918E79;}
	.st64{fill:#665F52;}
	.st65{clip-path:url(#XMLID_83_);}
	.st66{fill:#BD4A4A;}
	.st67{fill:#D4811C;}
	.st68{fill:#CF6F15;}
	.st69{clip-path:url(#SVGID_24_);}
	.st70{fill:#FFF8E3;}
	.st71{fill:#7A6D7A;}
	.st72{fill:#2C1512;}
	.st73{fill:#D6CBA9;}
	.st74{clip-path:url(#XMLID_84_);}
	.st75{fill:#FFEA9E;}
	.st76{fill:#FFDBC5;}
	.st77{clip-path:url(#XMLID_85_);}
	.st78{fill:#B55716;}
	.st79{fill:#C47325;}
	.st80{clip-path:url(#XMLID_86_);}
	.st81{fill:#ADA798;}
	.st82{fill:#C4BDAC;}
	.st83{fill:#8F8266;}
	.st84{fill:#D6CEBC;}
	.st85{fill:#FFFAE6;}
	.st86{fill:#595140;}
	.st87{clip-path:url(#XMLID_88_);}
	.st88{fill:#B84028;}
	.st89{fill:#E6B75A;}
	.st90{fill:#DB614A;}
	.st91{clip-path:url(#XMLID_92_);}
	.st92{fill:#615661;}
	.st93{fill:#635963;}
	.st94{fill:#4F414F;}
	.st95{fill:#7D6F7D;}
	.st96{fill:#B5A0B5;}
	.st97{fill:#574D57;}
	.st98{clip-path:url(#XMLID_95_);}
	.st99{fill:#C2C2C2;}
	.st100{fill:#9E9E9E;}
	.st101{fill:#949494;}
	.st102{fill:#E8E8E8;}
	.st103{fill:#A1A1A1;}
	.st104{fill:#D66270;}
	.st105{clip-path:url(#XMLID_99_);}
	.st106{fill:#CFCFCF;}
	.st107{fill:#BDA18D;}
	.st108{fill:#82A385;}
	.st109{clip-path:url(#XMLID_100_);}
	.st110{fill:#D1986E;}
	.st111{fill:#C2733E;}
	.st112{fill:#E6AC83;}
	.st113{fill:#C28155;}
	.st114{fill:#6E482E;}
	.st115{fill:#594435;}
	.st116{clip-path:url(#XMLID_102_);}
	.st117{fill:#6B5545;}
	.st118{fill:#261526;}
	.st119{fill:#9E8776;}
	.st120{fill:#807180;}
	.st121{fill:#A693A6;}
	.st122{fill:#614C61;}
	.st123{clip-path:url(#XMLID_107_);}
	.st124{fill:#D9D9D9;}
	.st125{clip-path:url(#XMLID_110_);}
	.st126{fill:#4D404D;}
	.st127{clip-path:url(#XMLID_110_);fill:#4D404D;}
	.st128{clip-path:url(#XMLID_111_);}
	.st129{clip-path:url(#XMLID_120_);}
	.st130{fill:#FFC682;}
	.st131{clip-path:url(#XMLID_121_);}
	.st132{fill:#753427;}
	.st133{clip-path:url(#XMLID_121_);fill:#753427;}
	.st134{clip-path:url(#SVGID_26_);}
	.st135{fill:#694334;}
	.st136{fill:#FF826E;}
	.st137{fill:#875F44;}
	.st138{fill:#4F3327;}
	.st139{fill:#D68256;}
	.st140{clip-path:url(#SVGID_28_);}
	.st141{fill:#6E6E6E;}
	.st142{fill:#B8B8B8;}
	.st143{clip-path:url(#SVGID_28_);fill:#B8B8B8;}
	.st144{clip-path:url(#SVGID_30_);}
	.st145{clip-path:url(#SVGID_32_);}
	.st146{fill:#D16658;}
	.st147{fill:#E6786A;}
	.st148{fill:#F79E92;}
	.st149{clip-path:url(#SVGID_34_);}
	.st150{fill:#E6CA56;}
	.st151{fill:#F2EBCB;}
	.st152{fill:#F08C7F;}
	.st153{clip-path:url(#SVGID_36_);}
	.st154{fill:#9E6842;}
	.st155{fill:#BA835E;}
	.st156{fill:#8C5937;}
	.st157{fill:#E3AD88;}
	.st158{fill:#A86B42;}
	.st159{clip-path:url(#SVGID_38_);}
	.st160{fill:#877987;}
	.st161{fill:#C7BCB2;}
	.st162{clip-path:url(#SVGID_40_);}
	.st163{fill:#6E4D37;}
	.st164{fill:#A8562A;}
	.st165{clip-path:url(#SVGID_42_);}
	.st166{fill:#A37352;}
	.st167{clip-path:url(#SVGID_44_);}
	.st168{fill:#8A8A8A;}
	.st169{fill:#F0F0F0;}
	.st170{clip-path:url(#XMLID_126_);}
	.st171{clip-path:url(#SVGID_46_);fill:none;}
	.st172{clip-path:url(#SVGID_46_);}
	.st173{fill:#78553C;}
	.st174{fill:#F29C5E;}
	.st175{fill:#D4D4D4;}
	.st176{clip-path:url(#SVGID_48_);}
	.st177{fill:#DB959A;}
	.st178{clip-path:url(#SVGID_50_);}
	.st179{fill:#A1341E;}
	.st180{fill:#EB9F2E;}
	.st181{clip-path:url(#SVGID_52_);}
	.st182{clip-path:url(#SVGID_54_);}
	.st183{fill:#855433;}
	.st184{fill:#AD6D42;}
	.st185{clip-path:url(#SVGID_56_);}
	.st186{fill:#D5A060;}
	.st187{clip-path:url(#SVGID_58_);}
	.st188{fill:#4A3C4A;}
	.st189{fill:#524352;}
	.st190{clip-path:url(#SVGID_60_);}
	.st191{fill:#524252;}
	.st192{clip-path:url(#SVGID_62_);fill:#C7781C;}
	.st193{clip-path:url(#SVGID_62_);}
	.st194{fill:#DEDEDE;}
	.st195{fill:#C7781C;}
	.st196{clip-path:url(#SVGID_62_);fill:#D5872A;}
	.st197{clip-path:url(#SVGID_62_);fill:#877365;}
	.st198{clip-path:url(#SVGID_62_);fill:#E3AD88;}
	.st199{clip-path:url(#SVGID_62_);fill:#F7F7F8;}
	.st200{clip-path:url(#SVGID_64_);}
	.st201{fill:#A63A25;}
	.st202{clip-path:url(#SVGID_66_);}
	.st203{clip-path:url(#SVGID_68_);}
	.st204{fill:#CF97A1;}
	.st205{fill:#CF7686;}
	.st206{clip-path:url(#SVGID_70_);}
	.st207{fill:#4F464F;}
	.st208{fill:#9C8A9C;}
	.st209{clip-path:url(#SVGID_72_);}
</style>
<g id="ICON">
	<path id="XMLID_108_" class="st2" d="M512,256c0,141.4-114.6,256-256,256C114.6,512,0,397.4,0,256C0,114.6,114.6,0,256,0
		C397.4,0,512,114.6,512,256z"/>
</g>
<g id="Layer_7">
	<g id="XMLID_1313_">
		<defs>
			<path id="XMLID_1389_" d="M512,256c0,141.4-114.6,256-256,256C114.6,512,0,397.4,0,256C0,114.6,114.6,0,256,0
				C397.4,0,512,114.6,512,256z"/>
		</defs>
		<clipPath id="XMLID_82_">
			<use xlink:href="#XMLID_1389_"  style="overflow:visible;"/>
		</clipPath>
		<g id="XMLID_1314_" class="st55">
			<g id="XMLID_1315_">
				<g id="XMLID_1316_">
					<path class="st0" d="M136.1,160.8c27.6,0,49.9,22.4,49.9,49.9c0,27.6-22.4,49.9-49.9,49.9s-49.9-22.4-49.9-49.9
						C86.2,183.1,108.5,160.8,136.1,160.8z"/>
					<g id="XMLID_1317_">
						<path class="st0" d="M179.1,238c21.5,0,38.9,17.4,38.9,38.9c0,21.5-17.4,38.9-38.9,38.9c-21.5,0-38.9-17.4-38.9-38.9
							C140.2,255.4,157.7,238,179.1,238z"/>
						<path class="st0" d="M179.1,105.6c21.5,0,38.9,17.4,38.9,38.9c0,21.5-17.4,38.9-38.9,38.9c-21.5,0-38.9-17.4-38.9-38.9
							C140.2,123,157.7,105.6,179.1,105.6z"/>
					</g>
					<g id="XMLID_1318_">
						<path class="st0" d="M137.4,232.6c18.5,0,33.6,15,33.6,33.6c0,18.5-15,33.6-33.6,33.6c-18.5,0-33.6-15-33.6-33.6
							C103.9,247.7,118.9,232.6,137.4,232.6z"/>
						<path class="st0" d="M137.4,121.6c18.5,0,33.6,15,33.6,33.6c0,18.5-15,33.6-33.6,33.6c-18.5,0-33.6-15-33.6-33.6
							C103.9,136.6,118.9,121.6,137.4,121.6z"/>
					</g>
					<path class="st0" d="M165.3,172.3c21.4,0,38.7,17.3,38.7,38.7c0,21.4-17.3,38.7-38.7,38.7c-21.4,0-38.7-17.3-38.7-38.7
						C126.5,189.6,143.9,172.3,165.3,172.3z"/>
				</g>
				<g id="XMLID_1319_">
					<path class="st0" d="M376.6,260.6c-27.6,0-49.9-22.4-49.9-49.9s22.4-49.9,49.9-49.9s49.9,22.4,49.9,49.9
						S404.2,260.6,376.6,260.6z"/>
					<g id="XMLID_1320_">
						<path class="st0" d="M333.6,183.4c-21.5,0-38.9-17.4-38.9-38.9c0-21.5,17.4-38.9,38.9-38.9c21.5,0,38.9,17.4,38.9,38.9
							C372.5,166,355.1,183.4,333.6,183.4z"/>
						<path class="st0" d="M333.6,315.8c-21.5,0-38.9-17.4-38.9-38.9c0-21.5,17.4-38.9,38.9-38.9c21.5,0,38.9,17.4,38.9,38.9
							C372.5,298.4,355.1,315.8,333.6,315.8z"/>
					</g>
					<g id="XMLID_1321_">
						<path class="st0" d="M375.3,188.8c-18.5,0-33.6-15-33.6-33.6c0-18.5,15-33.6,33.6-33.6c18.5,0,33.6,15,33.6,33.6
							C408.8,173.7,393.8,188.8,375.3,188.8z"/>
						<path class="st0" d="M375.3,299.8c-18.5,0-33.6-15-33.6-33.6c0-18.5,15-33.6,33.6-33.6c18.5,0,33.6,15,33.6,33.6
							C408.8,284.8,393.8,299.8,375.3,299.8z"/>
					</g>
					<path class="st0" d="M347.5,249.1c-21.4,0-38.7-17.3-38.7-38.7c0-21.4,17.3-38.7,38.7-38.7c21.4,0,38.7,17.3,38.7,38.7
						C386.2,231.8,368.8,249.1,347.5,249.1z"/>
				</g>
			</g>
			<g id="XMLID_1322_">
				<path class="st0" d="M305.9,98.3c0,27.6-22.4,49.9-49.9,49.9s-49.9-22.4-49.9-49.9s22.4-49.9,49.9-49.9S305.9,70.7,305.9,98.3z"
					/>
				<g id="XMLID_1323_">
					<path class="st0" d="M228.7,141.3c0,21.5-17.4,38.9-38.9,38.9c-21.5,0-38.9-17.4-38.9-38.9c0-21.5,17.4-38.9,38.9-38.9
						C211.3,102.4,228.7,119.8,228.7,141.3z"/>
					<path class="st0" d="M361.1,141.3c0,21.5-17.4,38.9-38.9,38.9c-21.5,0-38.9-17.4-38.9-38.9c0-21.5,17.4-38.9,38.9-38.9
						C343.7,102.4,361.1,119.8,361.1,141.3z"/>
				</g>
				<g id="XMLID_1324_">
					<path class="st0" d="M234,99.6c0,18.5-15,33.6-33.6,33.6c-18.5,0-33.6-15-33.6-33.6c0-18.5,15-33.6,33.6-33.6
						C219,66.1,234,81.1,234,99.6z"/>
					<path class="st0" d="M345.1,99.6c0,18.5-15,33.6-33.6,33.6c-18.5,0-33.6-15-33.6-33.6c0-18.5,15-33.6,33.6-33.6
						C330,66.1,345.1,81.1,345.1,99.6z"/>
				</g>
				<path class="st0" d="M294.4,127.5c0,21.4-17.3,38.7-38.7,38.7c-21.4,0-38.7-17.3-38.7-38.7c0-21.4,17.3-38.7,38.7-38.7
					C277.1,88.7,294.4,106.1,294.4,127.5z"/>
			</g>
			<g id="XMLID_1325_">
				<polygon id="XMLID_1328_" class="st92" points="323.3,404.2 191,404.2 205,195.7 307.6,195.7 				"/>
				<g id="XMLID_1329_">
					<path class="st92" d="M483.6,545.9l-0.1-1c0.7-62.8-22.1-123.9-50.6-135.9l-121.7-50.7c-28.6-11.9-75.6-12.5-104.4-1.4
						L82.2,405c-28.9,11.2-53.1,71.7-53.8,134.5l-0.1,1L483.6,545.9z"/>
					<path id="XMLID_1333_" class="st11" d="M483.6,537.9c0-62.8-23.5-123.7-52.2-135.3l-92.3-37.2c0,0-17.6,63.7-83.1,63.7
						c-65.5,0-82.7-63.4-82.7-63.4l-92.7,37C51.9,414.3,28.4,475,28.4,537.9l-0.1,1h455.3L483.6,537.9z"/>
					<g id="XMLID_1334_">
						<path id="XMLID_1335_" class="st21" d="M173.5,360.7c-12.4,26.7-7.5,56.9,13.6,72.5c21,15.6,51.4,11.5,73.3-8.1
							c-15.9,1.7-36.1-4.4-54.2-17.8C188.2,393.9,176.5,376.4,173.5,360.7z"/>
						<path id="XMLID_1336_" class="st21" d="M340.7,360.7c12.4,26.7,7.5,56.9-13.6,72.5c-21,15.6-51.4,11.5-73.3-8.1
							c15.9,1.7,36.1-4.4,54.2-17.8C326.1,393.9,337.8,376.4,340.7,360.7z"/>
					</g>
				</g>
			</g>
			<g id="XMLID_1337_">
				<g id="XMLID_1338_">
					<path class="st93" d="M382.6,174.3l-78.9-22.2l1.7,32c6.1,8.1,15.8,15.9,28,21.5c24.8,11.4,50.1,9.4,56.5-4.5
						C393.5,193.4,390.4,183.5,382.6,174.3z"/>
					<polygon class="st94" points="301.9,187.1 301.6,151.3 382.7,174.3 					"/>
				</g>
				<g id="XMLID_1339_">
					<path class="st93" d="M129.7,174.3l78.9-22.2l-1.7,32c-6.1,8.1-15.8,15.9-28,21.5c-24.8,11.4-50.1,9.4-56.5-4.5
						C118.8,193.4,121.9,183.5,129.7,174.3z"/>
					<polygon class="st94" points="210.5,187.1 210.8,151.3 129.7,174.3 					"/>
				</g>
			</g>
			<g id="XMLID_1342_">
				<g id="XMLID_1345_">
					<path class="st95" d="M169.1,215.9c0-56.3,38.8-93.7,86.6-93.7c47.8,0,86.6,37.4,86.6,93.7c0,56.3-38.8,140.6-86.6,140.6
						C207.9,356.5,169.1,272.2,169.1,215.9z"/>
				</g>
				<g id="XMLID_1346_">
					<path id="XMLID_1348_" class="st32" d="M277.1,314.7c0,8.9-9.3,16.1-20.8,16.1c-11.5,0-20.8-7.2-20.8-16.1
						c0-8.9,9.3-16.1,20.8-16.1C267.8,298.6,277.1,305.8,277.1,314.7z"/>
					<path id="XMLID_1349_" class="st32" d="M287.5,330.9c0,11.5-14,20.8-31.2,20.8c-17.2,0-31.2-9.3-31.2-20.8
						c0-11.5,14-20.8,31.2-20.8C273.5,310.1,287.5,319.4,287.5,330.9z"/>
					<g id="XMLID_1350_">
						<path id="XMLID_1351_" class="st21" d="M277.9,308.3c-11.6,10.9-31.6,10.9-43.2,0c-8.2-7.7-20.6,4.6-12.4,12.4
							c18.7,17.6,49.3,17.6,67.9,0C298.5,313,286.1,300.6,277.9,308.3L277.9,308.3z"/>
					</g>
				</g>
				<g id="XMLID_1352_">
					<path id="XMLID_1355_" class="st96" d="M273.5,259.3c0,8.3-7.7,15-17.3,15l0,0c-9.5,0-17.3-6.7-17.3-15l-3.6-49.7
						c0-8.3,11.3-15,20.8-15l0,0c9.5,0,20.8,6.7,20.8,15L273.5,259.3z"/>
					<g id="XMLID_1356_">
						<g id="XMLID_1365_">
							<g>
								<g id="XMLID_140_">
									<g>
										<path id="XMLID_141_" class="st97" d="M251.2,282.8c0,3.9,0.9,9.2-1.1,12.7c-2.4,4.3-9.6,3-13.6,3c-5.9,0-5.9,9.1,0,9.1
											c7.2,0,14,0.6,19.6-5c5.3-5.3,4.3-13.1,4.3-19.9C260.3,276.9,251.2,276.9,251.2,282.8L251.2,282.8z"/>
									</g>
								</g>
								<g id="XMLID_138_">
									<g id="XMLID_139_">
										<path class="st97" d="M252.2,282.8c0,6.6-0.9,13.7,3.6,19.1c5.3,6.3,12.8,5.7,20.2,5.7c5.9,0,5.9-9.1,0-9.1
											c-4.4,0-9.8,1.1-13.1-2.3c-2.9-2.9-1.6-9.8-1.6-13.4C261.4,276.9,252.2,276.9,252.2,282.8L252.2,282.8z"/>
									</g>
								</g>
							</g>
						</g>
						<g id="XMLID_1375_">
							<g id="XMLID_1378_">
								<g>
									<g>
										<path class="st97" d="M261.4,289.6c0-3.9-0.9-9.2,1.1-12.7c2.4-4.3,9.6-3,13.6-3c5.9,0,5.9-9.1,0-9.1
											c-7.2,0-14-0.6-19.6,5c-5.3,5.3-4.3,13.1-4.3,19.9C252.2,295.5,261.4,295.5,261.4,289.6L261.4,289.6z"/>
									</g>
								</g>
							</g>
							<g id="XMLID_1380_">
								<path class="st97" d="M260.3,289.6c0-6.6,0.9-13.7-3.6-19.1c-5.3-6.3-12.8-5.7-20.2-5.7c-5.9,0-5.9,9.1,0,9.1
									c4.4,0,9.8-1.1,13.1,2.3c2.9,2.9,1.6,9.8,1.6,13.4C251.2,295.5,260.3,295.5,260.3,289.6L260.3,289.6z"/>
							</g>
						</g>
						<g id="XMLID_1382_">
							<path id="XMLID_1384_" class="st0" d="M245.3,268.5c1.6,5.9-0.3,11.2-4.2,11.8c-3.9,0.6-8.5-3.7-10.1-9.6
								c-1.6-5.9,0.3-11.2,4.2-11.8C239.2,258.3,243.7,262.6,245.3,268.5z"/>
							<path id="XMLID_1385_" class="st0" d="M267.3,268.5c-1.6,5.9,0.3,11.2,4.2,11.8c3.9,0.6,8.5-3.7,10.1-9.6
								c1.6-5.9-0.3-11.2-4.2-11.8C273.4,258.3,268.9,262.6,267.3,268.5z"/>
						</g>
					</g>
				</g>
				<g id="XMLID_1386_">
					<path id="XMLID_1387_" class="st0" d="M228.6,220.6c0,6.4-5.2,11.5-11.5,11.5c-6.4,0-11.5-5.2-11.5-11.5
						c0-6.4,5.2-11.5,11.5-11.5C223.4,209.1,228.6,214.3,228.6,220.6z"/>
					<path id="XMLID_1388_" class="st0" d="M305.9,220.6c0,6.4-5.2,11.5-11.5,11.5c-6.4,0-11.5-5.2-11.5-11.5
						c0-6.4,5.2-11.5,11.5-11.5C300.7,209.1,305.9,214.3,305.9,220.6z"/>
				</g>
			</g>
		</g>
	</g>
</g>
</svg>
