<?xml version="1.0" encoding="utf-8"?>
<!-- Generator: Adobe Illustrator 25.0.0, SVG Export Plug-In . SVG Version: 6.00 Build 0)  -->
<svg version="1.1" xmlns="http://www.w3.org/2000/svg" xmlns:xlink="http://www.w3.org/1999/xlink" x="0px" y="0px"
	 viewBox="0 0 512 512" style="enable-background:new 0 0 512 512;" xml:space="preserve">
<style type="text/css">
	.st0{fill:#3D2A3D;}
	.st1{fill:#D5872A;}
	.st2{fill:#C9E874;}
	.st3{fill:#277A6B;}
	.st4{fill:#FFDE69;}
	.st5{fill:#698250;}
	.st6{fill:#C8C947;}
	.st7{fill:#A6DEA9;}
	.st8{fill:#376C7E;}
	.st9{fill:#8BA83C;}
	.st10{fill:#2FABAF;}
	.st11{fill:#216964;}
	.st12{fill:#605560;}
	.st13{fill:#C45742;}
	.st14{fill:#79D7F2;}
	.st15{fill:#769938;}
	.st16{fill:#9EC853;}
	.st17{fill:#E7AD84;}
	.st18{fill:#76B079;}
	.st19{clip-path:url(#SVGID_2_);}
	.st20{fill:#594335;}
	.st21{fill:#F7F7F8;}
	.st22{fill:#7D5737;}
	.st23{fill:#D68F6A;}
	.st24{clip-path:url(#SVGID_4_);fill:#C45742;}
	.st25{clip-path:url(#SVGID_4_);fill:#E88D38;}
	.st26{clip-path:url(#SVGID_4_);}
	.st27{fill:#E1902B;}
	.st28{fill:#FFC671;}
	.st29{fill:#E1E1E1;}
	.st30{clip-path:url(#SVGID_6_);}
	.st31{fill:#D1741D;}
	.st32{fill:#C93A3A;}
	.st33{clip-path:url(#SVGID_8_);}
	.st34{fill:#919191;}
	.st35{fill:#CE722F;}
	.st36{fill:#C4C4C4;}
	.st37{clip-path:url(#SVGID_10_);}
	.st38{fill:#665348;}
	.st39{fill:#877365;}
	.st40{fill:#E3A584;}
	.st41{fill:#733D28;}
	.st42{clip-path:url(#SVGID_12_);}
	.st43{fill:#8C8C8C;}
	.st44{fill:#BFBFBF;}
	.st45{clip-path:url(#SVGID_14_);}
	.st46{clip-path:url(#SVGID_16_);}
	.st47{fill:#FFFFFF;}
	.st48{fill:#4A414A;}
	.st49{clip-path:url(#SVGID_18_);}
	.st50{fill:#BE7632;}
	.st51{clip-path:url(#SVGID_20_);}
	.st52{fill:#E3A445;}
	.st53{fill:#FFF0BA;}
	.st54{fill:#BF7128;}
	.st55{clip-path:url(#XMLID_82_);}
	.st56{fill:#AC6322;}
	.st57{clip-path:url(#SVGID_22_);}
	.st58{fill:#DBCCA6;}
	.st59{fill:#C2A579;}
	.st60{fill:#CFB582;}
	.st61{fill:#EBE2B2;}
	.st62{fill:#B8B399;}
	.st63{fill:#918E79;}
	.st64{fill:#665F52;}
	.st65{clip-path:url(#XMLID_83_);}
	.st66{fill:#BD4A4A;}
	.st67{fill:#D4811C;}
	.st68{fill:#CF6F15;}
	.st69{clip-path:url(#SVGID_24_);}
	.st70{fill:#FFF8E3;}
	.st71{fill:#7A6D7A;}
	.st72{fill:#2C1512;}
	.st73{fill:#D6CBA9;}
	.st74{clip-path:url(#XMLID_84_);}
	.st75{fill:#FFEA9E;}
	.st76{fill:#FFDBC5;}
	.st77{clip-path:url(#XMLID_85_);}
	.st78{fill:#B55716;}
	.st79{fill:#C47325;}
	.st80{clip-path:url(#XMLID_86_);}
	.st81{fill:#ADA798;}
	.st82{fill:#C4BDAC;}
	.st83{fill:#8F8266;}
	.st84{fill:#D6CEBC;}
	.st85{fill:#FFFAE6;}
	.st86{fill:#595140;}
	.st87{clip-path:url(#XMLID_88_);}
	.st88{fill:#B84028;}
	.st89{fill:#E6B75A;}
	.st90{fill:#DB614A;}
	.st91{clip-path:url(#XMLID_92_);}
	.st92{fill:#615661;}
	.st93{fill:#635963;}
	.st94{fill:#4F414F;}
	.st95{fill:#7D6F7D;}
	.st96{fill:#B5A0B5;}
	.st97{fill:#574D57;}
	.st98{clip-path:url(#XMLID_95_);}
	.st99{fill:#C2C2C2;}
	.st100{fill:#9E9E9E;}
	.st101{fill:#949494;}
	.st102{fill:#E8E8E8;}
	.st103{fill:#A1A1A1;}
	.st104{fill:#D66270;}
	.st105{clip-path:url(#XMLID_99_);}
	.st106{fill:#CFCFCF;}
	.st107{fill:#BDA18D;}
	.st108{fill:#82A385;}
	.st109{clip-path:url(#XMLID_100_);}
	.st110{fill:#D1986E;}
	.st111{fill:#C2733E;}
	.st112{fill:#E6AC83;}
	.st113{fill:#C28155;}
	.st114{fill:#6E482E;}
	.st115{fill:#594435;}
	.st116{clip-path:url(#XMLID_102_);}
	.st117{fill:#6B5545;}
	.st118{fill:#261526;}
	.st119{fill:#9E8776;}
	.st120{fill:#807180;}
	.st121{fill:#A693A6;}
	.st122{fill:#614C61;}
	.st123{clip-path:url(#XMLID_107_);}
	.st124{fill:#D9D9D9;}
	.st125{clip-path:url(#XMLID_110_);}
	.st126{fill:#4D404D;}
	.st127{clip-path:url(#XMLID_110_);fill:#4D404D;}
	.st128{clip-path:url(#XMLID_111_);}
	.st129{clip-path:url(#XMLID_120_);}
	.st130{fill:#FFC682;}
	.st131{clip-path:url(#XMLID_121_);}
	.st132{fill:#753427;}
	.st133{clip-path:url(#XMLID_121_);fill:#753427;}
	.st134{clip-path:url(#SVGID_26_);}
	.st135{fill:#694334;}
	.st136{fill:#FF826E;}
	.st137{fill:#875F44;}
	.st138{fill:#4F3327;}
	.st139{fill:#D68256;}
	.st140{clip-path:url(#SVGID_28_);}
	.st141{fill:#6E6E6E;}
	.st142{fill:#B8B8B8;}
	.st143{clip-path:url(#SVGID_28_);fill:#B8B8B8;}
	.st144{clip-path:url(#SVGID_30_);}
	.st145{clip-path:url(#SVGID_32_);}
	.st146{fill:#D16658;}
	.st147{fill:#E6786A;}
	.st148{fill:#F79E92;}
	.st149{clip-path:url(#SVGID_34_);}
	.st150{fill:#E6CA56;}
	.st151{fill:#F2EBCB;}
	.st152{fill:#F08C7F;}
	.st153{clip-path:url(#SVGID_36_);}
	.st154{fill:#9E6842;}
	.st155{fill:#BA835E;}
	.st156{fill:#8C5937;}
	.st157{fill:#E3AD88;}
	.st158{fill:#A86B42;}
	.st159{clip-path:url(#SVGID_38_);}
	.st160{fill:#877987;}
	.st161{fill:#C7BCB2;}
	.st162{clip-path:url(#SVGID_40_);}
	.st163{fill:#6E4D37;}
	.st164{fill:#A8562A;}
	.st165{clip-path:url(#SVGID_42_);}
	.st166{fill:#A37352;}
	.st167{clip-path:url(#SVGID_44_);}
	.st168{fill:#8A8A8A;}
	.st169{fill:#F0F0F0;}
	.st170{clip-path:url(#XMLID_126_);}
	.st171{clip-path:url(#SVGID_46_);fill:none;}
	.st172{clip-path:url(#SVGID_46_);}
	.st173{fill:#78553C;}
	.st174{fill:#F29C5E;}
	.st175{fill:#D4D4D4;}
	.st176{clip-path:url(#SVGID_48_);}
	.st177{fill:#DB959A;}
	.st178{clip-path:url(#SVGID_50_);}
	.st179{fill:#A1341E;}
	.st180{fill:#EB9F2E;}
	.st181{clip-path:url(#SVGID_52_);}
	.st182{clip-path:url(#SVGID_54_);}
	.st183{fill:#855433;}
	.st184{fill:#AD6D42;}
	.st185{clip-path:url(#SVGID_56_);}
	.st186{fill:#D5A060;}
	.st187{clip-path:url(#SVGID_58_);}
	.st188{fill:#4A3C4A;}
	.st189{fill:#524352;}
	.st190{clip-path:url(#SVGID_60_);}
	.st191{fill:#524252;}
	.st192{clip-path:url(#SVGID_62_);fill:#C7781C;}
	.st193{clip-path:url(#SVGID_62_);}
	.st194{fill:#DEDEDE;}
	.st195{fill:#C7781C;}
	.st196{clip-path:url(#SVGID_62_);fill:#D5872A;}
	.st197{clip-path:url(#SVGID_62_);fill:#877365;}
	.st198{clip-path:url(#SVGID_62_);fill:#E3AD88;}
	.st199{clip-path:url(#SVGID_62_);fill:#F7F7F8;}
	.st200{clip-path:url(#SVGID_64_);}
	.st201{fill:#A63A25;}
	.st202{clip-path:url(#SVGID_66_);}
	.st203{clip-path:url(#SVGID_68_);}
	.st204{fill:#CF97A1;}
	.st205{fill:#CF7686;}
	.st206{clip-path:url(#SVGID_70_);}
	.st207{fill:#4F464F;}
	.st208{fill:#9C8A9C;}
	.st209{clip-path:url(#SVGID_72_);}
</style>
<g id="ICON">
	<path id="XMLID_230_" class="st17" d="M512,256c0,141.4-114.6,256-256,256C114.6,512,0,397.4,0,256C0,114.6,114.6,0,256,0
		C397.4,0,512,114.6,512,256z"/>
</g>
<g id="Layer_7">
	<g id="XMLID_1499_">
		<g id="XMLID_1558_">
			<defs>
				<path id="XMLID_1590_" d="M512,256c0,141.4-114.6,256-256,256C114.6,512,0,397.4,0,256C0,114.6,114.6,0,256,0
					C397.4,0,512,114.6,512,256z"/>
			</defs>
			<clipPath id="XMLID_82_">
				<use xlink:href="#XMLID_1590_"  style="overflow:visible;"/>
			</clipPath>
			<g id="XMLID_1559_" class="st55">
				<path id="XMLID_1560_" class="st126" d="M487,564.4l-0.1-1c0-63.7-23.9-125.5-53-137.2l-124.1-50c-29.1-11.7-76.8-11.8-106-0.1
					L78.1,426.3c-29.2,11.7-53,73.4-53,137.1l-0.1,1H487z"/>
				<path id="XMLID_1561_" class="st1" d="M487,563.3c0-63.7-23.9-125.5-53-137.2l-93.6-37.7c0,0-17.9,64.6-84.3,64.6
					c-66.5,0-83.9-64.3-83.9-64.3l-94,37.6c-29.2,11.7-53,73.4-53,137.1l-0.1,1H487L487,563.3z"/>
				<g id="XMLID_1562_">
					<path id="XMLID_1563_" class="st21" d="M171.2,383.9c-12.6,27.1-7.6,57.8,13.8,73.6c21.4,15.8,52.2,11.7,74.4-8.2
						c-16.1,1.8-36.6-4.4-55-18.1C186,417.6,174.2,399.8,171.2,383.9z"/>
					<path id="XMLID_1564_" class="st21" d="M340.8,383.9c12.6,27.1,7.6,57.8-13.8,73.6c-21.4,15.8-52.2,11.7-74.4-8.2
						c16.1,1.8,36.6-4.4,55-18.1C326,417.6,337.8,399.8,340.8,383.9z"/>
				</g>
			</g>
			<rect id="XMLID_1565_" x="186.4" y="276.6" style="clip-path:url(#XMLID_82_);fill:#4D404D;" width="139.2" height="126.3"/>
			<g id="XMLID_1566_" class="st55">
				<g id="XMLID_1567_">
					<g id="XMLID_1568_">
						<path class="st12" d="M374.4,207.2c0,62.3-53,107.8-118.4,107.8c-65.4,0-118.5-45.6-118.5-107.8c0-62.2,53-155.4,118.5-155.4
							C321.4,51.8,374.4,145,374.4,207.2z"/>
					</g>
				</g>
				<path id="XMLID_1569_" class="st12" d="M371.7,294.9c0,38.6-31.3,70-70,70h-91.6c-38.6,0-70-31.3-70-70v-86.5
					c0-38.6,31.3-70,70-70h91.6c38.6,0,70,31.3,70,70V294.9z"/>
				<path id="XMLID_1570_" class="st120" d="M354.7,185.9c-3.7-21-23.7-35.1-44.7-31.4l-54,9.4l-54-9.4c-21-3.7-41,10.4-44.7,31.4
					c-3.7,21,10.4,41,31.4,44.7l54.7,9.5h25.2l54.7-9.5C344.2,227,358.3,206.9,354.7,185.9z"/>
				<g id="XMLID_1571_">
					<path id="XMLID_1572_" class="st0" d="M219.4,197.5c0,7.6-6.3,13.8-14.1,13.8c-7.8,0-14.1-6.2-14.1-13.8
						c0-7.6,6.3-13.7,14.1-13.7C213.1,183.7,219.4,189.9,219.4,197.5z"/>
					<path id="XMLID_1573_" class="st0" d="M320.8,197.5c0,7.6-6.3,13.8-14.1,13.8c-7.8,0-14.1-6.2-14.1-13.8
						c0-7.6,6.3-13.7,14.1-13.7C314.5,183.7,320.8,189.9,320.8,197.5z"/>
				</g>
				<g id="XMLID_1574_">
					<path id="XMLID_1575_" class="st121" d="M257.5,239.6c0,12.4-10,22.4-22.4,22.4h-4.6c-12.4,0-22.4-10-22.4-22.4l0,0
						c0-12.4,10-22.4,22.4-22.4h4.6C247.5,217.2,257.5,227.2,257.5,239.6L257.5,239.6z"/>
					<path id="XMLID_1576_" class="st121" d="M303.8,239.6c0,12.4-10,22.4-22.4,22.4h-4.6c-12.4,0-22.4-10-22.4-22.4l0,0
						c0-12.4,10-22.4,22.4-22.4h4.6C293.8,217.2,303.8,227.2,303.8,239.6L303.8,239.6z"/>
				</g>
				<path id="XMLID_1577_" class="st12" d="M331.1,145.6c0,17.1-33.7,31-75.2,31c-41.5,0-75.2-13.9-75.2-31c0-17.1,33.7-31,75.2-31
					C297.5,114.5,331.1,128.4,331.1,145.6z"/>
				<g id="XMLID_1578_">
					<g id="XMLID_1579_">
						<path class="st121" d="M182.9,263.6c0-29.9,32.7-25.4,73.1-25.4c40.4,0,73.2-4.5,73.2,25.4c0,29.9-32.8,74.6-73.2,74.6
							C215.6,338.2,182.9,293.5,182.9,263.6z"/>
					</g>
				</g>
				<g id="XMLID_1580_">
					<path class="st122" d="M242.1,250.3c2.9-0.7,5.4-2.9,6.4-5.9c1.5-4.7-1-9.8-5.8-11.3l-16.4-5.3c-3.1-1-6.4-0.2-8.7,1.8
						C225.6,236.6,234,243.2,242.1,250.3z"/>
					<path class="st122" d="M269.8,250.3c-2.9-0.7-5.4-2.9-6.4-5.9c-1.5-4.7,1-9.8,5.8-11.3l16.4-5.3c3.1-1,6.4-0.2,8.7,1.8
						C286.2,236.6,277.8,243.2,269.8,250.3z"/>
				</g>
				<g id="XMLID_1581_">
					<path id="XMLID_1584_" class="st13" d="M282.5,277.7c0,11.4-11.9,20.6-26.6,20.6c-14.7,0-26.6-9.2-26.6-20.6
						c0-11.4,11.9-20.6,26.6-20.6C270.6,257.1,282.5,266.3,282.5,277.7z"/>
					<path id="XMLID_1587_" class="st13" d="M295.8,298.3c0,14.7-17.9,26.6-39.9,26.6c-22,0-39.9-11.9-39.9-26.6
						s17.9-26.6,39.9-26.6C278,271.7,295.8,283.6,295.8,298.3z"/>
					<g id="XMLID_1588_">
						<path id="XMLID_1589_" class="st21" d="M283.6,269.5c-14.9,14-40.4,14-55.2,0c-10.5-9.9-26.3,5.9-15.8,15.8
							c23.9,22.5,63,22.5,86.8,0C309.9,275.4,294,259.7,283.6,269.5L283.6,269.5z"/>
					</g>
				</g>
			</g>
		</g>
	</g>
</g>
</svg>
