<?xml version="1.0" encoding="utf-8"?>
<!-- Generator: Adobe Illustrator 25.0.0, SVG Export Plug-In . SVG Version: 6.00 Build 0)  -->
<svg version="1.1" xmlns="http://www.w3.org/2000/svg" xmlns:xlink="http://www.w3.org/1999/xlink" x="0px" y="0px"
	 viewBox="0 0 512 512" style="enable-background:new 0 0 512 512;" xml:space="preserve">
<style type="text/css">
	.st0{fill:#3D2A3D;}
	.st1{fill:#D5872A;}
	.st2{fill:#C9E874;}
	.st3{fill:#277A6B;}
	.st4{fill:#FFDE69;}
	.st5{fill:#698250;}
	.st6{fill:#C8C947;}
	.st7{fill:#A6DEA9;}
	.st8{fill:#376C7E;}
	.st9{fill:#8BA83C;}
	.st10{fill:#2FABAF;}
	.st11{fill:#216964;}
	.st12{fill:#605560;}
	.st13{fill:#C45742;}
	.st14{fill:#79D7F2;}
	.st15{fill:#769938;}
	.st16{fill:#9EC853;}
	.st17{fill:#E7AD84;}
	.st18{fill:#76B079;}
	.st19{clip-path:url(#SVGID_2_);}
	.st20{fill:#594335;}
	.st21{fill:#F7F7F8;}
	.st22{fill:#7D5737;}
	.st23{fill:#D68F6A;}
	.st24{clip-path:url(#SVGID_4_);fill:#C45742;}
	.st25{clip-path:url(#SVGID_4_);fill:#E88D38;}
	.st26{clip-path:url(#SVGID_4_);}
	.st27{fill:#E1902B;}
	.st28{fill:#FFC671;}
	.st29{fill:#E1E1E1;}
	.st30{clip-path:url(#SVGID_6_);}
	.st31{fill:#D1741D;}
	.st32{fill:#C93A3A;}
	.st33{clip-path:url(#SVGID_8_);}
	.st34{fill:#919191;}
	.st35{fill:#CE722F;}
	.st36{fill:#C4C4C4;}
	.st37{clip-path:url(#SVGID_10_);}
	.st38{fill:#665348;}
	.st39{fill:#877365;}
	.st40{fill:#E3A584;}
	.st41{fill:#733D28;}
	.st42{clip-path:url(#SVGID_12_);}
	.st43{fill:#8C8C8C;}
	.st44{fill:#BFBFBF;}
	.st45{clip-path:url(#SVGID_14_);}
	.st46{clip-path:url(#SVGID_16_);}
	.st47{fill:#FFFFFF;}
	.st48{fill:#4A414A;}
	.st49{clip-path:url(#SVGID_18_);}
	.st50{fill:#BE7632;}
	.st51{clip-path:url(#SVGID_20_);}
	.st52{fill:#E3A445;}
	.st53{fill:#FFF0BA;}
	.st54{fill:#BF7128;}
	.st55{clip-path:url(#XMLID_82_);}
	.st56{fill:#AC6322;}
	.st57{clip-path:url(#SVGID_22_);}
	.st58{fill:#DBCCA6;}
	.st59{fill:#C2A579;}
	.st60{fill:#CFB582;}
	.st61{fill:#EBE2B2;}
	.st62{fill:#B8B399;}
	.st63{fill:#918E79;}
	.st64{fill:#665F52;}
	.st65{clip-path:url(#XMLID_83_);}
	.st66{fill:#BD4A4A;}
	.st67{fill:#D4811C;}
	.st68{fill:#CF6F15;}
	.st69{clip-path:url(#SVGID_24_);}
	.st70{fill:#FFF8E3;}
	.st71{fill:#7A6D7A;}
	.st72{fill:#2C1512;}
	.st73{fill:#D6CBA9;}
	.st74{clip-path:url(#XMLID_84_);}
	.st75{fill:#FFEA9E;}
	.st76{fill:#FFDBC5;}
	.st77{clip-path:url(#XMLID_85_);}
	.st78{fill:#B55716;}
	.st79{fill:#C47325;}
	.st80{clip-path:url(#XMLID_86_);}
	.st81{fill:#ADA798;}
	.st82{fill:#C4BDAC;}
	.st83{fill:#8F8266;}
	.st84{fill:#D6CEBC;}
	.st85{fill:#FFFAE6;}
	.st86{fill:#595140;}
	.st87{clip-path:url(#XMLID_88_);}
	.st88{fill:#B84028;}
	.st89{fill:#E6B75A;}
	.st90{fill:#DB614A;}
	.st91{clip-path:url(#XMLID_92_);}
	.st92{fill:#615661;}
	.st93{fill:#635963;}
	.st94{fill:#4F414F;}
	.st95{fill:#7D6F7D;}
	.st96{fill:#B5A0B5;}
	.st97{fill:#574D57;}
	.st98{clip-path:url(#XMLID_95_);}
	.st99{fill:#C2C2C2;}
	.st100{fill:#9E9E9E;}
	.st101{fill:#949494;}
	.st102{fill:#E8E8E8;}
	.st103{fill:#A1A1A1;}
	.st104{fill:#D66270;}
	.st105{clip-path:url(#XMLID_99_);}
	.st106{fill:#CFCFCF;}
	.st107{fill:#BDA18D;}
	.st108{fill:#82A385;}
	.st109{clip-path:url(#XMLID_100_);}
	.st110{fill:#D1986E;}
	.st111{fill:#C2733E;}
	.st112{fill:#E6AC83;}
	.st113{fill:#C28155;}
	.st114{fill:#6E482E;}
	.st115{fill:#594435;}
	.st116{clip-path:url(#XMLID_102_);}
	.st117{fill:#6B5545;}
	.st118{fill:#261526;}
	.st119{fill:#9E8776;}
	.st120{fill:#807180;}
	.st121{fill:#A693A6;}
	.st122{fill:#614C61;}
	.st123{clip-path:url(#XMLID_107_);}
	.st124{fill:#D9D9D9;}
	.st125{clip-path:url(#XMLID_110_);}
	.st126{fill:#4D404D;}
	.st127{clip-path:url(#XMLID_110_);fill:#4D404D;}
	.st128{clip-path:url(#XMLID_111_);}
	.st129{clip-path:url(#XMLID_120_);}
	.st130{fill:#FFC682;}
	.st131{clip-path:url(#XMLID_121_);}
	.st132{fill:#753427;}
	.st133{clip-path:url(#XMLID_121_);fill:#753427;}
	.st134{clip-path:url(#SVGID_26_);}
	.st135{fill:#694334;}
	.st136{fill:#FF826E;}
	.st137{fill:#875F44;}
	.st138{fill:#4F3327;}
	.st139{fill:#D68256;}
	.st140{clip-path:url(#SVGID_28_);}
	.st141{fill:#6E6E6E;}
	.st142{fill:#B8B8B8;}
	.st143{clip-path:url(#SVGID_28_);fill:#B8B8B8;}
	.st144{clip-path:url(#SVGID_30_);}
	.st145{clip-path:url(#SVGID_32_);}
	.st146{fill:#D16658;}
	.st147{fill:#E6786A;}
	.st148{fill:#F79E92;}
	.st149{clip-path:url(#SVGID_34_);}
	.st150{fill:#E6CA56;}
	.st151{fill:#F2EBCB;}
	.st152{fill:#F08C7F;}
	.st153{clip-path:url(#SVGID_36_);}
	.st154{fill:#9E6842;}
	.st155{fill:#BA835E;}
	.st156{fill:#8C5937;}
	.st157{fill:#E3AD88;}
	.st158{fill:#A86B42;}
	.st159{clip-path:url(#SVGID_38_);}
	.st160{fill:#877987;}
	.st161{fill:#C7BCB2;}
	.st162{clip-path:url(#SVGID_40_);}
	.st163{fill:#6E4D37;}
	.st164{fill:#A8562A;}
	.st165{clip-path:url(#SVGID_42_);}
	.st166{fill:#A37352;}
	.st167{clip-path:url(#SVGID_44_);}
	.st168{fill:#8A8A8A;}
	.st169{fill:#F0F0F0;}
	.st170{clip-path:url(#XMLID_126_);}
	.st171{clip-path:url(#SVGID_46_);fill:none;}
	.st172{clip-path:url(#SVGID_46_);}
	.st173{fill:#78553C;}
	.st174{fill:#F29C5E;}
	.st175{fill:#D4D4D4;}
	.st176{clip-path:url(#SVGID_48_);}
	.st177{fill:#DB959A;}
	.st178{clip-path:url(#SVGID_50_);}
	.st179{fill:#A1341E;}
	.st180{fill:#EB9F2E;}
	.st181{clip-path:url(#SVGID_52_);}
	.st182{clip-path:url(#SVGID_54_);}
	.st183{fill:#855433;}
	.st184{fill:#AD6D42;}
	.st185{clip-path:url(#SVGID_56_);}
	.st186{fill:#D5A060;}
	.st187{clip-path:url(#SVGID_58_);}
	.st188{fill:#4A3C4A;}
	.st189{fill:#524352;}
	.st190{clip-path:url(#SVGID_60_);}
	.st191{fill:#524252;}
	.st192{clip-path:url(#SVGID_62_);fill:#C7781C;}
	.st193{clip-path:url(#SVGID_62_);}
	.st194{fill:#DEDEDE;}
	.st195{fill:#C7781C;}
	.st196{clip-path:url(#SVGID_62_);fill:#D5872A;}
	.st197{clip-path:url(#SVGID_62_);fill:#877365;}
	.st198{clip-path:url(#SVGID_62_);fill:#E3AD88;}
	.st199{clip-path:url(#SVGID_62_);fill:#F7F7F8;}
	.st200{clip-path:url(#SVGID_64_);}
	.st201{fill:#A63A25;}
	.st202{clip-path:url(#SVGID_66_);}
	.st203{clip-path:url(#SVGID_68_);}
	.st204{fill:#CF97A1;}
	.st205{fill:#CF7686;}
	.st206{clip-path:url(#SVGID_70_);}
	.st207{fill:#4F464F;}
	.st208{fill:#9C8A9C;}
	.st209{clip-path:url(#SVGID_72_);}
</style>
<g id="ICON">
	<path id="XMLID_3317_" class="st7" d="M0,256C0,114.6,114.6,0,256,0c141.4,0,256,114.6,256,256S397.4,512,256,512
		C114.6,512,0,397.4,0,256z"/>
</g>
<g id="Layer_7">
	<g id="XMLID_2398_">
		<defs>
			<path id="SVGID_65_" d="M0,256C0,114.6,114.6,0,256,0c141.4,0,256,114.6,256,256c0,141.4-114.6,256-256,256
				C114.6,512,0,397.4,0,256z"/>
		</defs>
		<clipPath id="SVGID_2_">
			<use xlink:href="#SVGID_65_"  style="overflow:visible;"/>
		</clipPath>
		<g id="XMLID_2399_" class="st19">
			<path id="XMLID_2400_" class="st0" d="M457.1,539.2l-0.1-0.9c0-56.8-20.8-111.8-46.1-122.3l-108-44.5
				c-25.4-10.5-66.9-10.5-92.3-0.1l-109.6,44.8c-25.4,10.4-46.2,65.4-46.2,122.2l-0.1,0.9H457.1z"/>
			<path id="XMLID_2401_" class="st12" d="M327.2,388.3c0,29-34.8,52.5-67.7,52.5h-7.2c-32.9,0-67.5-23.5-67.5-52.5l8-135.2
				c0-29,26.7-52.5,59.5-52.5h7.2c32.9,0,59.5,23.5,59.5,52.5L327.2,388.3z"/>
			<path id="XMLID_2402_" class="st95" d="M299.7,303.9c0-25.5-18.5-46.1-41.2-46.1h-5c-22.8,0-41.2,20.6-41.2,46.1l-5.5,118.8
				c0,1.1,0.1,2.3,0.2,3.4c12.7,9.2,29.3,14.9,45.5,14.9h7.2c16.2,0,32.9-5.7,45.6-15c0.1-1.1,0.2-2.2,0.2-3.3L299.7,303.9z"/>
			<g id="XMLID_2403_">
				<g id="XMLID_2404_">
					<g id="XMLID_2405_">
						<path class="st12" d="M306.8,112.3c-20,9.9-21.2,28.1-2.7,40.6l41.7,28.1c18.4,12.5,34.9,4.5,36.6-17.7l4-51.5
							c1.7-22.2-13.2-32.3-33.2-22.4L306.8,112.3z"/>
						<path class="st0" d="M316.4,120.1c-13.2,6.5-14,18.6-1.8,26.8l27.5,18.6c12.2,8.2,23.1,3,24.2-11.7l2.6-34
							c1.1-14.6-8.7-21.3-21.9-14.8L316.4,120.1z"/>
					</g>
					<g id="XMLID_2406_">
						<path class="st12" d="M204.9,112.3c20,9.9,21.2,28.1,2.7,40.6L166,181.1c-18.4,12.5-34.9,4.5-36.6-17.7l-4-51.5
							c-1.7-22.2,13.2-32.3,33.2-22.4L204.9,112.3z"/>
						<path class="st0" d="M195.2,120.1c13.2,6.5,14,18.6,1.8,26.8l-27.5,18.6c-12.2,8.2-23.1,3-24.2-11.7l-2.6-34
							c-1.1-14.6,8.7-21.3,21.9-14.8L195.2,120.1z"/>
					</g>
				</g>
				<g id="XMLID_2407_">
					<path id="XMLID_2408_" class="st95" d="M223.5,119.9c-26.7,0-55.8,13.8-64.6,30.5l-57.8,92.2c-8.8,16.7,5.9,30.8,32.6,30.8
						h244.8c26.7,0,41.4-14.1,32.6-30.8l-57.8-92.1c-8.8-16.7-37.8-30.7-64.6-30.7H223.5z"/>
					<path id="XMLID_2409_" class="st95" d="M332.1,337.1c-42.1,39.3-111.1,39.3-153.3,0l-60-46.7c-42.1-39.3-15.8-71.5,46.5-71.5
						h180.2c62.3,0,88.7,32.2,46.5,71.5L332.1,337.1z"/>
				</g>
				<path id="XMLID_2410_" class="st21" d="M339.5,196c-20.6-22.7-55.8-24.3-78.4-3.7c-1.9,1.7-3.7,3.6-5.3,5.5
					c-1.6-1.9-3.4-3.8-5.3-5.5c-22.7-20.6-57.8-19-78.5,3.7l-51.3,45.8c-8.3,9.2-13,20.4-14.2,31.8c3.7,5.9,9.1,12.1,16,18.6
					l55.2,42.1c12.9-1.5,25.3-7.4,34.7-17.8l41.6-45.8c0.5-0.6,1.1-1.2,1.6-1.8c0.5,0.6,1,1.2,1.6,1.8l41.6,45.8
					c9.6,10.6,22.4,16.6,35.6,17.9l55.4-42.2c6.4-5.9,11.4-11.7,15.1-17.2c-0.9-11.9-5.6-23.7-14.3-33.2L339.5,196z"/>
				<path id="XMLID_2411_" class="st12" d="M103.8,270c3.7,7.1,9.8,14.7,18.4,22.6l58.7,45.3c41.2,38.1,108.7,38.1,150,0l58.7-45.3
					c8.6-7.9,14.6-15.5,18.4-22.6H103.8z"/>
				<path id="XMLID_2412_" class="st95" d="M272,243.2c0,10.4-5.8,18.8-16.2,18.8l0,0c-10.4,0-16.2-8.4-16.2-18.8l-2.6-65.5
					c0-10.4,8.4-18.8,18.8-18.8l0,0c10.4,0,18.8,8.4,18.8,18.8L272,243.2z"/>
				<g id="XMLID_2413_">
					<path id="XMLID_2414_" class="st12" d="M227.3,221c-10.2-14-29.8-17.1-43.8-6.8l-81.3,52.3c3.4,8.1,10,17,20.1,26.2l31.9,20.6
						l66.3-48.5C234.4,254.6,237.5,235,227.3,221z"/>
					<path id="XMLID_2415_" class="st12" d="M409.5,266.7l-81.7-52.6c-14-10.2-33.6-7.2-43.8,6.8s-7.2,33.6,6.8,43.8l66.6,48.6
						l32.1-20.7C399.5,283.5,406.1,274.8,409.5,266.7z"/>
				</g>
				<g id="XMLID_2416_">
					<path id="XMLID_2417_" class="st0" d="M223.5,240.3c0,6.7-5.4,12.1-12.1,12.1c-6.7,0-12.1-5.4-12.1-12.1
						c0-6.7,5.4-12.1,12.1-12.1C218.1,228.2,223.5,233.6,223.5,240.3z"/>
					<path id="XMLID_2418_" class="st0" d="M312.3,240.3c0,6.7-5.4,12.1-12.1,12.1c-6.7,0-12.1-5.4-12.1-12.1
						c0-6.7,5.4-12.1,12.1-12.1C306.9,228.2,312.3,233.6,312.3,240.3z"/>
				</g>
				<g id="XMLID_2419_">
					<g id="XMLID_2420_">
						<path id="XMLID_2421_" class="st21" d="M316.6,302.1c0,17.8-14.5,32.3-32.3,32.3h-57c-17.8,0-32.3-14.5-32.3-32.3l0,0
							c0-17.8,14.4-32.3,32.3-32.3h57C302.1,269.8,316.6,284.3,316.6,302.1L316.6,302.1z"/>
						<path id="XMLID_2422_" class="st21" d="M298.2,273.6c0,18.9-19,34.2-42.4,34.2c-23.4,0-42.4-15.3-42.4-34.2
							c0-18.9,19-34.2,42.4-34.2C279.2,239.5,298.2,254.8,298.2,273.6z"/>
					</g>
					<g id="XMLID_2423_">
						<g id="XMLID_2424_">
							<g id="XMLID_2425_">
								<g id="XMLID_2426_">
									<path id="XMLID_2427_" class="st0" d="M283.1,261.6c0,7.5-26.5,21.9-26.5,21.9s-26.5-14.4-26.5-21.9
										c0-7.5,11.9-9.3,26.5-9.3C271.3,252.3,283.1,254.1,283.1,261.6z"/>
									<path id="XMLID_2428_" class="st0" d="M263.5,309.4c0,3.5-2.8,6.3-6.3,6.3l0,0c-3.5,0-6.3-2.8-6.3-6.3v-33.3
										c0-3.5,2.8-6.3,6.3-6.3l0,0c3.5,0,6.3,2.8,6.3,6.3V309.4z"/>
								</g>
							</g>
						</g>
						<g id="XMLID_2429_">
							<path id="XMLID_2430_" class="st0" d="M277.8,298.2c-0.3,11.8-9.4,20.9-21.2,21.2c-11.8,0.3-20.9-9.8-21.2-21.2
								c-0.2-7.3-11.5-7.3-11.4,0c0.4,18,14.5,32.1,32.6,32.6c18,0.4,32.2-15.2,32.6-32.6C289.3,290.8,278,290.9,277.8,298.2
								L277.8,298.2z"/>
						</g>
					</g>
				</g>
			</g>
		</g>
	</g>
</g>
</svg>
