<?xml version="1.0" encoding="utf-8"?>
<!-- Generator: Adobe Illustrator 25.0.0, SVG Export Plug-In . SVG Version: 6.00 Build 0)  -->
<svg version="1.1" xmlns="http://www.w3.org/2000/svg" xmlns:xlink="http://www.w3.org/1999/xlink" x="0px" y="0px"
	 viewBox="0 0 512 512" style="enable-background:new 0 0 512 512;" xml:space="preserve">
<style type="text/css">
	.st0{fill:#3D2A3D;}
	.st1{fill:#D5872A;}
	.st2{fill:#C9E874;}
	.st3{fill:#277A6B;}
	.st4{fill:#FFDE69;}
	.st5{fill:#698250;}
	.st6{fill:#C8C947;}
	.st7{fill:#A6DEA9;}
	.st8{fill:#376C7E;}
	.st9{fill:#8BA83C;}
	.st10{fill:#2FABAF;}
	.st11{fill:#216964;}
	.st12{fill:#605560;}
	.st13{fill:#C45742;}
	.st14{fill:#79D7F2;}
	.st15{fill:#769938;}
	.st16{fill:#9EC853;}
	.st17{fill:#E7AD84;}
	.st18{fill:#76B079;}
	.st19{clip-path:url(#SVGID_2_);}
	.st20{fill:#594335;}
	.st21{fill:#F7F7F8;}
	.st22{fill:#7D5737;}
	.st23{fill:#D68F6A;}
	.st24{clip-path:url(#SVGID_4_);fill:#C45742;}
	.st25{clip-path:url(#SVGID_4_);fill:#E88D38;}
	.st26{clip-path:url(#SVGID_4_);}
	.st27{fill:#E1902B;}
	.st28{fill:#FFC671;}
	.st29{fill:#E1E1E1;}
	.st30{clip-path:url(#SVGID_6_);}
	.st31{fill:#D1741D;}
	.st32{fill:#C93A3A;}
	.st33{clip-path:url(#SVGID_8_);}
	.st34{fill:#919191;}
	.st35{fill:#CE722F;}
	.st36{fill:#C4C4C4;}
	.st37{clip-path:url(#SVGID_10_);}
	.st38{fill:#665348;}
	.st39{fill:#877365;}
	.st40{fill:#E3A584;}
	.st41{fill:#733D28;}
	.st42{clip-path:url(#SVGID_12_);}
	.st43{fill:#8C8C8C;}
	.st44{fill:#BFBFBF;}
	.st45{clip-path:url(#SVGID_14_);}
	.st46{clip-path:url(#SVGID_16_);}
	.st47{fill:#FFFFFF;}
	.st48{fill:#4A414A;}
	.st49{clip-path:url(#SVGID_18_);}
	.st50{fill:#BE7632;}
	.st51{clip-path:url(#SVGID_20_);}
	.st52{fill:#E3A445;}
	.st53{fill:#FFF0BA;}
	.st54{fill:#BF7128;}
	.st55{clip-path:url(#XMLID_82_);}
	.st56{fill:#AC6322;}
	.st57{clip-path:url(#SVGID_22_);}
	.st58{fill:#DBCCA6;}
	.st59{fill:#C2A579;}
	.st60{fill:#CFB582;}
	.st61{fill:#EBE2B2;}
	.st62{fill:#B8B399;}
	.st63{fill:#918E79;}
	.st64{fill:#665F52;}
	.st65{clip-path:url(#XMLID_83_);}
	.st66{fill:#BD4A4A;}
	.st67{fill:#D4811C;}
	.st68{fill:#CF6F15;}
	.st69{clip-path:url(#SVGID_24_);}
	.st70{fill:#FFF8E3;}
	.st71{fill:#7A6D7A;}
	.st72{fill:#2C1512;}
	.st73{fill:#D6CBA9;}
	.st74{clip-path:url(#XMLID_84_);}
	.st75{fill:#FFEA9E;}
	.st76{fill:#FFDBC5;}
	.st77{clip-path:url(#XMLID_85_);}
	.st78{fill:#B55716;}
	.st79{fill:#C47325;}
	.st80{clip-path:url(#XMLID_86_);}
	.st81{fill:#ADA798;}
	.st82{fill:#C4BDAC;}
	.st83{fill:#8F8266;}
	.st84{fill:#D6CEBC;}
	.st85{fill:#FFFAE6;}
	.st86{fill:#595140;}
	.st87{clip-path:url(#XMLID_88_);}
	.st88{fill:#B84028;}
	.st89{fill:#E6B75A;}
	.st90{fill:#DB614A;}
	.st91{clip-path:url(#XMLID_92_);}
	.st92{fill:#615661;}
	.st93{fill:#635963;}
	.st94{fill:#4F414F;}
	.st95{fill:#7D6F7D;}
	.st96{fill:#B5A0B5;}
	.st97{fill:#574D57;}
	.st98{clip-path:url(#XMLID_95_);}
	.st99{fill:#C2C2C2;}
	.st100{fill:#9E9E9E;}
	.st101{fill:#949494;}
	.st102{fill:#E8E8E8;}
	.st103{fill:#A1A1A1;}
	.st104{fill:#D66270;}
	.st105{clip-path:url(#XMLID_99_);}
	.st106{fill:#CFCFCF;}
	.st107{fill:#BDA18D;}
	.st108{fill:#82A385;}
	.st109{clip-path:url(#XMLID_100_);}
	.st110{fill:#D1986E;}
	.st111{fill:#C2733E;}
	.st112{fill:#E6AC83;}
	.st113{fill:#C28155;}
	.st114{fill:#6E482E;}
	.st115{fill:#594435;}
	.st116{clip-path:url(#XMLID_102_);}
	.st117{fill:#6B5545;}
	.st118{fill:#261526;}
	.st119{fill:#9E8776;}
	.st120{fill:#807180;}
	.st121{fill:#A693A6;}
	.st122{fill:#614C61;}
	.st123{clip-path:url(#XMLID_107_);}
	.st124{fill:#D9D9D9;}
	.st125{clip-path:url(#XMLID_110_);}
	.st126{fill:#4D404D;}
	.st127{clip-path:url(#XMLID_110_);fill:#4D404D;}
	.st128{clip-path:url(#XMLID_111_);}
	.st129{clip-path:url(#XMLID_120_);}
	.st130{fill:#FFC682;}
	.st131{clip-path:url(#XMLID_121_);}
	.st132{fill:#753427;}
	.st133{clip-path:url(#XMLID_121_);fill:#753427;}
	.st134{clip-path:url(#SVGID_26_);}
	.st135{fill:#694334;}
	.st136{fill:#FF826E;}
	.st137{fill:#875F44;}
	.st138{fill:#4F3327;}
	.st139{fill:#D68256;}
	.st140{clip-path:url(#SVGID_28_);}
	.st141{fill:#6E6E6E;}
	.st142{fill:#B8B8B8;}
	.st143{clip-path:url(#SVGID_28_);fill:#B8B8B8;}
	.st144{clip-path:url(#SVGID_30_);}
	.st145{clip-path:url(#SVGID_32_);}
	.st146{fill:#D16658;}
	.st147{fill:#E6786A;}
	.st148{fill:#F79E92;}
	.st149{clip-path:url(#SVGID_34_);}
	.st150{fill:#E6CA56;}
	.st151{fill:#F2EBCB;}
	.st152{fill:#F08C7F;}
	.st153{clip-path:url(#SVGID_36_);}
	.st154{fill:#9E6842;}
	.st155{fill:#BA835E;}
	.st156{fill:#8C5937;}
	.st157{fill:#E3AD88;}
	.st158{fill:#A86B42;}
	.st159{clip-path:url(#SVGID_38_);}
	.st160{fill:#877987;}
	.st161{fill:#C7BCB2;}
	.st162{clip-path:url(#SVGID_40_);}
	.st163{fill:#6E4D37;}
	.st164{fill:#A8562A;}
	.st165{clip-path:url(#SVGID_42_);}
	.st166{fill:#A37352;}
	.st167{clip-path:url(#SVGID_44_);}
	.st168{fill:#8A8A8A;}
	.st169{fill:#F0F0F0;}
	.st170{clip-path:url(#XMLID_126_);}
	.st171{clip-path:url(#SVGID_46_);fill:none;}
	.st172{clip-path:url(#SVGID_46_);}
	.st173{fill:#78553C;}
	.st174{fill:#F29C5E;}
	.st175{fill:#D4D4D4;}
	.st176{clip-path:url(#SVGID_48_);}
	.st177{fill:#DB959A;}
	.st178{clip-path:url(#SVGID_50_);}
	.st179{fill:#A1341E;}
	.st180{fill:#EB9F2E;}
	.st181{clip-path:url(#SVGID_52_);}
	.st182{clip-path:url(#SVGID_54_);}
	.st183{fill:#855433;}
	.st184{fill:#AD6D42;}
	.st185{clip-path:url(#SVGID_56_);}
	.st186{fill:#D5A060;}
	.st187{clip-path:url(#SVGID_58_);}
	.st188{fill:#4A3C4A;}
	.st189{fill:#524352;}
	.st190{clip-path:url(#SVGID_60_);}
	.st191{fill:#524252;}
	.st192{clip-path:url(#SVGID_62_);fill:#C7781C;}
	.st193{clip-path:url(#SVGID_62_);}
	.st194{fill:#DEDEDE;}
	.st195{fill:#C7781C;}
	.st196{clip-path:url(#SVGID_62_);fill:#D5872A;}
	.st197{clip-path:url(#SVGID_62_);fill:#877365;}
	.st198{clip-path:url(#SVGID_62_);fill:#E3AD88;}
	.st199{clip-path:url(#SVGID_62_);fill:#F7F7F8;}
	.st200{clip-path:url(#SVGID_64_);}
	.st201{fill:#A63A25;}
	.st202{clip-path:url(#SVGID_66_);}
	.st203{clip-path:url(#SVGID_68_);}
	.st204{fill:#CF97A1;}
	.st205{fill:#CF7686;}
	.st206{clip-path:url(#SVGID_70_);}
	.st207{fill:#4F464F;}
	.st208{fill:#9C8A9C;}
	.st209{clip-path:url(#SVGID_72_);}
</style>
<g id="ICON">
	<path id="XMLID_197_" class="st14" d="M512,256c0,141.4-114.6,256-256,256C114.6,512,0,397.4,0,256C0,114.6,114.6,0,256,0
		C397.4,0,512,114.6,512,256z"/>
</g>
<g id="Layer_7">
	<g>
		<g id="XMLID_1532_">
			<g id="XMLID_1533_">
				<g id="XMLID_1534_">
					<path class="st0" d="M367.2,220.2c0,58.5-49.8,101.3-111.2,101.3c-61.4,0-111.2-42.8-111.2-101.3c0-58.5,49.8-146,111.2-146
						C317.4,74.2,367.2,161.7,367.2,220.2z"/>
				</g>
			</g>
			<path id="XMLID_1535_" class="st0" d="M364.8,302.5c0,36.3-29.4,65.7-65.7,65.7h-86c-36.3,0-65.7-29.4-65.7-65.7v-81.3
				c0-36.3,29.4-65.7,65.7-65.7h86c36.3,0,65.7,29.4,65.7,65.7V302.5z"/>
			<path id="XMLID_1536_" class="st120" d="M348.7,208c-3.4-19.7-22.2-33-42-29.5l-50.7,8.8l-50.7-8.8c-19.7-3.4-38.5,9.8-42,29.5
				c-3.4,19.7,9.8,38.5,29.5,42l51.3,8.9h23.7l51.3-8.9C338.9,246.6,352.2,227.8,348.7,208z"/>
			<g id="XMLID_1537_">
				<path id="XMLID_1538_" class="st121" d="M308.7,342.3c0,16.3-13.3,29.6-29.6,29.6h-46.2c-16.3,0-29.6-13.3-29.6-29.6v-59.5
					c0-16.3,13.3-29.6,29.6-29.6h46.2c16.3,0,29.6,13.3,29.6,29.6V342.3z"/>
				<g id="XMLID_1539_">
					<path id="XMLID_1540_" class="st121" d="M257.5,250.6c0,11.6-9.4,21-21,21h-4.4c-11.6,0-21-9.4-21-21l0,0c0-11.6,9.4-21,21-21
						h4.4C248.1,229.5,257.5,238.9,257.5,250.6L257.5,250.6z"/>
					<path id="XMLID_1541_" class="st121" d="M301,250.6c0,11.6-9.4,21-21,21h-4.4c-11.6,0-21-9.4-21-21l0,0c0-11.6,9.4-21,21-21
						h4.4C291.6,229.5,301,238.9,301,250.6L301,250.6z"/>
				</g>
				<g id="XMLID_1542_">
					<path class="st122" d="M243,260.6c2.7-0.7,5.1-2.7,6-5.6c1.4-4.4-1-9.2-5.4-10.6l-15.4-5c-2.9-1-6-0.2-8.2,1.7
						C227.6,247.7,235.5,254,243,260.6z"/>
					<path class="st122" d="M269.1,260.6c-2.7-0.7-5.1-2.7-6-5.6c-1.4-4.4,1-9.2,5.4-10.6l15.4-5c2.9-1,6-0.2,8.2,1.7
						C284.5,247.7,276.6,254,269.1,260.6z"/>
				</g>
			</g>
			<ellipse id="XMLID_1543_" class="st0" cx="256" cy="176.8" rx="83.5" ry="29.1"/>
			<g id="XMLID_1544_">
				<path id="XMLID_1545_" class="st0" d="M195.9,217.2c0.8,7.8,7.7,14.5,16,14.5c8.4,0,15.2-6.7,16-14.5H195.9z"/>
				<path id="XMLID_1546_" class="st0" d="M284.4,217.2c0.8,7.8,7.7,14.5,16,14.5c8.4,0,15.2-6.7,16-14.5H284.4z"/>
			</g>
			<path id="XMLID_1547_" class="st0" d="M298.6,300.1c0,4.3-3.5,7.8-7.8,7.8h-69.5c-4.3,0-7.8-3.5-7.8-7.8l0,0
				c0-4.3,3.5-7.8,7.8-7.8h69.5C295.1,292.3,298.6,295.8,298.6,300.1L298.6,300.1z"/>
		</g>
		<g id="XMLID_1548_">
			<defs>
				<path id="XMLID_1557_" d="M512,256c0,141.4-114.6,256-256,256C114.6,512,0,397.4,0,256C0,114.6,114.6,0,256,0
					C397.4,0,512,114.6,512,256z"/>
			</defs>
			<clipPath id="XMLID_82_">
				<use xlink:href="#XMLID_1557_"  style="overflow:visible;"/>
			</clipPath>
			<g id="XMLID_1549_" class="st55">
				<path id="XMLID_1550_" class="st21" d="M499.8,566.4v-67.2c0-57-47.1-102.5-104.1-102.5H114.9c-57,0-102.7,45.5-102.7,102.5
					v67.2H499.8z"/>
				<polygon id="XMLID_1553_" class="st16" points="226.8,552.6 287.8,552.6 272.4,455.1 306.1,413.9 282.9,363.8 233.4,363.8 
					209,413.9 241.7,454.8 				"/>
				<g id="XMLID_1554_">
					<polygon id="XMLID_1555_" class="st124" points="308,431.6 399.9,393.2 368.2,344 256.3,362.8 					"/>
					<polygon id="XMLID_1556_" class="st124" points="207,431.6 115.2,393.2 141,344 258.7,362.8 					"/>
				</g>
			</g>
		</g>
	</g>
</g>
</svg>
