<?xml version="1.0" encoding="utf-8"?>
<!-- Generator: Adobe Illustrator 25.0.0, SVG Export Plug-In . SVG Version: 6.00 Build 0)  -->
<svg version="1.1" xmlns="http://www.w3.org/2000/svg" xmlns:xlink="http://www.w3.org/1999/xlink" x="0px" y="0px"
	 viewBox="0 0 512 512" style="enable-background:new 0 0 512 512;" xml:space="preserve">
<style type="text/css">
	.st0{fill:#3D2A3D;}
	.st1{fill:#D5872A;}
	.st2{fill:#C9E874;}
	.st3{fill:#277A6B;}
	.st4{fill:#FFDE69;}
	.st5{fill:#698250;}
	.st6{fill:#C8C947;}
	.st7{fill:#A6DEA9;}
	.st8{fill:#376C7E;}
	.st9{fill:#8BA83C;}
	.st10{fill:#2FABAF;}
	.st11{fill:#216964;}
	.st12{fill:#605560;}
	.st13{fill:#C45742;}
	.st14{fill:#79D7F2;}
	.st15{fill:#769938;}
	.st16{fill:#9EC853;}
	.st17{fill:#E7AD84;}
	.st18{fill:#76B079;}
	.st19{clip-path:url(#SVGID_2_);}
	.st20{fill:#594335;}
	.st21{fill:#F7F7F8;}
	.st22{fill:#7D5737;}
	.st23{fill:#D68F6A;}
	.st24{clip-path:url(#SVGID_4_);fill:#C45742;}
	.st25{clip-path:url(#SVGID_4_);fill:#E88D38;}
	.st26{clip-path:url(#SVGID_4_);}
	.st27{fill:#E1902B;}
	.st28{fill:#FFC671;}
	.st29{fill:#E1E1E1;}
	.st30{clip-path:url(#SVGID_6_);}
	.st31{fill:#D1741D;}
	.st32{fill:#C93A3A;}
	.st33{clip-path:url(#SVGID_8_);}
	.st34{fill:#919191;}
	.st35{fill:#CE722F;}
	.st36{fill:#C4C4C4;}
	.st37{clip-path:url(#SVGID_10_);}
	.st38{fill:#665348;}
	.st39{fill:#877365;}
	.st40{fill:#E3A584;}
	.st41{fill:#733D28;}
	.st42{clip-path:url(#SVGID_12_);}
	.st43{fill:#8C8C8C;}
	.st44{fill:#BFBFBF;}
	.st45{clip-path:url(#SVGID_14_);}
	.st46{clip-path:url(#SVGID_16_);}
	.st47{fill:#FFFFFF;}
	.st48{fill:#4A414A;}
	.st49{clip-path:url(#SVGID_18_);}
	.st50{fill:#BE7632;}
	.st51{clip-path:url(#SVGID_20_);}
	.st52{fill:#E3A445;}
	.st53{fill:#FFF0BA;}
	.st54{fill:#BF7128;}
	.st55{clip-path:url(#XMLID_82_);}
	.st56{fill:#AC6322;}
	.st57{clip-path:url(#SVGID_22_);}
	.st58{fill:#DBCCA6;}
	.st59{fill:#C2A579;}
	.st60{fill:#CFB582;}
	.st61{fill:#EBE2B2;}
	.st62{fill:#B8B399;}
	.st63{fill:#918E79;}
	.st64{fill:#665F52;}
	.st65{clip-path:url(#XMLID_83_);}
	.st66{fill:#BD4A4A;}
	.st67{fill:#D4811C;}
	.st68{fill:#CF6F15;}
	.st69{clip-path:url(#SVGID_24_);}
	.st70{fill:#FFF8E3;}
	.st71{fill:#7A6D7A;}
	.st72{fill:#2C1512;}
	.st73{fill:#D6CBA9;}
	.st74{clip-path:url(#XMLID_84_);}
	.st75{fill:#FFEA9E;}
	.st76{fill:#FFDBC5;}
	.st77{clip-path:url(#XMLID_85_);}
	.st78{fill:#B55716;}
	.st79{fill:#C47325;}
	.st80{clip-path:url(#XMLID_86_);}
	.st81{fill:#ADA798;}
	.st82{fill:#C4BDAC;}
	.st83{fill:#8F8266;}
	.st84{fill:#D6CEBC;}
	.st85{fill:#FFFAE6;}
	.st86{fill:#595140;}
	.st87{clip-path:url(#XMLID_88_);}
	.st88{fill:#B84028;}
	.st89{fill:#E6B75A;}
	.st90{fill:#DB614A;}
	.st91{clip-path:url(#XMLID_92_);}
	.st92{fill:#615661;}
	.st93{fill:#635963;}
	.st94{fill:#4F414F;}
	.st95{fill:#7D6F7D;}
	.st96{fill:#B5A0B5;}
	.st97{fill:#574D57;}
	.st98{clip-path:url(#XMLID_95_);}
	.st99{fill:#C2C2C2;}
	.st100{fill:#9E9E9E;}
	.st101{fill:#949494;}
	.st102{fill:#E8E8E8;}
	.st103{fill:#A1A1A1;}
	.st104{fill:#D66270;}
	.st105{clip-path:url(#XMLID_99_);}
	.st106{fill:#CFCFCF;}
	.st107{fill:#BDA18D;}
	.st108{fill:#82A385;}
	.st109{clip-path:url(#XMLID_100_);}
	.st110{fill:#D1986E;}
	.st111{fill:#C2733E;}
	.st112{fill:#E6AC83;}
	.st113{fill:#C28155;}
	.st114{fill:#6E482E;}
	.st115{fill:#594435;}
	.st116{clip-path:url(#XMLID_102_);}
	.st117{fill:#6B5545;}
	.st118{fill:#261526;}
	.st119{fill:#9E8776;}
	.st120{fill:#807180;}
	.st121{fill:#A693A6;}
	.st122{fill:#614C61;}
	.st123{clip-path:url(#XMLID_107_);}
	.st124{fill:#D9D9D9;}
	.st125{clip-path:url(#XMLID_110_);}
	.st126{fill:#4D404D;}
	.st127{clip-path:url(#XMLID_110_);fill:#4D404D;}
	.st128{clip-path:url(#XMLID_111_);}
	.st129{clip-path:url(#XMLID_120_);}
	.st130{fill:#FFC682;}
	.st131{clip-path:url(#XMLID_121_);}
	.st132{fill:#753427;}
	.st133{clip-path:url(#XMLID_121_);fill:#753427;}
	.st134{clip-path:url(#SVGID_26_);}
	.st135{fill:#694334;}
	.st136{fill:#FF826E;}
	.st137{fill:#875F44;}
	.st138{fill:#4F3327;}
	.st139{fill:#D68256;}
	.st140{clip-path:url(#SVGID_28_);}
	.st141{fill:#6E6E6E;}
	.st142{fill:#B8B8B8;}
	.st143{clip-path:url(#SVGID_28_);fill:#B8B8B8;}
	.st144{clip-path:url(#SVGID_30_);}
	.st145{clip-path:url(#SVGID_32_);}
	.st146{fill:#D16658;}
	.st147{fill:#E6786A;}
	.st148{fill:#F79E92;}
	.st149{clip-path:url(#SVGID_34_);}
	.st150{fill:#E6CA56;}
	.st151{fill:#F2EBCB;}
	.st152{fill:#F08C7F;}
	.st153{clip-path:url(#SVGID_36_);}
	.st154{fill:#9E6842;}
	.st155{fill:#BA835E;}
	.st156{fill:#8C5937;}
	.st157{fill:#E3AD88;}
	.st158{fill:#A86B42;}
	.st159{clip-path:url(#SVGID_38_);}
	.st160{fill:#877987;}
	.st161{fill:#C7BCB2;}
	.st162{clip-path:url(#SVGID_40_);}
	.st163{fill:#6E4D37;}
	.st164{fill:#A8562A;}
	.st165{clip-path:url(#SVGID_42_);}
	.st166{fill:#A37352;}
	.st167{clip-path:url(#SVGID_44_);}
	.st168{fill:#8A8A8A;}
	.st169{fill:#F0F0F0;}
	.st170{clip-path:url(#XMLID_126_);}
	.st171{clip-path:url(#SVGID_46_);fill:none;}
	.st172{clip-path:url(#SVGID_46_);}
	.st173{fill:#78553C;}
	.st174{fill:#F29C5E;}
	.st175{fill:#D4D4D4;}
	.st176{clip-path:url(#SVGID_48_);}
	.st177{fill:#DB959A;}
	.st178{clip-path:url(#SVGID_50_);}
	.st179{fill:#A1341E;}
	.st180{fill:#EB9F2E;}
	.st181{clip-path:url(#SVGID_52_);}
	.st182{clip-path:url(#SVGID_54_);}
	.st183{fill:#855433;}
	.st184{fill:#AD6D42;}
	.st185{clip-path:url(#SVGID_56_);}
	.st186{fill:#D5A060;}
	.st187{clip-path:url(#SVGID_58_);}
	.st188{fill:#4A3C4A;}
	.st189{fill:#524352;}
	.st190{clip-path:url(#SVGID_60_);}
	.st191{fill:#524252;}
	.st192{clip-path:url(#SVGID_62_);fill:#C7781C;}
	.st193{clip-path:url(#SVGID_62_);}
	.st194{fill:#DEDEDE;}
	.st195{fill:#C7781C;}
	.st196{clip-path:url(#SVGID_62_);fill:#D5872A;}
	.st197{clip-path:url(#SVGID_62_);fill:#877365;}
	.st198{clip-path:url(#SVGID_62_);fill:#E3AD88;}
	.st199{clip-path:url(#SVGID_62_);fill:#F7F7F8;}
	.st200{clip-path:url(#SVGID_64_);}
	.st201{fill:#A63A25;}
	.st202{clip-path:url(#SVGID_66_);}
	.st203{clip-path:url(#SVGID_68_);}
	.st204{fill:#CF97A1;}
	.st205{fill:#CF7686;}
	.st206{clip-path:url(#SVGID_70_);}
	.st207{fill:#4F464F;}
	.st208{fill:#9C8A9C;}
	.st209{clip-path:url(#SVGID_72_);}
</style>
<g id="ICON">
	<path id="XMLID_2972_" class="st17" d="M0,254.4C0.9,113,116.3-0.9,257.6,0C399,0.9,512.9,116.3,512,257.6
		C511.1,399,395.7,512.9,254.4,512C113,511.1-0.9,395.7,0,254.4z"/>
</g>
<g id="Layer_7">
	<g id="XMLID_1750_">
		<defs>
			<path id="SVGID_29_" d="M0,256C0,114.6,114.6,0,256,0c141.4,0,256,114.6,256,256c0,141.4-114.6,256-256,256
				C114.6,512,0,397.4,0,256z"/>
		</defs>
		<clipPath id="SVGID_2_">
			<use xlink:href="#SVGID_29_"  style="overflow:visible;"/>
		</clipPath>
		<g id="XMLID_1751_" class="st19">
			<g id="XMLID_1752_">
				<path id="XMLID_1753_" class="st0" d="M499.8,572.2v-67.2c0-57-47.1-102.5-104.1-102.5H114.9c-57,0-102.7,45.5-102.7,102.5v67.2
					H499.8z"/>
				<polygon id="XMLID_1754_" class="st21" points="226.8,558.5 287.8,558.5 272.4,461 306.1,419.7 282.9,369.6 233.4,369.6 
					209,419.7 241.7,460.6 				"/>
				<g id="XMLID_1755_">
					<polygon id="XMLID_1756_" class="st12" points="308.1,437.5 400,399.1 368.2,349.9 256.4,368.7 					"/>
					<polygon id="XMLID_1757_" class="st12" points="207.1,437.5 115.2,399.1 141,349.9 258.8,368.7 					"/>
				</g>
			</g>
			<g id="XMLID_1758_">
				<g id="XMLID_1759_">
					<g id="XMLID_1760_">
						<path id="XMLID_1761_" class="st137" d="M217.4,172.2c0,10-8.8,16.1-19.6,13.7l-32.1-7.3c-10.8-2.4-19.4-12.6-19.2-22.6
							l1.4-74.4c0.2-10,7.3-12.9,15.9-6.6l37.9,28c8.6,6.3,15.6,19.7,15.6,29.6V172.2z"/>
						<path id="XMLID_1762_" class="st0" d="M193.4,163.6c0,8-5.4,13-11.9,11l-19.5-5.9c-6.5-2-11.8-10.1-11.7-18.1l0.9-59.8
							c0.1-8,4.5-10.4,9.7-5.3L184,108c5.2,5.1,9.5,15.8,9.5,23.8V163.6z"/>
					</g>
					<g id="XMLID_1763_">
						<path id="XMLID_1764_" class="st137" d="M295.6,172.2c0,10,8.8,16.1,19.6,13.7l32.1-7.3c10.8-2.4,19.4-12.6,19.2-22.6
							l-1.4-74.4c-0.2-10-7.3-12.9-15.9-6.6l-37.9,28c-8.6,6.3-15.6,19.7-15.6,29.6V172.2z"/>
						<path id="XMLID_1765_" class="st0" d="M319.6,163.6c0,8,5.4,13,11.9,11l19.5-5.9c6.5-2,11.8-10.1,11.7-18.1l-0.9-59.8
							c-0.1-8-4.5-10.4-9.7-5.3L329.1,108c-5.2,5.1-9.5,15.8-9.5,23.8V163.6z"/>
					</g>
				</g>
				<path id="XMLID_1766_" class="st137" d="M229.2,140.1c-22,0-45.9,15.9-53.1,35.4l-39.6,107.1c-7.2,19.4,4.9,35.8,26.8,35.8
					h185.4c22,0,34.1-16.4,26.8-35.8l-39.6-106.8c-7.2-19.4-31.1-35.6-53.1-35.6H229.2z"/>
				<g id="XMLID_1767_">
					<g id="XMLID_1768_">
						<path class="st137" d="M136.1,292.3c0-43.2,53.8-74.9,120.2-74.9c66.4,0,120.2,31.6,120.2,74.9c0,43.2-75.3,107.9-120.2,107.9
							C211.4,400.2,136.1,335.5,136.1,292.3z"/>
					</g>
				</g>
				<path id="XMLID_1769_" class="st139" d="M228.7,203.4c-2.7,4.7-4.2,10-4.2,15.8v106.9c0,17.7,14.3,32,32,32
					c17.7,0,32-14.3,32-32V219.2c0-5.7-1.5-11.1-4.2-15.8H228.7z"/>
				<g id="XMLID_1770_">
					<path id="XMLID_1771_" class="st0" d="M282.1,293.5c0,7.3-26,21.4-26,21.4s-26-14.1-26-21.4c0-7.3,11.6-9.2,26-9.2
						C270.5,284.4,282.1,286.2,282.1,293.5z"/>
					<path id="XMLID_1772_" class="st0" d="M264.6,340.4c0,3.4-2.8,6.2-6.2,6.2l0,0c-3.4,0-6.2-2.8-6.2-6.2v-32.6
						c0-3.4,2.8-6.2,6.2-6.2l0,0c3.4,0,6.2,2.8,6.2,6.2V340.4z"/>
				</g>
				<g id="XMLID_1773_">
					<path id="XMLID_1774_" class="st139" d="M248.4,222c0,10.8-16.1,19.5-36,19.5s-36-8.7-36-19.5c0-10.8,16.1-19.5,36-19.5
						S248.4,211.2,248.4,222z"/>
					<path id="XMLID_1775_" class="st139" d="M336.7,222c0,10.8-16.1,19.5-36,19.5c-19.9,0-36-8.7-36-19.5c0-10.8,16.1-19.5,36-19.5
						C320.5,202.5,336.7,211.2,336.7,222z"/>
				</g>
				<g id="XMLID_1776_">
					<path id="XMLID_1777_" class="st0" d="M227.6,221c0,4.7-3.9,8.6-8.8,8.6c-4.9,0-8.8-3.8-8.8-8.6c0-4.7,3.9-8.6,8.8-8.6
						C223.6,212.5,227.6,216.3,227.6,221z"/>
					<path id="XMLID_1778_" class="st0" d="M303,221c0,4.7-3.9,8.6-8.8,8.6c-4.9,0-8.8-3.8-8.8-8.6c0-4.7,3.9-8.6,8.8-8.6
						C299.1,212.5,303,216.3,303,221z"/>
				</g>
				<g id="XMLID_1779_">
					<path id="XMLID_1780_" class="st21" d="M299.6,352.2l5.3-3.4c0,0-10.3-38.1-10.3-39.6c0-1.2-3.8,28.8-5.5,43H299.6z"/>
					<path id="XMLID_1781_" class="st21" d="M224,352.2c-1.8-14.2-5.5-44.2-5.5-43c0,1.5-10.3,39.6-10.3,39.6l5.3,3.4H224z"/>
				</g>
				<path id="XMLID_1782_" class="st0" d="M314.1,355.7c0,3.5-2.8,6.3-6.3,6.3H205.3c-3.5,0-6.3-2.8-6.3-6.3l0,0
					c0-3.5,2.8-6.3,6.3-6.3h102.4C311.2,349.4,314.1,352.2,314.1,355.7L314.1,355.7z"/>
				<path id="XMLID_1783_" class="st0" d="M314.1,210.4c0,3.5-2.8,6.3-6.3,6.3H205.3c-3.5,0-6.3-2.8-6.3-6.3l0,0
					c0-3.5,2.8-6.3,6.3-6.3h102.4C311.2,204,314.1,206.9,314.1,210.4L314.1,210.4z"/>
			</g>
		</g>
	</g>
</g>
</svg>
