<?xml version="1.0" encoding="utf-8"?>
<!-- Generator: Adobe Illustrator 25.0.0, SVG Export Plug-In . SVG Version: 6.00 Build 0)  -->
<svg version="1.1" xmlns="http://www.w3.org/2000/svg" xmlns:xlink="http://www.w3.org/1999/xlink" x="0px" y="0px"
	 viewBox="0 0 512 512" style="enable-background:new 0 0 512 512;" xml:space="preserve">
<style type="text/css">
	.st0{fill:#3D2A3D;}
	.st1{fill:#D5872A;}
	.st2{fill:#C9E874;}
	.st3{fill:#277A6B;}
	.st4{fill:#FFDE69;}
	.st5{fill:#698250;}
	.st6{fill:#C8C947;}
	.st7{fill:#A6DEA9;}
	.st8{fill:#376C7E;}
	.st9{fill:#8BA83C;}
	.st10{fill:#2FABAF;}
	.st11{fill:#216964;}
	.st12{fill:#605560;}
	.st13{fill:#C45742;}
	.st14{fill:#79D7F2;}
	.st15{fill:#769938;}
	.st16{fill:#9EC853;}
	.st17{fill:#E7AD84;}
	.st18{fill:#76B079;}
	.st19{clip-path:url(#SVGID_2_);}
	.st20{fill:#594335;}
	.st21{fill:#F7F7F8;}
	.st22{fill:#7D5737;}
	.st23{fill:#D68F6A;}
	.st24{clip-path:url(#SVGID_4_);fill:#C45742;}
	.st25{clip-path:url(#SVGID_4_);fill:#E88D38;}
	.st26{clip-path:url(#SVGID_4_);}
	.st27{fill:#E1902B;}
	.st28{fill:#FFC671;}
	.st29{fill:#E1E1E1;}
	.st30{clip-path:url(#SVGID_6_);}
	.st31{fill:#D1741D;}
	.st32{fill:#C93A3A;}
	.st33{clip-path:url(#SVGID_8_);}
	.st34{fill:#919191;}
	.st35{fill:#CE722F;}
	.st36{fill:#C4C4C4;}
	.st37{clip-path:url(#SVGID_10_);}
	.st38{fill:#665348;}
	.st39{fill:#877365;}
	.st40{fill:#E3A584;}
	.st41{fill:#733D28;}
	.st42{clip-path:url(#SVGID_12_);}
	.st43{fill:#8C8C8C;}
	.st44{fill:#BFBFBF;}
	.st45{clip-path:url(#SVGID_14_);}
	.st46{clip-path:url(#SVGID_16_);}
	.st47{fill:#FFFFFF;}
	.st48{fill:#4A414A;}
	.st49{clip-path:url(#SVGID_18_);}
	.st50{fill:#BE7632;}
	.st51{clip-path:url(#SVGID_20_);}
	.st52{fill:#E3A445;}
	.st53{fill:#FFF0BA;}
	.st54{fill:#BF7128;}
	.st55{clip-path:url(#XMLID_82_);}
	.st56{fill:#AC6322;}
	.st57{clip-path:url(#SVGID_22_);}
	.st58{fill:#DBCCA6;}
	.st59{fill:#C2A579;}
	.st60{fill:#CFB582;}
	.st61{fill:#EBE2B2;}
	.st62{fill:#B8B399;}
	.st63{fill:#918E79;}
	.st64{fill:#665F52;}
	.st65{clip-path:url(#XMLID_83_);}
	.st66{fill:#BD4A4A;}
	.st67{fill:#D4811C;}
	.st68{fill:#CF6F15;}
	.st69{clip-path:url(#SVGID_24_);}
	.st70{fill:#FFF8E3;}
	.st71{fill:#7A6D7A;}
	.st72{fill:#2C1512;}
	.st73{fill:#D6CBA9;}
	.st74{clip-path:url(#XMLID_84_);}
	.st75{fill:#FFEA9E;}
	.st76{fill:#FFDBC5;}
	.st77{clip-path:url(#XMLID_85_);}
	.st78{fill:#B55716;}
	.st79{fill:#C47325;}
	.st80{clip-path:url(#XMLID_86_);}
	.st81{fill:#ADA798;}
	.st82{fill:#C4BDAC;}
	.st83{fill:#8F8266;}
	.st84{fill:#D6CEBC;}
	.st85{fill:#FFFAE6;}
	.st86{fill:#595140;}
	.st87{clip-path:url(#XMLID_88_);}
	.st88{fill:#B84028;}
	.st89{fill:#E6B75A;}
	.st90{fill:#DB614A;}
	.st91{clip-path:url(#XMLID_92_);}
	.st92{fill:#615661;}
	.st93{fill:#635963;}
	.st94{fill:#4F414F;}
	.st95{fill:#7D6F7D;}
	.st96{fill:#B5A0B5;}
	.st97{fill:#574D57;}
	.st98{clip-path:url(#XMLID_95_);}
	.st99{fill:#C2C2C2;}
	.st100{fill:#9E9E9E;}
	.st101{fill:#949494;}
	.st102{fill:#E8E8E8;}
	.st103{fill:#A1A1A1;}
	.st104{fill:#D66270;}
	.st105{clip-path:url(#XMLID_99_);}
	.st106{fill:#CFCFCF;}
	.st107{fill:#BDA18D;}
	.st108{fill:#82A385;}
	.st109{clip-path:url(#XMLID_100_);}
	.st110{fill:#D1986E;}
	.st111{fill:#C2733E;}
	.st112{fill:#E6AC83;}
	.st113{fill:#C28155;}
	.st114{fill:#6E482E;}
	.st115{fill:#594435;}
	.st116{clip-path:url(#XMLID_102_);}
	.st117{fill:#6B5545;}
	.st118{fill:#261526;}
	.st119{fill:#9E8776;}
	.st120{fill:#807180;}
	.st121{fill:#A693A6;}
	.st122{fill:#614C61;}
	.st123{clip-path:url(#XMLID_107_);}
	.st124{fill:#D9D9D9;}
	.st125{clip-path:url(#XMLID_110_);}
	.st126{fill:#4D404D;}
	.st127{clip-path:url(#XMLID_110_);fill:#4D404D;}
	.st128{clip-path:url(#XMLID_111_);}
	.st129{clip-path:url(#XMLID_120_);}
	.st130{fill:#FFC682;}
	.st131{clip-path:url(#XMLID_121_);}
	.st132{fill:#753427;}
	.st133{clip-path:url(#XMLID_121_);fill:#753427;}
	.st134{clip-path:url(#SVGID_26_);}
	.st135{fill:#694334;}
	.st136{fill:#FF826E;}
	.st137{fill:#875F44;}
	.st138{fill:#4F3327;}
	.st139{fill:#D68256;}
	.st140{clip-path:url(#SVGID_28_);}
	.st141{fill:#6E6E6E;}
	.st142{fill:#B8B8B8;}
	.st143{clip-path:url(#SVGID_28_);fill:#B8B8B8;}
	.st144{clip-path:url(#SVGID_30_);}
	.st145{clip-path:url(#SVGID_32_);}
	.st146{fill:#D16658;}
	.st147{fill:#E6786A;}
	.st148{fill:#F79E92;}
	.st149{clip-path:url(#SVGID_34_);}
	.st150{fill:#E6CA56;}
	.st151{fill:#F2EBCB;}
	.st152{fill:#F08C7F;}
	.st153{clip-path:url(#SVGID_36_);}
	.st154{fill:#9E6842;}
	.st155{fill:#BA835E;}
	.st156{fill:#8C5937;}
	.st157{fill:#E3AD88;}
	.st158{fill:#A86B42;}
	.st159{clip-path:url(#SVGID_38_);}
	.st160{fill:#877987;}
	.st161{fill:#C7BCB2;}
	.st162{clip-path:url(#SVGID_40_);}
	.st163{fill:#6E4D37;}
	.st164{fill:#A8562A;}
	.st165{clip-path:url(#SVGID_42_);}
	.st166{fill:#A37352;}
	.st167{clip-path:url(#SVGID_44_);}
	.st168{fill:#8A8A8A;}
	.st169{fill:#F0F0F0;}
	.st170{clip-path:url(#XMLID_126_);}
	.st171{clip-path:url(#SVGID_46_);fill:none;}
	.st172{clip-path:url(#SVGID_46_);}
	.st173{fill:#78553C;}
	.st174{fill:#F29C5E;}
	.st175{fill:#D4D4D4;}
	.st176{clip-path:url(#SVGID_48_);}
	.st177{fill:#DB959A;}
	.st178{clip-path:url(#SVGID_50_);}
	.st179{fill:#A1341E;}
	.st180{fill:#EB9F2E;}
	.st181{clip-path:url(#SVGID_52_);}
	.st182{clip-path:url(#SVGID_54_);}
	.st183{fill:#855433;}
	.st184{fill:#AD6D42;}
	.st185{clip-path:url(#SVGID_56_);}
	.st186{fill:#D5A060;}
	.st187{clip-path:url(#SVGID_58_);}
	.st188{fill:#4A3C4A;}
	.st189{fill:#524352;}
	.st190{clip-path:url(#SVGID_60_);}
	.st191{fill:#524252;}
	.st192{clip-path:url(#SVGID_62_);fill:#C7781C;}
	.st193{clip-path:url(#SVGID_62_);}
	.st194{fill:#DEDEDE;}
	.st195{fill:#C7781C;}
	.st196{clip-path:url(#SVGID_62_);fill:#D5872A;}
	.st197{clip-path:url(#SVGID_62_);fill:#877365;}
	.st198{clip-path:url(#SVGID_62_);fill:#E3AD88;}
	.st199{clip-path:url(#SVGID_62_);fill:#F7F7F8;}
	.st200{clip-path:url(#SVGID_64_);}
	.st201{fill:#A63A25;}
	.st202{clip-path:url(#SVGID_66_);}
	.st203{clip-path:url(#SVGID_68_);}
	.st204{fill:#CF97A1;}
	.st205{fill:#CF7686;}
	.st206{clip-path:url(#SVGID_70_);}
	.st207{fill:#4F464F;}
	.st208{fill:#9C8A9C;}
	.st209{clip-path:url(#SVGID_72_);}
</style>
<g id="ICON">
	<path id="XMLID_2_" class="st0" d="M512,256c0,141.4-114.6,256-256,256C114.6,512,0,397.4,0,256C0,114.6,114.6,0,256,0
		C397.4,0,512,114.6,512,256z"/>
</g>
<g id="Layer_7">
	<g id="XMLID_811_">
		<defs>
			<path id="SVGID_9_" d="M512,256c0,141.4-114.6,256-256,256C114.6,512,0,397.4,0,256C0,114.6,114.6,0,256,0
				C397.4,0,512,114.6,512,256z"/>
		</defs>
		<clipPath id="SVGID_2_">
			<use xlink:href="#SVGID_9_"  style="overflow:visible;"/>
		</clipPath>
		<g id="XMLID_812_" class="st19">
			<g id="XMLID_813_">
				<path id="XMLID_814_" class="st1" d="M464.5,571.4l-0.1-1c0-58.9-21.5-115.9-47.8-126.8l-112-46.2
					c-26.3-10.9-69.4-10.9-95.7-0.1L95.4,443.8C69,454.6,47.5,511.5,47.5,570.4l-0.1,1H464.5z"/>
				<path id="XMLID_815_" class="st38" d="M305.9,401.1c0,26-21.1,47-47,47h-5.7c-26,0-47-21.1-47-47V279.9c0-26,21.1-47,47-47h5.7
					c26,0,47,21.1,47,47V401.1z"/>
			</g>
			<g id="XMLID_816_">
				<g id="XMLID_817_">
					<g id="XMLID_818_">
						<g id="XMLID_819_">
							<g id="XMLID_820_">
								<path id="XMLID_821_" class="st17" d="M371.2,192.6c-2,32,13.2,58.9,33.9,60.2c20.7,1.3,39.2-23.5,41.2-55.5
									c2-32-13.2-58.9-33.9-60.2C391.7,135.8,373.2,160.6,371.2,192.6z"/>
								<path id="XMLID_822_" class="st17" d="M140.8,192.6c2,32-13.2,58.9-33.9,60.2c-20.7,1.3-39.2-23.5-41.2-55.5
									c-2-32,13.2-58.9,33.9-60.2C120.3,135.8,138.8,160.6,140.8,192.6z"/>
							</g>
							<path id="XMLID_823_" class="st39" d="M390.4,236.9c0,63.5-60.2,115-134.4,115c-74.2,0-134.4-51.5-134.4-115
								c0-63.5,60.2-115,134.4-115C330.2,121.9,390.4,173.4,390.4,236.9z"/>
							<g id="XMLID_824_">
								<path id="XMLID_825_" class="st40" d="M270.2,234c0,33.8-27.4,61.2-61.2,61.2c-33.8,0-61.2-27.4-61.2-61.2
									c0-33.8,27.4-61.2,61.2-61.2C242.8,172.7,270.2,200.1,270.2,234z"/>
								<path id="XMLID_826_" class="st40" d="M364.3,234c0,33.8-27.4,61.2-61.2,61.2c-33.8,0-61.2-27.4-61.2-61.2
									c0-33.8,27.4-61.2,61.2-61.2C336.9,172.7,364.3,200.1,364.3,234z"/>
							</g>
							<path id="XMLID_827_" class="st40" d="M181.5,194.8v121.1c0,40.6,33.4,73.6,74,73.6c40.6,0,74-32.9,74-73.6V194.8H181.5z"/>
							<g id="XMLID_828_">
								<g id="XMLID_829_">
									<path id="XMLID_830_" class="st0" d="M194.7,241c0.2-7.5,6-13.3,13.5-13.5c7.5-0.2,13.3,6.3,13.5,13.5
										c0.2,8.1,12.8,8.1,12.6,0c-0.4-14.4-11.6-25.7-26.1-26.1c-14.4-0.4-25.7,12.2-26.1,26.1C181.9,249.1,194.5,249.1,194.7,241
										L194.7,241z"/>
								</g>
								<g id="XMLID_831_">
									<path id="XMLID_832_" class="st0" d="M290.3,241c0.2-7.5,6-13.3,13.5-13.5c7.5-0.2,13.3,6.3,13.5,13.5
										c0.2,8.1,12.7,8.1,12.5,0c-0.4-14.4-11.6-25.7-26.1-26.1c-14.4-0.4-25.7,12.2-26.1,26.1C277.5,249.1,290.1,249.1,290.3,241
										L290.3,241z"/>
								</g>
							</g>
							<g id="XMLID_833_">
								<path id="XMLID_834_" class="st0" d="M250.4,279.9c0,5.2-4.2,9.3-9.3,9.3c-5.2,0-9.3-4.2-9.3-9.3c0-5.2,4.2-9.3,9.3-9.3
									C246.2,270.5,250.4,274.7,250.4,279.9z"/>
								<path id="XMLID_835_" class="st0" d="M280.3,279.9c0,5.2-4.2,9.3-9.3,9.3c-5.2,0-9.3-4.2-9.3-9.3c0-5.2,4.2-9.3,9.3-9.3
									C276.1,270.5,280.3,274.7,280.3,279.9z"/>
							</g>
						</g>
					</g>
					<path id="XMLID_836_" class="st21" d="M207.2,313.4c3.5,29.8,24,52.7,48.7,52.7c24.7,0,45.1-22.9,48.7-52.7H207.2z"/>
				</g>
				<g id="XMLID_837_">
					<g id="XMLID_838_">
						<g id="XMLID_839_">
							<path id="XMLID_840_" class="st41" d="M266.1,249.7v-25.4c0-12.4,10.1-22.5,22.5-22.5h58.8c12.4,0,22.5,10.1,22.5,22.5v25.4
								c0,12.4-10.1,22.5-22.5,22.5h-58.8C276.2,272.3,266.1,262.1,266.1,249.7z M288.6,212c-6.8,0-12.4,5.5-12.4,12.4v25.4
								c0,6.8,5.5,12.4,12.4,12.4h58.8c6.8,0,12.3-5.5,12.3-12.4v-25.4c0-6.8-5.5-12.4-12.3-12.4H288.6z"/>
						</g>
						<g id="XMLID_843_">
							<path id="XMLID_844_" class="st41" d="M141.2,249.7v-25.4c0-12.4,10.1-22.5,22.6-22.5h58.7c12.4,0,22.5,10.1,22.5,22.5v25.4
								c0,12.4-10.1,22.5-22.5,22.5h-58.7C151.3,272.3,141.2,262.1,141.2,249.7z M163.8,212c-6.8,0-12.4,5.5-12.4,12.4v25.4
								c0,6.8,5.5,12.4,12.4,12.4h58.7c6.8,0,12.4-5.5,12.4-12.4v-25.4c0-6.8-5.5-12.4-12.4-12.4H163.8z"/>
						</g>
					</g>
					<rect id="XMLID_847_" x="239.6" y="231.2" class="st41" width="31.9" height="11.6"/>
				</g>
			</g>
		</g>
	</g>
</g>
</svg>
