<?xml version="1.0" encoding="utf-8"?>
<!-- Generator: Adobe Illustrator 25.0.0, SVG Export Plug-In . SVG Version: 6.00 Build 0)  -->
<svg version="1.1" xmlns="http://www.w3.org/2000/svg" xmlns:xlink="http://www.w3.org/1999/xlink" x="0px" y="0px"
	 viewBox="0 0 512 512" style="enable-background:new 0 0 512 512;" xml:space="preserve">
<style type="text/css">
	.st0{fill:#3D2A3D;}
	.st1{fill:#D5872A;}
	.st2{fill:#C9E874;}
	.st3{fill:#277A6B;}
	.st4{fill:#FFDE69;}
	.st5{fill:#698250;}
	.st6{fill:#C8C947;}
	.st7{fill:#A6DEA9;}
	.st8{fill:#376C7E;}
	.st9{fill:#8BA83C;}
	.st10{fill:#2FABAF;}
	.st11{fill:#216964;}
	.st12{fill:#605560;}
	.st13{fill:#C45742;}
	.st14{fill:#79D7F2;}
	.st15{fill:#769938;}
	.st16{fill:#9EC853;}
	.st17{fill:#E7AD84;}
	.st18{fill:#76B079;}
	.st19{clip-path:url(#SVGID_2_);}
	.st20{fill:#594335;}
	.st21{fill:#F7F7F8;}
	.st22{fill:#7D5737;}
	.st23{fill:#D68F6A;}
	.st24{clip-path:url(#SVGID_4_);fill:#C45742;}
	.st25{clip-path:url(#SVGID_4_);fill:#E88D38;}
	.st26{clip-path:url(#SVGID_4_);}
	.st27{fill:#E1902B;}
	.st28{fill:#FFC671;}
	.st29{fill:#E1E1E1;}
	.st30{clip-path:url(#SVGID_6_);}
	.st31{fill:#D1741D;}
	.st32{fill:#C93A3A;}
	.st33{clip-path:url(#SVGID_8_);}
	.st34{fill:#919191;}
	.st35{fill:#CE722F;}
	.st36{fill:#C4C4C4;}
	.st37{clip-path:url(#SVGID_10_);}
	.st38{fill:#665348;}
	.st39{fill:#877365;}
	.st40{fill:#E3A584;}
	.st41{fill:#733D28;}
	.st42{clip-path:url(#SVGID_12_);}
	.st43{fill:#8C8C8C;}
	.st44{fill:#BFBFBF;}
	.st45{clip-path:url(#SVGID_14_);}
	.st46{clip-path:url(#SVGID_16_);}
	.st47{fill:#FFFFFF;}
	.st48{fill:#4A414A;}
	.st49{clip-path:url(#SVGID_18_);}
	.st50{fill:#BE7632;}
	.st51{clip-path:url(#SVGID_20_);}
	.st52{fill:#E3A445;}
	.st53{fill:#FFF0BA;}
	.st54{fill:#BF7128;}
	.st55{clip-path:url(#XMLID_82_);}
	.st56{fill:#AC6322;}
	.st57{clip-path:url(#SVGID_22_);}
	.st58{fill:#DBCCA6;}
	.st59{fill:#C2A579;}
	.st60{fill:#CFB582;}
	.st61{fill:#EBE2B2;}
	.st62{fill:#B8B399;}
	.st63{fill:#918E79;}
	.st64{fill:#665F52;}
	.st65{clip-path:url(#XMLID_83_);}
	.st66{fill:#BD4A4A;}
	.st67{fill:#D4811C;}
	.st68{fill:#CF6F15;}
	.st69{clip-path:url(#SVGID_24_);}
	.st70{fill:#FFF8E3;}
	.st71{fill:#7A6D7A;}
	.st72{fill:#2C1512;}
	.st73{fill:#D6CBA9;}
	.st74{clip-path:url(#XMLID_84_);}
	.st75{fill:#FFEA9E;}
	.st76{fill:#FFDBC5;}
	.st77{clip-path:url(#XMLID_85_);}
	.st78{fill:#B55716;}
	.st79{fill:#C47325;}
	.st80{clip-path:url(#XMLID_86_);}
	.st81{fill:#ADA798;}
	.st82{fill:#C4BDAC;}
	.st83{fill:#8F8266;}
	.st84{fill:#D6CEBC;}
	.st85{fill:#FFFAE6;}
	.st86{fill:#595140;}
	.st87{clip-path:url(#XMLID_88_);}
	.st88{fill:#B84028;}
	.st89{fill:#E6B75A;}
	.st90{fill:#DB614A;}
	.st91{clip-path:url(#XMLID_92_);}
	.st92{fill:#615661;}
	.st93{fill:#635963;}
	.st94{fill:#4F414F;}
	.st95{fill:#7D6F7D;}
	.st96{fill:#B5A0B5;}
	.st97{fill:#574D57;}
	.st98{clip-path:url(#XMLID_95_);}
	.st99{fill:#C2C2C2;}
	.st100{fill:#9E9E9E;}
	.st101{fill:#949494;}
	.st102{fill:#E8E8E8;}
	.st103{fill:#A1A1A1;}
	.st104{fill:#D66270;}
	.st105{clip-path:url(#XMLID_99_);}
	.st106{fill:#CFCFCF;}
	.st107{fill:#BDA18D;}
	.st108{fill:#82A385;}
	.st109{clip-path:url(#XMLID_100_);}
	.st110{fill:#D1986E;}
	.st111{fill:#C2733E;}
	.st112{fill:#E6AC83;}
	.st113{fill:#C28155;}
	.st114{fill:#6E482E;}
	.st115{fill:#594435;}
	.st116{clip-path:url(#XMLID_102_);}
	.st117{fill:#6B5545;}
	.st118{fill:#261526;}
	.st119{fill:#9E8776;}
	.st120{fill:#807180;}
	.st121{fill:#A693A6;}
	.st122{fill:#614C61;}
	.st123{clip-path:url(#XMLID_107_);}
	.st124{fill:#D9D9D9;}
	.st125{clip-path:url(#XMLID_110_);}
	.st126{fill:#4D404D;}
	.st127{clip-path:url(#XMLID_110_);fill:#4D404D;}
	.st128{clip-path:url(#XMLID_111_);}
	.st129{clip-path:url(#XMLID_120_);}
	.st130{fill:#FFC682;}
	.st131{clip-path:url(#XMLID_121_);}
	.st132{fill:#753427;}
	.st133{clip-path:url(#XMLID_121_);fill:#753427;}
	.st134{clip-path:url(#SVGID_26_);}
	.st135{fill:#694334;}
	.st136{fill:#FF826E;}
	.st137{fill:#875F44;}
	.st138{fill:#4F3327;}
	.st139{fill:#D68256;}
	.st140{clip-path:url(#SVGID_28_);}
	.st141{fill:#6E6E6E;}
	.st142{fill:#B8B8B8;}
	.st143{clip-path:url(#SVGID_28_);fill:#B8B8B8;}
	.st144{clip-path:url(#SVGID_30_);}
	.st145{clip-path:url(#SVGID_32_);}
	.st146{fill:#D16658;}
	.st147{fill:#E6786A;}
	.st148{fill:#F79E92;}
	.st149{clip-path:url(#SVGID_34_);}
	.st150{fill:#E6CA56;}
	.st151{fill:#F2EBCB;}
	.st152{fill:#F08C7F;}
	.st153{clip-path:url(#SVGID_36_);}
	.st154{fill:#9E6842;}
	.st155{fill:#BA835E;}
	.st156{fill:#8C5937;}
	.st157{fill:#E3AD88;}
	.st158{fill:#A86B42;}
	.st159{clip-path:url(#SVGID_38_);}
	.st160{fill:#877987;}
	.st161{fill:#C7BCB2;}
	.st162{clip-path:url(#SVGID_40_);}
	.st163{fill:#6E4D37;}
	.st164{fill:#A8562A;}
	.st165{clip-path:url(#SVGID_42_);}
	.st166{fill:#A37352;}
	.st167{clip-path:url(#SVGID_44_);}
	.st168{fill:#8A8A8A;}
	.st169{fill:#F0F0F0;}
	.st170{clip-path:url(#XMLID_126_);}
	.st171{clip-path:url(#SVGID_46_);fill:none;}
	.st172{clip-path:url(#SVGID_46_);}
	.st173{fill:#78553C;}
	.st174{fill:#F29C5E;}
	.st175{fill:#D4D4D4;}
	.st176{clip-path:url(#SVGID_48_);}
	.st177{fill:#DB959A;}
	.st178{clip-path:url(#SVGID_50_);}
	.st179{fill:#A1341E;}
	.st180{fill:#EB9F2E;}
	.st181{clip-path:url(#SVGID_52_);}
	.st182{clip-path:url(#SVGID_54_);}
	.st183{fill:#855433;}
	.st184{fill:#AD6D42;}
	.st185{clip-path:url(#SVGID_56_);}
	.st186{fill:#D5A060;}
	.st187{clip-path:url(#SVGID_58_);}
	.st188{fill:#4A3C4A;}
	.st189{fill:#524352;}
	.st190{clip-path:url(#SVGID_60_);}
	.st191{fill:#524252;}
	.st192{clip-path:url(#SVGID_62_);fill:#C7781C;}
	.st193{clip-path:url(#SVGID_62_);}
	.st194{fill:#DEDEDE;}
	.st195{fill:#C7781C;}
	.st196{clip-path:url(#SVGID_62_);fill:#D5872A;}
	.st197{clip-path:url(#SVGID_62_);fill:#877365;}
	.st198{clip-path:url(#SVGID_62_);fill:#E3AD88;}
	.st199{clip-path:url(#SVGID_62_);fill:#F7F7F8;}
	.st200{clip-path:url(#SVGID_64_);}
	.st201{fill:#A63A25;}
	.st202{clip-path:url(#SVGID_66_);}
	.st203{clip-path:url(#SVGID_68_);}
	.st204{fill:#CF97A1;}
	.st205{fill:#CF7686;}
	.st206{clip-path:url(#SVGID_70_);}
	.st207{fill:#4F464F;}
	.st208{fill:#9C8A9C;}
	.st209{clip-path:url(#SVGID_72_);}
</style>
<g id="ICON">
	<path id="XMLID_13_" class="st5" d="M512,256c0,141.4-114.6,256-256,256C114.6,512,0,397.4,0,256C0,114.6,114.6,0,256,0
		C397.4,0,512,114.6,512,256z"/>
</g>
<g id="Layer_7">
	<g id="XMLID_848_">
		<defs>
			<path id="SVGID_11_" d="M0.7,256c0-141.7,114.6-256.5,256-256.5c141.4,0,256,114.8,256,256.5c0,141.7-114.6,256.5-256,256.5
				C115.3,512.5,0.7,397.7,0.7,256z"/>
		</defs>
		<clipPath id="SVGID_2_">
			<use xlink:href="#SVGID_11_"  style="overflow:visible;"/>
		</clipPath>
		<g id="XMLID_849_" class="st19">
			<g id="XMLID_850_">
				<path id="XMLID_851_" class="st43" d="M450.3,516.1l-0.1-0.9c0-53.2-19.9-104.8-44.2-114.6l-103.4-41.7
					c-24.3-9.8-64-9.8-88.3-0.1l-104.9,42c-24.3,9.7-44.2,61.2-44.2,114.5l-0.1,0.9H450.3z"/>
				<path id="XMLID_852_" class="st43" d="M301.5,361.5c0,22.8-18.5,41.4-41.3,41.4h-5c-22.8,0-41.3-18.5-41.3-41.4v-43
					c0-22.8,18.5-41.4,41.3-41.4h5c22.8,0,41.3,18.5,41.3,41.4V361.5z"/>
				<path id="XMLID_855_" class="st2" d="M450.2,515.3c0-53.2-19.9-104.8-44.2-114.6l-78-31.5c0,0-16,54-70.3,54
					s-69.9-53.7-69.9-53.7l-78.4,31.4c-24.3,9.7-44.2,61.2-44.2,114.5l-0.1,0.9h385L450.2,515.3z"/>
			</g>
			<path id="XMLID_856_" class="st43" d="M301.5,349v-27.3c0-22.8-18.5-41.4-41.3-41.4h-5c-22.8,0-41.3,18.5-41.3,41.4V349H301.5z"
				/>
			<g id="XMLID_857_">
				<g id="XMLID_858_">
					<path class="st44" d="M309.8,112.9c-0.7-0.7-1.1-1.4-1.4-2.2l-104.2,0.7c-13.8,18-27.1,36.4-39.2,55.7c0,0.1-0.1,0.1-0.1,0.2
						l16.5,130.5c0.1,18.5,16.3,33.5,36.1,33.3h84.8c19.8-0.1,35.8-15.9,35.6-34.4l12.7-132.1C338.2,146.4,325.4,128.5,309.8,112.9z
						"/>
				</g>
				<ellipse id="XMLID_859_" class="st44" cx="257.8" cy="156.1" rx="93.9" ry="59.2"/>
				<path id="XMLID_860_" class="st17" d="M274.1,246.8c0,5-4,9-9,9h-14.7c-5,0-9-4-9-9v-48.2c0-5,4-9,9-9h14.7c5,0,9,4,9,9V246.8z"
					/>
				<path id="XMLID_861_" class="st43" d="M328.8,214c0,13.9-11.2,25.1-25.1,25.1h-91.9c-13.8,0-25.1-11.2-25.1-25.1l0,0
					c0-13.9,11.2-25.1,25.1-25.1h91.9C317.6,188.8,328.8,200.1,328.8,214L328.8,214z"/>
				<g id="XMLID_862_">
					<g id="XMLID_865_">
						<g>
							<path class="st0" d="M198.1,195.6c13,2.6,26,5.2,39,7.7c10.2,2,12.2-13.9,2-15.9c-13-2.6-26-5.2-39-7.7
								C189.9,177.7,187.9,193.6,198.1,195.6L198.1,195.6z"/>
						</g>
					</g>
					<g id="XMLID_866_">
						<g id="XMLID_869_">
							<g>
								<path class="st0" d="M317.5,195c-13,2.6-26,5.2-39,7.7c-10.2,2-12.2-13.9-2-15.9c13-2.6,26-5.2,39-7.7
									C325.6,177.1,327.6,193,317.5,195L317.5,195z"/>
							</g>
						</g>
					</g>
				</g>
				<g id="XMLID_870_">
					<path id="XMLID_871_" class="st0" d="M278.6,221c0,6.9,5.6,12.6,12.5,12.6c6.9,0,12.5-5.6,12.5-12.6c0-6.9-5.6-12.6-12.5-12.6
						C284.3,208.4,278.6,214,278.6,221z"/>
					<path id="XMLID_872_" class="st0" d="M211.8,221c0,6.9,5.6,12.6,12.5,12.6c6.9,0,12.5-5.6,12.5-12.6c0-6.9-5.6-12.6-12.5-12.6
						C217.4,208.4,211.8,214,211.8,221z"/>
				</g>
				<path id="XMLID_873_" class="st0" d="M257.8,266.9c6.1,0,13.9-4.5,17.2-10l6.2-10.1c3.4-5.5,0.8-10-5.6-10H240
					c-6.4,0-9,4.5-5.6,10l6.2,10.1C243.9,262.4,251.7,266.9,257.8,266.9z"/>
				<g id="XMLID_874_">
					<g id="XMLID_875_">
						<g id="XMLID_876_">
							<path class="st44" d="M173.2,288.4c10.3-10.2,23.5-13.7,29.4-7.7c5.9,6,2.3,19.1-8,29.4c-10.3,10.3-46.5,18.3-46.5,18.3
								S162.9,298.6,173.2,288.4z"/>
							<path class="st44" d="M176.2,297.7c4.2-15.5,14.9-26.2,23.9-23.7c8.9,2.4,12.8,17,8.6,32.6c-4.2,15.6-34.4,43.3-34.4,43.3
								S171.9,313.3,176.2,297.7z"/>
						</g>
						<path class="st44" d="M189.2,267.3c13.2-0.6,23.6,5.2,23.1,13.2c-0.5,7.9-11.7,14.9-24.9,15.5c-13.2,0.7-40.6-16.6-40.6-16.6
							S176,267.9,189.2,267.3z"/>
					</g>
					<g id="XMLID_877_">
						<g id="XMLID_878_">
							<path class="st44" d="M342.3,288.4c-10.3-10.2-23.5-13.7-29.4-7.7c-5.9,6-2.3,19.1,8,29.4c10.3,10.3,46.5,18.3,46.5,18.3
								S352.6,298.6,342.3,288.4z"/>
							<path class="st44" d="M339.4,297.7c-4.2-15.5-14.9-26.2-23.9-23.7c-8.9,2.4-12.8,17-8.6,32.6c4.2,15.6,34.4,43.3,34.4,43.3
								S343.6,313.3,339.4,297.7z"/>
						</g>
						<path class="st44" d="M326.3,267.3c-13.2-0.6-23.6,5.2-23.1,13.2c0.5,7.9,11.7,14.9,24.9,15.5c13.2,0.7,40.6-16.6,40.6-16.6
							S339.6,267.9,326.3,267.3z"/>
					</g>
				</g>
				<g id="XMLID_879_">
					<g id="XMLID_880_">
						<g id="XMLID_881_">
							<path id="XMLID_882_" class="st44" d="M324.7,117.4c-16.9,21.5-19.9,46.4-6.7,55.6c13.2,9.2,37.7-0.9,54.6-22.4
								c16.9-21.5,22.3-89.5,22.3-89.5S341.6,95.9,324.7,117.4z"/>
						</g>
						<g id="XMLID_883_">
							<path id="XMLID_884_" class="st43" d="M354.6,112.9c-9.4,16.2-11.1,34.9-3.7,41.7c7.4,6.9,20.9-0.6,30.3-16.8
								c9.4-16.2,12.4-67.2,12.4-67.2S364,96.7,354.6,112.9z"/>
						</g>
					</g>
					<g id="XMLID_885_">
						<g id="XMLID_886_">
							<path id="XMLID_887_" class="st44" d="M190.8,117.4c16.9,21.5,19.9,46.4,6.7,55.6c-13.2,9.2-37.7-0.9-54.6-22.4
								c-16.9-21.5-22.3-89.5-22.3-89.5S173.9,95.9,190.8,117.4z"/>
						</g>
						<g id="XMLID_888_">
							<path id="XMLID_889_" class="st43" d="M161,112.9c9.4,16.2,11.1,34.9,3.7,41.7c-7.4,6.9-20.9-0.6-30.3-16.8
								c-9.4-16.2-12.4-67.2-12.4-67.2S151.6,96.7,161,112.9z"/>
						</g>
					</g>
				</g>
				<g id="XMLID_890_">
					<g id="XMLID_891_">
						<path id="XMLID_892_" class="st0" d="M251.2,264.1c0,5.1,1.2,11.8-1.4,16.4c-3.1,5.6-12.3,3.8-17.5,3.8
							c-7.6,0-7.6,11.8,0,11.8c9.2,0,18.1,0.7,25.2-6.4c6.8-6.8,5.5-16.9,5.5-25.6C263,256.5,251.2,256.5,251.2,264.1L251.2,264.1z"
							/>
					</g>
					<g id="XMLID_893_">
						<path id="XMLID_894_" class="st0" d="M252.5,264.1c0,8.5-1.2,17.6,4.6,24.6c6.8,8.2,16.4,7.4,26,7.4c7.6,0,7.6-11.8,0-11.8
							c-5.6,0-12.6,1.4-16.9-3c-3.7-3.7-2-12.6-2-17.3C264.3,256.5,252.5,256.5,252.5,264.1L252.5,264.1z"/>
					</g>
				</g>
				<path id="XMLID_895_" class="st0" d="M278.6,304.2c0,2.9-2.3,5.2-5.2,5.2h-31.3c-2.9,0-5.2-2.3-5.2-5.2l0,0
					c0-2.9,2.3-5.2,5.2-5.2h31.3C276.3,299,278.6,301.3,278.6,304.2L278.6,304.2z"/>
			</g>
		</g>
	</g>
</g>
</svg>
