<?xml version="1.0" encoding="utf-8"?>
<!-- Generator: Adobe Illustrator 25.0.0, SVG Export Plug-In . SVG Version: 6.00 Build 0)  -->
<svg version="1.1" xmlns="http://www.w3.org/2000/svg" xmlns:xlink="http://www.w3.org/1999/xlink" x="0px" y="0px"
	 viewBox="0 0 512 512" style="enable-background:new 0 0 512 512;" xml:space="preserve">
<style type="text/css">
	.st0{fill:#3D2A3D;}
	.st1{fill:#D5872A;}
	.st2{fill:#C9E874;}
	.st3{fill:#277A6B;}
	.st4{fill:#FFDE69;}
	.st5{fill:#698250;}
	.st6{fill:#C8C947;}
	.st7{fill:#A6DEA9;}
	.st8{fill:#376C7E;}
	.st9{fill:#8BA83C;}
	.st10{fill:#2FABAF;}
	.st11{fill:#216964;}
	.st12{fill:#605560;}
	.st13{fill:#C45742;}
	.st14{fill:#79D7F2;}
	.st15{fill:#769938;}
	.st16{fill:#9EC853;}
	.st17{fill:#E7AD84;}
	.st18{fill:#76B079;}
	.st19{clip-path:url(#SVGID_2_);}
	.st20{fill:#594335;}
	.st21{fill:#F7F7F8;}
	.st22{fill:#7D5737;}
	.st23{fill:#D68F6A;}
	.st24{clip-path:url(#SVGID_4_);fill:#C45742;}
	.st25{clip-path:url(#SVGID_4_);fill:#E88D38;}
	.st26{clip-path:url(#SVGID_4_);}
	.st27{fill:#E1902B;}
	.st28{fill:#FFC671;}
	.st29{fill:#E1E1E1;}
	.st30{clip-path:url(#SVGID_6_);}
	.st31{fill:#D1741D;}
	.st32{fill:#C93A3A;}
	.st33{clip-path:url(#SVGID_8_);}
	.st34{fill:#919191;}
	.st35{fill:#CE722F;}
	.st36{fill:#C4C4C4;}
	.st37{clip-path:url(#SVGID_10_);}
	.st38{fill:#665348;}
	.st39{fill:#877365;}
	.st40{fill:#E3A584;}
	.st41{fill:#733D28;}
	.st42{clip-path:url(#SVGID_12_);}
	.st43{fill:#8C8C8C;}
	.st44{fill:#BFBFBF;}
	.st45{clip-path:url(#SVGID_14_);}
	.st46{clip-path:url(#SVGID_16_);}
	.st47{fill:#FFFFFF;}
	.st48{fill:#4A414A;}
	.st49{clip-path:url(#SVGID_18_);}
	.st50{fill:#BE7632;}
	.st51{clip-path:url(#SVGID_20_);}
	.st52{fill:#E3A445;}
	.st53{fill:#FFF0BA;}
	.st54{fill:#BF7128;}
	.st55{clip-path:url(#XMLID_82_);}
	.st56{fill:#AC6322;}
	.st57{clip-path:url(#SVGID_22_);}
	.st58{fill:#DBCCA6;}
	.st59{fill:#C2A579;}
	.st60{fill:#CFB582;}
	.st61{fill:#EBE2B2;}
	.st62{fill:#B8B399;}
	.st63{fill:#918E79;}
	.st64{fill:#665F52;}
	.st65{clip-path:url(#XMLID_83_);}
	.st66{fill:#BD4A4A;}
	.st67{fill:#D4811C;}
	.st68{fill:#CF6F15;}
	.st69{clip-path:url(#SVGID_24_);}
	.st70{fill:#FFF8E3;}
	.st71{fill:#7A6D7A;}
	.st72{fill:#2C1512;}
	.st73{fill:#D6CBA9;}
	.st74{clip-path:url(#XMLID_84_);}
	.st75{fill:#FFEA9E;}
	.st76{fill:#FFDBC5;}
	.st77{clip-path:url(#XMLID_85_);}
	.st78{fill:#B55716;}
	.st79{fill:#C47325;}
	.st80{clip-path:url(#XMLID_86_);}
	.st81{fill:#ADA798;}
	.st82{fill:#C4BDAC;}
	.st83{fill:#8F8266;}
	.st84{fill:#D6CEBC;}
	.st85{fill:#FFFAE6;}
	.st86{fill:#595140;}
	.st87{clip-path:url(#XMLID_88_);}
	.st88{fill:#B84028;}
	.st89{fill:#E6B75A;}
	.st90{fill:#DB614A;}
	.st91{clip-path:url(#XMLID_92_);}
	.st92{fill:#615661;}
	.st93{fill:#635963;}
	.st94{fill:#4F414F;}
	.st95{fill:#7D6F7D;}
	.st96{fill:#B5A0B5;}
	.st97{fill:#574D57;}
	.st98{clip-path:url(#XMLID_95_);}
	.st99{fill:#C2C2C2;}
	.st100{fill:#9E9E9E;}
	.st101{fill:#949494;}
	.st102{fill:#E8E8E8;}
	.st103{fill:#A1A1A1;}
	.st104{fill:#D66270;}
	.st105{clip-path:url(#XMLID_99_);}
	.st106{fill:#CFCFCF;}
	.st107{fill:#BDA18D;}
	.st108{fill:#82A385;}
	.st109{clip-path:url(#XMLID_100_);}
	.st110{fill:#D1986E;}
	.st111{fill:#C2733E;}
	.st112{fill:#E6AC83;}
	.st113{fill:#C28155;}
	.st114{fill:#6E482E;}
	.st115{fill:#594435;}
	.st116{clip-path:url(#XMLID_102_);}
	.st117{fill:#6B5545;}
	.st118{fill:#261526;}
	.st119{fill:#9E8776;}
	.st120{fill:#807180;}
	.st121{fill:#A693A6;}
	.st122{fill:#614C61;}
	.st123{clip-path:url(#XMLID_107_);}
	.st124{fill:#D9D9D9;}
	.st125{clip-path:url(#XMLID_110_);}
	.st126{fill:#4D404D;}
	.st127{clip-path:url(#XMLID_110_);fill:#4D404D;}
	.st128{clip-path:url(#XMLID_111_);}
	.st129{clip-path:url(#XMLID_120_);}
	.st130{fill:#FFC682;}
	.st131{clip-path:url(#XMLID_121_);}
	.st132{fill:#753427;}
	.st133{clip-path:url(#XMLID_121_);fill:#753427;}
	.st134{clip-path:url(#SVGID_26_);}
	.st135{fill:#694334;}
	.st136{fill:#FF826E;}
	.st137{fill:#875F44;}
	.st138{fill:#4F3327;}
	.st139{fill:#D68256;}
	.st140{clip-path:url(#SVGID_28_);}
	.st141{fill:#6E6E6E;}
	.st142{fill:#B8B8B8;}
	.st143{clip-path:url(#SVGID_28_);fill:#B8B8B8;}
	.st144{clip-path:url(#SVGID_30_);}
	.st145{clip-path:url(#SVGID_32_);}
	.st146{fill:#D16658;}
	.st147{fill:#E6786A;}
	.st148{fill:#F79E92;}
	.st149{clip-path:url(#SVGID_34_);}
	.st150{fill:#E6CA56;}
	.st151{fill:#F2EBCB;}
	.st152{fill:#F08C7F;}
	.st153{clip-path:url(#SVGID_36_);}
	.st154{fill:#9E6842;}
	.st155{fill:#BA835E;}
	.st156{fill:#8C5937;}
	.st157{fill:#E3AD88;}
	.st158{fill:#A86B42;}
	.st159{clip-path:url(#SVGID_38_);}
	.st160{fill:#877987;}
	.st161{fill:#C7BCB2;}
	.st162{clip-path:url(#SVGID_40_);}
	.st163{fill:#6E4D37;}
	.st164{fill:#A8562A;}
	.st165{clip-path:url(#SVGID_42_);}
	.st166{fill:#A37352;}
	.st167{clip-path:url(#SVGID_44_);}
	.st168{fill:#8A8A8A;}
	.st169{fill:#F0F0F0;}
	.st170{clip-path:url(#XMLID_126_);}
	.st171{clip-path:url(#SVGID_46_);fill:none;}
	.st172{clip-path:url(#SVGID_46_);}
	.st173{fill:#78553C;}
	.st174{fill:#F29C5E;}
	.st175{fill:#D4D4D4;}
	.st176{clip-path:url(#SVGID_48_);}
	.st177{fill:#DB959A;}
	.st178{clip-path:url(#SVGID_50_);}
	.st179{fill:#A1341E;}
	.st180{fill:#EB9F2E;}
	.st181{clip-path:url(#SVGID_52_);}
	.st182{clip-path:url(#SVGID_54_);}
	.st183{fill:#855433;}
	.st184{fill:#AD6D42;}
	.st185{clip-path:url(#SVGID_56_);}
	.st186{fill:#D5A060;}
	.st187{clip-path:url(#SVGID_58_);}
	.st188{fill:#4A3C4A;}
	.st189{fill:#524352;}
	.st190{clip-path:url(#SVGID_60_);}
	.st191{fill:#524252;}
	.st192{clip-path:url(#SVGID_62_);fill:#C7781C;}
	.st193{clip-path:url(#SVGID_62_);}
	.st194{fill:#DEDEDE;}
	.st195{fill:#C7781C;}
	.st196{clip-path:url(#SVGID_62_);fill:#D5872A;}
	.st197{clip-path:url(#SVGID_62_);fill:#877365;}
	.st198{clip-path:url(#SVGID_62_);fill:#E3AD88;}
	.st199{clip-path:url(#SVGID_62_);fill:#F7F7F8;}
	.st200{clip-path:url(#SVGID_64_);}
	.st201{fill:#A63A25;}
	.st202{clip-path:url(#SVGID_66_);}
	.st203{clip-path:url(#SVGID_68_);}
	.st204{fill:#CF97A1;}
	.st205{fill:#CF7686;}
	.st206{clip-path:url(#SVGID_70_);}
	.st207{fill:#4F464F;}
	.st208{fill:#9C8A9C;}
	.st209{clip-path:url(#SVGID_72_);}
</style>
<g id="ICON">
	<path id="XMLID_22_" class="st7" d="M512,256c0,141.4-114.6,256-256,256C114.6,512,0,397.4,0,256C0,114.6,114.6,0,256,0
		C397.4,0,512,114.6,512,256z"/>
</g>
<g id="Layer_7">
	<g id="XMLID_956_">
		<defs>
			<path id="SVGID_17_" d="M512,256c0,141.4-114.6,256-256,256C114.6,512,0,397.4,0,256C0,114.6,114.6,0,256,0
				C397.4,0,512,114.6,512,256z"/>
		</defs>
		<clipPath id="SVGID_2_">
			<use xlink:href="#SVGID_17_"  style="overflow:visible;"/>
		</clipPath>
		<g id="XMLID_957_" class="st19">
			<path class="st0" d="M436.5,237.9c0.4,99.7-80.2,180.8-179.8,181.1C157,419.3,75.9,338.8,75.5,239.1
				C75.2,139.5,155.7,58.4,255.4,58C355,57.7,436.1,138.2,436.5,237.9z"/>
			<g id="XMLID_958_">
				<path class="st3" d="M512.5,593.7l-0.1-1.2c-0.5-70.5-27.4-138.6-59.9-151.4l-138.1-54.3c-32.4-12.8-85.4-12.5-117.7,0.6
					L57.4,444C25.1,457.2-0.9,525.6-0.4,596l-0.1,1.2L512.5,593.7z"/>
				
					<rect x="195" y="317" transform="matrix(1 -6.828655e-03 6.828655e-03 1 -2.4787 1.7566)" class="st50" width="121.9" height="93.7"/>
				<g id="XMLID_959_">
					<polygon class="st21" points="214.8,465.8 155.5,428 173.6,385.5 255.8,408.6 					"/>
					<g id="XMLID_961_">
						<polygon class="st21" points="297.7,465.2 356.5,426.7 337.8,384.4 255.9,408.6 						"/>
					</g>
				</g>
			</g>
			<g id="XMLID_962_">
				<g id="XMLID_963_">
					<g id="XMLID_964_">
						<path class="st27" d="M301.2,186.1c-0.6-0.5-1-1-1.2-1.6l-89.2,0.8c-11.8,13.2-23.1,26.8-33.4,41c0,0.1-0.1,0.1-0.1,0.2
							l14.5,95.7c0.2,13.6,14,24.5,31,24.3l72.6-0.7c17-0.2,30.6-11.3,30.4-24.9l10.5-97C325.7,210.6,314.7,197.5,301.2,186.1z"/>
					</g>
					<path class="st27" d="M336.4,220.2c0.1,37.7-35.4,68.4-79.3,68.6c-44,0.2-79.7-30.3-79.8-68c-0.1-37.7,35.4-68.4,79.3-68.6
						C300.5,152,336.2,182.5,336.4,220.2z"/>
				</g>
				<g id="XMLID_965_">
					<path class="st0" d="M231.9,223.6c0,5.7-4.6,10.4-10.3,10.4c-5.7,0-10.4-4.6-10.4-10.3c0-5.7,4.6-10.4,10.3-10.4
						C227.2,213.2,231.9,217.8,231.9,223.6z"/>
					<path class="st0" d="M301.4,223.3c0,5.7-4.6,10.4-10.3,10.4c-5.7,0-10.4-4.6-10.4-10.3c0-5.7,4.6-10.4,10.3-10.4
						C296.7,213,301.3,217.6,301.4,223.3z"/>
				</g>
				<g id="XMLID_966_">
					<path class="st27" d="M166.3,144.5c12.5,0.6,17.3,9.8,10.5,20.4l-15.2,23.9c-6.7,10.6-17,10.1-22.9-0.9l-13.6-25.8
						c-5.8-11.1-0.4-19.6,12.1-19L166.3,144.5z"/>
					<path class="st27" d="M345.6,143.9c-12.5,0.7-17.2,9.9-10.4,20.4l15.4,23.8c6.8,10.5,17.1,10,22.9-1.1l13.4-25.9
						c5.8-11.1,0.3-19.6-12.3-18.9L345.6,143.9z"/>
				</g>
				<g id="XMLID_967_">
					<g id="XMLID_968_">
						<polygon class="st21" points="258.7,307.3 304.9,376.9 304.6,307.2 						"/>
						<polygon class="st21" points="208.6,307.5 208.8,377.2 254.4,307.3 						"/>
					</g>
				</g>
				<g id="XMLID_969_">
					<path class="st27" d="M192.1,281c-12.4,0.7-39.8,11.5-39.8,11.5s11,6.9,22.1,11.4c-9.3,11.4-20.6,34.4-20.6,34.4s12.1-2.8,24-7
						c-0.3,13.7,0.6,27.2,0.6,27.2s28.2-26.1,32.1-40.7c1.8-6.8,2-13.3,0.8-18.6c1.5-1.8,2.4-3.8,2.5-5.9
						C214.3,285.9,204.5,280.4,192.1,281z"/>
					<path class="st27" d="M338.6,303.4c11.1-4.6,22-11.6,22-11.6s-27.4-10.6-39.9-11.2c-12.4-0.6-22.1,5-21.6,12.4
						c0.1,2.1,1.1,4,2.6,5.9c-1.1,5.3-0.9,11.9,1,18.6c4,14.5,32.4,40.5,32.4,40.5s0.8-13.5,0.4-27.2c11.9,4.2,24,6.9,24,6.9
						S348,314.8,338.6,303.4z"/>
				</g>
				<polygon class="st28" points="312,307.1 201.1,307.5 256.2,209.8 256.2,209.8 				"/>
				<g id="XMLID_970_">
					<path class="st0" d="M290.3,294.3l-0.1-24.3c0-6.3-4.7-11.6-11-11.5l-45.6,0.2c-6.3,0-10.8,5.3-10.8,11.6l0.1,24.3L290.3,294.3
						z"/>
					<g id="XMLID_973_">
						<path class="st28" d="M250.2,305.9c0.1,18.2-14.6,33-32.9,33.1l0,0c-18.2,0.1-33-14.6-33.1-32.9l0-1.4
							c-0.1-18.2,14.6-33,32.9-33.1l0,0c18.2-0.1,33,14.6,33.1,32.9L250.2,305.9z"/>
						<path class="st28" d="M327.6,305.6c0.1,18.2-14.6,33-32.9,33.1l0,0c-18.2,0.1-33-14.6-33.1-32.9l0-1.4
							c-0.1-18.2,14.6-33,32.9-33.1l0,0c18.2-0.1,33,14.6,33.1,32.9L327.6,305.6z"/>
					</g>
					<path class="st0" d="M265.9,303c0,5.5-4.5,10.1-10,10.1l0,0c-5.5,0-10.1-4.5-10.1-10l-0.1-33c0-5.5,4.5-10.1,10-10.1l0,0
						c5.5,0,10.1,4.5,10.1,10L265.9,303z"/>
				</g>
			</g>
		</g>
	</g>
</g>
</svg>
