<?xml version="1.0" encoding="utf-8"?>
<!-- Generator: Adobe Illustrator 25.0.0, SVG Export Plug-In . SVG Version: 6.00 Build 0)  -->
<svg version="1.1" xmlns="http://www.w3.org/2000/svg" xmlns:xlink="http://www.w3.org/1999/xlink" x="0px" y="0px"
	 viewBox="0 0 512 512" style="enable-background:new 0 0 512 512;" xml:space="preserve">
<style type="text/css">
	.st0{fill:#3D2A3D;}
	.st1{fill:#D5872A;}
	.st2{fill:#C9E874;}
	.st3{fill:#277A6B;}
	.st4{fill:#FFDE69;}
	.st5{fill:#698250;}
	.st6{fill:#C8C947;}
	.st7{fill:#A6DEA9;}
	.st8{fill:#376C7E;}
	.st9{fill:#8BA83C;}
	.st10{fill:#2FABAF;}
	.st11{fill:#216964;}
	.st12{fill:#605560;}
	.st13{fill:#C45742;}
	.st14{fill:#79D7F2;}
	.st15{fill:#769938;}
	.st16{fill:#9EC853;}
	.st17{fill:#E7AD84;}
	.st18{fill:#76B079;}
	.st19{clip-path:url(#SVGID_2_);}
	.st20{fill:#594335;}
	.st21{fill:#F7F7F8;}
	.st22{fill:#7D5737;}
	.st23{fill:#D68F6A;}
	.st24{clip-path:url(#SVGID_4_);fill:#C45742;}
	.st25{clip-path:url(#SVGID_4_);fill:#E88D38;}
	.st26{clip-path:url(#SVGID_4_);}
	.st27{fill:#E1902B;}
	.st28{fill:#FFC671;}
	.st29{fill:#E1E1E1;}
	.st30{clip-path:url(#SVGID_6_);}
	.st31{fill:#D1741D;}
	.st32{fill:#C93A3A;}
	.st33{clip-path:url(#SVGID_8_);}
	.st34{fill:#919191;}
	.st35{fill:#CE722F;}
	.st36{fill:#C4C4C4;}
	.st37{clip-path:url(#SVGID_10_);}
	.st38{fill:#665348;}
	.st39{fill:#877365;}
	.st40{fill:#E3A584;}
	.st41{fill:#733D28;}
	.st42{clip-path:url(#SVGID_12_);}
	.st43{fill:#8C8C8C;}
	.st44{fill:#BFBFBF;}
	.st45{clip-path:url(#SVGID_14_);}
	.st46{clip-path:url(#SVGID_16_);}
	.st47{fill:#FFFFFF;}
	.st48{fill:#4A414A;}
	.st49{clip-path:url(#SVGID_18_);}
	.st50{fill:#BE7632;}
	.st51{clip-path:url(#SVGID_20_);}
	.st52{fill:#E3A445;}
	.st53{fill:#FFF0BA;}
	.st54{fill:#BF7128;}
	.st55{clip-path:url(#XMLID_82_);}
	.st56{fill:#AC6322;}
	.st57{clip-path:url(#SVGID_22_);}
	.st58{fill:#DBCCA6;}
	.st59{fill:#C2A579;}
	.st60{fill:#CFB582;}
	.st61{fill:#EBE2B2;}
	.st62{fill:#B8B399;}
	.st63{fill:#918E79;}
	.st64{fill:#665F52;}
	.st65{clip-path:url(#XMLID_83_);}
	.st66{fill:#BD4A4A;}
	.st67{fill:#D4811C;}
	.st68{fill:#CF6F15;}
	.st69{clip-path:url(#SVGID_24_);}
	.st70{fill:#FFF8E3;}
	.st71{fill:#7A6D7A;}
	.st72{fill:#2C1512;}
	.st73{fill:#D6CBA9;}
	.st74{clip-path:url(#XMLID_84_);}
	.st75{fill:#FFEA9E;}
	.st76{fill:#FFDBC5;}
	.st77{clip-path:url(#XMLID_85_);}
	.st78{fill:#B55716;}
	.st79{fill:#C47325;}
	.st80{clip-path:url(#XMLID_86_);}
	.st81{fill:#ADA798;}
	.st82{fill:#C4BDAC;}
	.st83{fill:#8F8266;}
	.st84{fill:#D6CEBC;}
	.st85{fill:#FFFAE6;}
	.st86{fill:#595140;}
	.st87{clip-path:url(#XMLID_88_);}
	.st88{fill:#B84028;}
	.st89{fill:#E6B75A;}
	.st90{fill:#DB614A;}
	.st91{clip-path:url(#XMLID_92_);}
	.st92{fill:#615661;}
	.st93{fill:#635963;}
	.st94{fill:#4F414F;}
	.st95{fill:#7D6F7D;}
	.st96{fill:#B5A0B5;}
	.st97{fill:#574D57;}
	.st98{clip-path:url(#XMLID_95_);}
	.st99{fill:#C2C2C2;}
	.st100{fill:#9E9E9E;}
	.st101{fill:#949494;}
	.st102{fill:#E8E8E8;}
	.st103{fill:#A1A1A1;}
	.st104{fill:#D66270;}
	.st105{clip-path:url(#XMLID_99_);}
	.st106{fill:#CFCFCF;}
	.st107{fill:#BDA18D;}
	.st108{fill:#82A385;}
	.st109{clip-path:url(#XMLID_100_);}
	.st110{fill:#D1986E;}
	.st111{fill:#C2733E;}
	.st112{fill:#E6AC83;}
	.st113{fill:#C28155;}
	.st114{fill:#6E482E;}
	.st115{fill:#594435;}
	.st116{clip-path:url(#XMLID_102_);}
	.st117{fill:#6B5545;}
	.st118{fill:#261526;}
	.st119{fill:#9E8776;}
	.st120{fill:#807180;}
	.st121{fill:#A693A6;}
	.st122{fill:#614C61;}
	.st123{clip-path:url(#XMLID_107_);}
	.st124{fill:#D9D9D9;}
	.st125{clip-path:url(#XMLID_110_);}
	.st126{fill:#4D404D;}
	.st127{clip-path:url(#XMLID_110_);fill:#4D404D;}
	.st128{clip-path:url(#XMLID_111_);}
	.st129{clip-path:url(#XMLID_120_);}
	.st130{fill:#FFC682;}
	.st131{clip-path:url(#XMLID_121_);}
	.st132{fill:#753427;}
	.st133{clip-path:url(#XMLID_121_);fill:#753427;}
	.st134{clip-path:url(#SVGID_26_);}
	.st135{fill:#694334;}
	.st136{fill:#FF826E;}
	.st137{fill:#875F44;}
	.st138{fill:#4F3327;}
	.st139{fill:#D68256;}
	.st140{clip-path:url(#SVGID_28_);}
	.st141{fill:#6E6E6E;}
	.st142{fill:#B8B8B8;}
	.st143{clip-path:url(#SVGID_28_);fill:#B8B8B8;}
	.st144{clip-path:url(#SVGID_30_);}
	.st145{clip-path:url(#SVGID_32_);}
	.st146{fill:#D16658;}
	.st147{fill:#E6786A;}
	.st148{fill:#F79E92;}
	.st149{clip-path:url(#SVGID_34_);}
	.st150{fill:#E6CA56;}
	.st151{fill:#F2EBCB;}
	.st152{fill:#F08C7F;}
	.st153{clip-path:url(#SVGID_36_);}
	.st154{fill:#9E6842;}
	.st155{fill:#BA835E;}
	.st156{fill:#8C5937;}
	.st157{fill:#E3AD88;}
	.st158{fill:#A86B42;}
	.st159{clip-path:url(#SVGID_38_);}
	.st160{fill:#877987;}
	.st161{fill:#C7BCB2;}
	.st162{clip-path:url(#SVGID_40_);}
	.st163{fill:#6E4D37;}
	.st164{fill:#A8562A;}
	.st165{clip-path:url(#SVGID_42_);}
	.st166{fill:#A37352;}
	.st167{clip-path:url(#SVGID_44_);}
	.st168{fill:#8A8A8A;}
	.st169{fill:#F0F0F0;}
	.st170{clip-path:url(#XMLID_126_);}
	.st171{clip-path:url(#SVGID_46_);fill:none;}
	.st172{clip-path:url(#SVGID_46_);}
	.st173{fill:#78553C;}
	.st174{fill:#F29C5E;}
	.st175{fill:#D4D4D4;}
	.st176{clip-path:url(#SVGID_48_);}
	.st177{fill:#DB959A;}
	.st178{clip-path:url(#SVGID_50_);}
	.st179{fill:#A1341E;}
	.st180{fill:#EB9F2E;}
	.st181{clip-path:url(#SVGID_52_);}
	.st182{clip-path:url(#SVGID_54_);}
	.st183{fill:#855433;}
	.st184{fill:#AD6D42;}
	.st185{clip-path:url(#SVGID_56_);}
	.st186{fill:#D5A060;}
	.st187{clip-path:url(#SVGID_58_);}
	.st188{fill:#4A3C4A;}
	.st189{fill:#524352;}
	.st190{clip-path:url(#SVGID_60_);}
	.st191{fill:#524252;}
	.st192{clip-path:url(#SVGID_62_);fill:#C7781C;}
	.st193{clip-path:url(#SVGID_62_);}
	.st194{fill:#DEDEDE;}
	.st195{fill:#C7781C;}
	.st196{clip-path:url(#SVGID_62_);fill:#D5872A;}
	.st197{clip-path:url(#SVGID_62_);fill:#877365;}
	.st198{clip-path:url(#SVGID_62_);fill:#E3AD88;}
	.st199{clip-path:url(#SVGID_62_);fill:#F7F7F8;}
	.st200{clip-path:url(#SVGID_64_);}
	.st201{fill:#A63A25;}
	.st202{clip-path:url(#SVGID_66_);}
	.st203{clip-path:url(#SVGID_68_);}
	.st204{fill:#CF97A1;}
	.st205{fill:#CF7686;}
	.st206{clip-path:url(#SVGID_70_);}
	.st207{fill:#4F464F;}
	.st208{fill:#9C8A9C;}
	.st209{clip-path:url(#SVGID_72_);}
</style>
<g id="ICON">
	<path id="XMLID_105_" class="st13" d="M512,256c0,141.4-114.6,256-256,256C114.6,512,0,397.4,0,256C0,114.6,114.6,0,256,0
		C397.4,0,512,114.6,512,256z"/>
</g>
<g id="Layer_7">
	<g id="XMLID_1390_">
		<defs>
			<path id="XMLID_1427_" d="M512,256c0,141.4-114.6,256-256,256C114.6,512,0,397.4,0,256C0,114.6,114.6,0,256,0
				C397.4,0,512,114.6,512,256z"/>
		</defs>
		<clipPath id="XMLID_82_">
			<use xlink:href="#XMLID_1427_"  style="overflow:visible;"/>
		</clipPath>
		<g id="XMLID_1391_" class="st55">
			<g id="XMLID_1392_">
				<path id="XMLID_1395_" class="st10" d="M425.2,528.8l0-0.8c0-47.8-17.5-94.1-38.8-102.9l-90.9-37.5c-21.3-8.8-56.3-8.8-77.6-0.1
					l-92.2,37.7c-21.4,8.8-38.8,55-38.8,102.8l0,0.8H425.2z"/>
				<path id="XMLID_1396_" class="st99" d="M296.5,390.7c0,21.1-17.1,38.2-38.2,38.2h-4.6c-21.1,0-38.2-17.1-38.2-38.2v-98.3
					c0-21.1,17.1-38.2,38.2-38.2h4.6c21.1,0,38.2,17.1,38.2,38.2V390.7z"/>
			</g>
			<g id="XMLID_1397_">
				<g id="XMLID_1398_">
					<g id="XMLID_1399_">
						<path class="st99" d="M210.7,119.1C195.9,76,161.6,29,147.8,33.8c-13.7,4.7-11.8,62.8,3,106c14.9,43.1,40,75.8,62.9,85.3
							C226,203.4,225.6,162.2,210.7,119.1z"/>
						<path id="XMLID_1400_" class="st100" d="M206.1,202.8c-14.1-12.4-30.3-35.5-41.5-67.9c-5.8-16.8-9.9-37.4-11.1-56.4
							c-0.8-12.6-0.2-21.2,0.6-26.6c4,3.7,9.8,10.1,16.9,20.5c10.7,15.7,20.2,34.4,26,51.2C208.1,156.2,209.6,184.4,206.1,202.8z"/>
					</g>
					<g id="XMLID_1401_">
						<path id="XMLID_1402_" class="st99" d="M307.4,111.3c-1.6,3-3.2,6-4.7,9c-20,41-25.4,81.9-15.9,104.8
							c23.9-6.7,52.8-36.1,72.8-77.1c5.6-11.4,10.3-24.2,13.9-36.7H307.4z"/>
						<path id="XMLID_1403_" class="st101" d="M297.1,203.9c-1.2-18.7,3.7-46.5,18.7-77.3c0.1-0.3,0.3-0.5,0.4-0.8h37.1
							c-2.1,5.5-4.4,10.8-6.8,15.7C331.5,172.4,312.6,193.4,297.1,203.9z"/>
						<path id="XMLID_1404_" class="st102" d="M374.9,111.1c11.9,37.9,15.5,77.6,5.1,83c-13.1,6.8-52.8-38.3-72.8-81.8
							c-0.2-0.4-0.4-0.8-0.5-1.2H374.9z"/>
					</g>
				</g>
				<g id="XMLID_1405_">
					<path id="XMLID_1406_" class="st102" d="M316.1,309.8c0,33.9-27.5,61.4-61.4,61.4l0,0c-33.9,0-61.4-27.5-61.4-61.4v-61.4
						c0-33.9,27.5-61.4,61.4-61.4l0,0c33.9,0,61.4,27.5,61.4,61.4V309.8z"/>
					<ellipse id="XMLID_1407_" class="st102" cx="254.7" cy="319" rx="75" ry="59.7"/>
					<g id="XMLID_1408_">
						<g id="XMLID_1409_">
							<g id="XMLID_1410_">
								<path class="st102" d="M185.3,291.4c8.5-8.4,19.3-11.2,24.1-6.3c4.8,4.9,1.9,15.7-6.6,24.1c-8.5,8.4-38.1,15-38.1,15
									S176.8,299.8,185.3,291.4z"/>
								<path class="st102" d="M187.7,299.1c3.5-12.7,12.2-21.4,19.6-19.4c7.3,2,10.5,14,7,26.7c-3.5,12.7-28.2,35.5-28.2,35.5
									S184.3,311.8,187.7,299.1z"/>
							</g>
							<path class="st102" d="M198.4,274.1c10.9-0.5,19.3,4.3,18.9,10.8c-0.4,6.5-9.6,12.2-20.4,12.7c-10.9,0.5-33.3-13.6-33.3-13.6
								S187.6,274.6,198.4,274.1z"/>
						</g>
						<g id="XMLID_1411_">
							<g id="XMLID_1412_">
								<path class="st102" d="M324.1,291.4c-8.5-8.4-19.3-11.2-24.1-6.3c-4.8,4.9-1.9,15.7,6.6,24.1c8.5,8.4,38.1,15,38.1,15
									S332.6,299.8,324.1,291.4z"/>
								<path class="st102" d="M321.7,299.1c-3.5-12.7-12.2-21.4-19.6-19.4c-7.3,2-10.5,14-7,26.7c3.5,12.7,28.2,35.5,28.2,35.5
									S325.2,311.8,321.7,299.1z"/>
							</g>
							<path class="st102" d="M311,274.1c-10.9-0.5-19.3,4.3-18.9,10.8c0.4,6.5,9.6,12.2,20.4,12.7c10.9,0.5,33.3-13.6,33.3-13.6
								S321.9,274.6,311,274.1z"/>
						</g>
					</g>
				</g>
				<g id="XMLID_1413_">
					<g id="XMLID_1414_">
						<path id="XMLID_1415_" class="st12" d="M238,265.4c0,5.7-4.7,10.4-10.4,10.4c-5.7,0-10.4-4.6-10.4-10.4
							c0-5.7,4.6-10.4,10.4-10.4C233.4,255,238,259.7,238,265.4z"/>
						<path id="XMLID_1416_" class="st12" d="M292.2,265.4c0,5.7-4.6,10.4-10.4,10.4c-5.7,0-10.4-4.6-10.4-10.4
							c0-5.7,4.6-10.4,10.4-10.4C287.5,255,292.2,259.7,292.2,265.4z"/>
					</g>
				</g>
				<g id="XMLID_1417_">
					<path id="XMLID_1418_" class="st103" d="M258.7,318.1c0,2.2-1.8,4-4,4l0,0c-2.2,0-4-1.8-4-4V301c0-2.2,1.8-4,4-4l0,0
						c2.2,0,4,1.8,4,4V318.1z"/>
					<g id="XMLID_1419_">
						<path class="st103" d="M245.4,332.6c-1.6,1.6-4.2,1.6-5.7,0l0,0c-1.6-1.6-1.6-4.2,0-5.7l12.5-12.5c1.6-1.6,4.2-1.6,5.7,0l0,0
							c1.6,1.6,1.6,4.2,0,5.7L245.4,332.6z"/>
						<path class="st103" d="M269.7,326.8c1.6,1.6,1.6,4.2,0,5.7l0,0c-1.6,1.6-4.2,1.6-5.7,0l-12.5-12.5c-1.6-1.6-1.6-4.2,0-5.7l0,0
							c1.6-1.6,4.2-1.6,5.7,0L269.7,326.8z"/>
					</g>
					<path id="XMLID_1420_" class="st101" d="M268.2,293.9c0,4.1-3.3,7.4-7.4,7.4h-12.2c-4.1,0-7.4-3.3-7.4-7.4v-39.7
						c0-4.1,3.3-7.4,7.4-7.4h12.2c4.1,0,7.4,3.3,7.4,7.4V293.9z"/>
					<path id="XMLID_1421_" class="st104" d="M254.7,310.4c5,0,11.4-3.7,14.2-8.3l5.1-8.3c2.8-4.5,0.7-8.3-4.6-8.3h-29.3
						c-5.3,0-7.4,3.7-4.6,8.3l5.1,8.3C243.3,306.7,249.7,310.4,254.7,310.4z"/>
				</g>
				<g id="XMLID_1422_">
					<g id="XMLID_1423_">
						<g id="XMLID_1424_">
							<path id="XMLID_1425_" class="st0" d="M216.3,318.1c0.7,23.9,17.6,43.1,38.4,43.1c20.8,0,37.7-19.2,38.4-43.1
								c-10.7,5.6-24,8.9-38.4,8.9C240.3,327,227,323.7,216.3,318.1z"/>
						</g>
					</g>
				</g>
				<path id="XMLID_1426_" class="st21" d="M246.9,342.7h15.7c1.9,0,3.4-1.5,3.4-3.4v-13.1c-3.6,0.4-7.4,0.7-11.2,0.7
					c-3.8,0-7.6-0.2-11.2-0.7v13.1C243.5,341.2,245,342.7,246.9,342.7z"/>
			</g>
		</g>
	</g>
</g>
</svg>
