<?xml version="1.0" encoding="utf-8"?>
<!-- Generator: Adobe Illustrator 25.0.0, SVG Export Plug-In . SVG Version: 6.00 Build 0)  -->
<svg version="1.1" xmlns="http://www.w3.org/2000/svg" xmlns:xlink="http://www.w3.org/1999/xlink" x="0px" y="0px"
	 viewBox="0 0 512 512" style="enable-background:new 0 0 512 512;" xml:space="preserve">
<style type="text/css">
	.st0{fill:#3D2A3D;}
	.st1{fill:#D5872A;}
	.st2{fill:#C9E874;}
	.st3{fill:#277A6B;}
	.st4{fill:#FFDE69;}
	.st5{fill:#698250;}
	.st6{fill:#C8C947;}
	.st7{fill:#A6DEA9;}
	.st8{fill:#376C7E;}
	.st9{fill:#8BA83C;}
	.st10{fill:#2FABAF;}
	.st11{fill:#216964;}
	.st12{fill:#605560;}
	.st13{fill:#C45742;}
	.st14{fill:#79D7F2;}
	.st15{fill:#769938;}
	.st16{fill:#9EC853;}
	.st17{fill:#E7AD84;}
	.st18{fill:#76B079;}
	.st19{clip-path:url(#SVGID_2_);}
	.st20{fill:#594335;}
	.st21{fill:#F7F7F8;}
	.st22{fill:#7D5737;}
	.st23{fill:#D68F6A;}
	.st24{clip-path:url(#SVGID_4_);fill:#C45742;}
	.st25{clip-path:url(#SVGID_4_);fill:#E88D38;}
	.st26{clip-path:url(#SVGID_4_);}
	.st27{fill:#E1902B;}
	.st28{fill:#FFC671;}
	.st29{fill:#E1E1E1;}
	.st30{clip-path:url(#SVGID_6_);}
	.st31{fill:#D1741D;}
	.st32{fill:#C93A3A;}
	.st33{clip-path:url(#SVGID_8_);}
	.st34{fill:#919191;}
	.st35{fill:#CE722F;}
	.st36{fill:#C4C4C4;}
	.st37{clip-path:url(#SVGID_10_);}
	.st38{fill:#665348;}
	.st39{fill:#877365;}
	.st40{fill:#E3A584;}
	.st41{fill:#733D28;}
	.st42{clip-path:url(#SVGID_12_);}
	.st43{fill:#8C8C8C;}
	.st44{fill:#BFBFBF;}
	.st45{clip-path:url(#SVGID_14_);}
	.st46{clip-path:url(#SVGID_16_);}
	.st47{fill:#FFFFFF;}
	.st48{fill:#4A414A;}
	.st49{clip-path:url(#SVGID_18_);}
	.st50{fill:#BE7632;}
	.st51{clip-path:url(#SVGID_20_);}
	.st52{fill:#E3A445;}
	.st53{fill:#FFF0BA;}
	.st54{fill:#BF7128;}
	.st55{clip-path:url(#XMLID_82_);}
	.st56{fill:#AC6322;}
	.st57{clip-path:url(#SVGID_22_);}
	.st58{fill:#DBCCA6;}
	.st59{fill:#C2A579;}
	.st60{fill:#CFB582;}
	.st61{fill:#EBE2B2;}
	.st62{fill:#B8B399;}
	.st63{fill:#918E79;}
	.st64{fill:#665F52;}
	.st65{clip-path:url(#XMLID_83_);}
	.st66{fill:#BD4A4A;}
	.st67{fill:#D4811C;}
	.st68{fill:#CF6F15;}
	.st69{clip-path:url(#SVGID_24_);}
	.st70{fill:#FFF8E3;}
	.st71{fill:#7A6D7A;}
	.st72{fill:#2C1512;}
	.st73{fill:#D6CBA9;}
	.st74{clip-path:url(#XMLID_84_);}
	.st75{fill:#FFEA9E;}
	.st76{fill:#FFDBC5;}
	.st77{clip-path:url(#XMLID_85_);}
	.st78{fill:#B55716;}
	.st79{fill:#C47325;}
	.st80{clip-path:url(#XMLID_86_);}
	.st81{fill:#ADA798;}
	.st82{fill:#C4BDAC;}
	.st83{fill:#8F8266;}
	.st84{fill:#D6CEBC;}
	.st85{fill:#FFFAE6;}
	.st86{fill:#595140;}
	.st87{clip-path:url(#XMLID_88_);}
	.st88{fill:#B84028;}
	.st89{fill:#E6B75A;}
	.st90{fill:#DB614A;}
	.st91{clip-path:url(#XMLID_92_);}
	.st92{fill:#615661;}
	.st93{fill:#635963;}
	.st94{fill:#4F414F;}
	.st95{fill:#7D6F7D;}
	.st96{fill:#B5A0B5;}
	.st97{fill:#574D57;}
	.st98{clip-path:url(#XMLID_95_);}
	.st99{fill:#C2C2C2;}
	.st100{fill:#9E9E9E;}
	.st101{fill:#949494;}
	.st102{fill:#E8E8E8;}
	.st103{fill:#A1A1A1;}
	.st104{fill:#D66270;}
	.st105{clip-path:url(#XMLID_99_);}
	.st106{fill:#CFCFCF;}
	.st107{fill:#BDA18D;}
	.st108{fill:#82A385;}
	.st109{clip-path:url(#XMLID_100_);}
	.st110{fill:#D1986E;}
	.st111{fill:#C2733E;}
	.st112{fill:#E6AC83;}
	.st113{fill:#C28155;}
	.st114{fill:#6E482E;}
	.st115{fill:#594435;}
	.st116{clip-path:url(#XMLID_102_);}
	.st117{fill:#6B5545;}
	.st118{fill:#261526;}
	.st119{fill:#9E8776;}
	.st120{fill:#807180;}
	.st121{fill:#A693A6;}
	.st122{fill:#614C61;}
	.st123{clip-path:url(#XMLID_107_);}
	.st124{fill:#D9D9D9;}
	.st125{clip-path:url(#XMLID_110_);}
	.st126{fill:#4D404D;}
	.st127{clip-path:url(#XMLID_110_);fill:#4D404D;}
	.st128{clip-path:url(#XMLID_111_);}
	.st129{clip-path:url(#XMLID_120_);}
	.st130{fill:#FFC682;}
	.st131{clip-path:url(#XMLID_121_);}
	.st132{fill:#753427;}
	.st133{clip-path:url(#XMLID_121_);fill:#753427;}
	.st134{clip-path:url(#SVGID_26_);}
	.st135{fill:#694334;}
	.st136{fill:#FF826E;}
	.st137{fill:#875F44;}
	.st138{fill:#4F3327;}
	.st139{fill:#D68256;}
	.st140{clip-path:url(#SVGID_28_);}
	.st141{fill:#6E6E6E;}
	.st142{fill:#B8B8B8;}
	.st143{clip-path:url(#SVGID_28_);fill:#B8B8B8;}
	.st144{clip-path:url(#SVGID_30_);}
	.st145{clip-path:url(#SVGID_32_);}
	.st146{fill:#D16658;}
	.st147{fill:#E6786A;}
	.st148{fill:#F79E92;}
	.st149{clip-path:url(#SVGID_34_);}
	.st150{fill:#E6CA56;}
	.st151{fill:#F2EBCB;}
	.st152{fill:#F08C7F;}
	.st153{clip-path:url(#SVGID_36_);}
	.st154{fill:#9E6842;}
	.st155{fill:#BA835E;}
	.st156{fill:#8C5937;}
	.st157{fill:#E3AD88;}
	.st158{fill:#A86B42;}
	.st159{clip-path:url(#SVGID_38_);}
	.st160{fill:#877987;}
	.st161{fill:#C7BCB2;}
	.st162{clip-path:url(#SVGID_40_);}
	.st163{fill:#6E4D37;}
	.st164{fill:#A8562A;}
	.st165{clip-path:url(#SVGID_42_);}
	.st166{fill:#A37352;}
	.st167{clip-path:url(#SVGID_44_);}
	.st168{fill:#8A8A8A;}
	.st169{fill:#F0F0F0;}
	.st170{clip-path:url(#XMLID_126_);}
	.st171{clip-path:url(#SVGID_46_);fill:none;}
	.st172{clip-path:url(#SVGID_46_);}
	.st173{fill:#78553C;}
	.st174{fill:#F29C5E;}
	.st175{fill:#D4D4D4;}
	.st176{clip-path:url(#SVGID_48_);}
	.st177{fill:#DB959A;}
	.st178{clip-path:url(#SVGID_50_);}
	.st179{fill:#A1341E;}
	.st180{fill:#EB9F2E;}
	.st181{clip-path:url(#SVGID_52_);}
	.st182{clip-path:url(#SVGID_54_);}
	.st183{fill:#855433;}
	.st184{fill:#AD6D42;}
	.st185{clip-path:url(#SVGID_56_);}
	.st186{fill:#D5A060;}
	.st187{clip-path:url(#SVGID_58_);}
	.st188{fill:#4A3C4A;}
	.st189{fill:#524352;}
	.st190{clip-path:url(#SVGID_60_);}
	.st191{fill:#524252;}
	.st192{clip-path:url(#SVGID_62_);fill:#C7781C;}
	.st193{clip-path:url(#SVGID_62_);}
	.st194{fill:#DEDEDE;}
	.st195{fill:#C7781C;}
	.st196{clip-path:url(#SVGID_62_);fill:#D5872A;}
	.st197{clip-path:url(#SVGID_62_);fill:#877365;}
	.st198{clip-path:url(#SVGID_62_);fill:#E3AD88;}
	.st199{clip-path:url(#SVGID_62_);fill:#F7F7F8;}
	.st200{clip-path:url(#SVGID_64_);}
	.st201{fill:#A63A25;}
	.st202{clip-path:url(#SVGID_66_);}
	.st203{clip-path:url(#SVGID_68_);}
	.st204{fill:#CF97A1;}
	.st205{fill:#CF7686;}
	.st206{clip-path:url(#SVGID_70_);}
	.st207{fill:#4F464F;}
	.st208{fill:#9C8A9C;}
	.st209{clip-path:url(#SVGID_72_);}
</style>
<g id="ICON">
	<path id="XMLID_3288_" class="st18" d="M0,256C0,114.6,114.6,0,256,0c141.4,0,256,114.6,256,256c0,141.4-114.6,256-256,256
		C114.6,512,0,397.4,0,256z"/>
</g>
<g id="Layer_7">
	<g id="XMLID_2345_">
		<defs>
			<path id="SVGID_63_" d="M0,256C0,114.6,114.6,0,256,0c141.4,0,256,114.6,256,256c0,141.4-114.6,256-256,256
				C114.6,512,0,397.4,0,256z"/>
		</defs>
		<clipPath id="SVGID_2_">
			<use xlink:href="#SVGID_63_"  style="overflow:visible;"/>
		</clipPath>
		<g id="XMLID_2346_" class="st19">
			<path id="XMLID_2347_" class="st0" d="M456.9,543.7l-0.1-0.9c0-56.8-20.8-111.8-46.1-122.3l-108-44.5
				c-25.4-10.5-66.9-10.5-92.3-0.1l-109.6,44.8C75.4,431,54.7,485.9,54.7,542.7l-0.1,0.9H456.9z"/>
			<path id="XMLID_2350_" class="st13" d="M326.9,392.8c0,29-34.8,52.5-67.7,52.5H252c-32.9,0-67.5-23.5-67.5-52.5l8-135.2
				c0-29,26.7-52.5,59.5-52.5h7.2c32.9,0,59.5,23.5,59.5,52.5L326.9,392.8z"/>
			<g id="XMLID_2351_">
				<g id="XMLID_2352_">
					<path class="st13" d="M141.1,171.1c24.2,24.2,57.6,30.1,74.6,13.2c17-17,11.1-50.4-13.2-74.6c-24.2-24.2-83.5-22.1-83.5-22.1
						S116.9,146.8,141.1,171.1z"/>
					<path class="st201" d="M150,163.3c17.7,17.7,42.1,22,54.5,9.6c12.4-12.4,8.1-36.8-9.6-54.5c-17.7-17.7-61-16.1-61-16.1
						S132.3,145.6,150,163.3z"/>
				</g>
				<g id="XMLID_2353_">
					<path class="st13" d="M370.3,171.1c-24.2,24.2-57.6,30.1-74.6,13.2c-17-17-11.1-50.4,13.2-74.6c24.2-24.2,83.5-22.1,83.5-22.1
						S394.6,146.8,370.3,171.1z"/>
					<path class="st201" d="M361.5,163.3c-17.7,17.7-42.1,22-54.5,9.6c-12.4-12.4-8.1-36.8,9.6-54.5c17.7-17.7,61-16.1,61-16.1
						S379.2,145.6,361.5,163.3z"/>
				</g>
			</g>
			<path id="XMLID_2360_" class="st13" d="M372.3,300.4v-99.8c0-57.7-52.2-104.5-116.6-104.5s-116.6,46.8-116.6,104.5v99.8H372.3z"
				/>
			<g id="XMLID_2361_">
				<ellipse id="XMLID_2364_" class="st13" cx="255.7" cy="261.4" rx="146.2" ry="61.9"/>
				<path id="XMLID_2367_" class="st13" d="M255.7,340.8c60.7,0,113.3-18.1,138.4-44.3c-25.1-26.3-77.7-44.3-138.4-44.3
					s-113.3,18.1-138.4,44.3C142.5,322.7,195,340.8,255.7,340.8z"/>
			</g>
			<g id="XMLID_2368_">
				<path id="XMLID_2371_" class="st21" d="M255.7,313.6c53.9,0,100.5-21.9,122.8-53.7c-22.3-31.8-68.9-53.7-122.8-53.7
					c-53.9,0-100.5,21.9-122.8,53.7C155.3,291.8,201.9,313.6,255.7,313.6z"/>
				<path id="XMLID_2374_" class="st21" d="M255.7,328.9c51,0,95.1-15.7,116.2-38.5c-21.1-22.8-65.2-38.5-116.2-38.5
					c-51,0-95.1,15.7-116.2,38.5C160.6,313.2,204.7,328.9,255.7,328.9z"/>
			</g>
			<path id="XMLID_2377_" class="st21" d="M299.4,308.4c0-25.5-18.5-46.1-41.2-46.1h-5c-22.8,0-41.2,20.6-41.2,46.1l-5.5,118.8
				c0,1.1,0.1,2.3,0.2,3.4c12.7,9.2,29.3,14.9,45.5,14.9h7.2c16.2,0,32.9-5.7,45.6-15c0.1-1.1,0.2-2.2,0.2-3.3L299.4,308.4z"/>
			<path id="XMLID_2380_" class="st201" d="M337.6,188.3c0,15.5-12.5,28-28,28H201.9c-15.5,0-28-12.5-28-28l0,0
				c0-15.5,12.5-28,28-28h107.6C325,160.3,337.6,172.8,337.6,188.3L337.6,188.3z"/>
			<g id="XMLID_2381_">
				<circle id="XMLID_2382_" class="st0" cx="210.3" cy="199.5" r="12.3"/>
				<circle id="XMLID_2383_" class="st0" cx="301.1" cy="199.5" r="12.3"/>
			</g>
			<path id="XMLID_2386_" class="st13" d="M234.2,229.8c0,16.6-3,32.3-8.3,46.5H284c-5.3-14.2-8.3-29.9-8.3-46.5
				c0-48.3,25.2-89.4,60.5-105.2c-20.9-17.6-49-28.5-80-28.5c-31.4,0-59.9,11.1-80.8,29.2C209.8,141.7,234.2,182.3,234.2,229.8z"/>
			<g id="XMLID_2387_">
				<path id="XMLID_2388_" class="st21" d="M309.5,281.9c0,15.8-12.8,28.6-28.6,28.6h-50.4c-15.8,0-28.6-12.8-28.6-28.6l0,0
					c0-15.8,12.8-28.6,28.6-28.6H281C296.7,253.3,309.5,266.1,309.5,281.9L309.5,281.9z"/>
				<ellipse id="XMLID_2389_" class="st21" cx="255.7" cy="256.7" rx="37.6" ry="30.3"/>
			</g>
			<g id="XMLID_2390_">
				<g id="XMLID_2391_">
					<g id="XMLID_2392_">
						<g id="XMLID_2393_">
							<path id="XMLID_2394_" class="st0" d="M280.2,246c0,6.6-23.5,19.4-23.5,19.4s-23.5-12.7-23.5-19.4c0-6.6,10.5-8.3,23.5-8.3
								C269.7,237.8,280.2,239.4,280.2,246z"/>
							<path id="XMLID_2395_" class="st0" d="M262.5,288.4c0,3.1-2.5,5.6-5.6,5.6l0,0c-3.1,0-5.6-2.5-5.6-5.6v-29.5
								c0-3.1,2.5-5.6,5.6-5.6l0,0c3.1,0,5.6,2.5,5.6,5.6V288.4z"/>
						</g>
					</g>
				</g>
				<g id="XMLID_2396_">
					<path id="XMLID_2397_" class="st0" d="M275.5,278.4c-0.2,10.4-8.3,18.5-18.8,18.8c-10.4,0.2-18.5-8.7-18.8-18.8
						c-0.2-6.5-10.2-6.5-10.1,0c0.4,16,12.9,28.5,28.8,28.8c16,0.4,28.5-13.4,28.8-28.8C285.7,271.9,275.7,272,275.5,278.4
						L275.5,278.4z"/>
				</g>
			</g>
		</g>
	</g>
</g>
</svg>
