<?xml version="1.0" encoding="utf-8"?>
<!-- Generator: Adobe Illustrator 25.0.0, SVG Export Plug-In . SVG Version: 6.00 Build 0)  -->
<svg version="1.1" xmlns="http://www.w3.org/2000/svg" xmlns:xlink="http://www.w3.org/1999/xlink" x="0px" y="0px"
	 viewBox="0 0 512 512" style="enable-background:new 0 0 512 512;" xml:space="preserve">
<style type="text/css">
	.st0{fill:#3D2A3D;}
	.st1{fill:#D5872A;}
	.st2{fill:#C9E874;}
	.st3{fill:#277A6B;}
	.st4{fill:#FFDE69;}
	.st5{fill:#698250;}
	.st6{fill:#C8C947;}
	.st7{fill:#A6DEA9;}
	.st8{fill:#376C7E;}
	.st9{fill:#8BA83C;}
	.st10{fill:#2FABAF;}
	.st11{fill:#216964;}
	.st12{fill:#605560;}
	.st13{fill:#C45742;}
	.st14{fill:#79D7F2;}
	.st15{fill:#769938;}
	.st16{fill:#9EC853;}
	.st17{fill:#E7AD84;}
	.st18{fill:#76B079;}
	.st19{clip-path:url(#SVGID_2_);}
	.st20{fill:#594335;}
	.st21{fill:#F7F7F8;}
	.st22{fill:#7D5737;}
	.st23{fill:#D68F6A;}
	.st24{clip-path:url(#SVGID_4_);fill:#C45742;}
	.st25{clip-path:url(#SVGID_4_);fill:#E88D38;}
	.st26{clip-path:url(#SVGID_4_);}
	.st27{fill:#E1902B;}
	.st28{fill:#FFC671;}
	.st29{fill:#E1E1E1;}
	.st30{clip-path:url(#SVGID_6_);}
	.st31{fill:#D1741D;}
	.st32{fill:#C93A3A;}
	.st33{clip-path:url(#SVGID_8_);}
	.st34{fill:#919191;}
	.st35{fill:#CE722F;}
	.st36{fill:#C4C4C4;}
	.st37{clip-path:url(#SVGID_10_);}
	.st38{fill:#665348;}
	.st39{fill:#877365;}
	.st40{fill:#E3A584;}
	.st41{fill:#733D28;}
	.st42{clip-path:url(#SVGID_12_);}
	.st43{fill:#8C8C8C;}
	.st44{fill:#BFBFBF;}
	.st45{clip-path:url(#SVGID_14_);}
	.st46{clip-path:url(#SVGID_16_);}
	.st47{fill:#FFFFFF;}
	.st48{fill:#4A414A;}
	.st49{clip-path:url(#SVGID_18_);}
	.st50{fill:#BE7632;}
	.st51{clip-path:url(#SVGID_20_);}
	.st52{fill:#E3A445;}
	.st53{fill:#FFF0BA;}
	.st54{fill:#BF7128;}
	.st55{clip-path:url(#XMLID_82_);}
	.st56{fill:#AC6322;}
	.st57{clip-path:url(#SVGID_22_);}
	.st58{fill:#DBCCA6;}
	.st59{fill:#C2A579;}
	.st60{fill:#CFB582;}
	.st61{fill:#EBE2B2;}
	.st62{fill:#B8B399;}
	.st63{fill:#918E79;}
	.st64{fill:#665F52;}
	.st65{clip-path:url(#XMLID_83_);}
	.st66{fill:#BD4A4A;}
	.st67{fill:#D4811C;}
	.st68{fill:#CF6F15;}
	.st69{clip-path:url(#SVGID_24_);}
	.st70{fill:#FFF8E3;}
	.st71{fill:#7A6D7A;}
	.st72{fill:#2C1512;}
	.st73{fill:#D6CBA9;}
	.st74{clip-path:url(#XMLID_84_);}
	.st75{fill:#FFEA9E;}
	.st76{fill:#FFDBC5;}
	.st77{clip-path:url(#XMLID_85_);}
	.st78{fill:#B55716;}
	.st79{fill:#C47325;}
	.st80{clip-path:url(#XMLID_86_);}
	.st81{fill:#ADA798;}
	.st82{fill:#C4BDAC;}
	.st83{fill:#8F8266;}
	.st84{fill:#D6CEBC;}
	.st85{fill:#FFFAE6;}
	.st86{fill:#595140;}
	.st87{clip-path:url(#XMLID_88_);}
	.st88{fill:#B84028;}
	.st89{fill:#E6B75A;}
	.st90{fill:#DB614A;}
	.st91{clip-path:url(#XMLID_92_);}
	.st92{fill:#615661;}
	.st93{fill:#635963;}
	.st94{fill:#4F414F;}
	.st95{fill:#7D6F7D;}
	.st96{fill:#B5A0B5;}
	.st97{fill:#574D57;}
	.st98{clip-path:url(#XMLID_95_);}
	.st99{fill:#C2C2C2;}
	.st100{fill:#9E9E9E;}
	.st101{fill:#949494;}
	.st102{fill:#E8E8E8;}
	.st103{fill:#A1A1A1;}
	.st104{fill:#D66270;}
	.st105{clip-path:url(#XMLID_99_);}
	.st106{fill:#CFCFCF;}
	.st107{fill:#BDA18D;}
	.st108{fill:#82A385;}
	.st109{clip-path:url(#XMLID_100_);}
	.st110{fill:#D1986E;}
	.st111{fill:#C2733E;}
	.st112{fill:#E6AC83;}
	.st113{fill:#C28155;}
	.st114{fill:#6E482E;}
	.st115{fill:#594435;}
	.st116{clip-path:url(#XMLID_102_);}
	.st117{fill:#6B5545;}
	.st118{fill:#261526;}
	.st119{fill:#9E8776;}
	.st120{fill:#807180;}
	.st121{fill:#A693A6;}
	.st122{fill:#614C61;}
	.st123{clip-path:url(#XMLID_107_);}
	.st124{fill:#D9D9D9;}
	.st125{clip-path:url(#XMLID_110_);}
	.st126{fill:#4D404D;}
	.st127{clip-path:url(#XMLID_110_);fill:#4D404D;}
	.st128{clip-path:url(#XMLID_111_);}
	.st129{clip-path:url(#XMLID_120_);}
	.st130{fill:#FFC682;}
	.st131{clip-path:url(#XMLID_121_);}
	.st132{fill:#753427;}
	.st133{clip-path:url(#XMLID_121_);fill:#753427;}
	.st134{clip-path:url(#SVGID_26_);}
	.st135{fill:#694334;}
	.st136{fill:#FF826E;}
	.st137{fill:#875F44;}
	.st138{fill:#4F3327;}
	.st139{fill:#D68256;}
	.st140{clip-path:url(#SVGID_28_);}
	.st141{fill:#6E6E6E;}
	.st142{fill:#B8B8B8;}
	.st143{clip-path:url(#SVGID_28_);fill:#B8B8B8;}
	.st144{clip-path:url(#SVGID_30_);}
	.st145{clip-path:url(#SVGID_32_);}
	.st146{fill:#D16658;}
	.st147{fill:#E6786A;}
	.st148{fill:#F79E92;}
	.st149{clip-path:url(#SVGID_34_);}
	.st150{fill:#E6CA56;}
	.st151{fill:#F2EBCB;}
	.st152{fill:#F08C7F;}
	.st153{clip-path:url(#SVGID_36_);}
	.st154{fill:#9E6842;}
	.st155{fill:#BA835E;}
	.st156{fill:#8C5937;}
	.st157{fill:#E3AD88;}
	.st158{fill:#A86B42;}
	.st159{clip-path:url(#SVGID_38_);}
	.st160{fill:#877987;}
	.st161{fill:#C7BCB2;}
	.st162{clip-path:url(#SVGID_40_);}
	.st163{fill:#6E4D37;}
	.st164{fill:#A8562A;}
	.st165{clip-path:url(#SVGID_42_);}
	.st166{fill:#A37352;}
	.st167{clip-path:url(#SVGID_44_);}
	.st168{fill:#8A8A8A;}
	.st169{fill:#F0F0F0;}
	.st170{clip-path:url(#XMLID_126_);}
	.st171{clip-path:url(#SVGID_46_);fill:none;}
	.st172{clip-path:url(#SVGID_46_);}
	.st173{fill:#78553C;}
	.st174{fill:#F29C5E;}
	.st175{fill:#D4D4D4;}
	.st176{clip-path:url(#SVGID_48_);}
	.st177{fill:#DB959A;}
	.st178{clip-path:url(#SVGID_50_);}
	.st179{fill:#A1341E;}
	.st180{fill:#EB9F2E;}
	.st181{clip-path:url(#SVGID_52_);}
	.st182{clip-path:url(#SVGID_54_);}
	.st183{fill:#855433;}
	.st184{fill:#AD6D42;}
	.st185{clip-path:url(#SVGID_56_);}
	.st186{fill:#D5A060;}
	.st187{clip-path:url(#SVGID_58_);}
	.st188{fill:#4A3C4A;}
	.st189{fill:#524352;}
	.st190{clip-path:url(#SVGID_60_);}
	.st191{fill:#524252;}
	.st192{clip-path:url(#SVGID_62_);fill:#C7781C;}
	.st193{clip-path:url(#SVGID_62_);}
	.st194{fill:#DEDEDE;}
	.st195{fill:#C7781C;}
	.st196{clip-path:url(#SVGID_62_);fill:#D5872A;}
	.st197{clip-path:url(#SVGID_62_);fill:#877365;}
	.st198{clip-path:url(#SVGID_62_);fill:#E3AD88;}
	.st199{clip-path:url(#SVGID_62_);fill:#F7F7F8;}
	.st200{clip-path:url(#SVGID_64_);}
	.st201{fill:#A63A25;}
	.st202{clip-path:url(#SVGID_66_);}
	.st203{clip-path:url(#SVGID_68_);}
	.st204{fill:#CF97A1;}
	.st205{fill:#CF7686;}
	.st206{clip-path:url(#SVGID_70_);}
	.st207{fill:#4F464F;}
	.st208{fill:#9C8A9C;}
	.st209{clip-path:url(#SVGID_72_);}
</style>
<g id="ICON">
	<path id="XMLID_3103_" class="st6" d="M0,256C0,114.6,114.6,0,256,0c141.4,0,256,114.6,256,256c0,141.4-114.6,256-256,256
		C114.6,512,0,397.4,0,256z"/>
</g>
<g id="Layer_7">
	<g id="XMLID_2059_">
		<defs>
			<path id="SVGID_45_" d="M0,256C0,114.6,114.6,0,256,0c141.4,0,256,114.6,256,256c0,141.4-114.6,256-256,256
				C114.6,512,0,397.4,0,256z"/>
		</defs>
		<clipPath id="SVGID_2_">
			<use xlink:href="#SVGID_45_"  style="overflow:visible;"/>
		</clipPath>
		
			<ellipse transform="matrix(0.7071 -0.7071 0.7071 0.7071 -105.8477 255.9214)" style="clip-path:url(#SVGID_2_);fill:none;" cx="256" cy="255.7" rx="256" ry="256"/>
		<g id="XMLID_2060_" class="st19">
			<g id="XMLID_2061_">
				<path id="XMLID_2062_" class="st137" d="M448.3,512.9l-0.1-0.9c0-53.1-19.9-136.8-44.2-146.6l-103.4-41.7
					c-24.3-9.8-64-9.8-88.3-0.1l-104.9,41.9c-24.3,9.7-44.2,93.4-44.2,146.5l-0.1,0.9H448.3z"/>
				<path id="XMLID_2063_" class="st137" d="M299.6,326.3c0,22.8-18.5,41.3-41.3,41.3h-5c-22.8,0-41.3-18.5-41.3-41.3v-42.9
					c0-22.8,18.5-41.3,41.3-41.3h5c22.8,0,41.3,18.5,41.3,41.3V326.3z"/>
				<path id="XMLID_2066_" class="st3" d="M448.2,512c0-53.1-19.9-136.8-44.2-146.6l-78-31.4c0,0-16,53.9-70.3,53.9
					s-69.9-53.6-69.9-53.6l-78.4,31.3c-24.3,9.7-44.2,93.4-44.2,146.5l-0.1,0.9h385L448.2,512z"/>
			</g>
			<g id="XMLID_2067_">
				<g id="XMLID_2068_">
					<path class="st173" d="M316.7,137.9c10.8,6.9,25.1,3.8,32.1-6.9l16.1-24.9c6.9-10.8,3.8-25.1-6.9-32.1l-17.3-11.2
						c-10.8-6.9-25.1-3.8-32.1,6.9l-16.1,24.9c-6.9,10.8-3.8,25.1,6.9,32.1L316.7,137.9z"/>
					<path class="st173" d="M194.9,137.9c-10.8,6.9-25.1,3.8-32.1-6.9l-16.1-24.9c-6.9-10.8-3.9-25.1,6.9-32.1L171,62.8
						c10.8-6.9,25.1-3.8,32.1,6.9l16.1,24.9c6.9,10.8,3.8,25.1-6.9,32.1L194.9,137.9z"/>
				</g>
				<path id="XMLID_2069_" class="st166" d="M229.9,74.8c-21.2,0-44.2,14.1-51.2,31.8l-38.2,97.2c-7,17.6,4.7,32.4,25.9,32.4h178.7
					c21.2,0,32.8-14.9,25.9-32.6l-38.2-96.8c-7-17.6-30-32-51.2-32H229.9z"/>
				<path id="XMLID_2070_" class="st166" d="M376.3,226c0,50.2-54,90.9-120.5,90.9c-66.6,0-120.5-40.7-120.5-90.9
					c0-50.2,54-90.9,120.5-90.9C322.3,135.1,376.3,175.8,376.3,226z"/>
				<g id="XMLID_2071_">
					<path id="XMLID_2072_" class="st0" d="M229.6,156.5c0,6.8-5.5,12.2-12.2,12.2c-6.8,0-12.2-5.5-12.2-12.2
						c0-6.8,5.5-12.2,12.2-12.2C224.1,144.2,229.6,149.7,229.6,156.5z"/>
					<path id="XMLID_2073_" class="st0" d="M306.4,156.5c0,6.8-5.5,12.2-12.2,12.2s-12.2-5.5-12.2-12.2c0-6.8,5.5-12.2,12.2-12.2
						S306.4,149.7,306.4,156.5z"/>
				</g>
				<g id="XMLID_2074_">
					<path id="XMLID_2075_" class="st174" d="M256.4,224.9c0,19.9-18.7,36-41.7,36c-23,0-41.7-16.1-41.7-36
						c0-19.9,18.7-47.7,41.7-47.7C237.8,177.2,256.4,205.1,256.4,224.9z"/>
					<path id="XMLID_2076_" class="st174" d="M338.5,224.9c0,19.9-18.7,36-41.7,36c-23,0-41.7-16.1-41.7-36
						c0-19.9,18.7-47.7,41.7-47.7C319.8,177.2,338.5,205.1,338.5,224.9z"/>
				</g>
				<g id="XMLID_2077_">
					<path id="XMLID_2078_" class="st0" d="M298.6,188.9c0,12.1-42.8,35.3-42.8,35.3S213,201,213,188.9c0-12.1,19.2-15.1,42.8-15.1
						C279.4,173.9,298.6,176.9,298.6,188.9z"/>
					<path id="XMLID_2079_" class="st0" d="M263.3,257.4c0,4.5-3.6,8.1-8.1,8.1l0,0c-4.5,0-8.1-3.6-8.1-8.1v-42.7
						c0-4.5,3.6-8.1,8.1-8.1l0,0c4.5,0,8.1,3.6,8.1,8.1V257.4z"/>
				</g>
				<g id="XMLID_2080_">
					<g id="XMLID_2081_">
						<g id="XMLID_2082_">
							<path id="XMLID_2083_" class="st0" d="M198.4,235.7c1,26.8,26.3,48.3,57.4,48.3c31.1,0,56.3-21.5,57.4-48.3
								c-16,6.3-35.8,10-57.4,10C234.2,245.7,214.4,242,198.4,235.7z"/>
						</g>
					</g>
				</g>
				<g id="XMLID_2084_">
					<path id="XMLID_2085_" class="st175" d="M256.3,245.3v56.1h16.2c6.6,0,11.9-5.3,11.9-11.9v-45.3c0-0.9-0.1-1.7-0.3-2.5
						C275.7,243.9,266.2,245.2,256.3,245.3z"/>
					<path id="XMLID_2086_" class="st21" d="M254.1,245.4c-9.5,0-18.6-1-26.9-2.9c-0.1,0.6-0.1,1.2-0.1,1.8v45.3
						c0,6.6,5.3,11.9,11.9,11.9h17.3v-56.1C255.6,245.4,254.9,245.4,254.1,245.4z"/>
				</g>
			</g>
		</g>
	</g>
</g>
</svg>
