<?xml version="1.0" encoding="utf-8"?>
<!-- Generator: Adobe Illustrator 25.0.0, SVG Export Plug-In . SVG Version: 6.00 Build 0)  -->
<svg version="1.1" xmlns="http://www.w3.org/2000/svg" xmlns:xlink="http://www.w3.org/1999/xlink" x="0px" y="0px"
	 viewBox="0 0 512 512" style="enable-background:new 0 0 512 512;" xml:space="preserve">
<style type="text/css">
	.st0{fill:#3D2A3D;}
	.st1{fill:#D5872A;}
	.st2{fill:#C9E874;}
	.st3{fill:#277A6B;}
	.st4{fill:#FFDE69;}
	.st5{fill:#698250;}
	.st6{fill:#C8C947;}
	.st7{fill:#A6DEA9;}
	.st8{fill:#376C7E;}
	.st9{fill:#8BA83C;}
	.st10{fill:#2FABAF;}
	.st11{fill:#216964;}
	.st12{fill:#605560;}
	.st13{fill:#C45742;}
	.st14{fill:#79D7F2;}
	.st15{fill:#769938;}
	.st16{fill:#9EC853;}
	.st17{fill:#E7AD84;}
	.st18{fill:#76B079;}
	.st19{clip-path:url(#SVGID_2_);}
	.st20{fill:#594335;}
	.st21{fill:#F7F7F8;}
	.st22{fill:#7D5737;}
	.st23{fill:#D68F6A;}
	.st24{clip-path:url(#SVGID_4_);fill:#C45742;}
	.st25{clip-path:url(#SVGID_4_);fill:#E88D38;}
	.st26{clip-path:url(#SVGID_4_);}
	.st27{fill:#E1902B;}
	.st28{fill:#FFC671;}
	.st29{fill:#E1E1E1;}
	.st30{clip-path:url(#SVGID_6_);}
	.st31{fill:#D1741D;}
	.st32{fill:#C93A3A;}
	.st33{clip-path:url(#SVGID_8_);}
	.st34{fill:#919191;}
	.st35{fill:#CE722F;}
	.st36{fill:#C4C4C4;}
	.st37{clip-path:url(#SVGID_10_);}
	.st38{fill:#665348;}
	.st39{fill:#877365;}
	.st40{fill:#E3A584;}
	.st41{fill:#733D28;}
	.st42{clip-path:url(#SVGID_12_);}
	.st43{fill:#8C8C8C;}
	.st44{fill:#BFBFBF;}
	.st45{clip-path:url(#SVGID_14_);}
	.st46{clip-path:url(#SVGID_16_);}
	.st47{fill:#FFFFFF;}
	.st48{fill:#4A414A;}
	.st49{clip-path:url(#SVGID_18_);}
	.st50{fill:#BE7632;}
	.st51{clip-path:url(#SVGID_20_);}
	.st52{fill:#E3A445;}
	.st53{fill:#FFF0BA;}
	.st54{fill:#BF7128;}
	.st55{clip-path:url(#XMLID_82_);}
	.st56{fill:#AC6322;}
	.st57{clip-path:url(#SVGID_22_);}
	.st58{fill:#DBCCA6;}
	.st59{fill:#C2A579;}
	.st60{fill:#CFB582;}
	.st61{fill:#EBE2B2;}
	.st62{fill:#B8B399;}
	.st63{fill:#918E79;}
	.st64{fill:#665F52;}
	.st65{clip-path:url(#XMLID_83_);}
	.st66{fill:#BD4A4A;}
	.st67{fill:#D4811C;}
	.st68{fill:#CF6F15;}
	.st69{clip-path:url(#SVGID_24_);}
	.st70{fill:#FFF8E3;}
	.st71{fill:#7A6D7A;}
	.st72{fill:#2C1512;}
	.st73{fill:#D6CBA9;}
	.st74{clip-path:url(#XMLID_84_);}
	.st75{fill:#FFEA9E;}
	.st76{fill:#FFDBC5;}
	.st77{clip-path:url(#XMLID_85_);}
	.st78{fill:#B55716;}
	.st79{fill:#C47325;}
	.st80{clip-path:url(#XMLID_86_);}
	.st81{fill:#ADA798;}
	.st82{fill:#C4BDAC;}
	.st83{fill:#8F8266;}
	.st84{fill:#D6CEBC;}
	.st85{fill:#FFFAE6;}
	.st86{fill:#595140;}
	.st87{clip-path:url(#XMLID_88_);}
	.st88{fill:#B84028;}
	.st89{fill:#E6B75A;}
	.st90{fill:#DB614A;}
	.st91{clip-path:url(#XMLID_92_);}
	.st92{fill:#615661;}
	.st93{fill:#635963;}
	.st94{fill:#4F414F;}
	.st95{fill:#7D6F7D;}
	.st96{fill:#B5A0B5;}
	.st97{fill:#574D57;}
	.st98{clip-path:url(#XMLID_95_);}
	.st99{fill:#C2C2C2;}
	.st100{fill:#9E9E9E;}
	.st101{fill:#949494;}
	.st102{fill:#E8E8E8;}
	.st103{fill:#A1A1A1;}
	.st104{fill:#D66270;}
	.st105{clip-path:url(#XMLID_99_);}
	.st106{fill:#CFCFCF;}
	.st107{fill:#BDA18D;}
	.st108{fill:#82A385;}
	.st109{clip-path:url(#XMLID_100_);}
	.st110{fill:#D1986E;}
	.st111{fill:#C2733E;}
	.st112{fill:#E6AC83;}
	.st113{fill:#C28155;}
	.st114{fill:#6E482E;}
	.st115{fill:#594435;}
	.st116{clip-path:url(#XMLID_102_);}
	.st117{fill:#6B5545;}
	.st118{fill:#261526;}
	.st119{fill:#9E8776;}
	.st120{fill:#807180;}
	.st121{fill:#A693A6;}
	.st122{fill:#614C61;}
	.st123{clip-path:url(#XMLID_107_);}
	.st124{fill:#D9D9D9;}
	.st125{clip-path:url(#XMLID_110_);}
	.st126{fill:#4D404D;}
	.st127{clip-path:url(#XMLID_110_);fill:#4D404D;}
	.st128{clip-path:url(#XMLID_111_);}
	.st129{clip-path:url(#XMLID_120_);}
	.st130{fill:#FFC682;}
	.st131{clip-path:url(#XMLID_121_);}
	.st132{fill:#753427;}
	.st133{clip-path:url(#XMLID_121_);fill:#753427;}
	.st134{clip-path:url(#SVGID_26_);}
	.st135{fill:#694334;}
	.st136{fill:#FF826E;}
	.st137{fill:#875F44;}
	.st138{fill:#4F3327;}
	.st139{fill:#D68256;}
	.st140{clip-path:url(#SVGID_28_);}
	.st141{fill:#6E6E6E;}
	.st142{fill:#B8B8B8;}
	.st143{clip-path:url(#SVGID_28_);fill:#B8B8B8;}
	.st144{clip-path:url(#SVGID_30_);}
	.st145{clip-path:url(#SVGID_32_);}
	.st146{fill:#D16658;}
	.st147{fill:#E6786A;}
	.st148{fill:#F79E92;}
	.st149{clip-path:url(#SVGID_34_);}
	.st150{fill:#E6CA56;}
	.st151{fill:#F2EBCB;}
	.st152{fill:#F08C7F;}
	.st153{clip-path:url(#SVGID_36_);}
	.st154{fill:#9E6842;}
	.st155{fill:#BA835E;}
	.st156{fill:#8C5937;}
	.st157{fill:#E3AD88;}
	.st158{fill:#A86B42;}
	.st159{clip-path:url(#SVGID_38_);}
	.st160{fill:#877987;}
	.st161{fill:#C7BCB2;}
	.st162{clip-path:url(#SVGID_40_);}
	.st163{fill:#6E4D37;}
	.st164{fill:#A8562A;}
	.st165{clip-path:url(#SVGID_42_);}
	.st166{fill:#A37352;}
	.st167{clip-path:url(#SVGID_44_);}
	.st168{fill:#8A8A8A;}
	.st169{fill:#F0F0F0;}
	.st170{clip-path:url(#XMLID_126_);}
	.st171{clip-path:url(#SVGID_46_);fill:none;}
	.st172{clip-path:url(#SVGID_46_);}
	.st173{fill:#78553C;}
	.st174{fill:#F29C5E;}
	.st175{fill:#D4D4D4;}
	.st176{clip-path:url(#SVGID_48_);}
	.st177{fill:#DB959A;}
	.st178{clip-path:url(#SVGID_50_);}
	.st179{fill:#A1341E;}
	.st180{fill:#EB9F2E;}
	.st181{clip-path:url(#SVGID_52_);}
	.st182{clip-path:url(#SVGID_54_);}
	.st183{fill:#855433;}
	.st184{fill:#AD6D42;}
	.st185{clip-path:url(#SVGID_56_);}
	.st186{fill:#D5A060;}
	.st187{clip-path:url(#SVGID_58_);}
	.st188{fill:#4A3C4A;}
	.st189{fill:#524352;}
	.st190{clip-path:url(#SVGID_60_);}
	.st191{fill:#524252;}
	.st192{clip-path:url(#SVGID_62_);fill:#C7781C;}
	.st193{clip-path:url(#SVGID_62_);}
	.st194{fill:#DEDEDE;}
	.st195{fill:#C7781C;}
	.st196{clip-path:url(#SVGID_62_);fill:#D5872A;}
	.st197{clip-path:url(#SVGID_62_);fill:#877365;}
	.st198{clip-path:url(#SVGID_62_);fill:#E3AD88;}
	.st199{clip-path:url(#SVGID_62_);fill:#F7F7F8;}
	.st200{clip-path:url(#SVGID_64_);}
	.st201{fill:#A63A25;}
	.st202{clip-path:url(#SVGID_66_);}
	.st203{clip-path:url(#SVGID_68_);}
	.st204{fill:#CF97A1;}
	.st205{fill:#CF7686;}
	.st206{clip-path:url(#SVGID_70_);}
	.st207{fill:#4F464F;}
	.st208{fill:#9C8A9C;}
	.st209{clip-path:url(#SVGID_72_);}
</style>
<g id="ICON">
	<path id="XMLID_25_" class="st5" d="M512,256c0,141.4-114.6,256-256,256C114.6,512,0,397.4,0,256C0,114.6,114.6,0,256,0
		C397.4,0,512,114.6,512,256z"/>
</g>
<g id="Layer_7">
	<g id="XMLID_974_">
		<defs>
			<path id="SVGID_19_" d="M511.8,256c0,141.4-114.6,256-256,256c-141.4,0-256-114.6-256-256c0-141.4,114.6-256,256-256
				C397.2,0,511.8,114.6,511.8,256z"/>
		</defs>
		<clipPath id="SVGID_2_">
			<use xlink:href="#SVGID_19_"  style="overflow:visible;"/>
		</clipPath>
		<g id="XMLID_975_" class="st19">
			<g id="XMLID_976_">
				<path id="XMLID_977_" class="st52" d="M483.4,590.7l-0.1-1c0-62.8-23.5-123.7-52.2-135.3l-122.3-49.3
					c-28.7-11.6-75.7-11.6-104.4-0.1l-124,49.6c-28.7,11.5-52.2,72.3-52.2,135.1l-0.1,1H483.4z"/>
				<path id="XMLID_978_" class="st13" d="M483.4,589.7c0-62.8-23.5-123.7-52.2-135.3l-92.3-37.2c0,0-17.6,63.7-83.1,63.7
					c-65.5,0-82.7-63.4-82.7-63.4l-92.7,37c-28.7,11.5-52.2,72.3-52.2,135.1l-0.1,1h455.3L483.4,589.7z"/>
				<g id="XMLID_979_">
					<path id="XMLID_980_" class="st21" d="M172.2,412.9c-12.4,26.7-7.5,56.9,13.6,72.5c21,15.6,51.4,11.5,73.3-8.1
						c-15.9,1.7-36.1-4.4-54.1-17.8C186.8,446.1,175.1,428.6,172.2,412.9z"/>
					<path id="XMLID_981_" class="st21" d="M339.4,412.9c12.4,26.7,7.5,56.9-13.6,72.5c-21,15.6-51.4,11.5-73.3-8.1
						c15.9,1.7,36.1-4.4,54.2-17.8C324.7,446.1,336.4,428.6,339.4,412.9z"/>
				</g>
			</g>
			<polygon id="XMLID_982_" class="st52" points="303.4,459.6 208.1,459.6 218.2,213 292.2,213 			"/>
			<g id="XMLID_983_">
				<path class="st4" d="M272.2,307.1c13.2,0,27.6-13.9,32-31.6l23.9-97.4c4.4-17.7-2.9-32.4-16.2-32.4H200.2
					c-13.2,0-20.5,15-16.2,32.7l23.9,96.8c4.4,17.7,18.8,31.9,32,31.9H272.2z"/>
				<path class="st4" d="M184.8,163.5c0-24.4,31.9-44.3,71.2-44.3c39.3,0,71.2,19.8,71.2,44.3c0,24.4-31.9,44.3-71.2,44.3
					C216.7,207.8,184.8,188,184.8,163.5z"/>
				<g id="XMLID_984_">
					<g id="XMLID_985_">
						<g id="XMLID_986_">
							
								<rect x="260.3" y="89.4" transform="matrix(0.2398 -0.9708 0.9708 0.2398 133.1604 364.8131)" class="st4" width="78.5" height="16"/>
							<path class="st52" d="M333.3,62c-2.7,11-13.1,17.9-23.2,15.4c-10.1-2.5-16-13.4-13.3-24.4c2.7-11,13.1-17.9,23.2-15.4
								C330,40,336,50.9,333.3,62z"/>
						</g>
						<path id="XMLID_987_" class="st4" d="M282.5,127.8c-0.2,3.4-0.4,2.5-0.4,3.8c0,15.7,19.4,28.4,43.4,28.4
							c24,0,43.4-12.7,43.4-28.4c0-1.3-0.2-0.4-0.4-3.8H282.5z"/>
					</g>
					<g id="XMLID_988_">
						<g id="XMLID_989_">
							
								<rect x="204.5" y="58.1" transform="matrix(0.9708 -0.2398 0.2398 0.9708 -17.1508 53.7922)" class="st4" width="16" height="78.5"/>
							<path class="st52" d="M178.7,62c2.7,11,13.1,17.9,23.2,15.4c10.1-2.5,16-13.4,13.3-24.4c-2.7-11-13.1-17.9-23.2-15.4
								C182,40,176,50.9,178.7,62z"/>
						</g>
						<path id="XMLID_990_" class="st4" d="M229.5,127.8c0.3,3.4,0.4,2.5,0.4,3.8c0,15.7-19.4,28.4-43.4,28.4
							c-24,0-43.4-12.7-43.4-28.4c0-1.3,0.2-0.4,0.4-3.8H229.5z"/>
					</g>
				</g>
				<path id="XMLID_991_" class="st4" d="M287,311.3c0,16.9-13.7,30.5-30.5,30.5l0,0c-16.9,0-30.5-13.7-30.5-30.5v-61.1
					c0-16.9,13.7-30.5,30.5-30.5l0,0c16.9,0,30.5,13.7,30.5,30.5V311.3z"/>
				<g id="XMLID_992_">
					<path id="XMLID_993_" class="st0" d="M232.9,192.7c0,6.7-5.5,12.2-12.2,12.2c-6.7,0-12.2-5.5-12.2-12.2
						c0-6.7,5.5-12.2,12.2-12.2C227.5,180.5,232.9,186,232.9,192.7z"/>
					<path id="XMLID_994_" class="st0" d="M303.8,192.7c0,6.7-5.5,12.2-12.2,12.2c-6.7,0-12.2-5.5-12.2-12.2
						c0-6.7,5.5-12.2,12.2-12.2C298.4,180.5,303.8,186,303.8,192.7z"/>
				</g>
				<path id="XMLID_995_" class="st53" d="M272.7,241.4c0,7.8-7.3,14.1-16.3,14.1l0,0c-9,0-16.3-6.3-16.3-14.1l-3.4-46.8
					c0-7.8,10.6-14.1,19.6-14.1l0,0c9,0,19.6,6.3,19.6,14.1L272.7,241.4z"/>
				<g id="XMLID_996_">
					<path id="XMLID_997_" class="st13" d="M273.6,293.1c0,7.3-7.6,13.2-17.1,13.2c-9.4,0-17.1-5.9-17.1-13.2
						c0-7.3,7.6-13.2,17.1-13.2C265.9,279.9,273.6,285.8,273.6,293.1z"/>
					<path id="XMLID_998_" class="st13" d="M282.1,306.4c0,9.4-11.5,17.1-25.6,17.1c-14.2,0-25.6-7.6-25.6-17.1
						c0-9.4,11.5-17.1,25.6-17.1C270.6,289.3,282.1,296.9,282.1,306.4z"/>
					<g id="XMLID_999_">
						<path id="XMLID_1000_" class="st21" d="M274.2,287.9c-9.5,9-25.9,9-35.5,0c-6.7-6.3-16.9,3.8-10.1,10.1
							c15.3,14.4,40.4,14.4,55.8,0C291.1,291.7,280.9,281.5,274.2,287.9L274.2,287.9z"/>
					</g>
				</g>
				<g id="XMLID_1001_">
					<g id="XMLID_1002_">
						<g id="XMLID_1003_">
							<path id="XMLID_1004_" class="st52" d="M251.7,263.6c0,3.7,0.9,8.7-1,12c-2.3,4.1-9,2.8-12.8,2.8c-5.5,0-5.5,8.6,0,8.6
								c6.8,0,13.2,0.5,18.4-4.7c5-5,4-12.3,4-18.7C260.3,258,251.7,258,251.7,263.6L251.7,263.6z"/>
						</g>
						<g id="XMLID_1005_">
							<path id="XMLID_1006_" class="st52" d="M252.7,263.6c0,6.2-0.9,12.9,3.4,18c5,6,12,5.4,19,5.4c5.5,0,5.5-8.6,0-8.6
								c-4.1,0-9.2,1-12.4-2.2c-2.7-2.7-1.5-9.2-1.5-12.6C261.3,258,252.7,258,252.7,263.6L252.7,263.6z"/>
						</g>
					</g>
					<g id="XMLID_1007_">
						<g id="XMLID_1008_">
							<path class="st52" d="M261.3,270c0-3.7-0.9-8.7,1-12c2.3-4.1,9-2.8,12.8-2.8c5.5,0,5.5-8.6,0-8.6c-6.8,0-13.2-0.5-18.4,4.7
								c-5,5-4,12.3-4,18.7C252.7,275.6,261.3,275.6,261.3,270L261.3,270z"/>
						</g>
						<g id="XMLID_1009_">
							<path class="st52" d="M260.3,270c0-6.2,0.9-12.9-3.4-18c-5-6-12-5.4-19-5.4c-5.5,0-5.5,8.6,0,8.6c4.1,0,9.2-1,12.4,2.2
								c2.7,2.7,1.5,9.2,1.5,12.6C251.7,275.6,260.3,275.6,260.3,270L260.3,270z"/>
						</g>
					</g>
					<g id="XMLID_1010_">
						<path id="XMLID_1011_" class="st54" d="M246.1,250.1c1.5,5.6-0.3,10.5-4,11.1c-3.7,0.6-8-3.5-9.5-9c-1.5-5.6,0.3-10.5,4-11.1
							C240.4,240.5,244.6,244.5,246.1,250.1z"/>
						<path id="XMLID_1012_" class="st54" d="M266.8,250.1c-1.5,5.6,0.3,10.5,4,11.1c3.7,0.6,8-3.5,9.5-9c1.5-5.6-0.3-10.5-4-11.1
							C272.6,240.5,268.3,244.5,266.8,250.1z"/>
					</g>
				</g>
			</g>
			<g id="XMLID_1013_">
				<defs>
					<polygon id="XMLID_1018_" points="303.4,458.5 208.1,458.5 218.2,211.9 292.2,211.9 					"/>
				</defs>
				<clipPath id="XMLID_82_">
					<use xlink:href="#XMLID_1018_"  style="overflow:visible;"/>
				</clipPath>
				<g id="XMLID_1014_" class="st55">
					<path id="XMLID_1015_" class="st56" d="M304.7,414.5c5.1,5.1,5.1,13.4,0,18.6l-9.9,9.9c-5.1,5.1-13.4,5.1-18.6,0l-9.9-9.9
						c-5.1-5.1-5.1-13.4,0-18.6l9.9-9.9c5.1-5.1,13.4-5.1,18.6,0L304.7,414.5z"/>
					<path id="XMLID_1016_" class="st56" d="M300.7,356.4c3.8,3.8,3.8,10.1,0,13.9l-7.4,7.4c-3.8,3.9-10.1,3.9-13.9,0l-7.4-7.4
						c-3.8-3.8-3.8-10.1,0-13.9l7.4-7.4c3.8-3.8,10.1-3.8,13.9,0L300.7,356.4z"/>
					<path id="XMLID_1017_" class="st56" d="M238.2,384.4c5.4,5.4,5.4,14.1,0,19.5l-10.4,10.4c-5.4,5.4-14.1,5.4-19.5,0l-10.4-10.4
						c-5.4-5.4-5.4-14.1,0-19.5l10.4-10.4c5.4-5.4,14.1-5.4,19.5,0L238.2,384.4z"/>
				</g>
			</g>
		</g>
	</g>
</g>
</svg>
