<?xml version="1.0" encoding="utf-8"?>
<!-- Generator: Adobe Illustrator 25.0.0, SVG Export Plug-In . SVG Version: 6.00 Build 0)  -->
<svg version="1.1" xmlns="http://www.w3.org/2000/svg" xmlns:xlink="http://www.w3.org/1999/xlink" x="0px" y="0px"
	 viewBox="0 0 512 512" style="enable-background:new 0 0 512 512;" xml:space="preserve">
<style type="text/css">
	.st0{fill:#3D2A3D;}
	.st1{fill:#D5872A;}
	.st2{fill:#C9E874;}
	.st3{fill:#277A6B;}
	.st4{fill:#FFDE69;}
	.st5{fill:#698250;}
	.st6{fill:#C8C947;}
	.st7{fill:#A6DEA9;}
	.st8{fill:#376C7E;}
	.st9{fill:#8BA83C;}
	.st10{fill:#2FABAF;}
	.st11{fill:#216964;}
	.st12{fill:#605560;}
	.st13{fill:#C45742;}
	.st14{fill:#79D7F2;}
	.st15{fill:#769938;}
	.st16{fill:#9EC853;}
	.st17{fill:#E7AD84;}
	.st18{fill:#76B079;}
	.st19{clip-path:url(#SVGID_2_);}
	.st20{fill:#594335;}
	.st21{fill:#F7F7F8;}
	.st22{fill:#7D5737;}
	.st23{fill:#D68F6A;}
	.st24{clip-path:url(#SVGID_4_);fill:#C45742;}
	.st25{clip-path:url(#SVGID_4_);fill:#E88D38;}
	.st26{clip-path:url(#SVGID_4_);}
	.st27{fill:#E1902B;}
	.st28{fill:#FFC671;}
	.st29{fill:#E1E1E1;}
	.st30{clip-path:url(#SVGID_6_);}
	.st31{fill:#D1741D;}
	.st32{fill:#C93A3A;}
	.st33{clip-path:url(#SVGID_8_);}
	.st34{fill:#919191;}
	.st35{fill:#CE722F;}
	.st36{fill:#C4C4C4;}
	.st37{clip-path:url(#SVGID_10_);}
	.st38{fill:#665348;}
	.st39{fill:#877365;}
	.st40{fill:#E3A584;}
	.st41{fill:#733D28;}
	.st42{clip-path:url(#SVGID_12_);}
	.st43{fill:#8C8C8C;}
	.st44{fill:#BFBFBF;}
	.st45{clip-path:url(#SVGID_14_);}
	.st46{clip-path:url(#SVGID_16_);}
	.st47{fill:#FFFFFF;}
	.st48{fill:#4A414A;}
	.st49{clip-path:url(#SVGID_18_);}
	.st50{fill:#BE7632;}
	.st51{clip-path:url(#SVGID_20_);}
	.st52{fill:#E3A445;}
	.st53{fill:#FFF0BA;}
	.st54{fill:#BF7128;}
	.st55{clip-path:url(#XMLID_82_);}
	.st56{fill:#AC6322;}
	.st57{clip-path:url(#SVGID_22_);}
	.st58{fill:#DBCCA6;}
	.st59{fill:#C2A579;}
	.st60{fill:#CFB582;}
	.st61{fill:#EBE2B2;}
	.st62{fill:#B8B399;}
	.st63{fill:#918E79;}
	.st64{fill:#665F52;}
	.st65{clip-path:url(#XMLID_83_);}
	.st66{fill:#BD4A4A;}
	.st67{fill:#D4811C;}
	.st68{fill:#CF6F15;}
	.st69{clip-path:url(#SVGID_24_);}
	.st70{fill:#FFF8E3;}
	.st71{fill:#7A6D7A;}
	.st72{fill:#2C1512;}
	.st73{fill:#D6CBA9;}
	.st74{clip-path:url(#XMLID_84_);}
	.st75{fill:#FFEA9E;}
	.st76{fill:#FFDBC5;}
	.st77{clip-path:url(#XMLID_85_);}
	.st78{fill:#B55716;}
	.st79{fill:#C47325;}
	.st80{clip-path:url(#XMLID_86_);}
	.st81{fill:#ADA798;}
	.st82{fill:#C4BDAC;}
	.st83{fill:#8F8266;}
	.st84{fill:#D6CEBC;}
	.st85{fill:#FFFAE6;}
	.st86{fill:#595140;}
	.st87{clip-path:url(#XMLID_88_);}
	.st88{fill:#B84028;}
	.st89{fill:#E6B75A;}
	.st90{fill:#DB614A;}
	.st91{clip-path:url(#XMLID_92_);}
	.st92{fill:#615661;}
	.st93{fill:#635963;}
	.st94{fill:#4F414F;}
	.st95{fill:#7D6F7D;}
	.st96{fill:#B5A0B5;}
	.st97{fill:#574D57;}
	.st98{clip-path:url(#XMLID_95_);}
	.st99{fill:#C2C2C2;}
	.st100{fill:#9E9E9E;}
	.st101{fill:#949494;}
	.st102{fill:#E8E8E8;}
	.st103{fill:#A1A1A1;}
	.st104{fill:#D66270;}
	.st105{clip-path:url(#XMLID_99_);}
	.st106{fill:#CFCFCF;}
	.st107{fill:#BDA18D;}
	.st108{fill:#82A385;}
	.st109{clip-path:url(#XMLID_100_);}
	.st110{fill:#D1986E;}
	.st111{fill:#C2733E;}
	.st112{fill:#E6AC83;}
	.st113{fill:#C28155;}
	.st114{fill:#6E482E;}
	.st115{fill:#594435;}
	.st116{clip-path:url(#XMLID_102_);}
	.st117{fill:#6B5545;}
	.st118{fill:#261526;}
	.st119{fill:#9E8776;}
	.st120{fill:#807180;}
	.st121{fill:#A693A6;}
	.st122{fill:#614C61;}
	.st123{clip-path:url(#XMLID_107_);}
	.st124{fill:#D9D9D9;}
	.st125{clip-path:url(#XMLID_110_);}
	.st126{fill:#4D404D;}
	.st127{clip-path:url(#XMLID_110_);fill:#4D404D;}
	.st128{clip-path:url(#XMLID_111_);}
	.st129{clip-path:url(#XMLID_120_);}
	.st130{fill:#FFC682;}
	.st131{clip-path:url(#XMLID_121_);}
	.st132{fill:#753427;}
	.st133{clip-path:url(#XMLID_121_);fill:#753427;}
	.st134{clip-path:url(#SVGID_26_);}
	.st135{fill:#694334;}
	.st136{fill:#FF826E;}
	.st137{fill:#875F44;}
	.st138{fill:#4F3327;}
	.st139{fill:#D68256;}
	.st140{clip-path:url(#SVGID_28_);}
	.st141{fill:#6E6E6E;}
	.st142{fill:#B8B8B8;}
	.st143{clip-path:url(#SVGID_28_);fill:#B8B8B8;}
	.st144{clip-path:url(#SVGID_30_);}
	.st145{clip-path:url(#SVGID_32_);}
	.st146{fill:#D16658;}
	.st147{fill:#E6786A;}
	.st148{fill:#F79E92;}
	.st149{clip-path:url(#SVGID_34_);}
	.st150{fill:#E6CA56;}
	.st151{fill:#F2EBCB;}
	.st152{fill:#F08C7F;}
	.st153{clip-path:url(#SVGID_36_);}
	.st154{fill:#9E6842;}
	.st155{fill:#BA835E;}
	.st156{fill:#8C5937;}
	.st157{fill:#E3AD88;}
	.st158{fill:#A86B42;}
	.st159{clip-path:url(#SVGID_38_);}
	.st160{fill:#877987;}
	.st161{fill:#C7BCB2;}
	.st162{clip-path:url(#SVGID_40_);}
	.st163{fill:#6E4D37;}
	.st164{fill:#A8562A;}
	.st165{clip-path:url(#SVGID_42_);}
	.st166{fill:#A37352;}
	.st167{clip-path:url(#SVGID_44_);}
	.st168{fill:#8A8A8A;}
	.st169{fill:#F0F0F0;}
	.st170{clip-path:url(#XMLID_126_);}
	.st171{clip-path:url(#SVGID_46_);fill:none;}
	.st172{clip-path:url(#SVGID_46_);}
	.st173{fill:#78553C;}
	.st174{fill:#F29C5E;}
	.st175{fill:#D4D4D4;}
	.st176{clip-path:url(#SVGID_48_);}
	.st177{fill:#DB959A;}
	.st178{clip-path:url(#SVGID_50_);}
	.st179{fill:#A1341E;}
	.st180{fill:#EB9F2E;}
	.st181{clip-path:url(#SVGID_52_);}
	.st182{clip-path:url(#SVGID_54_);}
	.st183{fill:#855433;}
	.st184{fill:#AD6D42;}
	.st185{clip-path:url(#SVGID_56_);}
	.st186{fill:#D5A060;}
	.st187{clip-path:url(#SVGID_58_);}
	.st188{fill:#4A3C4A;}
	.st189{fill:#524352;}
	.st190{clip-path:url(#SVGID_60_);}
	.st191{fill:#524252;}
	.st192{clip-path:url(#SVGID_62_);fill:#C7781C;}
	.st193{clip-path:url(#SVGID_62_);}
	.st194{fill:#DEDEDE;}
	.st195{fill:#C7781C;}
	.st196{clip-path:url(#SVGID_62_);fill:#D5872A;}
	.st197{clip-path:url(#SVGID_62_);fill:#877365;}
	.st198{clip-path:url(#SVGID_62_);fill:#E3AD88;}
	.st199{clip-path:url(#SVGID_62_);fill:#F7F7F8;}
	.st200{clip-path:url(#SVGID_64_);}
	.st201{fill:#A63A25;}
	.st202{clip-path:url(#SVGID_66_);}
	.st203{clip-path:url(#SVGID_68_);}
	.st204{fill:#CF97A1;}
	.st205{fill:#CF7686;}
	.st206{clip-path:url(#SVGID_70_);}
	.st207{fill:#4F464F;}
	.st208{fill:#9C8A9C;}
	.st209{clip-path:url(#SVGID_72_);}
</style>
<g id="ICON">
	<path id="XMLID_103_" class="st11" d="M512,256c0,141.4-114.6,256-256,256C114.6,512,0,397.4,0,256C0,114.6,114.6,0,256,0
		C397.4,0,512,114.6,512,256z"/>
</g>
<g id="Layer_7">
	<g id="XMLID_1201_">
		<defs>
			<path id="XMLID_1287_" d="M512,256c0,141.4-114.6,256-256,256C114.6,512,0,397.4,0,256C0,114.6,114.6,0,256,0
				C397.4,0,512,114.6,512,256z"/>
		</defs>
		<clipPath id="XMLID_82_">
			<use xlink:href="#XMLID_1287_"  style="overflow:visible;"/>
		</clipPath>
		<g id="XMLID_1202_" class="st55">
			<g id="XMLID_1203_">
				<g id="XMLID_1204_">
					
						<ellipse id="XMLID_1205_" transform="matrix(0.9998 -1.806204e-02 1.806204e-02 0.9998 -5.121 5.9504)" class="st21" cx="326.9" cy="286.5" rx="53.5" ry="53.5"/>
					<path id="XMLID_1206_" class="st21" d="M285.4,239.7c0,29.5,23.9,53.5,53.5,53.5c29.5,0,53.5-23.9,53.5-53.5
						c0-29.5-23.9-53.5-53.5-53.5C309.4,186.2,285.4,210.1,285.4,239.7z"/>
				</g>
				<g id="XMLID_1207_">
					<path id="XMLID_1208_" class="st21" d="M238.6,286.5c0,29.5-23.9,53.5-53.5,53.5c-29.5,0-53.5-23.9-53.5-53.5
						c0-29.5,23.9-53.5,53.5-53.5C214.7,233,238.6,256.9,238.6,286.5z"/>
					<path id="XMLID_1209_" class="st21" d="M226.6,239.7c0,29.5-23.9,53.5-53.5,53.5c-29.5,0-53.5-23.9-53.5-53.5
						c0-29.5,23.9-53.5,53.5-53.5C202.6,186.2,226.6,210.1,226.6,239.7z"/>
				</g>
			</g>
			<g id="XMLID_1210_">
				<polygon id="XMLID_1213_" class="st81" points="322.7,404.2 190.4,404.2 204.4,195.7 307.1,195.7 				"/>
				<g id="XMLID_1214_">
					<path class="st81" d="M483.1,545.9l-0.1-1c0.7-62.8-22-123.9-50.6-135.9l-121.7-50.7c-28.6-11.9-75.6-12.5-104.4-1.4L81.7,405
						c-28.9,11.2-53.1,71.7-53.8,134.5l-0.1,1L483.1,545.9z"/>
					<path id="XMLID_1215_" class="st13" d="M484.2,542.2c0-62.8-23.5-123.7-52.2-135.3l-92.3-37.2c0,0-17.6,63.7-83.1,63.7
						c-65.5,0-82.7-63.4-82.7-63.4l-92.7,37C52.5,418.6,29,479.4,29,542.2l-0.1,1h455.3L484.2,542.2z"/>
					<g id="XMLID_1217_">
						<path id="XMLID_1218_" class="st21" d="M173,365.4c-12.4,26.7-7.5,56.9,13.6,72.5c21,15.6,51.4,11.5,73.3-8.1
							c-15.9,1.7-36.1-4.4-54.2-17.8C187.6,398.6,175.9,381,173,365.4z"/>
						<path id="XMLID_1219_" class="st21" d="M340.2,365.4c12.4,26.7,7.5,56.9-13.6,72.5c-21,15.6-51.4,11.5-73.3-8.1
							c15.9,1.7,36.1-4.4,54.2-17.8C325.5,398.6,337.2,381,340.2,365.4z"/>
					</g>
				</g>
			</g>
			<g id="XMLID_1220_">
				<g id="XMLID_1221_">
					<g id="XMLID_1222_">
						<g id="XMLID_1225_">
							<g>
								<g>
									<path class="st82" d="M164.6,142.5c26.6,0,44.2,20.6,44.2,46c0,25.4-17.7,46-44.2,46c-26.6,0-81.8-20.6-81.8-46
										C82.8,163.1,138.1,142.5,164.6,142.5z"/>
								</g>
							</g>
						</g>
						<g id="XMLID_1230_">
							<g>
								<g>
									<path class="st83" d="M164.2,156.3c18.6,0,31,14.4,31,32.2c0,17.8-12.4,32.2-31,32.2c-18.6,0-57.3-14.4-57.3-32.2
										C106.9,170.7,145.6,156.3,164.2,156.3z"/>
								</g>
							</g>
						</g>
					</g>
					<g id="XMLID_1232_">
						<g id="XMLID_1236_">
							<g>
								<g>
									<path class="st82" d="M345.9,234.4c-26.6,0-44.2-20.6-44.2-46c0-25.4,17.7-46,44.2-46c26.6,0,81.8,20.6,81.8,46
										C427.7,213.8,372.5,234.4,345.9,234.4z"/>
								</g>
							</g>
						</g>
						<g id="XMLID_1241_">
							<g>
								<g>
									<path class="st83" d="M346.4,220.6c-18.6,0-31-14.4-31-32.2c0-17.8,12.4-32.2,31-32.2c18.6,0,57.3,14.4,57.3,32.2
										C403.6,206.2,365,220.6,346.4,220.6z"/>
								</g>
							</g>
						</g>
					</g>
				</g>
				<g id="XMLID_1243_">
					<path class="st84" d="M168.6,215.9c0-56.3,38.8-93.7,86.6-93.7c47.8,0,86.6,37.4,86.6,93.7c0,56.3-38.8,140.6-86.6,140.6
						C207.4,356.5,168.6,272.2,168.6,215.9z"/>
				</g>
				<g id="XMLID_1245_">
					<path id="XMLID_1247_" class="st21" d="M311.3,98.9c0,31-25.1,56.1-56.1,56.1c-31,0-56.1-25.1-56.1-56.1
						c0-31,25.1-56.1,56.1-56.1C286.2,42.9,311.3,68,311.3,98.9z"/>
					<g id="XMLID_1248_">
						<circle id="XMLID_1249_" class="st21" cx="181" cy="130.9" r="43.7"/>
						<path id="XMLID_1250_" class="st21" d="M373.2,130.9c0,24.1-19.6,43.7-43.7,43.7s-43.7-19.6-43.7-43.7s19.6-43.7,43.7-43.7
							S373.2,106.7,373.2,130.9z"/>
					</g>
					<g id="XMLID_1251_">
						<path id="XMLID_1252_" class="st21" d="M233.1,87.8c0,18.7-15.2,33.9-33.9,33.9c-18.7,0-33.9-15.2-33.9-33.9
							c0-18.7,15.2-33.9,33.9-33.9C217.9,53.9,233.1,69.1,233.1,87.8z"/>
						<path id="XMLID_1253_" class="st21" d="M345.2,87.8c0,18.7-15.2,33.9-33.9,33.9c-18.7,0-33.9-15.2-33.9-33.9
							c0-18.7,15.2-33.9,33.9-33.9C330,53.9,345.2,69.1,345.2,87.8z"/>
					</g>
				</g>
				<g id="XMLID_1254_">
					<path id="XMLID_1255_" class="st32" d="M276.1,314.7c0,8.9-9.3,16.1-20.8,16.1c-11.5,0-20.8-7.2-20.8-16.1
						c0-8.9,9.3-16.1,20.8-16.1C266.8,298.6,276.1,305.8,276.1,314.7z"/>
					<path id="XMLID_1256_" class="st32" d="M286.5,330.9c0,11.5-14,20.8-31.2,20.8c-17.2,0-31.2-9.3-31.2-20.8
						c0-11.5,14-20.8,31.2-20.8C272.5,310.1,286.5,319.4,286.5,330.9z"/>
					<g id="XMLID_1257_">
						<path id="XMLID_1258_" class="st21" d="M276.9,308.3c-11.6,10.9-31.6,10.9-43.2,0c-8.2-7.7-20.6,4.6-12.4,12.4
							c18.7,17.6,49.3,17.6,67.9,0C297.5,313,285.1,300.6,276.9,308.3L276.9,308.3z"/>
					</g>
				</g>
				<g id="XMLID_1259_">
					<path id="XMLID_1260_" class="st85" d="M272.5,259.3c0,8.3-7.7,15-17.3,15l0,0c-9.5,0-17.3-6.7-17.3-15l-3.6-49.7
						c0-8.3,11.3-15,20.8-15l0,0c9.5,0,20.8,6.7,20.8,15L272.5,259.3z"/>
					<g id="XMLID_1261_">
						<g id="XMLID_1262_">
							<g id="XMLID_1266_">
								<g>
									<path id="XMLID_89_" class="st83" d="M250.2,282.8c0,3.9,0.9,9.2-1.1,12.7c-2.4,4.3-9.6,3-13.6,3c-5.9,0-5.9,9.1,0,9.1
										c7.2,0,14,0.6,19.6-5c5.3-5.3,4.3-13.1,4.3-19.9C259.3,276.9,250.2,276.9,250.2,282.8L250.2,282.8z"/>
								</g>
							</g>
							<g id="XMLID_1268_">
								<path id="XMLID_1271_" class="st83" d="M251.2,282.8c0,6.6-0.9,13.7,3.6,19.1c5.3,6.3,12.8,5.7,20.2,5.7
									c5.9,0,5.9-9.1,0-9.1c-4.4,0-9.8,1.1-13.1-2.3c-2.9-2.9-1.6-9.8-1.6-13.4C260.3,276.9,251.2,276.9,251.2,282.8L251.2,282.8z
									"/>
							</g>
						</g>
						<g id="XMLID_1272_">
							<g id="XMLID_1273_">
								<path class="st83" d="M260.3,289.6c0-3.9-0.9-9.2,1.1-12.7c2.4-4.3,9.6-3,13.6-3c5.9,0,5.9-9.1,0-9.1c-7.2,0-14-0.6-19.6,5
									c-5.3,5.3-4.3,13.1-4.3,19.9C251.2,295.5,260.3,295.5,260.3,289.6L260.3,289.6z"/>
							</g>
							<g id="XMLID_1274_">
								<path class="st83" d="M259.3,289.6c0-6.6,0.9-13.7-3.6-19.1c-5.3-6.3-12.8-5.7-20.2-5.7c-5.9,0-5.9,9.1,0,9.1
									c4.4,0,9.8-1.1,13.1,2.3c2.9,2.9,1.6,9.8,1.6,13.4C250.2,295.5,259.3,295.5,259.3,289.6L259.3,289.6z"/>
							</g>
						</g>
						<g id="XMLID_1281_">
							<g>
								<path id="XMLID_113_" class="st86" d="M244.3,268.5c1.6,5.9-0.3,11.2-4.2,11.8c-3.9,0.6-8.5-3.7-10.1-9.6
									c-1.6-5.9,0.3-11.2,4.2-11.8C238.2,258.3,242.7,262.6,244.3,268.5z"/>
								<path id="XMLID_112_" class="st86" d="M266.3,268.5c-1.6,5.9,0.3,11.2,4.2,11.8c3.9,0.6,8.5-3.7,10.1-9.6
									c1.6-5.9-0.3-11.2-4.2-11.8C272.4,258.3,267.9,262.6,266.3,268.5z"/>
							</g>
						</g>
					</g>
				</g>
				<g id="XMLID_1284_">
					<path id="XMLID_1285_" class="st0" d="M228.1,220.6c0,6.4-5.2,11.5-11.5,11.5c-6.4,0-11.5-5.2-11.5-11.5
						c0-6.4,5.2-11.5,11.5-11.5C223,209.1,228.1,214.3,228.1,220.6z"/>
					<path id="XMLID_1286_" class="st0" d="M305.5,220.6c0,6.4-5.2,11.5-11.5,11.5c-6.4,0-11.5-5.2-11.5-11.5
						c0-6.4,5.2-11.5,11.5-11.5C300.3,209.1,305.5,214.3,305.5,220.6z"/>
				</g>
			</g>
		</g>
	</g>
</g>
</svg>
