<?xml version="1.0" encoding="UTF-8" standalone="no"?>
<!-- Created with Inkscape (http://www.inkscape.org/) -->

<svg
   version="1.1"
   id="svg1"
   width="336.64648"
   height="336.92868"
   viewBox="0 0 336.64648 336.92868"
   xmlns="http://www.w3.org/2000/svg"
   xmlns:svg="http://www.w3.org/2000/svg">
  <defs
     id="defs1" />
  <g
     id="g1"
     transform="translate(-1.9345537,10.684188)">
    <path
       style="fill:#c1c5c9;fill-opacity:1"
       d="M 147.30008,324.78929 C 110.27423,319.71799 76.731394,302.73646 50.180104,275.62096 30.248684,255.266 18.077844,235.0404 9.3330643,207.74097 1.8454043,184.36605 -0.14790569,153.60943 4.2212143,128.86587 18.495814,48.024894 88.738124,-10.829169 170.77385,-10.68392 c 37.43792,0.06629 73.76832,12.5860327 103.02623,35.503665 8.14325,6.378582 22.81677,20.738069 28.58864,27.976812 16.59443,20.811746 29.22388,49.076153 33.99023,76.069313 2.9361,16.62793 2.9361,41.23345 0,57.86138 -9.29832,52.65895 -43.287,98.04246 -91.62198,122.33856 -28.39512,14.27312 -64.9669,20.17353 -97.45689,15.72348 z m 44.5,-5.60831 c 30.83736,-3.73228 62.93403,-18.21902 86.93411,-39.23745 l 4.9341,-4.32112 -2.1663,-3.04229 c -3.56538,-5.00712 -17.52447,-17.54534 -23.53362,-21.13817 -3.08589,-1.84504 -8.35251,-4.46208 -11.7036,-5.81564 -12.66128,-5.11412 -15.25655,-5.29502 -75.96469,-5.29502 -60.70814,0 -63.30341,0.1809 -75.964686,5.29502 -3.35109,1.35356 -8.65911,3.9706 -11.79561,5.81564 -5.79021,3.40608 -25.2397,21.5962 -25.2397,23.60541 0,1.59429 12.08055,11.46183 22.48203,18.3636 32.906796,21.8349 71.387756,30.68755 112.017966,25.77002 z m -10.5,-93.31211 c 55.8022,-10.10328 81.53474,-73.83048 48.5034,-120.11974 -15.49135,-21.709193 -44.01536,-34.141092 -70.30349,-30.641067 -39.34362,5.238246 -67.199906,36.613307 -67.199906,75.688497 0,47.44115 42.696266,83.45584 88.999996,75.07231 z"
       id="path1" />
  </g>
</svg>
